<?xml version="1.0" encoding="UTF-8"?> <svg xmlns="http://www.w3.org/2000/svg" width="16" height="16" viewBox="0 0 16 16" fill="none"> <path d="M15 7.5C15 9.22391 14.3152 10.8772 13.0962 12.0962C11.8772 13.3152 10.2239 14 8.5 14C6.77609 14 5.12279 13.3152 3.90381 12.0962C2.68482 10.8772 2 9.22391 2 7.5C2 5.77609 2.68482 4.12279 3.90381 2.90381C5.12279 1.68482 6.77609 1 8.5 1C10.2239 1 11.8772 1.68482 13.0962 2.90381C14.3152 4.12279 15 5.77609 15 7.5Z" fill="#FFFBF5"></path> <path d="M16 8C16 10.1217 15.1571 12.1566 13.6569 13.6569C12.1566 15.1571 10.1217 16 8 16C5.87827 16 3.84344 15.1571 2.34315 13.6569C0.842855 12.1566 0 10.1217 0 8C0 5.87827 0.842855 3.84344 2.34315 2.34315C3.84344 0.842855 5.87827 0 8 0C10.1217 0 12.1566 0.842855 13.6569 2.34315C15.1571 3.84344 16 5.87827 16 8V8ZM6.5 5C6.10218 5 5.72064 5.15804 5.43934 5.43934C5.15804 5.72064 5 6.10218 5 6.5V9.5C5 9.89782 5.15804 10.2794 5.43934 10.5607C5.72064 10.842 6.10218 11 6.5 11H9.5C9.89782 11 10.2794 10.842 10.5607 10.5607C10.842 10.2794 11 9.89782 11 9.5V6.5C11 6.10218 10.842 5.72064 10.5607 5.43934C10.2794 5.15804 9.89782 5 9.5 5H6.5Z" fill="#184B78"></path> </svg> 