<svg width="131" height="14" viewBox="0 0 131 14" fill="none" xmlns="http://www.w3.org/2000/svg">
<path d="M15.4255 0.262939V13.9999H13.174V5.12694C13.174 4.77227 13.193 4.38911 13.231 3.97744L9.07948 11.7769C8.88315 12.1506 8.58231 12.3374 8.17698 12.3374H7.81598C7.41065 12.3374 7.10981 12.1506 6.91348 11.7769L2.71448 3.94894C2.73348 4.15794 2.74931 4.36377 2.76198 4.56644C2.77465 4.76911 2.78098 4.95594 2.78098 5.12694V13.9999H0.52948V0.262939H2.45798C2.57198 0.262939 2.67015 0.266106 2.75248 0.27244C2.83481 0.278773 2.90765 0.294606 2.97098 0.31994C3.04065 0.345273 3.10081 0.38644 3.15148 0.44344C3.20848 0.50044 3.26231 0.576439 3.31298 0.671439L7.42648 8.29994C7.53415 8.50261 7.63231 8.71161 7.72098 8.92694C7.81598 9.14227 7.90781 9.36394 7.99648 9.59194C8.08515 9.35761 8.17698 9.13277 8.27198 8.91744C8.36698 8.69577 8.46831 8.48361 8.57598 8.28094L12.6325 0.671439C12.6831 0.576439 12.737 0.50044 12.794 0.44344C12.851 0.38644 12.9111 0.345273 12.9745 0.31994C13.0441 0.294606 13.1201 0.278773 13.2025 0.27244C13.2848 0.266106 13.383 0.262939 13.497 0.262939H15.4255Z" fill="#292929"/>
<path d="M31.0677 8.81294L29.3957 4.24344C29.3133 4.04077 29.2278 3.80011 29.1392 3.52144C29.0505 3.24277 28.9618 2.94194 28.8732 2.61894C28.7908 2.94194 28.7053 3.24594 28.6167 3.53094C28.528 3.80961 28.4425 4.05344 28.3602 4.26244L26.6977 8.81294H31.0677ZM35.5802 13.9999H33.6042C33.3825 13.9999 33.202 13.9461 33.0627 13.8384C32.9233 13.7244 32.8188 13.5851 32.7492 13.4204L31.7232 10.6179H26.0327L25.0067 13.4204C24.956 13.5661 24.8578 13.6991 24.7122 13.8194C24.5665 13.9398 24.386 13.9999 24.1707 13.9999H22.1757L27.5812 0.262939H30.1842L35.5802 13.9999Z" fill="#292929"/>
<path d="M48.9485 8.81294L47.2765 4.24344C47.1941 4.04077 47.1086 3.80011 47.02 3.52144C46.9313 3.24277 46.8426 2.94194 46.754 2.61894C46.6716 2.94194 46.5861 3.24594 46.4975 3.53094C46.4088 3.80961 46.3233 4.05344 46.241 4.26244L44.5785 8.81294H48.9485ZM53.461 13.9999H51.485C51.2633 13.9999 51.0828 13.9461 50.9435 13.8384C50.8041 13.7244 50.6996 13.5851 50.63 13.4204L49.604 10.6179H43.9135L42.8875 13.4204C42.8368 13.5661 42.7386 13.6991 42.593 13.8194C42.4473 13.9398 42.2668 13.9999 42.0515 13.9999H40.0565L45.462 0.262939H48.065L53.461 13.9999Z" fill="#292929"/>
<path d="M64.6671 7.16944C65.1358 7.16944 65.5443 7.11244 65.8926 6.99844C66.2409 6.87811 66.5291 6.71027 66.7571 6.49494C66.9914 6.27327 67.1656 6.00727 67.2796 5.69694C67.3936 5.38027 67.4506 5.02877 67.4506 4.64244C67.4506 4.27511 67.3936 3.94261 67.2796 3.64494C67.1656 3.34727 66.9946 3.09394 66.7666 2.88494C66.5386 2.67594 66.2504 2.51761 65.9021 2.40994C65.5538 2.29594 65.1421 2.23894 64.6671 2.23894H62.7576V7.16944H64.6671ZM64.6671 0.262939C65.5854 0.262939 66.3803 0.370606 67.0516 0.58594C67.7229 0.801273 68.2771 1.10211 68.7141 1.48844C69.1511 1.87477 69.4741 2.33711 69.6831 2.87544C69.8984 3.41377 70.0061 4.00277 70.0061 4.64244C70.0061 5.30744 69.8953 5.91861 69.6736 6.47594C69.4519 7.02694 69.1194 7.50194 68.6761 7.90094C68.2328 8.29994 67.6754 8.61027 67.0041 8.83194C66.3391 9.05361 65.5601 9.16444 64.6671 9.16444H62.7576V13.9999H60.2021V0.262939H64.6671Z" fill="#292929"/>
<path d="M79.9428 13.9999H77.3778V0.262939H79.9428V13.9999Z" fill="#292929"/>
<path d="M97.015 11.8909V13.9999H88.9685V0.262939H91.524V11.8909H97.015Z" fill="#292929"/>
<path d="M106.78 13.9999H104.215V0.262939H106.78V13.9999Z" fill="#292929"/>
<path d="M130.701 0.262939V13.9999H128.45V5.12694C128.45 4.77227 128.469 4.38911 128.507 3.97744L124.355 11.7769C124.159 12.1506 123.858 12.3374 123.453 12.3374H123.092C122.686 12.3374 122.386 12.1506 122.189 11.7769L117.99 3.94894C118.009 4.15794 118.025 4.36377 118.038 4.56644C118.05 4.76911 118.057 4.95594 118.057 5.12694V13.9999H115.805V0.262939H117.734C117.848 0.262939 117.946 0.266106 118.028 0.27244C118.111 0.278773 118.183 0.294606 118.247 0.31994C118.316 0.345273 118.377 0.38644 118.427 0.44344C118.484 0.50044 118.538 0.576439 118.589 0.671439L122.702 8.29994C122.81 8.50261 122.908 8.71161 122.997 8.92694C123.092 9.14227 123.184 9.36394 123.272 9.59194C123.361 9.35761 123.453 9.13277 123.548 8.91744C123.643 8.69577 123.744 8.48361 123.852 8.28094L127.908 0.671439C127.959 0.576439 128.013 0.50044 128.07 0.44344C128.127 0.38644 128.187 0.345273 128.25 0.31994C128.32 0.294606 128.396 0.278773 128.478 0.27244C128.561 0.266106 128.659 0.262939 128.773 0.262939H130.701Z" fill="#292929"/>
</svg>
