<?xml version="1.0" encoding="UTF-8"?> <svg xmlns="http://www.w3.org/2000/svg" width="128" height="34" fill="none"> <path d="M42.386 24.441h-3.164V10.565h3.163v5.324a9.28 9.28 0 0 1 1.519.126l4.344-5.492h3.585l-5.103 6.33c.632.252 1.18.587 1.687.964a8.02 8.02 0 0 1 1.56 1.594c.464.628.843 1.3 1.139 2.096.295.754.59 1.635.843 2.557l.084.335h-3.458l-.042-.21c-.253-1.09-.548-2.011-.928-2.724-.38-.713-.801-1.3-1.307-1.719a4.473 4.473 0 0 0-1.772-.922 10.512 10.512 0 0 0-2.15-.336v5.953zm46.265-3.94c-.38-.88-.548-1.887-.548-2.977 0-1.048.169-2.054.548-2.935.38-.88.886-1.677 1.518-2.347.633-.63 1.392-1.174 2.278-1.51.885-.377 1.813-.545 2.825-.545 1.055 0 2.025.168 2.868.545.844.378 1.56.88 2.151 1.51.591.628 1.012 1.383 1.308 2.222.295.838.464 1.802.464 2.767v.46c0 .168 0 .336-.043.504l-.042.251H91.266c.042.461.169.88.337 1.3.211.461.506.922.886 1.258.38.335.801.629 1.307.838a4.22 4.22 0 0 0 1.603.336c.886 0 1.645-.21 2.277-.587.633-.42 1.14-.88 1.477-1.384l.168-.21 2.32 1.677-.169.21a7.643 7.643 0 0 1-2.699 2.264 8.1 8.1 0 0 1-3.374.713 8.494 8.494 0 0 1-2.91-.503c-.886-.336-1.687-.839-2.32-1.51a8.041 8.041 0 0 1-1.518-2.347zm2.615-4.402h7.676c-.085-.923-.422-1.72-.97-2.348-.633-.67-1.519-1.006-2.7-1.006-.548 0-1.054.084-1.518.293-.464.21-.886.461-1.223.797a3.987 3.987 0 0 0-.843 1.174 3.853 3.853 0 0 0-.422 1.09zM128 0v34H0V0h128zM15.647 18.488H2.952v12.62h12.695v-12.62zm0-15.553H2.952v12.619h12.695V2.934zM31.25 18.488H18.6v12.62h12.695v-12.62h-.043zm0-15.553H18.6v12.619h12.695V2.934h-.043zm47.362 19.2a4.488 4.488 0 0 0 1.519-.377c.506-.251.97-.545 1.307-.964a4.51 4.51 0 0 0 .802-1.467 6.21 6.21 0 0 0 .295-1.803c0-.629-.085-1.258-.296-1.803a3.928 3.928 0 0 0-.8-1.425c-.338-.42-.802-.755-1.308-1.006a4.486 4.486 0 0 0-1.519-.377v9.223zm-2.952-9.223c-.548.042-1.054.168-1.476.378-.506.251-.928.545-1.307.964a4.51 4.51 0 0 0-.802 1.467 6.21 6.21 0 0 0-.295 1.803c0 .629.085 1.258.295 1.803.17.545.464 1.048.844 1.467.38.42.801.755 1.307.964.422.21.928.336 1.477.378v-9.223h-.043zm0-9.977H34.204v28.13h20.58c-.168-.042-.337-.042-.463-.084l-.253-.041.337-2.851.295.126c.211.083.422.125.633.167.211.042.464.084.717.084.59 0 1.055-.168 1.35-.503.337-.335.632-.88.885-1.551l.886-2.264-5.82-13.583h3.5l3.965 10.187 3.627-10.187h3.416l-6.031 15.26a53.94 53.94 0 0 1-.886 2.138 6.964 6.964 0 0 1-1.054 1.719c-.422.503-.886.88-1.476 1.174-.253.125-.548.21-.886.293H75.62v-6.288a7.681 7.681 0 0 1-2.615-.587 7.255 7.255 0 0 1-2.32-1.551c-.632-.63-1.138-1.426-1.518-2.306-.38-.88-.548-1.845-.548-2.851s.169-1.97.548-2.85a7.843 7.843 0 0 1 1.519-2.307 7.482 7.482 0 0 1 2.32-1.55 7.696 7.696 0 0 1 2.656-.588V2.935zm49.387 0H78.614v7.336c.97.042 1.855.21 2.699.545.885.378 1.687.88 2.32 1.551.632.63 1.138 1.426 1.518 2.306.38.88.548 1.845.548 2.851 0 1.048-.169 2.012-.548 2.893a7.84 7.84 0 0 1-1.519 2.306c-.632.628-1.434 1.132-2.32 1.509a7.937 7.937 0 0 1-2.698.587v6.288h26.612V10.565h3.078v1.719a5.361 5.361 0 0 1 1.814-1.384c.886-.461 1.856-.67 2.868-.67a7.36 7.36 0 0 1 2.91.586c.886.378 1.603.923 2.235 1.551a6.856 6.856 0 0 1 1.434 2.306c.337.88.506 1.845.506 2.851s-.169 1.97-.506 2.85c-.337.881-.801 1.678-1.434 2.307-.632.67-1.349 1.174-2.235 1.593a7.358 7.358 0 0 1-2.91.587c-.97 0-1.898-.21-2.784-.63a5.347 5.347 0 0 1-1.813-1.383v8.26h16.701V2.934h-.042zm-16.575 16.35a4.71 4.71 0 0 0 .886 1.467c.379.42.843.755 1.392.964.548.252 1.138.336 1.771.336.675 0 1.307-.126 1.856-.378.548-.251.97-.587 1.349-1.006.38-.419.633-.88.844-1.467.168-.545.295-1.174.295-1.76 0-.63-.084-1.217-.295-1.762a3.934 3.934 0 0 0-.844-1.467 4.527 4.527 0 0 0-1.349-1.006c-.549-.252-1.139-.377-1.856-.377-.633 0-1.223.125-1.771.335-.549.252-1.013.545-1.392.964a4.71 4.71 0 0 0-.886 1.468 5.072 5.072 0 0 0-.337 1.802c0 .755.126 1.342.337 1.887z" fill="#000"></path> </svg> 