<?xml version="1.0" encoding="UTF-8"?> <svg xmlns="http://www.w3.org/2000/svg" width="129" height="24" viewBox="0 0 129 24" fill="none"> <path d="M13.8312 19.841C13.8347 19.8996 13.7852 19.9319 13.6827 19.9381C13.6095 19.9424 13.5199 19.9184 13.4139 19.866C13.3079 19.8135 13.2226 19.7378 13.1579 19.6388C13.0259 19.3969 12.949 19.093 12.9271 18.727L12.8953 17.8253C13.19 15.1336 13.5644 12.4224 14.0184 9.69183C14.1805 8.9622 14.3082 8.27136 14.4015 7.6193C14.5094 6.96637 14.5728 6.55119 14.5916 6.37375C14.5889 6.32983 14.5463 6.35441 14.4637 6.4475C14.3949 6.52508 14.3274 6.62461 14.2612 6.74611C14.1941 6.85297 14.1692 6.92792 14.1864 6.97097L13.686 7.81631C13.6034 7.9094 13.4185 8.25838 13.1314 8.86324C12.9398 9.34485 12.764 9.72267 12.604 9.9967L12.0587 11.1974C11.6546 12.059 11.4066 12.5807 11.3146 12.7625C11.1814 12.9908 10.9918 13.3842 10.746 13.9425C10.6206 14.3026 10.382 14.7356 10.0302 15.2415C9.92266 15.4095 9.81603 15.5922 9.71027 15.7895C9.61915 15.986 9.5607 16.1144 9.53492 16.1747C9.53929 16.2479 9.40043 16.506 9.11834 16.9489C8.85089 17.391 8.60102 17.7585 8.36875 18.0515C8.053 18.423 7.79014 18.6959 7.58015 18.87C7.36928 19.0295 7.16869 19.115 6.97836 19.1264C6.72947 19.1412 6.45031 19.0183 6.14089 18.7576C5.93832 18.564 5.7848 18.3308 5.68034 18.0578C5.59052 17.784 5.53337 17.4422 5.50889 17.0322C5.48703 16.6662 5.50154 16.0483 5.55243 15.1783C5.5627 15.1043 5.655 14.3127 5.82934 12.8036C6.01744 11.279 6.1364 10.4418 6.18622 10.2919C6.19561 10.2032 6.19681 10.1002 6.18981 9.9831C6.18194 9.85134 6.15605 9.78677 6.11213 9.78939C6.0682 9.79202 5.99336 9.89199 5.88761 10.0893C5.84718 10.1505 5.60814 10.5762 5.17047 11.3663C4.74745 12.1556 4.3005 13.1594 3.82963 14.3776C3.07404 15.9949 2.51489 17.2111 2.15218 18.0261C1.78859 18.8266 1.52168 19.4009 1.35147 19.749C1.13144 20.247 1.00077 20.5192 0.959473 20.5658C0.739865 20.5789 0.450763 20.4125 0.092168 20.0666C0.0429995 19.9814 0.016229 19.9022 0.0118567 19.829C0.00573548 19.7265 0.039601 19.5555 0.113453 19.316C0.201946 19.0756 0.322667 18.7599 0.475618 18.3687C0.876134 17.4485 1.1461 16.9255 1.28551 16.7996C1.4472 16.5549 1.53438 16.2926 1.54705 16.0126C1.72164 15.7377 1.96407 15.2458 2.27434 14.5367C2.47296 14.1722 2.70294 13.7176 2.96427 13.1731C3.24024 12.6277 3.48092 12.1064 3.68631 11.6093L4.23695 10.4965C4.74846 9.46679 5.15641 8.67105 5.46079 8.10924C5.77981 7.54655 6.02192 7.17211 6.18711 6.98593C6.40474 6.69377 6.50875 6.46717 6.49913 6.30612C6.48077 5.99867 6.52272 5.717 6.62497 5.46112C6.741 5.18971 6.86577 5.06472 6.99928 5.08613C7.17497 5.07564 7.31537 5.08929 7.42047 5.12709C7.53935 5.14938 7.66172 5.23022 7.78759 5.36963C7.81949 5.41181 7.86779 5.48239 7.93247 5.58137C8.01092 5.66484 8.06828 5.76427 8.10456 5.87964C8.1546 5.9795 8.18444 6.10996 8.19405 6.271C8.20455 6.44669 8.1957 6.66761 8.16752 6.93376C8.16425 7.12497 8.13148 7.56036 8.06923 8.23995C8.0299 8.56554 8.01242 8.76494 8.0168 8.83814C7.70522 10.0175 7.44774 11.4874 7.24435 13.248C7.05473 14.9931 6.9809 16.217 7.02288 16.9198C7.0325 17.0808 7.05369 17.1898 7.08647 17.2466C7.19333 17.3136 7.28161 17.3157 7.35132 17.2528C7.43566 17.189 7.54874 16.9912 7.69055 16.6595C7.85989 16.2968 8.15487 15.8237 8.5755 15.2402C8.60216 15.1945 8.85879 14.6944 9.3454 13.7396C10.5603 11.4485 11.7381 9.15216 12.879 6.85071L13.3962 5.91621C13.5948 5.55172 13.7878 5.21695 13.9753 4.91189C14.1619 4.5922 14.3112 4.38493 14.423 4.29009C14.5624 4.16422 14.698 4.09735 14.8298 4.08948C15.108 4.07287 15.3669 4.22637 15.6066 4.54999C15.8464 4.8736 15.9815 5.29162 16.0121 5.80404C16.0357 6.19934 15.9915 6.81173 15.8794 7.64122C15.7665 8.45607 15.6027 9.2813 15.3882 10.1169C15.3248 10.5321 15.231 11.052 15.1066 11.6765C14.9823 12.301 14.8472 12.8674 14.7012 13.3757C14.6868 13.6263 14.6471 13.9446 14.5819 14.3305C14.5717 14.4046 14.5413 14.6341 14.4908 15.0191C14.4541 15.3886 14.4544 15.6384 14.4915 15.7684C14.2955 16.1768 14.2329 16.974 14.3038 18.1599L14.2681 18.6689C14.2633 19.0806 14.2506 19.3605 14.2301 19.5087C14.2095 19.6568 14.1695 19.7253 14.1101 19.7142C14.0799 19.7013 14.0356 19.6966 13.977 19.7001C13.8745 19.7062 13.8259 19.7532 13.8312 19.841Z" fill="#428DFC"></path> <path d="M17.3605 17.779C17.3113 17.6937 17.2329 17.6103 17.1251 17.5285C17.0312 17.4313 16.9833 17.368 16.9816 17.3388C16.9719 17.1777 16.9279 17.0555 16.8495 16.972C16.8184 16.9445 16.7998 16.8794 16.7937 16.777C16.7797 16.5427 16.8659 16.1409 17.0523 15.5714C17.2525 14.9864 17.5159 14.3536 17.8425 13.6729C17.9251 13.5798 18.0257 13.4195 18.1444 13.1921C18.2777 12.9637 18.3654 12.8336 18.4076 12.8017C18.4041 12.7431 18.423 12.6905 18.4643 12.644C18.5047 12.5828 18.5542 12.5505 18.6128 12.547L18.6049 12.4152C18.597 12.2834 18.8198 11.9542 19.2732 11.4276C19.7257 10.8863 20.1 10.5113 20.3961 10.3027C20.7473 10.0319 21.1132 9.88516 21.4938 9.86243C21.7574 9.84669 21.9887 9.90634 22.1877 10.0414C22.2662 10.1248 22.6217 10.4195 23.2543 10.9254L24.1102 11.6015L23.7805 12.7232C23.6723 13.1263 23.6278 13.489 23.6471 13.8111C23.6803 14.3674 23.8733 14.8922 24.226 15.3854C24.3088 15.542 24.4644 15.687 24.6927 15.8203C24.9211 15.9536 25.146 16.0283 25.3673 16.0445C25.6929 16.0838 25.8636 16.2352 25.8793 16.4988C25.8968 16.7916 25.7755 16.9751 25.5155 17.0494C25.4578 17.0676 25.3704 17.0801 25.2533 17.0871C24.3895 17.1387 23.6065 16.5757 22.9044 15.3982C22.8406 15.3138 22.7504 15.1576 22.634 14.9295C22.5321 14.7005 22.4713 14.5425 22.4514 14.4555C22.3705 14.5779 22.269 14.7235 22.1469 14.8924C22.0247 15.0614 21.9086 15.2079 21.7985 15.332C20.298 17.0231 19.0865 17.8962 18.1642 17.9513C17.8714 17.9688 17.6035 17.9114 17.3605 17.779ZM18.0776 16.5019C18.082 16.5751 18.1565 16.5927 18.3012 16.5547C18.4605 16.5158 18.6464 16.4312 18.859 16.301C19.0863 16.1699 19.3113 16.0021 19.5342 15.7978C20.7286 14.6392 21.5799 13.6407 22.0882 12.8022L22.5241 11.9828C22.3593 11.6841 22.1925 11.4736 22.0236 11.3515C21.8538 11.2147 21.703 11.1502 21.5712 11.1581C21.2638 11.1765 20.8038 11.5933 20.1913 12.4086C19.578 13.2093 19.0315 14.1455 18.5519 15.2174C18.435 15.4741 18.3331 15.7373 18.2464 16.007C18.1588 16.262 18.1025 16.427 18.0776 16.5019Z" fill="#428DFC"></path> <path d="M26.1034 23.009C25.9863 23.016 25.8872 22.9558 25.8061 22.8284C25.7268 22.7303 25.6827 22.608 25.674 22.4616C25.6679 22.3591 25.6896 22.1081 25.7392 21.7084C25.8635 21.0839 25.9187 20.6545 25.9047 20.4202C25.9003 20.347 25.9084 20.2363 25.9289 20.0882C25.9503 19.9547 25.9649 19.8289 25.9725 19.7109C26.0249 19.6049 26.0666 19.4408 26.0974 19.2186C26.1437 19.0101 26.162 18.8254 26.1524 18.6643C26.1481 18.5911 26.1648 18.502 26.2026 18.3969C26.2559 18.3055 26.3174 18.2284 26.3871 18.1654C26.3818 18.0776 26.3959 17.9445 26.4294 17.7662C26.4619 17.5733 26.4833 17.4398 26.4936 17.3657C26.5432 16.966 26.7727 16.012 27.1822 14.5035C27.5916 12.9951 27.9449 11.7765 28.2421 10.8478C28.3813 10.4722 28.4783 10.1285 28.5331 9.81664C28.588 9.50482 28.6102 9.26107 28.5997 9.08538C28.5962 9.02682 28.6077 8.9747 28.6344 8.92903C28.6748 8.86784 28.7363 8.7907 28.8189 8.69761C28.9153 8.58901 29.0074 8.53208 29.0952 8.52684C29.1684 8.52246 29.2507 8.54694 29.3421 8.60025C29.4334 8.65357 29.5252 8.7142 29.6174 8.78216C29.7131 8.90868 29.7864 9.02919 29.8373 9.14369C29.9029 9.25732 29.9396 9.38001 29.9475 9.51178C29.9501 9.5557 29.9438 9.69566 29.9285 9.93166C29.9468 10.2391 29.8963 10.4993 29.7767 10.7121C29.6563 10.9103 29.6103 11.0012 29.6388 10.9848C30.2792 10.638 30.8557 10.4493 31.3681 10.4187C31.983 10.382 32.4706 10.5512 32.8309 10.9264C33.2059 11.3007 33.4122 11.8026 33.4498 12.4322C33.4656 12.6957 33.4043 13.0226 33.266 13.4129C33.1414 13.7876 33.0099 14.0453 32.8714 14.1858C32.7835 14.191 32.6756 14.3517 32.5475 14.6679C32.3712 14.9135 32.0713 15.1812 31.6478 15.471C31.2235 15.7461 30.9217 15.8597 30.7425 15.8116C30.7279 15.8125 30.7063 15.8211 30.6779 15.8375C30.6495 15.8539 30.6371 15.8913 30.6406 15.9499C30.6441 16.0085 30.4017 16.1331 29.9136 16.3239C29.4254 16.5147 29.0203 16.6197 28.6982 16.6389C28.5225 16.6494 28.3903 16.65 28.3016 16.6406C28.212 16.6166 28.1211 16.5706 28.0289 16.5026C27.9325 16.6112 27.887 16.7094 27.8922 16.7973C27.9018 16.9583 27.8461 17.2555 27.7251 17.6888C27.604 18.1222 27.4996 18.3414 27.4117 18.3467C27.398 18.3622 27.3777 18.3928 27.3511 18.4385C27.3391 18.4833 27.3641 18.5332 27.4262 18.5883C27.4288 18.6322 27.4276 18.7351 27.4226 18.897C27.4175 19.0589 27.3884 19.1856 27.3351 19.2769C27.3429 19.4087 27.3315 19.5857 27.3006 19.8079C27.2707 20.0448 27.23 20.2235 27.1784 20.3441C27.1889 20.5198 27.1697 20.6899 27.1207 20.8545C27.0873 21.0328 27.0413 21.1237 26.9827 21.1272C26.8966 21.1617 26.8654 21.3766 26.889 21.7719C26.8962 22.1388 26.8401 22.4287 26.7206 22.6415C26.601 22.8544 26.4534 22.966 26.2778 22.9765L26.1034 23.009ZM28.4969 15.4829C28.7165 15.4698 29.1492 15.3337 29.7949 15.0748C30.4544 14.8003 30.9093 14.5454 31.1597 14.31C31.4514 14.0281 31.6837 13.7351 31.8565 13.4309C32.0285 13.1121 32.1053 12.799 32.0869 12.4915C32.0729 12.2573 31.9944 12.0489 31.8513 11.8665C31.7392 11.7115 31.5587 11.6415 31.3098 11.6564C31.017 11.6739 30.6717 11.7973 30.274 12.0268C29.891 12.2554 29.5411 12.5481 29.2245 12.9049C28.9767 13.1842 28.7652 13.5788 28.59 14.0889C28.4138 14.5842 28.3341 14.971 28.3507 15.2492C28.3603 15.4102 28.4091 15.4881 28.4969 15.4829Z" fill="#428DFC"></path> <path d="M36.9373 7.74989C36.8287 7.65353 36.7304 7.48309 36.6423 7.23857C36.5542 6.99405 36.5468 6.86961 36.62 6.86523C36.7363 6.8436 36.8606 6.71128 36.993 6.46829C37.1392 6.20978 37.2001 6.00044 37.1759 5.84027C37.1724 5.78171 37.1913 5.72915 37.2326 5.68261C37.273 5.62142 37.3221 5.58176 37.3797 5.56362C37.4925 5.48342 37.5928 5.4407 37.6806 5.43545C37.9295 5.42059 38.167 5.58272 38.3929 5.92185C38.4921 6.10693 38.5461 6.27268 38.5548 6.41908C38.5627 6.55085 38.5344 6.69212 38.47 6.8429C38.4046 6.97903 38.2834 7.16259 38.1061 7.39357C37.8774 7.74517 37.6532 7.92752 37.4336 7.94064C37.2872 7.94939 37.1217 7.8858 36.9373 7.74989ZM35.3397 16.7932C35.1224 16.6005 35.0025 16.3138 34.9797 15.9332C34.9675 15.7282 34.9936 15.5503 35.0581 15.3995C35.0537 15.3263 35.0631 15.2376 35.0862 15.1334C35.1094 15.0292 35.1201 14.9624 35.1184 14.9331C35.0985 14.8462 35.1426 14.6011 35.2508 14.1979C35.4793 13.5966 35.769 12.5434 36.1199 11.0385C36.1156 10.9653 36.1413 10.905 36.1973 10.8575C36.2523 10.7955 36.338 10.7536 36.4543 10.732C36.5696 10.6957 36.6493 10.6763 36.6932 10.6736C36.781 10.6684 36.8564 10.7006 36.9194 10.7703C36.9961 10.8245 37.0982 10.936 37.2258 11.1047C37.3189 11.1873 37.3707 11.3164 37.3812 11.4921C37.3978 11.7703 37.3228 12.1127 37.1561 12.5193C36.9911 12.9553 36.8885 13.3287 36.8483 13.6397C36.6962 14.0455 36.579 14.4198 36.4966 14.7626C36.4726 14.8522 36.4392 15.0305 36.3964 15.2976C36.3535 15.5646 36.2857 15.7817 36.1928 15.9489C36.1295 16.364 36.066 16.6543 36.0024 16.8198C35.9388 16.9852 35.8631 17.0705 35.7753 17.0758C35.6728 17.0819 35.5276 16.9877 35.3397 16.7932Z" fill="#428DFC"></path> <path d="M39.5811 17.135C39.2444 17.1551 38.9898 17.0748 38.8174 16.8941C38.6734 16.697 38.55 16.4766 38.4473 16.233C38.4705 16.1287 38.516 16.0305 38.584 15.9383C38.6511 15.8314 38.7358 15.7749 38.8383 15.7688C38.8969 15.7653 38.9641 15.7833 39.0399 15.8229C39.0692 15.8211 39.0993 15.834 39.1304 15.8616C39.1614 15.8891 39.1997 15.9162 39.2454 15.9429C39.7154 15.6944 40.101 15.3848 40.4021 15.0142C40.7179 14.6427 41.0619 14.13 41.4342 13.476C41.181 13.4176 40.9251 13.3154 40.6666 13.1692C40.4227 13.0221 40.2443 12.8638 40.1313 12.6943C39.9864 12.4825 39.8751 12.2173 39.7973 11.8988C39.7195 11.5802 39.672 11.3993 39.6547 11.3563C39.7054 11.221 39.777 10.9449 39.8697 10.528C39.9143 10.2903 39.9679 10.0813 40.0306 9.90129C40.0933 9.72123 40.2055 9.50883 40.3672 9.26409C40.5693 8.95816 40.8606 8.66894 41.241 8.39644C41.6206 8.1093 41.8909 7.96092 42.0519 7.9513C42.1717 7.98823 42.3254 7.97905 42.5131 7.92376C42.7146 7.85295 42.8601 7.82957 42.9497 7.8536C43.0091 7.86474 43.0608 7.869 43.1047 7.86638C43.1478 7.84912 43.1917 7.84649 43.2365 7.85851C43.681 7.92012 44.032 8.01669 44.2897 8.14823C44.5464 8.26513 44.721 8.48244 44.8135 8.80016C44.7903 8.9044 44.7573 9.09003 44.7145 9.35706C44.6708 9.60944 44.6185 9.84031 44.5575 10.0496C44.4965 10.259 44.4201 10.4546 44.3281 10.6364L44.0973 11.2011C43.8653 11.7439 43.6615 12.1455 43.4861 12.4057L43.5379 12.5349C43.7308 12.5674 43.9233 12.5926 44.1154 12.6106C44.3212 12.613 44.4612 12.6193 44.5353 12.6296C44.7136 12.663 44.8872 12.7408 45.0561 12.8629C45.225 12.9851 45.3401 13.0664 45.4013 13.1068L45.4065 13.1946C45.4118 13.2825 45.3882 13.3794 45.3357 13.4854C45.181 13.8472 45.0577 14.1191 44.9657 14.3009C44.9004 14.437 44.8226 14.6106 44.7323 14.8217C44.6412 15.0182 44.545 15.2516 44.4436 15.5222C44.4049 15.6126 44.3642 15.7914 44.3213 16.0584C44.2381 16.3866 44.1905 16.5731 44.1784 16.6179C44.027 16.7886 43.9293 16.8752 43.8854 16.8779C43.8708 16.8787 43.8411 16.8732 43.7963 16.8612C43.7506 16.8345 43.6838 16.8238 43.596 16.829C43.3884 16.7974 43.2428 16.6959 43.1591 16.5245C43.1409 16.4669 43.1 16.3958 43.0361 16.3115C42.9861 16.2116 42.9589 16.1251 42.9545 16.0519C42.9449 15.8909 43.0063 15.6888 43.1387 15.4458C43.2032 15.2951 43.2852 15.0698 43.3849 14.77C43.4338 14.6054 43.5219 14.3577 43.649 14.0269C43.6766 13.9959 43.6963 13.9579 43.7083 13.9132C43.7204 13.8684 43.7251 13.824 43.7224 13.7801L43.5687 13.7893L42.9033 13.7188C42.8612 13.7507 42.7841 13.8141 42.6723 13.9089C42.5595 13.9891 42.4787 14.1115 42.4297 14.276C42.3746 14.3381 42.246 14.5221 42.0439 14.828C41.9115 15.071 41.7489 15.3011 41.5562 15.5183C41.1037 16.0596 40.7384 16.4634 40.4605 16.7298C40.1524 16.9833 39.8593 17.1183 39.5811 17.135ZM41.9436 12.4097C42.0736 12.3725 42.3063 12.0868 42.6417 11.5525C42.9771 11.0183 43.1628 10.6839 43.1989 10.5495C43.2496 10.4143 43.3363 10.1446 43.4591 9.74059C43.5819 9.33655 43.6738 9.02986 43.7348 8.82051C43.5366 8.70012 43.3643 8.64429 43.2179 8.65304C43.1739 8.65566 43.0512 8.69237 42.8498 8.76318C41.771 9.15086 41.1093 9.88094 40.8648 10.9534C40.8323 11.1464 40.8212 11.3307 40.8317 11.5064C40.8492 11.7992 40.93 12.0441 41.074 12.2412C41.2171 12.4237 41.4058 12.5079 41.64 12.4939C41.7425 12.4878 41.8437 12.4597 41.9436 12.4097Z" fill="#428DFC"></path> <path d="M62.9739 6.41515C63.0392 6.27901 62.9864 6.50256 62.8156 7.08578C62.7795 7.22017 62.6834 7.57854 62.5272 8.16089C62.3856 8.74237 62.3252 9.08391 62.3459 9.18552C62.3521 9.288 62.3211 9.38535 62.2532 9.47757C62.1852 9.56978 62.1384 9.64605 62.1126 9.70636C62.1722 9.96727 62.0545 10.7016 61.7593 11.9093C61.671 12.3995 61.5515 13.1045 61.4008 14.0245C61.2638 14.9289 61.1937 15.4767 61.1904 15.668C61.193 15.7119 61.1759 15.7937 61.1389 15.9135C61.102 16.0332 61.1223 16.1275 61.1999 16.1963C61.0607 16.572 61.0093 16.8175 61.0455 16.9328C61.0613 17.1964 61.0197 17.3605 60.9207 17.4252C60.8226 17.5045 60.6925 17.5416 60.5306 17.5366C60.3842 17.5454 60.2817 17.5515 60.2232 17.555L59.503 16.9368C59.5019 16.6724 59.5318 16.3107 59.5925 15.8515C59.6465 15.5251 59.6695 15.296 59.6616 15.1642C59.6736 15.1194 59.6959 15.0005 59.7285 14.8076C59.7602 14.6 59.7892 14.3485 59.8157 14.053C59.8412 13.743 59.8405 13.4859 59.8137 13.2818C59.8851 13.2481 59.9553 13.1925 60.0241 13.1149C60.092 13.0227 60.1307 12.9323 60.1401 12.8435L60.3315 11.62C60.3599 11.6036 60.4182 11.3503 60.5065 10.8602C60.6094 10.3692 60.6845 10.0267 60.7317 9.83292C60.7607 9.58141 60.7881 9.42549 60.8139 9.36518C60.751 9.29548 60.6774 9.29253 60.593 9.35634C60.34 9.54777 60.1058 9.68664 59.8906 9.77296C59.7462 10.0607 59.471 10.4959 59.065 11.0785C58.7785 11.4482 58.5626 11.7697 58.4173 12.0428C58.2978 12.2557 57.7751 12.8526 56.8493 13.8335C55.9235 14.8145 55.3711 15.4058 55.1921 15.6075L54.2383 16.6121C53.9923 16.9207 53.6303 17.1333 53.1524 17.25C52.8611 17.047 52.6836 16.9033 52.6198 16.819C52.5568 16.7493 52.4805 16.5775 52.3906 16.3037C52.5257 16.1047 52.6285 15.981 52.6991 15.9327C52.8962 15.7887 53.3071 15.4115 53.9318 14.8012C54.5565 14.1908 55.0207 13.7223 55.3245 13.3956L56.3982 12.1855C56.7011 11.8441 56.8525 11.6735 56.8525 11.6735C57.0323 11.4864 57.1907 11.308 57.3274 11.1382C57.4633 10.9538 57.6324 10.7086 57.8345 10.4027C57.4779 10.3358 57.1113 10.2255 56.7348 10.0716C56.3729 9.91695 56.1213 9.76301 55.9799 9.60983C55.3558 9.00063 55.0145 8.20556 54.9559 7.22464C54.9122 6.49262 55.0166 5.78112 55.2692 5.09017C55.3782 4.70164 55.4929 4.40828 55.6133 4.21008C55.7484 4.01101 55.9264 3.79468 56.1476 3.56108C56.4367 3.23526 56.6083 3.034 56.6625 2.9573C57.0342 2.5384 57.4404 2.20558 57.8811 1.95887C58.321 1.69751 58.8849 1.4214 59.5728 1.13053C59.7742 1.05973 59.9963 0.965652 60.2391 0.848302C60.4423 0.806778 60.7773 0.757384 61.2441 0.700121C61.7255 0.641983 62.0901 0.598161 62.3382 0.568654C62.563 0.643381 62.7065 0.708275 62.7685 0.763339C62.8452 0.817529 62.9215 0.864399 62.9973 0.903949L63.3936 0.527654C63.4393 0.554311 63.5526 0.606315 63.7335 0.683665C63.9291 0.760141 64.0971 0.867646 64.2376 1.00618C64.3773 1.13008 64.4674 1.28631 64.5081 1.47489C64.1816 2.40534 63.9136 3.20742 63.7041 3.88111C63.4937 4.54016 63.2503 5.38484 62.9739 6.41515ZM61.455 6.81442C61.9503 5.0217 62.1688 4.25197 62.1105 4.50523C62.1671 4.22269 62.2456 3.93883 62.3461 3.65367C62.4809 3.20483 62.6243 2.65264 62.7761 1.99708C62.6649 1.8568 62.4409 1.79671 62.1042 1.81682C61.8699 1.83082 61.5212 1.89573 61.0579 2.01155C60.1607 2.24146 59.262 2.69184 58.3617 3.36271C57.4761 4.03271 56.882 4.78814 56.5796 5.62899C56.4542 5.98911 56.3636 6.31776 56.3079 6.61495C56.266 6.89662 56.2611 7.18342 56.2932 7.47536C56.3072 7.70961 56.3336 7.90638 56.3725 8.06568C56.4252 8.20946 56.5007 8.36657 56.5991 8.53701C56.6172 8.5947 56.6431 8.65927 56.6767 8.73072C56.7095 8.78754 56.7432 8.85899 56.7777 8.94508C56.7976 9.03205 56.8825 9.10045 57.0324 9.15026C57.1969 9.19921 57.367 9.21843 57.5427 9.20794C57.6159 9.20357 57.7249 9.18237 57.8695 9.14434C57.9987 9.09255 58.1997 9.01442 58.4726 8.90997C58.7602 8.80463 59.0185 8.70105 59.2475 8.59922C59.4756 8.48274 59.6882 8.3525 59.8853 8.20849C60.0558 8.11015 60.2288 8.05574 60.4045 8.04524C60.668 8.0295 60.8851 8.09735 61.0558 8.24877L61.2193 7.66599L61.455 6.81442Z" fill="#428DFC"></path> <path d="M70.7241 17.4126C70.5926 17.6703 70.4243 17.8052 70.2193 17.8174C70.029 17.8288 69.8304 17.7011 69.6234 17.4343C69.6112 17.2293 69.6814 16.8064 69.8342 16.1655C69.8582 16.0759 69.9669 15.8049 70.1603 15.3526C70.3674 14.8847 70.467 14.5849 70.4592 14.4532L70.4566 14.4092C70.4531 14.3507 70.4285 14.3081 70.3828 14.2814C70.3518 14.2539 70.3074 14.2492 70.2497 14.2673C70.2204 14.2691 70.149 14.3027 70.0354 14.3683C69.9209 14.4192 69.8279 14.4615 69.7564 14.4951C69.3295 14.7263 69.0574 14.8454 68.9403 14.8524C68.6132 15.0336 68.1982 15.22 67.6954 15.4116L67.2434 15.5929C66.5123 15.6513 65.9843 15.6681 65.6596 15.6434C65.334 15.6041 65.0644 15.5174 64.8507 15.3832C64.3776 15.0882 64.1222 14.626 64.0846 13.9964L64.0921 13.7535C64.0972 13.5916 64.1486 13.3461 64.2465 13.017C64.3581 12.6724 64.4458 12.4174 64.5094 12.252C64.885 11.4068 65.1354 10.6792 65.2606 10.0693L65.3867 9.59896C65.5834 8.95542 65.6847 8.56001 65.6905 8.41273C65.7366 7.9545 65.9534 7.6477 66.3408 7.49232C66.5484 7.524 66.8047 7.63358 67.1098 7.82106C67.1719 7.87612 67.2068 7.96954 67.2147 8.1013C67.2252 8.27699 67.1837 8.56598 67.0902 8.96827C67.0301 9.19225 66.8428 9.74707 66.5284 10.6327L66.2075 11.5335C66.1088 11.8479 66.0165 12.1473 65.9306 12.4316C65.8447 12.7159 65.7717 12.97 65.7117 13.194L65.476 14.0455C65.4631 14.0757 65.458 14.1127 65.4606 14.1567C65.4685 14.2884 65.5556 14.3934 65.7219 14.4716C65.8864 14.5206 66.0785 14.5385 66.2981 14.5254C66.5909 14.5079 66.8957 14.4456 67.2126 14.3385C67.5432 14.2159 67.8221 14.0891 68.0494 13.958C68.2913 13.826 68.4109 13.738 68.4083 13.6941C68.4168 13.5907 68.4442 13.4348 68.4905 13.2264C68.5369 13.0179 68.5961 12.7793 68.6682 12.5105C68.7549 12.2408 68.8228 12.0237 68.8717 11.8592L69.1087 11.0296L69.6186 9.23599C69.5968 8.86998 69.6499 8.52887 69.7779 8.21268C69.9206 7.89561 70.0991 7.68659 70.3135 7.58563L70.4672 7.57645C70.6722 7.56421 70.8212 7.59938 70.9143 7.68198C70.9453 7.70951 71.0074 7.76458 71.1005 7.84717C71.2073 7.91425 71.2858 7.99773 71.3358 8.09759C71.3996 8.18193 71.4423 8.28223 71.464 8.39848C71.4235 8.45967 71.3793 8.57985 71.3312 8.75904C71.2978 8.93735 71.2544 9.07217 71.2011 9.16351C71.0154 9.49785 70.9355 9.75974 70.9615 9.9492C70.9744 9.91904 70.8877 10.1887 70.7013 10.7581C70.5123 11.2837 70.4371 11.5012 70.4758 11.4108L69.9399 13.1398L70.6594 13.0087C70.7033 13.006 70.7985 13.0003 70.9449 12.9916C71.1059 12.982 71.2537 12.9952 71.3881 13.0312C71.5362 13.0518 71.6788 13.102 71.8158 13.182C71.8744 13.1785 71.9399 13.2921 72.0125 13.5229C72.0988 13.7381 72.1597 13.8961 72.1951 13.9969C72.1068 14.487 71.7438 15.4196 71.1059 16.7948C71.0406 16.9309 70.9133 17.1369 70.7241 17.4126Z" fill="#428DFC"></path> <path d="M79.4949 6.68461C79.626 6.91186 79.6999 7.16457 79.7165 7.44274C79.7428 7.88196 79.6492 8.28425 79.436 8.64962C79.3018 8.86333 79.1884 9.17865 79.0958 9.59558C79.0178 10.0116 78.9481 10.5668 78.8867 11.261C78.7882 11.8252 78.6783 12.6913 78.557 13.8593C78.3595 14.4882 78.2407 14.9581 78.2005 15.2691C78.1911 15.3578 78.1288 15.5452 78.0136 15.8312C77.9131 16.1164 77.8311 16.3417 77.7675 16.5071C77.2673 17.7271 76.6701 18.6737 75.9756 19.347C75.2812 20.0202 74.5038 20.4119 73.6435 20.5221C73.411 20.5654 73.2728 20.5883 73.2289 20.5909C73.0971 20.5988 72.9714 20.5843 72.8516 20.5474C72.7465 20.5096 72.6259 20.458 72.4898 20.3927C72.4295 20.3669 72.3459 20.3204 72.239 20.2534C72.1322 20.1863 72.0555 20.1321 72.0089 20.0908C71.9779 20.0633 71.9611 20.0275 71.9584 19.9836C71.9541 19.9104 71.9936 19.8346 72.0771 19.7561C72.1606 19.6777 72.2975 19.6328 72.4878 19.6214C72.5938 19.6738 72.7712 19.6926 73.0201 19.6778C73.269 19.6629 73.4136 19.6249 73.4541 19.5637C73.4816 19.5327 73.5664 19.4762 73.7084 19.3942C73.8513 19.3269 74.0166 19.2656 74.2043 19.2103C74.6451 18.9636 75.0306 18.6541 75.361 18.2817C75.7069 17.9231 76.0179 17.4711 76.2938 16.9257C76.6266 16.3475 76.838 15.8279 76.928 15.3671C77.0414 15.0518 77.1616 14.6038 77.2886 14.0232C77.4293 13.4271 77.5369 12.8917 77.6114 12.4171L77.3416 12.6977C77.2737 12.7899 77.0985 12.9326 76.8162 13.1258C76.533 13.3043 76.3621 13.3953 76.3036 13.3988C76.2889 13.3997 76.2674 13.4083 76.239 13.4247C76.2106 13.4411 76.1977 13.4713 76.2003 13.5152C76.2038 13.5738 76.0192 13.6803 75.6464 13.8348C75.2727 13.9746 75.0347 14.0476 74.9322 14.0538C74.7858 14.0625 74.6204 13.9989 74.4359 13.863C74.2653 13.7116 74.139 13.5648 74.057 13.4228C74.007 13.323 73.9414 13.2093 73.8603 13.0819C73.7793 12.9545 73.7133 12.8336 73.6623 12.7191C73.6106 12.59 73.5798 12.4449 73.5702 12.2838C73.5589 12.0935 73.5648 11.9462 73.5879 11.842C73.7243 11.1727 73.9615 10.2255 74.2998 9.00047C74.6526 7.77459 74.9288 6.98672 75.1283 6.63687C75.2358 6.46883 75.3701 6.38 75.5311 6.37038C75.7507 6.35726 75.9334 6.46389 76.0792 6.69027C76.2215 6.85809 76.2961 7.00056 76.3031 7.11768C76.3083 7.20553 76.2792 7.33216 76.2156 7.49758C76.152 7.66299 76.0682 7.85901 75.9642 8.08561C75.9152 8.25015 75.8525 8.43021 75.776 8.62579C75.6996 8.82136 75.6627 8.94111 75.6653 8.98503C75.6541 9.04447 75.6211 9.2301 75.5663 9.54192C75.5106 9.83911 75.4534 9.98945 75.3949 9.99295C75.2976 10.0869 75.208 10.4302 75.1258 11.0228C75.0437 11.6154 75.0122 12.0728 75.0315 12.3949C75.0411 12.5559 75.0678 12.6351 75.1118 12.6325C75.9756 12.5809 76.8741 11.8808 77.8073 10.5321C77.9006 9.88001 77.9854 9.33132 78.0616 8.88598C78.2074 8.12794 78.314 7.45305 78.3815 6.86131C78.4571 6.65109 78.516 6.53003 78.5581 6.49813C78.5994 6.45158 78.6933 6.42394 78.8397 6.41519C79.0154 6.4047 79.1407 6.41191 79.2157 6.43682C79.2906 6.46172 79.3837 6.54432 79.4949 6.68461Z" fill="#428DFC"></path> <path d="M86.439 14.1599C86.4554 14.1883 86.48 14.2309 86.5128 14.2877C86.5602 14.3437 86.5921 14.3858 86.6085 14.4142C86.6594 14.5287 86.6871 14.6226 86.6914 14.6958C86.7019 14.8715 86.6051 14.9728 86.401 14.9996C86.2409 15.0239 86.0065 14.913 85.6979 14.667C85.404 14.4201 85.1605 14.1554 84.9673 13.8731L84.5999 13.2559L84.6012 13.2779C84.5511 13.178 84.4446 12.9934 84.2816 12.724C84.1332 12.4537 84.0404 12.2535 84.0033 12.1235C83.8807 11.7929 83.7948 11.585 83.7456 11.4997C83.1417 12.2117 82.7038 12.7521 82.432 13.1209C82.1197 13.551 81.81 13.9001 81.5027 14.1682C81.2102 14.4355 80.9842 14.5885 80.8249 14.6274C80.6794 14.6508 80.5528 14.6217 80.445 14.5399C80.3373 14.4582 80.2791 14.3441 80.2703 14.1977C80.2572 13.9781 80.3595 13.7222 80.5771 13.4301C80.935 13.0267 81.4537 12.3639 82.1333 11.4418L83.1127 10.127L82.7901 9.15453C82.5241 8.3917 82.3118 7.91217 82.1532 7.71595C82.0393 7.53174 81.9807 7.41036 81.9772 7.3518C81.9746 7.30787 82.0055 7.21052 82.0699 7.05975L82.1125 7.03516C82.208 6.91192 82.2979 6.81839 82.3823 6.75458C82.4666 6.69077 82.56 6.6558 82.6625 6.64968C82.7504 6.64444 82.8167 6.64782 82.8615 6.65984C83.014 6.75358 83.1973 6.99241 83.4112 7.37634C83.6243 7.74563 83.808 8.11666 83.9625 8.48945L83.9612 8.46749L84.1671 8.96209L85.2743 7.57361C85.7139 7.06249 86.0452 6.70477 86.268 6.50045C86.5047 6.28061 86.7035 6.16589 86.8646 6.15627C86.9817 6.14927 87.1325 6.21373 87.3169 6.34964C87.4083 6.40296 87.4605 6.53942 87.4736 6.75903C87.5599 6.97427 87.0111 7.74903 85.8273 9.08332C85.5329 9.3213 85.2756 9.5644 85.0554 9.81264C84.8342 10.0462 84.6983 10.2307 84.6476 10.3659L84.6735 10.4305C84.6477 10.4908 84.6621 10.6075 84.7165 10.7806C84.7855 10.9528 84.8468 11.1181 84.9004 11.2765C84.9677 11.4194 85.019 11.5412 85.0544 11.642L85.2177 12.1611C85.2522 12.2472 85.2863 12.326 85.32 12.3975C85.3674 12.4534 85.407 12.5025 85.4389 12.5446C85.5683 12.7426 85.6503 12.8846 85.6848 12.9707L85.6835 12.9488C85.7672 13.1201 85.9173 13.4197 86.1339 13.8475C86.1985 13.9465 86.2382 13.9956 86.2528 13.9947C86.3442 14.048 86.4062 14.1031 86.439 14.1599Z" fill="#428DFC"></path> <path d="M89.8029 13.7386C89.7581 13.7266 89.6324 13.712 89.4256 13.695C89.218 13.6633 89.0389 13.6152 88.8881 13.5508C88.7511 13.4708 88.6786 13.3649 88.6708 13.2332C88.655 12.9696 88.7095 12.7754 88.8343 12.6504L88.8717 12.538C88.8682 12.4794 88.8496 12.4144 88.8159 12.3429C88.7823 12.2715 88.7779 12.1983 88.8028 12.1233C88.8148 12.0785 88.8458 11.9812 88.8956 11.8313C88.9445 11.6667 88.9629 11.482 88.9506 11.277C88.9454 11.1892 88.9488 11.1228 88.9608 11.078C89.0097 10.9135 89.0676 10.6529 89.1345 10.2963C89.2623 9.73034 89.3705 9.32717 89.4589 9.0868C89.9582 7.85217 90.3551 6.74854 90.6497 5.77592C90.7373 5.52091 90.8689 5.38815 91.0446 5.37766C91.2057 5.36804 91.3866 5.44539 91.5874 5.60971C91.802 5.75851 91.9658 5.9177 92.0788 6.08726C91.3361 7.67437 90.918 8.66907 90.8245 9.07136C91.0157 9.07463 91.2426 9.06108 91.5052 9.0307C91.6068 9.00993 91.7675 8.99299 91.9871 8.97988C92.1774 8.96851 92.3169 8.96752 92.4056 8.97692C92.509 8.98544 92.6558 8.98401 92.8462 8.97264C93.0658 8.95953 93.4804 8.89068 94.0901 8.76611L94.269 8.07221C94.4088 7.46145 94.5484 6.96825 94.6875 6.59262C94.8259 6.20235 95.0357 5.9033 95.3172 5.69549C95.3602 5.67822 95.4183 5.6674 95.4915 5.66303C95.594 5.65691 95.7069 5.70159 95.8301 5.79708C95.8913 5.83751 95.9758 5.89858 96.0835 5.9803C96.1904 6.04738 96.2675 6.10889 96.3149 6.16483C96.3615 6.20613 96.3865 6.25606 96.39 6.31462C96.3961 6.41711 96.3123 6.61312 96.1386 6.90266C96.0586 7.03967 95.9964 7.22705 95.9518 7.4648C95.8797 7.73357 95.8101 7.92139 95.743 8.02825C95.6888 8.10495 95.5042 8.70369 95.1891 9.82446C94.8741 10.9452 94.7127 11.5646 94.705 11.6826L94.6654 12.1258C94.6261 12.4514 94.6117 12.702 94.6222 12.8777C94.6353 13.0973 94.5247 13.2141 94.2905 13.2281C94.0269 13.2438 93.728 13.1588 93.3937 12.9731C93.2722 12.9069 93.1893 12.7502 93.1452 12.5031C93.212 12.1465 93.3249 11.6989 93.4837 11.1605L93.6807 10.3994C93.7305 10.2495 93.7235 10.1324 93.6597 10.048C93.3497 10.0225 93.0482 10.0185 92.7554 10.0359C92.4333 10.0552 91.9666 10.1124 91.3552 10.2077L90.7209 10.2897C90.6108 10.4138 90.4588 10.9445 90.265 11.8817C90.2161 12.0463 90.1809 12.1953 90.1595 12.3288C90.1837 12.489 90.1547 12.7405 90.0723 13.0833C89.9891 13.4116 89.8993 13.63 89.8029 13.7386Z" fill="#428DFC"></path> <path d="M99.2901 13.1499C98.8102 12.9875 98.4664 12.7656 98.2585 12.4842C98.0498 12.1881 97.9293 11.7692 97.897 11.2275C97.8812 10.964 97.8848 10.6552 97.9078 10.3012L97.9045 9.50801C97.8966 9.37624 97.8758 9.27463 97.8422 9.20318C97.8085 9.13172 97.7378 9.05514 97.6301 8.97342C97.5991 8.94588 97.5215 8.87705 97.3974 8.76692C97.2732 8.65679 97.2163 8.56469 97.2266 8.49061L97.1981 8.38212C97.1919 8.27964 97.2009 8.1836 97.2249 8.09401C97.2636 8.00354 97.3049 7.95699 97.3488 7.95437C97.3928 7.95175 97.4509 7.94093 97.5232 7.92192C97.5947 7.88826 97.6601 7.87701 97.7195 7.88815C97.9245 7.87591 98.0296 7.91371 98.0349 8.00155C98.1004 8.11518 98.1965 8.12414 98.323 8.02842C98.4633 7.91719 98.591 7.71856 98.7061 7.43252C98.8919 7.09818 99.1719 6.74352 99.5462 6.36854C99.9343 5.97804 100.256 5.70172 100.51 5.53957C100.609 5.47489 100.775 5.41359 101.006 5.35567C101.237 5.28312 101.44 5.2416 101.616 5.2311C101.88 5.21536 102.11 5.26037 102.307 5.36613C102.519 5.47101 102.734 5.62713 102.952 5.8345C103.243 6.02285 103.401 6.33664 103.427 6.77586C103.446 7.08331 103.391 7.40245 103.264 7.73329C103.219 7.9564 103.001 8.24856 102.611 8.60978C102.236 8.97012 101.884 9.22623 101.555 9.37811C101.151 9.50508 100.686 9.5843 100.159 9.61578C99.8075 9.63677 99.5788 9.62104 99.4729 9.5686C99.2911 9.47661 99.1902 9.87934 99.1704 10.7768C99.1618 10.8801 99.1628 11.0197 99.1733 11.1954C99.1882 11.4442 99.2366 11.6397 99.3185 11.7817C99.3341 11.7955 99.3888 11.851 99.4828 11.9482C99.5758 12.0308 99.6905 12.1048 99.8266 12.1701C99.9619 12.2208 100.103 12.2418 100.249 12.2331C100.381 12.2252 100.482 12.2044 100.554 12.1708C100.712 12.1172 100.861 12.0275 101.001 11.9017C101.139 11.7612 101.332 11.5513 101.58 11.272C101.8 11.0237 101.959 10.8526 102.056 10.7587C102.122 10.6225 102.264 10.5479 102.484 10.5348C102.542 10.5313 102.646 10.5398 102.794 10.5604C102.932 10.655 103.004 10.7608 103.011 10.878C103.018 10.9951 102.958 11.2191 102.831 11.5499C102.767 11.7007 102.596 11.9166 102.319 12.1976C102.055 12.4631 101.818 12.6756 101.607 12.8351C101.168 13.1111 100.722 13.2627 100.268 13.2898C99.99 13.3064 99.6639 13.2598 99.2901 13.1499ZM100.319 8.61443C100.464 8.5764 100.674 8.52712 100.95 8.46659C101.225 8.40605 101.447 8.29733 101.614 8.14043C101.794 7.96802 101.998 7.68405 102.224 7.28853C102.261 7.16878 102.276 7.05034 102.269 6.93322C102.256 6.71361 102.202 6.56251 102.109 6.47991C102.001 6.38355 101.881 6.3393 101.749 6.34717C101.544 6.35942 101.337 6.45994 101.128 6.64874C100.984 6.70141 100.774 6.87557 100.498 7.17123C100.236 7.46602 100.011 7.75862 99.8229 8.04903C99.6337 8.3248 99.577 8.48246 99.6528 8.52201C99.6261 8.56768 99.7015 8.59991 99.8789 8.6187C100.056 8.62285 100.202 8.62142 100.319 8.61443Z" fill="#428DFC"></path> <path d="M111.005 5.1552C111.16 5.05774 111.319 5.0042 111.48 4.99458C111.685 4.98234 111.864 5.03773 112.019 5.16075C112.187 5.26826 112.276 5.41717 112.288 5.6075C112.29 5.63678 112.279 5.71086 112.257 5.82973C112.29 5.63678 112.155 5.96073 111.852 6.80159C111.55 7.64245 111.386 8.09304 111.36 8.15335L111.364 8.21923C111.569 8.20699 111.705 8.265 111.771 8.39327C111.851 8.50602 111.89 8.66532 111.888 8.87116C111.758 8.90831 111.636 8.96699 111.524 9.04719C111.411 9.12739 111.318 9.16967 111.245 9.17404C111.201 9.17667 111.151 9.20169 111.095 9.24911C111.039 9.29653 111.005 9.34996 110.994 9.40939C110.968 9.4697 110.931 9.69969 110.881 10.0994L110.58 11.7042C110.557 11.8084 110.511 11.8993 110.442 11.9769C110.373 12.0544 110.31 12.1023 110.252 12.1204C110.193 12.1093 110.074 12.0797 109.895 12.0316C109.729 11.968 109.616 11.9234 109.556 11.8976C109.495 11.8571 109.434 11.8167 109.372 11.7763L109.365 11.6445C109.352 11.4396 109.376 11.2251 109.436 11.0011C109.532 10.6427 109.62 10.1453 109.7 9.50874C109.58 9.47182 109.289 9.51127 108.825 9.62709C108.361 9.72828 108.107 9.78018 108.063 9.78281C107.978 9.83197 107.804 9.86443 107.54 9.88017C107.116 9.90553 106.813 9.88685 106.633 9.82415L106.505 9.8979C106.484 10.0314 106.449 10.1804 106.4 10.345C106.266 10.8085 106.205 11.15 106.219 11.3696C106.202 11.5763 106.182 11.7464 106.161 11.88C106.14 12.0281 106.124 12.2495 106.112 12.544C106.122 12.9548 105.995 13.1681 105.732 13.1839C105.571 13.1935 105.392 13.1454 105.194 13.0397C105.088 12.9872 104.942 12.8784 104.756 12.7132L105.006 11.0012C105.042 10.8668 105.075 10.6812 105.105 10.4443C105.15 10.2066 105.197 10.0128 105.247 9.86286L105.448 9.16765C105.593 8.64473 105.729 8.21786 105.856 7.88702C105.856 7.88702 105.984 7.44594 106.24 6.56378C106.278 6.45867 106.356 6.17482 106.476 5.71222C106.609 5.2341 106.688 4.95756 106.713 4.88261C106.762 4.71807 106.874 4.63055 107.05 4.62006C107.283 4.59142 107.484 4.63818 107.653 4.76033C107.836 4.86696 107.94 5.00768 107.965 5.18249C107.967 5.22641 107.964 5.30005 107.956 5.40341C107.947 5.49213 107.936 5.55889 107.924 5.60368L106.948 8.46092L106.959 8.63661C107.02 8.67703 107.124 8.69287 107.27 8.68413C107.387 8.67713 107.562 8.64468 107.793 8.58676C108.04 8.52798 108.192 8.49683 108.251 8.49334C108.382 8.47083 108.578 8.44438 108.841 8.414C109.104 8.38362 109.367 8.36056 109.63 8.34482C109.835 8.33257 109.945 8.33334 109.961 8.3471L110.161 7.62993C110.352 6.89855 110.566 6.30538 110.804 5.85042C110.816 5.80562 110.84 5.72335 110.877 5.6036C110.913 5.46922 110.956 5.31975 111.005 5.1552Z" fill="#428DFC"></path> <path d="M114.233 12.6761C114.054 12.628 113.861 12.4706 113.654 12.2038C113.446 11.9223 113.335 11.6645 113.321 11.4302L113.574 10.4895L113.912 9.14695C114.033 8.94875 114.121 8.7157 114.179 8.4478C114.25 8.16438 114.292 8.00027 114.304 7.95548C114.434 7.66856 114.686 6.97761 115.062 5.88261L115.418 4.84749L115.569 4.41974C115.644 4.19488 115.692 4.0157 115.713 3.88219C115.706 3.76506 115.73 3.66815 115.784 3.59145C115.838 3.50011 115.893 3.45269 115.952 3.44919C116.021 3.37161 116.158 3.3267 116.363 3.31446C116.524 3.30484 116.669 3.39902 116.798 3.59699C116.928 3.79496 116.998 3.98911 117.009 4.17944C117.019 4.34049 116.961 4.60107 116.836 4.96119C116.725 5.32043 116.6 5.68055 116.459 6.04154C116.344 6.32758 116.243 6.59811 116.155 6.85312C116.081 7.09262 116.068 7.23302 116.114 7.27431C116.171 7.24153 116.292 7.17554 116.477 7.07633C116.661 6.96248 116.852 6.82623 117.048 6.66758C117.175 6.5865 117.295 6.50587 117.408 6.42567C117.52 6.33083 117.618 6.25151 117.702 6.1877C118.138 5.85314 118.406 5.66816 118.507 5.63275C118.591 5.56894 118.753 5.4564 118.993 5.29513C119.247 5.10371 119.38 5.00023 119.394 4.98472C119.564 4.88638 119.708 4.83372 119.825 4.82672C119.913 4.82147 119.995 4.84594 120.072 4.90013C120.149 4.95432 120.242 5.03692 120.351 5.14792C120.445 5.24516 120.495 5.34502 120.501 5.44751C120.507 5.54999 120.455 5.66329 120.345 5.78741C120.234 5.89689 120.045 6.04778 119.777 6.24009C119.595 6.38322 119.405 6.51947 119.207 6.64884C119.009 6.7782 118.818 6.90713 118.635 7.03562C117.619 7.74277 117.098 8.11918 117.071 8.16485C117.104 8.22166 117.178 8.34949 117.292 8.54834C117.422 8.74631 117.542 8.91544 117.653 9.05573L118.017 9.60703C118.207 9.84543 118.305 10.0012 118.309 10.0744C118.463 10.4326 118.656 10.7076 118.887 10.8994C119.134 11.0904 119.389 11.178 119.652 11.1623C119.784 11.1544 119.936 11.1086 120.107 11.0249C120.321 10.924 120.495 10.8696 120.626 10.8617C120.831 10.8494 120.977 10.9583 121.065 11.1881C121.114 11.2734 121.14 11.3379 121.142 11.3818C121.146 11.4404 121.051 11.5783 120.858 11.7955C120.5 12.1989 120.124 12.4124 119.729 12.436C119.597 12.4439 119.441 12.4165 119.261 12.3538C119.042 12.3815 118.755 12.2517 118.4 11.9644C118.06 11.6762 117.574 11.1689 116.943 10.4426C116.939 10.384 116.847 10.1985 116.667 9.88601C116.601 9.75774 116.528 9.64455 116.448 9.54644C116.368 9.43369 116.312 9.35622 116.28 9.31405C116.277 9.25549 116.236 9.18447 116.157 9.101C116.093 9.00201 116.044 8.92411 116.011 8.8673C115.848 8.833 115.717 8.85551 115.618 8.93483C115.535 9.01328 115.453 9.12101 115.373 9.25803C115.308 9.39416 115.255 9.49283 115.215 9.55401C115.091 9.94341 114.973 10.4207 114.859 10.9857C114.745 11.5362 114.715 11.8906 114.769 12.049C114.783 12.2833 114.756 12.4465 114.688 12.5387C114.619 12.6163 114.467 12.6621 114.233 12.6761Z" fill="#428DFC"></path> <path d="M123.493 11.9026C123.317 11.9131 123.176 11.8922 123.07 11.8397C122.964 11.7873 122.811 11.6862 122.611 11.5365C122.097 11.053 121.828 10.5989 121.803 10.1743C121.796 10.0718 121.799 9.99821 121.811 9.95341C121.849 9.8483 121.858 9.74494 121.837 9.64333C121.831 9.54085 121.827 9.47497 121.825 9.44569C121.763 9.39062 121.732 9.35577 121.731 9.34113C121.729 9.31185 121.742 9.28901 121.771 9.27262C121.798 9.24159 121.818 9.211 121.831 9.18084C121.919 9.1756 121.944 9.09332 121.905 8.93403C121.869 8.81865 121.912 8.55894 122.035 8.1549C122.156 7.73622 122.317 7.35196 122.517 7.00211C122.662 6.72896 122.877 6.38555 123.16 5.97189C123.459 5.55736 123.726 5.24018 123.963 5.02034C124.296 4.6919 124.597 4.44617 124.867 4.28315C125.136 4.12013 125.437 3.99197 125.769 3.89865C126.058 3.80796 126.253 3.75955 126.356 3.75343C126.458 3.74731 126.548 3.77134 126.625 3.82553C126.715 3.86421 126.83 3.94549 126.97 4.06939C127.376 4.22146 127.66 4.43222 127.823 4.70164C128 4.95555 128.105 5.368 128.139 5.93898C128.196 6.89062 127.87 7.94595 127.16 9.10498C126.852 9.60824 126.56 10.0004 126.283 10.2814C126.005 10.5478 125.633 10.8418 125.168 11.1635C124.873 11.4014 124.597 11.5795 124.34 11.6978C124.096 11.8005 123.814 11.8688 123.493 11.9026ZM125.462 9.44886C125.79 9.03258 126.045 8.64263 126.229 8.27902C126.428 7.91453 126.606 7.45575 126.764 6.90268C126.823 6.64941 126.841 6.3471 126.82 5.99572C126.794 5.55651 126.721 5.31111 126.6 5.25955C126.449 5.19509 126.301 5.16723 126.154 5.17598C125.832 5.19521 125.504 5.36173 125.17 5.67553C124.768 6.06691 124.414 6.5435 124.11 7.10531C123.804 7.65249 123.5 8.33186 123.196 9.14344C123.068 9.45964 123.012 9.76414 123.03 10.057C123.043 10.2766 123.105 10.4492 123.215 10.5748C123.34 10.6996 123.498 10.7563 123.688 10.7449C124.171 10.7161 124.762 10.2841 125.462 9.44886Z" fill="#428DFC"></path> </svg> 