<?xml version="1.0" encoding="UTF-8"?> <!-- Generator: Adobe Illustrator 23.1.1, SVG Export Plug-In . SVG Version: 6.00 Build 0) --> <svg xmlns="http://www.w3.org/2000/svg" xmlns:xlink="http://www.w3.org/1999/xlink" id="Layer_2" x="0px" y="0px" viewBox="0 0 1000 1000" style="enable-background:new 0 0 1000 1000;" xml:space="preserve"> <style type="text/css"> .st0{fill:#3FBDF1;} .st1{fill:none;stroke:#CCDDE2;stroke-width:3.97;stroke-miterlimit:10;} .st2{fill:#F4F5F7;} .st3{fill:none;stroke:#D0E0F8;stroke-width:4;stroke-miterlimit:10;} .st4{fill:#353642;} .st5{fill:#428DFC;} .st6{fill:none;stroke:#000000;stroke-width:3.97;stroke-miterlimit:10;} </style> <path class="st0" d="M437.6,207.8c0-0.1-0.1-0.2-0.1-0.3l0.1-0.1C437.6,207.6,437.6,207.7,437.6,207.8z"></path> <path class="st0" d="M437.9,209c-0.1-0.3-0.2-0.7-0.2-1C437.8,208.3,437.9,208.7,437.9,209z"></path> <path class="st0" d="M454.4,718.7L454.4,718.7L454.4,718.7C454.4,718.6,454.4,718.6,454.4,718.7z"></path> <path class="st0" d="M490.3,552.7l-1.7-0.4c0.2-0.6,0.5-1.2,0.7-1.8C489.6,551.2,490,552,490.3,552.7z"></path> <path class="st0" d="M454.4,718.7L454.4,718.7L454.4,718.7C454.4,718.6,454.4,718.6,454.4,718.7z"></path> <path class="st0" d="M490.3,552.7l-1.7-0.4c0.2-0.6,0.5-1.2,0.7-1.8C489.6,551.2,490,552,490.3,552.7z"></path> <path class="st0" d="M454.4,718.7L454.4,718.7L454.4,718.7C454.4,718.6,454.4,718.6,454.4,718.7z"></path> <path class="st1" d="M452.3,729.3L452.3,729.3L452.3,729.3C452.3,729.2,452.3,729.3,452.3,729.3z"></path> <path class="st1" d="M490.4,553.8l-1.8-0.4c0.3-0.6,0.5-1.2,0.8-1.8C489.7,552.2,490,553,490.4,553.8z"></path> <path class="st1" d="M452.3,729.3L452.3,729.3L452.3,729.3C452.3,729.2,452.3,729.3,452.3,729.3z"></path> <path class="st1" d="M490.4,553.8l-1.8-0.4c0.3-0.6,0.5-1.2,0.8-1.8C489.7,552.2,490,553,490.4,553.8z"></path> <path class="st1" d="M452.3,729.3L452.3,729.3L452.3,729.3C452.3,729.2,452.3,729.3,452.3,729.3z"></path> <path class="st2" d="M189.3,626.4L189.3,626.4L189.3,626.4L189.3,626.4L189.3,626.4c0-0.1,0-0.1,0-0.2c0-0.1,0-0.1,0-0.3l0,0 c0-0.1,0-0.2,0-0.3c0,0.2,0.1,0.5,0.1,0.7C189.4,626.4,189.3,626.4,189.3,626.4z"></path> <path class="st2" d="M189.6,691.1c-1.5,5-3.5,9.8-5.9,14.5c-0.7,1.3-1.4,2.6-2.1,3.9l0,0c-2.5,4.7-5.6,9.2-9.2,13.1 c-0.6-0.2-1.3-0.5-1.9-0.7c-0.1,0-0.2-0.1-0.3-0.1c-11.6-5.1-20.4-14.6-23-25.3c-2.3-9.4-0.2-19.6-4.7-28.5 c-5.5-10.9-20.4-17.7-22.3-30c-1.7-11.5,8.7-22.1,7-33.4c-1.9-12.8-17.6-20.3-20.5-32.8c-1.8-7.7-0.2-16.7-0.9-24.7 c-0.8-8.9-2.3-17.8-4.5-26.4c1.1-0.1,2.2-0.1,3.2-0.1c22-0.4,43.8,12,50.9,29.4c5.8,14.1,2.8,30.3,10.5,43.5c0.5,0.9,1,1.7,1.6,2.5 c1,1.4,2.1,2.7,3.2,4l2.4,2.5c0.4,0.4,0.8,0.8,1.2,1.2s0.8,0.8,1.2,1.2c3.8,3.6,7.7,7.3,10.2,11.7c0.2,0.4,0.4,0.8,0.6,1.2 c0.2,0.4,0.4,0.8,0.6,1.2c0.2,0.4,0.4,0.9,0.6,1.3c0.2,0.5,0.4,1,0.5,1.5c0.2,0.8,0.5,1.6,0.6,2.4c0,0.2,0,0.4,0.1,0.5s0,0.1,0,0.2 c0,0.1,0,0.1,0,0.2c0,0.1,0,0.2,0.1,0.3v0.1c0,0.1,0,0.2,0.1,0.4l0,0c0,0.1,0,0.2,0,0.3c0,0.1,0,0.1,0,0.2v0.1l-2.6,37.6 C188.1,673.2,192.3,682.2,189.6,691.1z"></path> <path class="st2" d="M209.2,599.9L209.2,599.9c1.7-8.2,1.8-16.7,5.7-24.5c7.1-14.3,28-24.8,49.9-25.4h0.4c2,0,4,0,6,0.1 c-2.3,7.5-3.8,15.1-4.6,22.9c-0.7,6.9,1,14.6-0.9,21.2c-3.1,10.8-19.4,17.3-21.4,28.3c-1.8,9.8,9.1,18.9,7.3,28.8 c-1.9,10.6-17.4,16.5-23.1,26c-4.6,7.7-2.5,16.4-4.9,24.5c-2.8,9.3-12,17.5-24.1,21.8c-0.8,0.3-1.5,0.5-2.3,0.8l0,0 c-0.4,0.1-0.9,0.3-1.3,0.4c-0.1-0.1-0.3-0.2-0.4-0.4l0,0c-3.9-3.3-8.3-9-11.9-15l0,0l0.3-3.8c2.4-4.6,4.3-9.5,5.9-14.5 c2.6-8.8-1.5-17.9-3-27l2.6-37.6l0,0l0,0l0,0l0,0l0.8-0.7c0.3-0.2,0.6-0.5,0.8-0.7c4-3.2,8.3-6.3,11.4-10c3.8-4.5,5.6-9.5,6.8-14.7"></path> <path class="st2" d="M209.1,600.4c0-0.2,0.1-0.3,0.1-0.5l0,0"></path> <path class="st2" d="M209.2,599.8L209.2,599.8c0,0.2-0.1,0.4-0.1,0.5c-1.1,5.2-2.9,10.1-6.8,14.7c-3.1,3.7-7.4,6.8-11.4,10 c-0.3,0.3-0.5,0.5-0.8,0.7l-0.8,0.7l0,0c0,0,0-0.1,0-0.1c0-0.1-0.1-0.2-0.1-0.3l0,0c0-0.1,0-0.2,0-0.3l0,0v-0.1 c0-0.1-0.1-0.2-0.1-0.3c0-0.1,0-0.1,0-0.2c0-0.1,0-0.1,0-0.2c0-0.2-0.1-0.4-0.1-0.5c-0.2-0.8-0.4-1.6-0.6-2.4 c-0.2-0.5-0.3-1-0.5-1.5c-0.2-0.5-0.4-0.9-0.6-1.3c-0.1-0.4-0.3-0.9-0.6-1.2c-0.2-0.4-0.4-0.8-0.6-1.2c-2.5-4.3-6.4-8-10.2-11.7 c-0.4-0.4-0.8-0.9-1.2-1.2s-0.8-0.8-1.2-1.2l-2.4-2.5c-1.1-1.3-2.2-2.6-3.2-4c0,0,2.2-38.9,22.1-50.7 C208.6,534,209.2,593.3,209.2,599.8z"></path> <path class="st2" d="M209.1,600.4c0-0.2,0.1-0.3,0.1-0.5l0,0"></path> <path class="st2" d="M189.2,626.3v0.2l0,0C189.2,626.4,189.2,626.3,189.2,626.3c0-0.1,0-0.2,0-0.3l0,0c0-0.1,0-0.2,0-0.3 C189.2,625.9,189.2,626.1,189.2,626.3z"></path> <path class="st2" d="M256.6,562.4c-35.9,38.6-52.7,120-59.3,162l0,0c-0.5,3.5-1,6.8-1.4,9.7"></path> <path class="st2" d="M259.9,757.8l-16.5,97.4c-0.8,5.5-5.5,9.6-11,9.7h-86.3c-5.6-0.1-10.3-4.3-11-9.9l-15.2-97.2L259.9,757.8z"></path> <path class="st2" d="M275.6,746.9L275.6,746.9c-0.3,6-5.2,10.7-11.2,10.9H115.6c-5.9-0.1-10.8-4.8-11.2-10.7l0,0 c-0.6-6.9,4.5-13,11.2-13h148.8C270.9,734.2,276.1,740,275.6,746.9z"></path> <path class="st2" d="M189.3,626.5c0-0.2,0-0.4-0.1-0.6L189.3,626.5z"></path> <path class="st2" d="M115.6,534.9c34.4,44.7,50.6,139,57,187.7c0.5,4.2,1,8.1,1.4,11.5"></path> <path class="st2" d="M192.4,582.4c-4.3,13.3-4.5,26.7-4,35.2c0.1,2.7,0.4,5.5,0.9,8.2"></path> <path class="st1" d="M189.3,626.4L189.3,626.4L189.3,626.4L189.3,626.4L189.3,626.4c0-0.1,0-0.1,0-0.2c0-0.1,0-0.1,0-0.3l0,0 c0-0.1,0-0.2,0-0.3c0,0.2,0.1,0.5,0.1,0.7C189.4,626.4,189.3,626.4,189.3,626.4z"></path> <path class="st1" d="M209.1,600.4c0-0.2,0.1-0.3,0.1-0.5l0,0"></path> <path class="st1" d="M209.1,600.4c0-0.2,0.1-0.3,0.1-0.5l0,0"></path> <path class="st1" d="M189.2,626.3v0.2l0,0C189.2,626.4,189.2,626.3,189.2,626.3c0-0.1,0-0.2,0-0.3l0,0c0-0.1,0-0.2,0-0.3 C189.2,625.9,189.2,626.1,189.2,626.3z"></path> <path class="st1" d="M189.3,626.5c0-0.2,0-0.4-0.1-0.6L189.3,626.5z"></path> <g> <path class="st3" d="M189.6,691.1c-1.5,5-3.5,9.8-5.9,14.5c-0.7,1.3-1.4,2.6-2.1,3.9l0,0c-2.5,4.7-5.6,9.2-9.2,13.1 c-0.6-0.2-1.3-0.5-1.9-0.7c-0.1,0-0.2-0.1-0.3-0.1c-11.6-5.1-20.4-14.6-23-25.3c-2.3-9.4-0.2-19.6-4.7-28.5 c-5.5-10.9-20.4-17.7-22.3-30c-1.7-11.5,8.7-22.1,7-33.4c-1.9-12.8-17.6-20.3-20.5-32.8c-1.8-7.7-0.2-16.7-0.9-24.7 c-0.8-8.9-2.3-17.8-4.5-26.4c1.1-0.1,2.2-0.1,3.2-0.1c22-0.4,43.8,12,50.9,29.4c5.8,14.1,2.8,30.3,10.5,43.5c0.5,0.9,1,1.7,1.6,2.5 c1,1.4,2.1,2.7,3.2,4l2.4,2.5c0.4,0.4,0.8,0.8,1.2,1.2s0.8,0.8,1.2,1.2c3.8,3.6,7.7,7.3,10.2,11.7c0.2,0.4,0.4,0.8,0.6,1.2 c0.2,0.4,0.4,0.8,0.6,1.2c0.2,0.4,0.4,0.9,0.6,1.3c0.2,0.5,0.4,1,0.5,1.5c0.2,0.8,0.5,1.6,0.6,2.4c0,0.2,0,0.4,0.1,0.5s0,0.1,0,0.2 c0,0.1,0,0.1,0,0.2c0,0.1,0,0.2,0.1,0.3v0.1c0,0.1,0,0.2,0.1,0.4l0,0c0,0.1,0,0.2,0,0.3c0,0.1,0,0.1,0,0.2v0.1l-2.6,37.6 C188.1,673.2,192.3,682.2,189.6,691.1z"></path> <path class="st3" d="M209.2,599.9L209.2,599.9c1.7-8.2,1.8-16.7,5.7-24.5c7.1-14.3,28-24.8,49.9-25.4h0.4c2,0,4,0,6,0.1 c-2.3,7.5-3.8,15.1-4.6,22.9c-0.7,6.9,1,14.6-0.9,21.2c-3.1,10.8-19.4,17.3-21.4,28.3c-1.8,9.8,9.1,18.9,7.3,28.8 c-1.9,10.6-17.4,16.5-23.1,26c-4.6,7.7-2.5,16.4-4.9,24.5c-2.8,9.3-12,17.5-24.1,21.8c-0.8,0.3-1.5,0.5-2.3,0.8l0,0 c-0.4,0.1-0.9,0.3-1.3,0.4c-0.1-0.1-0.3-0.2-0.4-0.4l0,0c-3.9-3.3-8.3-9-11.9-15l0,0l0.3-3.8c2.4-4.6,4.3-9.5,5.9-14.5 c2.6-8.8-1.5-17.9-3-27l2.6-37.6l0,0l0,0l0,0l0,0l0.8-0.7c0.3-0.2,0.6-0.5,0.8-0.7c4-3.2,8.3-6.3,11.4-10c3.8-4.5,5.6-9.5,6.8-14.7 "></path> <path class="st3" d="M209.2,599.8L209.2,599.8c0,0.2-0.1,0.4-0.1,0.5c-1.1,5.2-2.9,10.1-6.8,14.7c-3.1,3.7-7.4,6.8-11.4,10 c-0.3,0.3-0.5,0.5-0.8,0.7l-0.8,0.7l0,0c0,0,0-0.1,0-0.1c0-0.1-0.1-0.2-0.1-0.3l0,0c0-0.1,0-0.2,0-0.3l0,0v-0.1 c0-0.1-0.1-0.2-0.1-0.3c0-0.1,0-0.1,0-0.2c0-0.1,0-0.1,0-0.2c0-0.2-0.1-0.4-0.1-0.5c-0.2-0.8-0.4-1.6-0.6-2.4 c-0.2-0.5-0.3-1-0.5-1.5c-0.2-0.5-0.4-0.9-0.6-1.3c-0.1-0.4-0.3-0.9-0.6-1.2c-0.2-0.4-0.4-0.8-0.6-1.2c-2.5-4.3-6.4-8-10.2-11.7 c-0.4-0.4-0.8-0.9-1.2-1.2s-0.8-0.8-1.2-1.2l-2.4-2.5c-1.1-1.3-2.2-2.6-3.2-4c0,0,2.2-38.9,22.1-50.7 C208.6,534,209.2,593.3,209.2,599.8z"></path> <path class="st3" d="M256.6,562.4c-35.9,38.6-52.7,120-59.3,162l0,0c-0.5,3.5-1,6.8-1.4,9.7"></path> <path class="st3" d="M259.9,757.8l-16.5,97.4c-0.8,5.5-5.5,9.6-11,9.7h-86.3c-5.6-0.1-10.3-4.3-11-9.9l-15.2-97.2L259.9,757.8z"></path> <path class="st3" d="M275.6,746.9L275.6,746.9c-0.3,6-5.2,10.7-11.2,10.9H115.6c-5.9-0.1-10.8-4.8-11.2-10.7l0,0 c-0.6-6.9,4.5-13,11.2-13h148.8C270.9,734.2,276.1,740,275.6,746.9z"></path> <path class="st3" d="M115.6,534.9c34.4,44.7,50.6,139,57,187.7c0.5,4.2,1,8.1,1.4,11.5"></path> <path class="st3" d="M192.4,582.4c-4.3,13.3-4.5,26.7-4,35.2c0.1,2.7,0.4,5.5,0.9,8.2"></path> </g> <path class="st2" d="M755.6,857c-7.2-1.4-14.2-3.2-21.1-5.2c-28.2-8.2-61-22.3-72.2-51.9c-5.7-15.5-3.3-32.9,6.4-46.3 c5.1-7,12.2-12.3,20.4-15.1c17.8-5.8,37.6,3.2,50.8,16.5s21.8,30.4,32.1,46.1c-9.4-21-18.9-42.6-20.2-65.6 c-1-17.9,3.9-37.3,16.2-50.8c11.4-12.4,37.9-22.1,53.6-13c10.3,6,14.4,18.8,16.2,30.6c4.9,32.3-1.4,65.1-7.6,97.2 c4.2-17.1,8.7-34.4,17.2-49.9s21.5-29.1,38.2-34.8c11.7-4,25.6-3.6,35.4,4c9.1,7,13.2,18.9,14.5,30.4c2.1,19.2-2.4,38.7-10.2,56.4 C896.2,871.5,815.7,869,755.6,857z"></path> <path class="st2" d="M821.1,824.3c0,0,44.8,12.4,60.5-49.8"></path> <path class="st2" d="M801.2,718.1c-12.4,28.2,0,112.8,0,112.8"></path> <path class="st2" d="M759.7,822.4c-1.9-0.3-19.8-2.8-35.1-9.9c-11.8-5.4-22.1-13.6-22.1-25.5"></path> <path class="st2" d="M728.2,787c0,0-17.5,20.4-3.6,25.5"></path> <path class="st2" d="M716.6,831.1c2.5-3.5,15.4,3.5,23.9-12.8"></path> <path class="st2" d="M795.7,755.5c-4.4-3.3-16,0-17.7-26.5"></path> <path class="st2" d="M797.6,780.3c0,0,19.4-7,19.4-22.2"></path> <path class="st2" d="M839.2,824.7c0,0,10.1-26.1,14.2-37.7"></path> <path class="st2" d="M870.5,799.8c0,0,11.1,8.8,24.4-5.3"></path> <path class="st2" d="M870.5,787c0,0-7.2-3.1-3.8-21"></path> <path class="st1" d="M759.7,822.4c-1.9-0.3-19.8-2.8-35.1-9.9c-11.8-5.4-22.1-13.6-22.1-25.5"></path> <path class="st1" d="M728.2,787c0,0-17.5,20.4-3.6,25.5"></path> <path class="st1" d="M716.6,831.1c2.5-3.5,15.4,3.5,23.9-12.8"></path> <g> <path class="st3" d="M755.6,857c-7.2-1-14.2-3.2-21.1-5.2c-28.2-8.2-61-22.3-72.2-51.9c-5.7-15.5-3.3-32.9,6.4-46.3 c5.1-7,12.2-12.3,20.4-15.1c17.8-5.8,37.6,3.2,50.8,16.5s21.8,30.4,32.1,46.1c-9.4-21-18.9-42.6-20.2-65.6 c-1-17.9,3.9-37.3,16.2-50.8c11.4-12.4,37.9-22.1,53.6-13c10.3,6,14.4,18.8,16.2,30.6c4.9,32.3-1.4,65.1-7.6,97.2 c4.2-17.1,8.7-34.4,17.2-49.9s21.5-29.1,38.2-34.8c11.7-4,25.6-3.6,35.4,4c9.1,7,13.2,18.9,14.5,30.4c2.1,19.2-2.2,38.8-10.2,56.4 C895.7,869.8,814.6,864.9,755.6,857z"></path> <path class="st3" d="M821.1,824.3c0,0,44.8,12.4,60.5-49.8"></path> <path class="st3" d="M801.2,718.1c-12.4,28.2,0,112.8,0,112.8"></path> <path class="st3" d="M795.7,755.5c-4.4-3.3-16,0-17.7-26.5"></path> <path class="st3" d="M797.6,780.3c0,0,19.4-7,19.4-22.2"></path> <path class="st3" d="M839.2,824.7c0,0,10.1-26.1,14.2-37.7"></path> <path class="st3" d="M870.5,799.8c0,0,11.1,8.8,24.4-5.3"></path> <path class="st3" d="M870.5,787c0,0-7.2-3.1-3.8-21"></path> </g> <path class="st2" d="M743,770.8c-2.6-1.8-5.2-3.6-8-5.3c-27.7-16.4-65.3-22.7-97-24.6c-1.9-0.1-3.8-0.2-5.7-0.3 c-2.5-0.1-4.9-0.8-7.1-1.9c-2.3-1.2-4.3-2.8-5.8-4.9c-1.6-6.1-3.4-12.1-5.6-18l-4.4-20c-1.7-5.8-3-11.7-3.9-17.6 c-4.6-30.1-8-67.4-9.2-81.4c0.1,0.1,0.3,0.1,0.5,0.1l13.7,4.4c0,0,0.1,0,0.2,0l4.9,1.4c18.9,5.4,38.7,9.4,58.4,9.8 c18.5,0.4,38.9-2.7,54.7-12.9c1.3-0.8,2.6-1.7,3.9-2.7c12.2-9.2,20.7-23.3,25.5-37.7c8.9-26.5,10.8-54.8,5.6-82.3 c-1.5-7.6-3.6-15-6.2-22.2c-7-19.2-17.1-37.3-25.8-56c-2-4.4-4.9-8.9-5.2-13.8c-0.4-5.8,2.5-11.3,3.5-16.9 c1.1-6.7,1.6-13.6,1.5-20.4c0-8.1-1.6-16.1-4.6-23.6c-2.6-6.3-7.2-16.9-15.4-16.5c-2.6-8.4-7-18.1-14.7-19.2c-2-0.3-4,0.2-5.7,1.4 c-0.6-0.8-1.2-1.6-1.8-2.3c-3.2-3.6-9.3-6.9-14.2-5c-9.7,3.8-5.3,17.2-0.5,27.3c-2.5-0.5-5-0.7-7.5-0.5c-5.7,0.5-12.2,2.8-14.4,8.2 c-1.2,3-0.8,8.4,2.3,10.1c3.9,2.1,8.6,0.7,12.5,2.7c4.3,2.2,6,8.2,5.4,12.7c-0.1,1.8-0.8,3.4-2,4.8c-6.8,6.8-11.5-12-14.1-15.1 c-3.5-4.2-8.7-3.5-12.3,0.1c-7.2,7-4.1,21.1-1.1,29.6c3.3,9.3,7.6,19,14.4,26.2c11.4,12,12.6,31,15.7,46.4 c1.2,6.4,2.4,12.8,3.4,19.2c1.9,12.5,3,25,2,37.6c-1,13.8-13.1,24.2-26.9,23.2c-0.6,0-1.3-0.1-1.9-0.2c-8.2-1.2-17.7-2.7-27.8-4.3 c0,0,0.1-0.1,0.1-0.1c-13.8-4.7-26.1-5.3-38.3-5.9c-34.4-5.3-65.3-10.3-65.3-10.3c-1.4-0.3-2.5-1.5-2.5-3l-0.4-38.2 c2.3,2.9,7.5,3.3,10.6,1.6c2.5-1.3,4-4,3.7-6.9l0,0c2,0,4-0.5,5.8-1.5c0.5-0.3,1-0.6,1.5-1c2-1.8,3.2-4.3,3.2-7c0-0.7,0-1.5-0.1-2.2 c0-0.3-0.1-0.5-0.1-0.8c-0.1-0.6-0.2-1.1-0.4-1.7c-0.1-0.3-0.2-0.7-0.3-1c-0.3-1-0.5-2-0.8-3l0,0c0.1,0,0.2,0,0.3,0 c1-0.1,2-0.2,2.9-0.4c0.9-0.2,1.8-0.5,2.7-0.9c0.5-0.2,1-0.5,1.4-0.7c0.1,0,0.2-0.1,0.2-0.1c0.8-0.5,1.5-1,2.2-1.6 c0.2-0.2,0.5-0.4,0.7-0.6c0.4-0.4,0.8-0.8,1.1-1.2c0.4-0.5,0.9-1.1,1.2-1.6c0.2-0.2,0.4-0.5,0.5-0.8c1.4-2.2,2.4-4.7,3-7.2 c0-0.2,0.1-0.5,0.2-0.7c2-9.5-1-20.4-9.4-23.9c-1.7-0.7-7.6-1.4-7.6-3.9c0-0.2,0-0.4,0.1-0.5c0,0,0-0.1,0-0.1c0.2-0.4,0.4-0.7,0.7-1 c0.1-0.2,0.3-0.3,0.5-0.5c0.3-0.3,0.7-0.6,1.1-0.9c0.4-0.3,0.7-0.5,1.1-0.8c0.1-0.1,0.3-0.3,0.4-0.4c0.3-0.3,0.5-0.6,0.8-0.9 c0.2-0.3,0.5-0.6,0.7-0.9c0.2-0.3,0.4-0.6,0.6-1c0.2-0.3,0.4-0.7,0.5-1c0.3-0.6,0.5-1.2,0.7-1.9c0.3-1,0.5-2.1,0.6-3.2 c0-0.4,0-0.8,0-1.2c0-8.8-7.2-17.9-16.2-18.8c-1.5-0.2-2.9,0-4.3,0.5c-0.7,0.2-1.3,0.5-2,0.8l-1,0.5c-0.7,0.3-1.4,0.7-2.1,1 c-0.6,0.3-1.2,0.4-1.9,0.5c-0.2,0-0.3,0-0.5-0.1l-0.3-0.1c-0.2,0-0.4-0.2-0.5-0.3c-0.2-0.1-0.3-0.3-0.4-0.5l0,0 c-0.1-0.2-0.2-0.4-0.2-0.6c0,0,0-0.1,0-0.1c-0.1-0.2-0.1-0.5-0.1-0.7c0-0.5,0.1-1,0.2-1.5c0.3-1,0.4-2.1,0.4-3.2 c0-0.4,0-0.8-0.1-1.2c-0.1-0.5-0.1-1.1-0.2-1.6c-1-3.9-3.3-7.3-6.6-9.6c-9.2-6.5-26.4-6.5-31.1,5.5c-0.1,0.2-0.1,0.4-0.2,0.5 c-0.6-0.7-1.2-1.5-1.8-2.2c-0.4-0.3-0.9-0.5-1.3-0.7c-6.4-2.8-15.4-1.6-20.1,3.8c-3.8,4.5-5.1,11.5-1.7,16.5 c-1.9-2.5-4.5-4.3-7.5-5.3c0.4,1,0.8,1.9,1.4,2.8c-0.3-0.4-0.6-0.7-0.9-1.1c-0.2-0.3-0.5-0.5-0.7-0.7s-0.6-0.6-0.9-0.8 s-0.6-0.5-0.9-0.7c-6-4.4-14.7-4.8-20.3,0.6c-4.3,4.3-5.2,10.1-3.7,15.9s5.2,9.7,8,14.6c-9.4,2.4-16.9,12.8-13.9,22.5 c1.3,4.1,4.4,7.4,8.4,8.8c0.7,0.2,1.4,0.3,2.2,0.4c1,0.1,1.7,1,1.6,2c0,0,0,0.1,0,0.1c-0.1,0.7-0.2,1.3-0.2,2c0,3.3,1.7,6.3,4.5,8 c0.8,0.5,1.1,1.5,0.7,2.3c0,0,0,0.1-0.1,0.1c-2.8,4-3.2,9.3-0.9,13.7c3.1,6.2,10.7,11.6,17.8,9.4c2.3-0.7,4.3-2.2,5.6-4.1 c0.1-0.2,0.3-0.3,0.4-0.5c0-0.1,0.1-0.1,0.1-0.2c1-1.5,1.7-3.3,2-5.1c1.8,2.8,3.7,5.4,5.9,7.9l1.3,1.5l-3.9,24.4l-0.6,4.4 c-0.4,3.1-3.1,5.5-6.3,5.5c-0.9,0-1.8,0-2.6,0l0,0c-1.8,0-3.5,0-5.3,0.1c-5.3,0.1-10.6,0.4-15.8,0.7c-4,0.3-7.9,0.5-11.8,0.9 c-2,0.2-3.9,0.3-5.9,0.5s-3.9,0.4-5.9,0.6c-3.8,0.4-7.7,0.9-11.5,1.4c-4.6,0.6-9.2,1.2-13.9,1.9c-7.2,1.1-14.5,2.2-21.7,3.5l0,0 c-7.1,1.2-14.1,2.5-21.1,3.8c-9.9,1.8-19.9,3.4-30,5c-10.3,1.7-19.9-5.3-21.6-15.6c-0.1-0.8-0.2-1.6-0.2-2.4 c-1.1-33,17.6-93.2,17.6-93.2c0.4-4.7,6-8,9.3-10.7c9.3-7.4,14.8-20.6,18.1-31.7c2.3-7.9,4.4-19.2-2.3-25.8 c-3.7-3.6-8.8-4.3-12.4-0.1c-2.6,3.1-7.3,21.9-14.1,15.1c-1.2-1.3-1.9-3-2-4.8c-0.6-4.5,1-10.4,5.4-12.7c3.9-2,8.6-0.6,12.5-2.7 c3-1.7,3.5-7.1,2.3-10.1c-2.2-5.4-8.7-7.7-14.4-8.2c-2.5-0.2-5.1,0-7.5,0.5c4.8-10.1,9.3-23.5-0.5-27.3c-4.9-1.9-11,1.3-14.2,4.9 c-0.7,0.7-1.3,1.5-1.8,2.3c-1.6-1.2-3.7-1.7-5.7-1.4c-7.8,1.1-12.1,10.8-14.7,19.2c-8.1-0.4-12.7,10-15.3,16.3 c-3,7.3-4.5,15-4.6,22.9c-0.2,8.4,0.3,16.7,1.8,24.9c0.7,3.5,1.9,6.9,2.7,10.4c0.9,3.8-0.1,7.5-1.4,11.1 c-5.4,13.6-12.9,26.3-18.6,39.8c-6.2,14.3-11.1,29-14.8,44.2c-7.1,29.8-8.5,61.5-0.3,91.2c15.6,56.2,94.6,37.8,139.9,22 c18.9-6.6,32-12.7,32-12.7s0.1,4.4,0.1,11.7l0,0v1c0,10-0.9,89.8-14.4,148.4l-0.5,0.8c0.1-0.1,0.3-0.1,0.5,0.6 c-1.5,3.3-4.8,5.4-8.4,5.3c-32.2-0.1-167.7,4.4-142,92c4.8,16.5,17.4,27,35,33.2c14,5,31.2,7.2,50.3,7.3h0.1 c-37.3,7.1-45.9,62.5-4.4,70.9c16,3.2,28.7-7.1,43-11.6c8.2-2.4,16.8-3.5,25.3-3.2c5.6,0.1,11.2,0.7,16.7,1.6 c60.4,9.9,121.7,13.2,182.8,9.9c41.3-2.3,83.5-7.5,122.7-21.3c29.6-10.4,62-28.7,76.6-57c5.2-10,7.8-21,7.8-32.2 C773.8,803.1,761.5,784.2,743,770.8z"></path> <path class="st1" d="M119.4,863.9l-1.5-1.4l0,0"></path> <path class="st4" d="M613.8,714.4l-4.5-20c-1.7-5.8-2.9-11.7-3.9-17.6c-4.6-30.1-8-67.4-9.2-81.4l14.3,4.6l-5-11.1 c0,0-16.5-55.4,16.5-79.8c-23.8-8.1-42.9-3.9-65.2-9.1c-8.6-2-17.7-3.8-27.7-5.4l-7.2-1.3c-0.3,19.7-14,24.2-25.3,26.3 c-27.8,5.3-47-14.9-46.2-32.6c-30.8,0.4-61.3,4.4-91.8,9.6c3.9,11.6,12.2,46.2-11.1,87.2l3-0.1c18.9-6.6,32-12.7,32-12.7 s0.1,4.4,0.1,11.7l0,0v1c0,9.9-0.9,89.8-14.4,148.3c-1,1.9-0.2-0.4,0,1.7c-0.8,1.6-1.4,3.4-1.7,5.2l0.6-2.6 c-3.6,5.2,5.4,11.5,18.5,14.7c34.2,8.4,222.9,23,233.5-12.1c0.6-2.1,0.6-4.3,0.1-6.4C617.8,726.3,616,720.3,613.8,714.4z"></path> <path class="st5" d="M367.3,927.3c-8.6-0.3-17.1,0.8-25.3,3.2c-14.4,4.4-27.1,14.8-43.1,11.5c-41.6-8.4-32.9-63.8,4.4-70.9l0,0 c3.6-0.1,7.1-0.1,10.7-0.1h0.2c17.2,0,33.9,0.5,47.6-4.3C360.5,868,327.1,897.7,367.3,927.3z"></path> <path class="st6" d="M521.9,493.1L521.9,493.1c-0.3,19.8-14,24.2-25.3,26.4c-27.8,5.3-47-14.9-46.2-32.6l0,0"></path> <path class="st6" d="M303.3,871.2L303.3,871.2c-37.3,7.1-45.9,62.5-4.4,70.9c16,3.2,28.7-7.1,43.1-11.5c8.2-2.4,16.8-3.5,25.3-3.2 c5.6,0.2,11.1,0.7,16.6,1.6c60.4,9.9,121.7,13.3,182.8,10c41.3-2.3,83.5-7.5,122.7-21.3c29.6-10.5,62-28.7,76.6-57 c5.2-10,7.8-21,7.8-32.2c0-26.7-12.3-45.6-30.8-59c-2.6-1.8-5.2-3.6-8-5.3c-27.7-16.4-65.3-22.7-96.9-24.6c-1.9-0.1-3.8-0.2-5.7-0.3 c-2.5-0.1-4.9-0.8-7.1-1.9c-2.3-1.2-4.3-2.8-5.8-4.9c-1.5-2-2.5-4.2-3.1-6.6l-2.5-11.4l-4.5-20l-3.9-17.6c-4.6-30.1-8-67.4-9.2-81.4 "></path> <path class="st5" d="M651.2,844.3c-12.3,28.2-42.8,18.5-76.3-1.8c-20.8-12.6-38.5-14.4-49-14c14.8-1.3,27.7-5.9,31.3-22.6 c2.9-13.6-4.7-26-17.9-30c31.8-1.4,64.4,1,90.2,21C629.5,797,663.5,816.1,651.2,844.3z"></path> <path class="st5" d="M539,427.8c-0.1,0-0.2,0-0.3,0c0.3,1.6,0.9,3.2,1.3,4.9c0.3,1.3,0.4,2.5,0.4,3.8c-0.4,6-4.7,9.3-10.5,9.5 c0.3,2.8-1.2,5.6-3.7,6.9c-3.1,1.6-8.2,1.3-10.6-1.6c-2.8-3.4-1.4-7.5,0.3-11.2l0,0c0.6-1.3,1.2-2.5,1.7-3.6 c0.6-1.4,1.1-2.8,1.6-4.1c1.7-5.2,3-10.5,3.9-15.8c1.1-5.4,1.8-10.9,2.2-16.4c-0.4-1.3-0.1-3.3-0.7-4.7c-0.8-2.2-2.2-4-4-5.4 c-3.8-2.8-8.9-2.6-12.9-5.1c-3.7-2.3-6.5-5.6-8.3-9.5c-0.3-0.8-0.7-1.9-1.1-2.8c-0.2-0.5-0.5-0.9-1-1.3c-1.8-1.5-2.9,1.2-4,2.2 c-2.3,2.1-5.5,3.2-8.6,2.9l0,0c-1.2-0.2-2.3-0.5-3.4-1c-0.8-0.4-1.5-0.9-2.2-1.5c-0.8-0.8-1.7-1.4-2.7-1.9c-1.9-0.7-2,2.4-2.3,3.5 c-0.4,1.9-1.6,3.5-3.3,4.4c-1,0.5-2.2,0.8-3.3,0.8c-1.3,0.1-2.7-0.1-3.9-0.5c-1.2-0.4-2.4-0.9-3.5-1.6c-0.6-0.4-1.3-0.2-1.7,0.3 c-0.2,0.2-0.2,0.5-0.2,0.8c0.4,10.3-9.3,13.9-13.3,15c-1.3,17.1,2.8,34.1,11.9,48.6c-0.3,2.1-1.2,4.1-2.5,5.8 c-6.5,1.6-14.1-0.1-16.9-5.8c-3-6-2.6-14.3,2.1-18.6c-3.2-0.5-4.1-5.3-2.3-8.1c0.2-0.3,0.2-0.4,0.1-0.7c-0.4-1.1-5.1-2-6.5-2.4 c-3.8-1.3-6.7-4.4-7.8-8.2c-2.8-9.1,4.2-18.8,13-20.9c-2.6-4.6-6-8.3-7.5-13.6s-0.6-10.8,3.4-14.8c3.3-3.2,8.1-4.4,12.5-3.4 c1.3,0.9,2.4,2.1,3.4,3.3c-0.6-0.9-1.1-1.8-1.4-2.8c3,1,5.6,2.9,7.5,5.3c-3.4-5.1-2.1-12.1,1.7-16.6c4.6-5.4,13.7-6.6,20.1-3.8 c0.5,0.2,0.9,0.4,1.3,0.7c0.6,0.8,1.2,1.5,1.8,2.2c0.1-0.2,0.1-0.4,0.2-0.6c1.3,1.3,2.5,2.7,3.6,4.2c4.1-11.7,20.5-11.8,29.1-5.6 c2,1.5,3.7,3.4,4.9,5.6c0.4,1.9,0.4,4-0.1,5.9c-0.5,1.9-0.1,3.2,1.1,3.6c0.9,0.2,1.8,0.1,2.7-0.3c3.2-1.4,5.8-3.2,9.5-2.8 c12,1.3,20.8,16.9,13.6,27c-0.4,0.6-0.9,1.2-1.4,1.8c-1,1-3.2,2.2-3.8,3.6c0,0,0,0.1,0,0.1c-0.9,3,5.7,3.7,7.5,4.4 C561.4,394.6,558.1,426.8,539,427.8z"></path> <path class="st6" d="M266.4,346.5c-3.7-7.9-1-19.1,3.2-27.5c3.2-6.5,0.7-17-7.6-18.2c-8.6-1.2-13.4,9.7-16.1,16.3 c-3,7.3-4.6,15-4.7,22.9c-0.2,8.4,0.4,16.7,1.8,24.9c0.7,3.5,1.9,6.9,2.7,10.4c0.9,3.8-0.1,7.5-1.4,11.1 c-5.4,13.6-12.9,26.3-18.6,39.8c-6.1,14.3-11.1,29.1-14.8,44.2c-7.1,29.8-8.5,61.5-0.3,91.2c15.6,56.2,94.7,37.8,139.9,22 c18.9-6.6,32-12.7,32-12.7s0.1,4.4,0.1,11.7c0,0.3,0,0.7,0,1c0.1,29.7-1.1,104.2-13.9,148.5c-1.1,3.9-4.7,6.6-8.8,6.6 c-32.2-0.1-167.7,4.4-142,92c8.7,29.6,42.3,40.2,85.2,40.6h0.2c3.5,0,7.1,0,10.7-0.1h0.2c16-0.6,31.9-2,47.6-4.3 c55.9-7.9,115.5-24.7,153.9-36.8c2.2-0.6,4.5-1,6.8-1.1c1-0.1,2-0.2,3.2-0.2h0.1c10.5-0.4,28.2,1.4,49,14 c33.5,20.3,64,29.9,76.3,1.8S629.5,797,629.5,797c-25.9-20-58.5-22.4-90.2-21l0,0c-9.8,0.4-19.6,1.2-29,2c-37.7,3-75.5,6-113.2,9 l-49.5,4"></path> <path class="st6" d="M279.9,341.2c0,0-5.4-10.9,1.3-27.9c2.8-7,5.9-15.5,4.6-23.1c-0.4-2.8-1.9-5.4-4.2-7.1 c-1.6-1.2-3.7-1.7-5.7-1.4c-7.7,1.1-12.1,10.8-14.7,19.2"></path> <path class="st6" d="M291.1,334.9c0,0-5.1-8.7,1.9-22c1.2-2.2,3.1-5.8,5-9.8c4.8-10.1,9.3-23.5-0.5-27.3c-4.9-1.9-11,1.3-14.2,5 c-0.7,0.7-1.3,1.5-1.8,2.3"></path> <path class="st6" d="M298,303c2.5-0.5,5-0.7,7.5-0.5c5.7,0.5,12.2,2.8,14.4,8.2c1.2,3,0.8,8.4-2.3,10.1c-3.9,2.1-8.6,0.7-12.5,2.7 c-4.3,2.2-6,8.2-5.4,12.7c0.1,1.8,0.8,3.4,2,4.8c6.8,6.8,11.5-12,14.1-15.1c3.5-4.2,8.7-3.5,12.4,0.1c6.7,6.5,4.5,17.8,2.3,25.8 c-3.2,11.1-8.7,24.3-18,31.7c-3.3,2.6-8.8,6-9.3,10.7c0,0-18.7,60.1-17.6,93.2c0.3,10.4,9,18.5,19.4,18.2c0.8,0,1.6-0.1,2.4-0.2 c10-1.6,20.1-3.2,30-5c7.1-1.3,14.1-2.6,21.1-3.8c31.4-5.3,62.7-9.5,94.5-9.6c3.2,0,5.9-2.3,6.3-5.5l0.6-4.4l4-24.4"></path> <path class="st6" d="M706.1,351.8c3.7-7.9,1-19.1-3.2-27.5c-3.3-6.5-0.7-17,7.6-18.2c0.3,0,0.6,0,0.8,0c8.2-0.4,12.8,10.2,15.4,16.5 c3,7.5,4.6,15.5,4.6,23.6c0.1,6.8-0.4,13.6-1.5,20.4c-0.9,5.6-3.9,11.2-3.5,16.9c0.3,4.8,3.2,9.4,5.2,13.8 c8.7,18.7,18.8,36.7,25.8,56c2.7,7.2,4.7,14.7,6.2,22.2c5.2,27.4,3.3,55.8-5.5,82.3c-4.8,14.3-13.3,28.5-25.5,37.7 c-1.3,1-2.6,1.9-3.9,2.7c-15.8,10.3-36.2,13.3-54.7,12.9c-19.7-0.4-39.5-4.4-58.4-9.8c-3.3-0.9-6.6-1.9-9.9-3 c-3.4-1.1-6.8-2.2-10.3-3.4c-3.6-1.2-7.1-2.5-10.7-3.8"></path> <path class="st6" d="M711.3,306.1c-2.6-8.4-7-18.1-14.7-19.2c-2-0.3-4,0.2-5.7,1.4c-2.3,1.7-3.8,4.3-4.2,7.1 c-1.3,7.7,1.9,16.1,4.6,23.1c6.7,17,1.3,27.9,1.3,27.9"></path> <path class="st6" d="M690.9,288.3c-0.6-0.8-1.2-1.6-1.8-2.3c-3.2-3.6-9.3-6.9-14.2-4.9c-9.7,3.8-5.3,17.2-0.4,27.3 c1.9,4,3.9,7.6,5,9.8c7,13.4,1.8,22,1.8,22"></path> <path class="st6" d="M674.5,308.3c-2.5-0.5-5-0.7-7.5-0.5c-5.7,0.5-12.2,2.8-14.4,8.2c-1.2,3-0.8,8.4,2.3,10.1 c3.9,2.1,8.6,0.7,12.5,2.7c4.3,2.2,6,8.2,5.4,12.7c-0.1,1.8-0.8,3.4-2,4.8c-6.8,6.8-11.5-12-14.1-15.1c-3.5-4.2-8.7-3.5-12.3,0.1 c-7.2,7-4.1,21.1-1.1,29.6c3.3,9.2,7.6,19,14.4,26.2c11.4,12,12.6,31,15.7,46.4c1.2,6.4,2.4,12.8,3.4,19.2c1.9,12.5,3,25,2,37.6 c-1,13.8-13.1,24.2-26.9,23.2c-0.6,0-1.3-0.1-1.9-0.2c-44.7-6.9-131.3-20.8-131.3-20.8c-1.5-0.3-2.5-1.5-2.5-3l-0.4-38.2"></path> <path class="st6" d="M444.8,394.6c-1.8,19.7,5,41.9,17.8,56.6c23.9,27.3,44,0,44,0"></path> <path class="st6" d="M525.5,400.7c-0.7-1.3-0.3-3.6-0.9-5.3c-0.8-2.2-2.2-4-4-5.4c-3.8-2.8-8.9-2.6-12.9-5.1 c-3.7-2.3-6.6-5.6-8.3-9.6c-0.6-1.3-1-3.2-2.1-4.1c-1.8-1.5-2.9,1.2-4,2.2c-3.2,3-8,3.8-12,1.9c-1.8-0.9-3-2.7-4.9-3.4 s-2,2.4-2.3,3.5c-0.4,1.9-1.6,3.5-3.3,4.5c-3.3,1.6-7.8,0.6-10.7-1.4c-0.6-0.4-1.3-0.2-1.7,0.3c-0.2,0.2-0.2,0.5-0.2,0.8 c0.5,13-15,15.3-15,15.3"></path> <circle class="st6" cx="466.5" cy="409.3" r="13.9"></circle> <circle class="st6" cx="502.7" cy="408" r="13.9"></circle> <path class="st6" d="M460.7,410.7c0,0,5.6,6.5,11.4,0"></path> <path class="st6" d="M497,410.7c0,0,5.6,6.5,11.4,0"></path> <circle class="st6" cx="486.3" cy="436.5" r="4.9"></circle> <path class="st6" d="M480.5,409.3c0,0,3.2-5.1,8.2-1.2"></path> <path class="st6" d="M474.1,388.6c0,0-14.5-11.1-26.6-0.6"></path> <path class="st6" d="M516.4,382.8c0,0-17.2-6-25.5,7.6"></path> <path class="st6" d="M456.3,442.8c-0.1,4.8-3.2,8.9-7.7,10.4c-7.1,2.1-14.7-3.2-17.8-9.4c-2.3-4.4-2-9.6,0.9-13.7 c0.5-0.8,0.3-1.9-0.5-2.4c0,0-0.1,0-0.1,0c-2.8-1.7-4.5-4.8-4.5-8c0-0.7,0.1-1.3,0.2-2c0.2-1-0.5-1.9-1.4-2.1c-0.1,0-0.1,0-0.2,0 c-0.7-0.1-1.4-0.2-2.2-0.4c-4-1.4-7.2-4.7-8.4-8.8c-3-9.8,4.5-20.2,13.9-22.5c-2.8-4.9-6.5-8.9-8-14.6s-0.6-11.6,3.7-15.9 c6.8-6.6,18.2-4.5,23.6,2.7c-3.7-5.5-2.3-13,1.8-17.8c5-5.8,14.8-7.1,21.6-4.1c3.2,1.4,5.3,4.4,7.6,7c4.4-12.6,22-12.6,31.3-6.1 c4.9,3.5,8,9.8,6.4,15.5c-0.8,2.9,0.7,4.6,3.7,3.3s5.8-3.2,9.5-2.8c12.7,1.4,21.8,18.8,12.2,28.8c-1,1.1-3.2,2.2-3.8,3.6 c-1.1,3,5.7,3.8,7.5,4.5c15.8,6.6,12.3,39.2-7,39.9c0.6,2.8,1.9,5.8,1.7,8.7c-0.4,6-4.7,9.3-10.5,9.5c0.3,2.8-1.2,5.6-3.7,6.9 c-3.1,1.7-8.2,1.3-10.6-1.6c-3.8-4.5,0.1-10.5,2-14.8c2.8-6.4,4.2-13.2,5.5-20c1.2-5.6,1.9-11.3,2.2-17.1v-0.2"></path> <line class="st6" x1="50" y1="863.9" x2="253.2" y2="863.9"></line> <line class="st6" x1="764.6" y1="863.9" x2="950" y2="863.9"></line> </svg> 