<?xml version="1.0" encoding="utf-8"?>
<!-- Generator: Adobe Illustrator 24.0.3, SVG Export Plug-In . SVG Version: 6.00 Build 0)  -->
<svg version="1.1" id="Layer_1" xmlns="http://www.w3.org/2000/svg" xmlns:xlink="http://www.w3.org/1999/xlink" x="0px" y="0px"
	 width="193.6px" height="48px" viewBox="0 0 193.6 48" style="enable-background:new 0 0 193.6 48;" xml:space="preserve">
<style type="text/css">
	.st0{fill-rule:evenodd;clip-rule:evenodd;fill:#02555F;}
</style>
<g>
	<path d="M59.3,33.6v-6.7L53,14.7h3.9l4.2,8.7l4.2-8.7h3.9l-6.3,12.2v6.7H59.3z"/>
	<path d="M72.3,33.9c-1.2,0-2.1-0.2-2.8-0.6c-0.7-0.4-1.3-0.9-1.6-1.5c-0.4-0.6-0.5-1.3-0.5-2c0-1.2,0.5-2.2,1.5-3
		c1-0.8,2.4-1.2,4.4-1.2h3.4v-0.3c0-0.9-0.3-1.6-0.8-2c-0.5-0.4-1.2-0.6-1.9-0.6c-0.7,0-1.3,0.2-1.8,0.5c-0.5,0.3-0.8,0.8-1,1.5
		h-3.4c0.1-1,0.4-1.8,1-2.5c0.6-0.7,1.3-1.3,2.2-1.7c0.9-0.4,1.9-0.6,3-0.6c1.9,0,3.4,0.5,4.5,1.4c1.1,1,1.6,2.3,1.6,4.1v8.2h-2.9
		l-0.3-2.2c-0.4,0.7-0.9,1.3-1.7,1.8S73.5,33.9,72.3,33.9z M73.1,31.2c1,0,1.8-0.3,2.3-1c0.5-0.6,0.9-1.4,1-2.4h-2.9
		c-0.9,0-1.6,0.2-2,0.5S71,29,71,29.5c0,0.5,0.2,0.9,0.6,1.2C71.9,31,72.5,31.2,73.1,31.2z"/>
	<path d="M88.5,33.9c-1.4,0-2.6-0.3-3.6-0.9c-1-0.6-1.9-1.4-2.5-2.5c-0.6-1.1-0.9-2.3-0.9-3.6c0-1.4,0.3-2.6,0.9-3.6
		c0.6-1.1,1.4-1.9,2.5-2.5c1-0.6,2.2-0.9,3.6-0.9c1.7,0,3.1,0.4,4.3,1.3s1.9,2.1,2.2,3.7h-3.6c-0.2-0.6-0.5-1.2-1.1-1.5
		c-0.5-0.4-1.2-0.6-1.9-0.6c-1,0-1.8,0.4-2.4,1.1c-0.7,0.7-1,1.7-1,3c0,1.3,0.3,2.3,1,3c0.7,0.7,1.5,1.1,2.4,1.1
		c0.7,0,1.3-0.2,1.9-0.5c0.5-0.4,0.9-0.9,1.1-1.5h3.6c-0.3,1.5-1.1,2.7-2.2,3.6C91.7,33.4,90.2,33.9,88.5,33.9z"/>
	<path d="M96.8,33.6V14.1h3.5v8.1c0.5-0.7,1.1-1.3,1.8-1.7c0.8-0.4,1.6-0.6,2.6-0.6c1.7,0,2.9,0.5,3.8,1.6c0.9,1,1.4,2.6,1.4,4.6
		v7.6h-3.4v-7.2c0-1.2-0.2-2-0.7-2.6s-1.2-0.9-2.2-0.9c-1,0-1.8,0.3-2.4,1c-0.6,0.7-1,1.6-1,2.9v6.9H96.8z"/>
	<path d="M117.8,33.6c-1.4,0-2.5-0.3-3.4-1s-1.3-1.9-1.3-3.6v-5.8h-2.3v-2.9h2.3l0.4-3.6h3.1v3.6h3.6v2.9h-3.6v5.9
		c0,0.6,0.1,1.1,0.4,1.3c0.3,0.2,0.8,0.4,1.4,0.4h1.7v2.9H117.8z"/>
	<path d="M127.2,33.6V14.7h6.1c1.5,0,2.7,0.2,3.6,0.7c0.9,0.5,1.6,1.2,2.1,2s0.7,1.8,0.7,2.8c0,1.2-0.3,2.3-1,3.2
		c-0.6,1-1.6,1.6-3,2l4.1,8.1h-2.7l-3.8-7.8h-0.2h-3.7v7.8H127.2z M129.5,24h3.7c1.5,0,2.5-0.4,3.2-1.1c0.7-0.7,1-1.6,1-2.7
		c0-1.1-0.3-2-1-2.7c-0.7-0.7-1.7-1-3.2-1h-3.6V24z"/>
	<path d="M146.9,33.9c-1.3,0-2.4-0.3-3.4-0.9c-1-0.6-1.8-1.4-2.3-2.4c-0.6-1-0.9-2.3-0.9-3.7c0-1.4,0.3-2.6,0.8-3.7
		c0.6-1.1,1.3-1.9,2.3-2.5s2.2-0.9,3.5-0.9c1.3,0,2.4,0.3,3.4,0.9c0.9,0.6,1.7,1.4,2.2,2.3s0.8,2,0.8,3.1c0,0.2,0,0.4,0,0.6
		c0,0.2,0,0.4,0,0.7h-10.7c0.1,1,0.3,1.9,0.7,2.6c0.4,0.7,1,1.2,1.6,1.5c0.6,0.3,1.3,0.5,2,0.5c0.9,0,1.7-0.2,2.3-0.6
		c0.6-0.4,1.1-1,1.4-1.8h2.2c-0.4,1.2-1,2.3-2.1,3.1S148.5,33.9,146.9,33.9z M146.9,21.8c-1.1,0-2,0.3-2.9,1
		c-0.8,0.7-1.3,1.6-1.4,2.9h8.4c-0.1-1.2-0.5-2.2-1.2-2.8C149,22.1,148.1,21.8,146.9,21.8z"/>
	<path d="M154.9,33.6V20.2h2.1l0.1,2.4c0.4-0.8,1.1-1.5,1.9-2c0.8-0.5,1.7-0.7,2.8-0.7c1.6,0,2.8,0.5,3.8,1.4c0.9,1,1.4,2.4,1.4,4.4
		v7.8h-2.3V26c0-2.8-1.2-4.2-3.5-4.2c-1.2,0-2.1,0.4-2.9,1.3s-1.1,2-1.1,3.6v6.9H154.9z"/>
	<path d="M174.3,33.6c-1.2,0-2.2-0.3-2.9-0.9c-0.7-0.6-1.1-1.7-1.1-3.2v-7.4H168v-1.9h2.3l0.3-3.2h2v3.2h3.9v1.9h-3.9v7.4
		c0,0.8,0.2,1.4,0.5,1.7c0.3,0.3,0.9,0.4,1.8,0.4h1.4v1.9H174.3z"/>
	<path d="M182.6,33.9c-1.1,0-2-0.2-2.8-0.6c-0.7-0.4-1.3-0.9-1.6-1.5c-0.4-0.6-0.5-1.3-0.5-2.1c0-1.4,0.5-2.4,1.6-3.2
		s2.5-1.1,4.3-1.1h3.6v-0.2c0-1.2-0.3-2.1-0.9-2.7c-0.6-0.6-1.4-0.9-2.5-0.9c-0.9,0-1.6,0.2-2.3,0.7c-0.6,0.4-1,1.1-1.2,1.9h-2.3
		c0.1-1,0.4-1.8,1-2.5c0.6-0.7,1.3-1.2,2.1-1.5c0.8-0.4,1.7-0.5,2.7-0.5c1.9,0,3.3,0.5,4.2,1.5s1.4,2.3,1.4,4v8.2h-2l-0.1-2.4
		c-0.4,0.8-0.9,1.4-1.7,1.9C184.8,33.6,183.8,33.9,182.6,33.9z M182.9,32c0.9,0,1.6-0.2,2.2-0.7c0.6-0.4,1.1-1,1.4-1.8
		c0.3-0.7,0.5-1.5,0.5-2.3v0h-3.4c-1.3,0-2.3,0.2-2.8,0.7c-0.5,0.5-0.8,1-0.8,1.7c0,0.7,0.3,1.3,0.8,1.7C181.3,31.8,182,32,182.9,32
		z"/>
	<path d="M191.4,33.6V14.1h2.3v19.4H191.4z"/>
</g>
<path class="st0" d="M32.5,48c0,0,1.4-5.6-7.8-5.4c-9.1,0.2-21.1,4.3-21.1,4.3s12.8-5.1,20.3-5.5c7.5-0.4,13.8,2.3,13.8,2.3
	s-0.1,1.2-2.3,2.7C33.2,47.8,32.5,48,32.5,48L32.5,48z M24.9,2.1C22.8,34.4,0,42.8,0,42.8C13.5,34,22.1,17.7,24.9,2.1L24.9,2.1z
	 M4.9,45.7C26.6,31.5,28.7,0,28.7,0C39,9.7,42.5,29.5,34.7,41.6c0,0-3.5-3.7-12.2-2.2C13.7,40.9,4.9,45.7,4.9,45.7L4.9,45.7z"/>
</svg>
