<?xml version="1.0" encoding="UTF-8"?> <svg xmlns="http://www.w3.org/2000/svg" width="211" height="49" viewBox="0 0 211 49" fill="none"> <path d="M14.808 38.728C11.2027 38.728 8.16933 37.9307 5.708 36.336C3.24666 34.7067 1.51333 32.5053 0.507996 29.732L6.644 26.144C8.06533 29.8533 10.856 31.708 15.016 31.708C17.0267 31.708 18.5 31.344 19.436 30.616C20.372 29.888 20.84 28.9693 20.84 27.86C20.84 26.5773 20.268 25.5893 19.124 24.896C17.98 24.168 15.9347 23.388 12.988 22.556C11.3587 22.0707 9.972 21.5853 8.828 21.1C7.71866 20.6147 6.592 19.9733 5.448 19.176C4.33866 18.344 3.48933 17.304 2.9 16.056C2.31066 14.808 2.016 13.352 2.016 11.688C2.016 8.39467 3.17733 5.77733 5.5 3.836C7.85733 1.86 10.6827 0.872 13.976 0.872C16.9227 0.872 19.5053 1.6 21.724 3.056C23.9773 4.47733 25.728 6.47067 26.976 9.036L20.944 12.52C19.488 9.4 17.1653 7.84 13.976 7.84C12.4853 7.84 11.3067 8.18667 10.44 8.88C9.608 9.53867 9.192 10.4053 9.192 11.48C9.192 12.624 9.66 13.56 10.596 14.288C11.5667 14.9813 13.404 15.744 16.108 16.576C17.2173 16.9227 18.0493 17.2 18.604 17.408C19.1933 17.5813 19.9733 17.876 20.944 18.292C21.9493 18.6733 22.712 19.0373 23.232 19.384C23.7867 19.7307 24.4107 20.1987 25.104 20.788C25.7973 21.3773 26.3173 21.984 26.664 22.608C27.0453 23.232 27.3573 23.9947 27.6 24.896C27.8773 25.7627 28.016 26.716 28.016 27.756C28.016 31.1187 26.7853 33.788 24.324 35.764C21.8973 37.74 18.7253 38.728 14.808 38.728Z" fill="#428DFC"></path> <path d="M46.8404 11.272C49.6831 11.272 52.0231 12.2253 53.8604 14.132C55.7324 16.0387 56.6684 18.6733 56.6684 22.036V38H49.9604V22.868C49.9604 21.1347 49.4924 19.8173 48.5564 18.916C47.6204 17.98 46.3724 17.512 44.8124 17.512C43.0791 17.512 41.6924 18.0493 40.6524 19.124C39.6124 20.1987 39.0924 21.8107 39.0924 23.96V38H32.3844V1.6H39.0924V14.912C40.7217 12.4853 43.3044 11.272 46.8404 11.272Z" fill="#428DFC"></path> <path d="M78.7895 12H85.9655L76.5015 38C75.1495 41.744 73.3469 44.448 71.0935 46.112C68.8749 47.8107 66.1015 48.5733 62.7735 48.4V42.16C64.5762 42.1947 65.9975 41.8133 67.0375 41.016C68.1122 40.2187 68.9615 38.936 69.5855 37.168L58.9255 12H66.2575L73.0175 29.472L78.7895 12Z" fill="#428DFC"></path> <path d="M92.4858 8.88C91.3765 8.88 90.4058 8.48134 89.5738 7.684C88.7765 6.852 88.3778 5.88133 88.3778 4.772C88.3778 3.66267 88.7765 2.692 89.5738 1.86C90.4058 1.028 91.3765 0.612 92.4858 0.612C93.6298 0.612 94.6005 1.028 95.3978 1.86C96.2298 2.692 96.6458 3.66267 96.6458 4.772C96.6458 5.88133 96.2298 6.852 95.3978 7.684C94.6005 8.48134 93.6298 8.88 92.4858 8.88ZM89.1578 38V12H95.8658V38H89.1578Z" fill="#428DFC"></path> <path d="M114.381 38.728C110.464 38.728 107.188 37.4107 104.553 34.776C101.953 32.1413 100.653 28.8827 100.653 25C100.653 21.1173 101.953 17.8587 104.553 15.224C107.188 12.5893 110.464 11.272 114.381 11.272C116.912 11.272 119.217 11.8787 121.297 13.092C123.377 14.3053 124.955 15.9347 126.029 17.98L120.257 21.36C119.737 20.2853 118.94 19.436 117.865 18.812C116.825 18.188 115.647 17.876 114.329 17.876C112.319 17.876 110.655 18.552 109.337 19.904C108.02 21.2213 107.361 22.92 107.361 25C107.361 27.0453 108.02 28.744 109.337 30.096C110.655 31.4133 112.319 32.072 114.329 32.072C115.681 32.072 116.877 31.7773 117.917 31.188C118.992 30.564 119.789 29.7147 120.309 28.64L126.133 31.968C124.989 34.0133 123.377 35.66 121.297 36.908C119.217 38.1213 116.912 38.728 114.381 38.728Z" fill="#428DFC"></path> <path d="M144.137 11.272C146.98 11.272 149.32 12.2253 151.157 14.132C153.029 16.0387 153.965 18.6733 153.965 22.036V38H147.257V22.868C147.257 21.1347 146.789 19.8173 145.853 18.916C144.917 17.98 143.669 17.512 142.109 17.512C140.376 17.512 138.989 18.0493 137.949 19.124C136.909 20.1987 136.389 21.8107 136.389 23.96V38H129.681V1.6H136.389V14.912C138.019 12.4853 140.601 11.272 144.137 11.272Z" fill="#428DFC"></path> <path d="M176.086 12H183.262L173.798 38C172.446 41.744 170.644 44.448 168.39 46.112C166.172 47.8107 163.398 48.5733 160.07 48.4V42.16C161.873 42.1947 163.294 41.8133 164.334 41.016C165.409 40.2187 166.258 38.936 166.882 37.168L156.222 12H163.554L170.314 29.472L176.086 12Z" fill="#428DFC"></path> <path d="M210.427 38H202.627L193.163 26.196V38H186.455V1.6H193.163V23.44L202.107 12H210.115L199.663 24.844L210.427 38Z" fill="#428DFC"></path> </svg> 