<?xml version="1.0" encoding="UTF-8"?> <svg xmlns="http://www.w3.org/2000/svg" width="1050" height="304" viewBox="0 0 1050 304" fill="none"> <path d="M54.38 2.1999H0.559998V25.5999H30.98L0.559998 103.6V127H54.38V103.6H23.96L54.38 25.5999V2.1999Z" fill="#B2D8E9"></path> <path d="M86.8646 0.639893C67.9886 0.639893 57.5366 11.0919 57.5366 36.2079V92.9919C57.5366 118.108 67.9886 128.56 86.8646 128.56C105.741 128.56 116.193 118.108 116.193 92.9919V36.2079C116.193 11.0919 105.741 0.639893 86.8646 0.639893ZM92.7926 91.4319C92.7926 102.04 92.0126 105.16 86.8646 105.16C81.7166 105.16 80.9366 102.04 80.9366 91.4319V37.7679C80.9366 27.1599 81.7166 24.0399 86.8646 24.0399C92.0126 24.0399 92.7926 27.1599 92.7926 37.7679V91.4319Z" fill="#B2D8E9"></path> <path d="M148.716 0.639893C129.84 0.639893 119.388 11.0919 119.388 36.2079V92.9919C119.388 118.108 129.84 128.56 148.716 128.56C167.592 128.56 178.044 118.108 178.044 92.9919V36.2079C178.044 11.0919 167.592 0.639893 148.716 0.639893ZM154.644 91.4319C154.644 102.04 153.864 105.16 148.716 105.16C143.568 105.16 142.788 102.04 142.788 91.4319V37.7679C142.788 27.1599 143.568 24.0399 148.716 24.0399C153.864 24.0399 154.644 27.1599 154.644 37.7679V91.4319Z" fill="#B2D8E9"></path> <path d="M234.904 2.1999L219.772 74.2719L204.64 2.1999H181.24V127H204.64V73.4919L214.312 127H225.232L234.904 73.4919V127H258.304V2.1999H234.904Z" fill="#B2D8E9"></path> <path d="M370.986 2.1999L359.13 100.948V2.1999H318.414L306.558 100.948V2.1999H283.158V127H323.406L335.73 35.7399V127H375.978L397.506 2.1999H370.986Z" fill="#B2D8E9"></path> <path d="M425.22 0.639893C406.344 0.639893 395.892 11.0919 395.892 36.2079V92.9919C395.892 118.108 406.344 128.56 425.22 128.56C444.096 128.56 454.548 118.108 454.548 92.9919V36.2079C454.548 11.0919 444.096 0.639893 425.22 0.639893ZM431.148 91.4319C431.148 102.04 430.368 105.16 425.22 105.16C420.072 105.16 419.292 102.04 419.292 91.4319V37.7679C419.292 27.1599 420.072 24.0399 425.22 24.0399C430.368 24.0399 431.148 27.1599 431.148 37.7679V91.4319Z" fill="#B2D8E9"></path> <path d="M516.712 115.924V96.5799C516.712 84.8799 513.124 78.4839 505.168 75.2079C512.5 69.9039 516.712 61.0119 516.712 47.2839V36.2079C516.712 11.0919 507.82 2.1999 481.144 2.1999H457.744V127H481.144V81.2919C490.192 81.2919 493.312 82.8519 493.312 91.8999V115.924C493.312 120.604 493.468 125.128 495.028 127H518.428C516.868 125.128 516.712 120.604 516.712 115.924ZM493.312 36.2079V47.2839C493.312 56.3319 490.192 57.8919 481.144 57.8919V25.5999C490.192 25.5999 493.312 27.1599 493.312 36.2079Z" fill="#B2D8E9"></path> <path d="M520.052 2.1999V127H543.452V2.1999H520.052ZM582.14 2.1999H557.96L543.452 64.5999L557.96 127H582.14L566.696 64.5999L582.14 2.1999Z" fill="#B2D8E9"></path> <path d="M615.201 52.4319C606.465 45.7239 602.409 42.1359 602.409 33.0879C602.409 27.1599 603.657 24.0399 607.245 24.0399C610.833 24.0399 612.705 27.1599 612.705 39.3279H636.105C636.105 12.6519 626.901 0.639893 607.245 0.639893C587.589 0.639893 579.009 12.6519 579.009 33.0879C579.009 56.6439 591.021 64.1319 602.409 73.3359C612.705 81.7599 614.265 85.5039 614.265 94.5519C614.265 102.04 613.329 105.16 608.961 105.16C604.593 105.16 602.409 102.04 602.409 83.6319H579.009C579.009 119.668 588.525 128.56 608.961 128.56C629.397 128.56 637.665 116.548 637.665 94.5519C637.665 70.9959 628.305 62.4159 615.201 52.4319Z" fill="#B2D8E9"></path> <path d="M678.925 2.1999V52.8999H664.261V2.1999H640.861V127H664.261V76.2999H678.925V127H702.325V2.1999H678.925Z" fill="#B2D8E9"></path> <path d="M734.783 0.639893C715.907 0.639893 705.455 11.0919 705.455 36.2079V92.9919C705.455 118.108 715.907 128.56 734.783 128.56C753.659 128.56 764.111 118.108 764.111 92.9919V36.2079C764.111 11.0919 753.659 0.639893 734.783 0.639893ZM740.711 91.4319C740.711 102.04 739.931 105.16 734.783 105.16C729.635 105.16 728.855 102.04 728.855 91.4319V37.7679C728.855 27.1599 729.635 24.0399 734.783 24.0399C739.931 24.0399 740.711 27.1599 740.711 37.7679V91.4319Z" fill="#B2D8E9"></path> <path d="M790.706 2.1999H767.306V127H790.706V85.9719C817.382 85.5039 826.274 76.7679 826.274 51.9639V36.2079C826.274 11.0919 817.382 2.1999 790.706 2.1999ZM790.706 62.5719V25.5999C799.754 25.5999 802.874 27.1599 802.874 36.2079V51.9639C802.874 61.0119 799.754 62.5719 790.706 62.5719Z" fill="#B2D8E9"></path> <path d="M88.388 177.2L76.532 275.948V177.2H35.816L23.96 275.948V177.2H0.559998V302H40.808L53.132 210.74V302H93.38L114.908 177.2H88.388Z" fill="#B2D8E9"></path> <path d="M116.494 177.2V302H139.894V177.2H116.494Z" fill="#B2D8E9"></path> <path d="M198.537 177.2H143.001V200.6H159.069V302H182.469V200.6H198.537V177.2Z" fill="#B2D8E9"></path> <path d="M239.718 177.2V227.9H225.054V177.2H201.654V302H225.054V251.3H239.718V302H263.118V177.2H239.718Z" fill="#B2D8E9"></path> <path d="M327.189 302H350.589L335.301 177.2H303.321L288.033 302H311.433L313.149 280.784H325.473L327.189 302ZM315.021 257.384L319.389 202.004L323.601 257.384H315.021Z" fill="#B2D8E9"></path> <path d="M395.693 177.2V238.82L375.569 177.2H352.169V302H375.569V240.38L395.693 302H419.093V177.2H395.693Z" fill="#B2D8E9"></path> <path d="M465.772 177.2V238.82L445.647 177.2H422.247V302H445.647V240.38L465.772 302H489.172V177.2H465.772Z" fill="#B2D8E9"></path> <path d="M529.958 302H553.358L538.07 177.2H506.09L490.802 302H514.202L515.918 280.784H528.242L529.958 302ZM517.79 257.384L522.158 202.004L526.37 257.384H517.79Z" fill="#B2D8E9"></path> <path d="M614.44 227.432C605.704 220.724 601.648 217.136 601.648 208.088C601.648 202.16 602.896 199.04 606.484 199.04C610.072 199.04 611.943 202.16 611.943 214.328H635.344C635.344 187.652 626.14 175.64 606.484 175.64C586.828 175.64 578.247 187.652 578.247 208.088C578.247 231.644 590.26 239.132 601.648 248.336C611.944 256.76 613.503 260.504 613.503 269.552C613.503 277.04 612.568 280.16 608.2 280.16C603.832 280.16 601.648 277.04 601.648 258.632H578.247C578.247 294.668 587.764 303.56 608.2 303.56C628.636 303.56 636.904 291.548 636.904 269.552C636.904 245.996 627.544 237.416 614.44 227.432Z" fill="#B2D8E9"></path> <path d="M678.163 177.2V227.9H663.499V177.2H640.099V302H663.499V251.3H678.163V302H701.563V177.2H678.163Z" fill="#B2D8E9"></path> <path d="M725.633 258.32V302H749.033V258.32L771.497 177.2H746.537L737.333 230.552L728.129 177.2H703.169L725.633 258.32Z" fill="#B2D8E9"></path> <path d="M773.095 177.2V302H796.495V177.2H773.095Z" fill="#B2D8E9"></path> <path d="M834.859 227.9H858.259V211.208C858.259 186.092 847.807 175.64 828.931 175.64C810.055 175.64 799.603 186.092 799.603 211.208V267.992C799.603 293.108 810.055 303.56 828.931 303.56C847.807 303.56 858.259 293.108 858.259 267.992V251.3H834.859V266.432C834.859 277.04 834.079 280.16 828.931 280.16C823.783 280.16 823.003 277.04 823.003 266.432V212.768C823.003 202.16 823.783 199.04 828.931 199.04C834.079 199.04 834.859 202.16 834.859 212.768V227.9Z" fill="#B2D8E9"></path> <path d="M899.519 177.2V227.9H884.855V177.2H861.455V302H884.855V251.3H899.519V302H922.919V177.2H899.519Z" fill="#B2D8E9"></path> <path d="M984.704 177.2H961.304V266.432C961.304 277.04 960.524 280.16 955.376 280.16C950.228 280.16 949.448 277.04 949.448 266.432V177.2H926.048V267.992C926.048 293.108 936.5 303.56 955.376 303.56C974.252 303.56 984.704 293.108 984.704 267.992V177.2Z" fill="#B2D8E9"></path> <path d="M987.9 177.2V302H1011.3V177.2H987.9ZM1049.99 177.2H1025.81L1011.3 239.6L1025.81 302H1049.99L1034.54 239.6L1049.99 177.2Z" fill="#B2D8E9"></path> </svg> 