<?xml version="1.0" encoding="UTF-8"?> <!-- Generator: Adobe Illustrator 23.1.1, SVG Export Plug-In . SVG Version: 6.00 Build 0) --> <svg xmlns="http://www.w3.org/2000/svg" xmlns:xlink="http://www.w3.org/1999/xlink" id="Layer_2" x="0px" y="0px" viewBox="0 0 1000 657.5" style="enable-background:new 0 0 1000 657.5;" xml:space="preserve"> <style type="text/css"> .st0{opacity:0.67;} .st1{fill:#428DFC;} .st2{fill:none;stroke:#000000;stroke-width:4.42;stroke-linecap:round;stroke-linejoin:round;} .st3{opacity:0.36;} .st4{fill:none;stroke:#CCDDE2;stroke-width:4.42;stroke-miterlimit:10;} .st5{fill:none;stroke:#000000;stroke-width:4.42;stroke-miterlimit:10;} .st6{fill:#2E2E2E;} .st7{fill:#FFFFFF;} </style> <g class="st0"> <path class="st1" d="M283.7,264.1c0,0.1,0,0.1-0.1,0.2c-0.4,1.6-0.8,3.2-1.2,4.8c-0.1,0.5-0.2,1-0.3,1.4c-0.4,1.7-0.7,3.3-1,5 c0,0,0,0.1,0,0.1c-0.3,1.6-0.6,3.2-0.8,4.8c-0.1,0.6-0.2,1.2-0.3,1.8c-0.3,1.6-0.4,3.2-0.6,4.8c-1,9.1,1.4,19.2-1.2,28 c-1.7,5.8-6.5,10.6-11.7,15.2c-0.8,0.7-1.6,1.4-2.4,2.2l-2.5,2.2c-1.2,1.1-2.4,2.2-3.6,3.3c-0.4,0.3-0.8,0.7-1.1,1.1 s-0.7,0.7-1.1,1.1c-3.6,3.7-6.4,7.7-7.3,12.2c-0.3,1.7-0.4,3.4-0.1,5.1c0,0.4,0.1,0.7,0.2,1.1c0,0.4,0.1,0.7,0.2,1.1l0,0 c0.1,0.2,0.1,0.5,0.2,0.7c0.2,0.9,0.5,1.8,0.8,2.7c1,2.5,2.1,4.9,3.3,7.3c0.2,0.5,0.5,0.9,0.7,1.4c1.2,2.3,2.3,4.6,3.3,7 c0.2,0.5,0.4,1.1,0.6,1.6s0.3,0.9,0.4,1.3l0.2,0.7c0.1,0.6,0.3,1.1,0.4,1.7s0.1,0.9,0.2,1.4c0,0.1,0,0.3,0,0.4 c0.2,1.5,0.1,3.1-0.2,4.6l0,0c-0.8,4.4-3.5,8.1-7,11.6c-3,2.9-6.2,5.5-9.6,8c-1.7,1.3-3.4,2.6-5.1,3.9s-3.2,2.7-4.8,4 c-0.4,0.4-0.7,0.7-1.1,1.1c-1.7,1.7-3.3,3.5-4.6,5.5c-6.5,10.1-3.4,21.6-6.8,32.3c-0.5,1.6-1.1,3.1-1.9,4.5c-0.2,0.5-0.5,1-0.9,1.5 c-0.2,0.5-0.5,1-0.8,1.4c-0.4,0.7-0.8,1.3-1.3,1.9c-0.4,0.6-0.9,1.2-1.4,1.8c-0.3,0.4-0.6,0.8-1,1.2c-0.3,0.4-0.7,0.8-1.1,1.2 c-0.1,0.1-0.2,0.2-0.4,0.3c-0.5,0.6-1,1.1-1.6,1.6c-0.9,0.9-2,1.8-3,2.6c-0.5,0.4-1,0.8-1.6,1.2c-0.1,0.1-0.3,0.2-0.5,0.3 s-0.3,0.2-0.5,0.3c-0.4,0.3-0.8,0.6-1.3,0.8c-0.2,0.2-0.4,0.3-0.6,0.4l-0.8,0.5c-0.3,0.2-0.6,0.4-0.9,0.6c-0.6,0.4-1.3,0.8-2,1.2 c-0.5,0.3-1,0.6-1.6,0.8c-0.5,0.3-1,0.5-1.5,0.8l0,0c-0.4,0.2-0.9,0.4-1.4,0.7c-0.7,0.3-1.3,0.6-2,0.9s-1.4,0.6-2.1,0.9l-1.7,0.6 c-0.5,0.2-1.1,0.4-1.6,0.6l-0.3,0.1c-1,0.3-2.1,0.7-3.1,1l0,0c-0.3,0.1-0.6,0.2-0.9,0.2c-0.3,0.1-0.6,0.2-0.9,0.3 c-0.6-0.5-1.3-1-1.9-1.6c-0.1-0.1-0.1-0.1-0.2-0.2c0,0-0.1,0-0.1-0.1s-0.1,0-0.1-0.1c-0.3-0.3-0.6-0.6-1-0.9 c-1.2-1.1-2.4-2.4-3.7-3.8l-0.7-0.8c-0.1-0.1-0.2-0.2-0.3-0.3c-0.1-0.2-0.2-0.3-0.4-0.4c-1.1-1.2-2.1-2.5-3.1-3.8 c-0.4-0.5-0.8-1-1.2-1.5c-0.2-0.2-0.4-0.5-0.6-0.8c-0.4-0.6-0.9-1.2-1.3-1.8c-0.2-0.2-0.3-0.4-0.5-0.7l-0.7-1 c-0.1-0.1-0.1-0.2-0.1-0.2l-1.7-2.3l0,0c4.6-7.6,8.3-15.7,11.1-24.1c0.2-0.6,0.4-1.2,0.5-1.9c0.3-1.2,0.5-2.4,0.6-3.7v-0.2 c0.2-2.7,0.1-5.4-0.3-8.1c-0.4-2.5-0.9-5-1.5-7.5c-0.3-1.3-0.6-2.5-1-3.8l-1-3.8c-0.8-3.1-1.5-6.3-1.9-9.4 c-0.1-0.4-0.1-0.8-0.1-1.2l-0.1-0.8c0-0.4-0.1-0.8-0.1-1.3s0-0.7,0-1.1v-0.2c0-0.9-0.1-1.8-0.1-2.6s0-1.7,0.1-2.6 c0-0.4,0-0.8,0.1-1.2c0-0.7,0.1-1.4,0.1-2s0.1-1.4,0.1-2s0.1-1.4,0.2-2s0.1-1.4,0.2-2c0.2-2,0.5-4.1,0.7-6.1c0-0.1,0-0.3,0-0.4 c0.1-1.2,0.3-2.5,0.4-3.7v-0.1c0.1-1.2,0.2-2.5,0.3-3.7c0-0.1,0-0.2,0-0.3c0.1-1.1,0.2-2.2,0.2-3.4l0,0c0-0.2,0-0.4,0-0.6v-0.2 c0-0.8,0-1.5,0-2.3c1.4-1.2,2.9-2.3,4.4-3.5c4-2.9,7.9-6,11.5-9.4c0.7-0.7,1.3-1.3,1.9-2c5.5-6.1,7.9-12.9,9.5-19.9 c2.4-10.8,2.6-22.1,7.9-32.4c0.4-0.8,0.9-1.7,1.4-2.5c0.6-1,1.2-1.9,1.9-2.8c1.3-1.8,2.8-3.4,4.4-5c2.8-2.8,5.9-5.3,9.2-7.5 c2.1-1.4,4.3-2.7,6.5-3.9s4.7-2.4,7.1-3.4s5.1-2,7.7-2.9c0.9-0.3,1.8-0.6,2.7-0.8c0,0,0,0,0.1,0c2.6-0.8,5.4-1.5,8.2-2.1 c0.9-0.2,1.9-0.4,2.8-0.6C267.6,264.6,275.7,263.9,283.7,264.1z"></path> <path class="st1" d="M283.7,264.1c0,0.1,0,0.1-0.1,0.2c-0.4,1.6-0.8,3.2-1.2,4.8c-0.1,0.5-0.2,1-0.3,1.4c-0.4,1.7-0.7,3.3-1,5 c0,0,0,0.1,0,0.1c-0.3,1.6-0.6,3.2-0.8,4.8c-0.1,0.6-0.2,1.2-0.3,1.8c-0.2,1.6-0.4,3.2-0.6,4.8c-1,9.1,1.4,19.2-1.2,28 c-1.7,5.8-6.5,10.6-11.7,15.2c-0.8,0.7-1.6,1.4-2.4,2.2l-2.5,2.2c-1.2,1.1-2.4,2.2-3.6,3.3c-0.4,0.3-0.8,0.7-1.1,1.1 s-0.7,0.7-1.1,1.1c-3.6,3.7-6.4,7.7-7.3,12.2c-0.3,1.7-0.4,3.4-0.1,5.1c0,0.4,0.1,0.7,0.2,1.1c0,0.4,0.1,0.7,0.2,1.1l0,0 c0.1,0.2,0.1,0.5,0.2,0.7c0.2,0.9,0.5,1.8,0.8,2.7c1,2.5,2.1,4.9,3.3,7.3c0.2,0.5,0.5,0.9,0.7,1.4c1.2,2.3,2.3,4.6,3.3,7 c0.2,0.5,0.4,1.1,0.6,1.6s0.3,0.9,0.4,1.3l0.2,0.7c0.1,0.6,0.3,1.1,0.4,1.7s0.1,0.9,0.2,1.4c0,0.1,0,0.3,0,0.4 c0.2,1.5,0.1,3.1-0.2,4.6l0,0c-0.8,4.4-3.5,8.1-7,11.6c-3,2.9-6.2,5.5-9.6,8c-1.7,1.3-3.4,2.6-5.1,3.9s-3.2,2.7-4.8,4 c-0.4,0.4-0.7,0.7-1.1,1.1c-1.7,1.7-3.3,3.5-4.6,5.5c-6.5,10.1-3.4,21.6-6.8,32.3c-0.5,1.6-1.1,3.1-1.9,4.5c-0.2,0.5-0.5,1-0.9,1.5 c-0.2,0.5-0.5,1-0.8,1.4c-0.4,0.7-0.8,1.3-1.3,1.9c-0.4,0.6-0.9,1.2-1.4,1.8c-0.3,0.4-0.6,0.8-1,1.2c-0.3,0.4-0.7,0.8-1.1,1.2 c-0.1,0.1-0.2,0.2-0.4,0.3c-0.5,0.6-1,1.1-1.6,1.6c-0.9,0.9-2,1.8-3,2.6c-0.5,0.4-1,0.8-1.6,1.2c-0.1,0.1-0.3,0.2-0.5,0.3 s-0.3,0.2-0.5,0.3c-0.4,0.3-0.8,0.6-1.3,0.8c-0.2,0.2-0.4,0.3-0.6,0.4l-0.8,0.5c-0.3,0.2-0.6,0.4-0.9,0.6c-0.6,0.4-1.3,0.8-2,1.2 c-0.5,0.3-1,0.6-1.6,0.8c-0.3,0.2-0.5,0.3-0.8,0.4l-0.6,0.3l0,0c-0.4,0.2-0.9,0.4-1.4,0.7c-0.7,0.3-1.3,0.6-2,0.9s-1.4,0.6-2.1,0.8 l0,0l-1.7,0.6c-0.5,0.2-1.1,0.4-1.6,0.6l0,0l-0.3,0.1c-1,0.3-2.1,0.7-3.1,1l0,0c-0.3,0.1-0.6,0.2-0.9,0.2c-0.3,0.1-0.6,0.2-0.9,0.3 c-0.6-0.5-1.3-1-1.9-1.6c-0.1-0.1-0.1-0.1-0.2-0.2l0,0c0,0,0,0-0.1,0s-0.1,0-0.1-0.1c-0.3-0.3-0.6-0.6-1-0.9 c-1.2-1.1-2.4-2.4-3.7-3.8l-0.7-0.8c-0.1-0.1-0.2-0.2-0.3-0.3c-0.1-0.2-0.2-0.3-0.4-0.4c-1.1-1.2-2.1-2.5-3.1-3.8 c-0.4-0.5-0.8-1-1.2-1.5c-0.2-0.2-0.4-0.5-0.6-0.8c-0.4-0.6-0.9-1.2-1.3-1.8c-0.2-0.2-0.3-0.4-0.5-0.7l-0.7-1 c-0.1-0.1-0.1-0.2-0.1-0.2l-1.7-2.3l0,0c4.6-7.6,8.3-15.7,11.1-24.1c0.2-0.6,0.4-1.2,0.5-1.9c0.3-1.2,0.5-2.4,0.6-3.7v-0.2 c0.2-2.7,0.1-5.4-0.3-8.1c-0.4-2.5-0.9-5-1.5-7.5c-0.3-1.3-0.6-2.5-1-3.8l-1-3.8c-0.8-3.1-1.5-6.3-1.9-9.4 c-0.1-0.4-0.1-0.8-0.1-1.2l-0.1-0.8c0-0.4-0.1-0.8-0.1-1.3s0-0.7,0-1.1v-0.2c0-0.9-0.1-1.8-0.1-2.6s0-1.7,0.1-2.6 c0-0.4,0-0.8,0.1-1.2c0-0.7,0.1-1.4,0.1-2s0.1-1.4,0.1-2s0.1-1.4,0.2-2s0.1-1.4,0.2-2c0.2-2,0.5-4.1,0.7-6.1c0-0.1,0-0.3,0-0.4 c0.1-1.2,0.3-2.5,0.4-3.7v-0.1c0.1-1.2,0.2-2.5,0.3-3.7c0-0.1,0-0.2,0-0.3c0.1-1.1,0.1-2.2,0.2-3.4l0,0c0-0.2,0-0.4,0-0.6v-0.2 c0-0.8,0-1.5,0-2.3c1.4-1.2,2.9-2.3,4.4-3.5c4-2.9,7.9-6,11.5-9.4c0.7-0.7,1.3-1.3,1.9-2c5.5-6.1,7.9-12.9,9.5-19.9 c2.4-10.8,2.6-22.1,7.9-32.4c0.4-0.8,0.9-1.7,1.4-2.5c0.6-1,1.2-1.9,1.9-2.8c1.3-1.8,2.8-3.4,4.4-5c2.8-2.8,5.9-5.3,9.2-7.5 c2.1-1.4,4.3-2.7,6.5-3.9s4.7-2.4,7.1-3.4s5.1-2,7.7-2.9c0.9-0.3,1.8-0.6,2.7-0.8c0,0,0,0,0.1,0c2.6-0.8,5.4-1.5,8.2-2.1 c0.9-0.2,1.9-0.4,2.8-0.6C267.6,264.6,275.7,263.9,283.7,264.1z"></path> <path class="st1" d="M199.7,322.5c-1.5,7-4,13.8-9.5,19.9c-0.6,0.7-1.2,1.3-1.9,2c-3.6,3.4-7.5,6.5-11.5,9.4 c-1.6,1.2-3.2,2.4-4.7,3.6c-0.9-1.4-0.6-3.8-1.7-5.7l0,0c-0.9-1.6-1.7-3.3-2.5-5c0-0.1-0.5-2.3-0.6-2.4c-2.9-4-6-7.9-9.4-11.5 c-5.6-5.8-13.8-12.1-14.4-12.8l-0.1-0.1c0,0,1.7-49,29.3-64.5C196.5,242.1,199.4,304.6,199.7,322.5z"></path> <path class="st2" d="M278.2,314.9c-4.2,14.1-26.9,22.7-29.7,37.3c-2.4,12.9,12.6,24.9,10.1,37.9c-2.6,14-24.2,21.8-32.1,34.2 c-6.5,10-3.4,21.6-6.8,32.3c-4,13-18.1,24.4-36.6,29.8c-0.6,0.2-1.2,0.3-1.8,0.5c-5.6-4.3-12-12-17.3-20.3 c4.6-7.6,8.3-15.7,11.1-24.1c4-12.5-3-25.4-4.6-38.2c-1.9-15.5,3.9-31.8,1.6-46.8c6.1-4.9,13.2-9.5,18.2-15 c13.8-15.5,8.5-35.3,17.4-52.3c10.8-20.7,44.8-35.2,78.2-33.3c-3.2,9.8-5.3,19.9-6.5,30.1C278.4,295.9,280.8,306.1,278.2,314.9z"></path> <path class="st2" d="M265.5,273.1c-49.8,50.8-73.3,158-82.4,213.3l0,0c-0.7,4.7-1.4,8.9-2,12.8"></path> <path class="st2" d="M172,357.5c6.2-5,13.3-9.6,18.2-15.1c13.9-15.5,8.5-35.3,17.4-52.3c10.8-20.8,44.8-35.2,78.3-33.3 c-3.2,9.8-5.3,19.9-6.5,30.1c-1,9.1,1.4,19.2-1.2,28c-4.3,14.2-26.9,22.7-29.7,37.3c-2.4,12.8,12.6,24.8,10.1,37.9 c-2.6,14-24.2,21.8-32.1,34.2c-6.5,10.1-3.4,21.6-6.8,32.3c-4.1,12.9-18.1,24.4-36.6,29.8c-0.6,0.2-1.2,0.4-1.8,0.5 c-5.6-4.3-12-12-17.2-20.3"></path> <path class="st2" d="M265.5,273.1c-49.8,50.8-73.3,158-82.4,213.3l0,0c-0.7,4.7-1.4,8.9-2,12.8"></path> <path class="st2" d="M230,518.1L216.1,596c-0.8,4.5-4.7,7.8-9.3,7.8H134c-4.6,0-8.6-3.3-9.3-7.9l-12.8-77.8H230z"></path> <path class="st2" d="M243.3,509.4L243.3,509.4c-0.4,4.9-4.5,8.7-9.4,8.7H108.2c-4.9,0-9-3.7-9.4-8.6l0,0c-0.5-5.2,3.3-9.8,8.5-10.3 c0.3,0,0.6,0,0.9,0h125.7c5.2,0,9.5,4.2,9.5,9.5C243.3,508.9,243.3,509.1,243.3,509.4z"></path> <g class="st3"> <path class="st1" d="M176.2,436.8L176.2,436.8c-0.2,2-0.5,3.8-1.1,5.7c-2.8,8.4-6.5,16.5-11.1,24.1l0,0l1.5,2.4l-16.1,20.3 c-0.2-0.1-0.5-0.1-0.7-0.2c-0.4-0.1-0.9-0.3-1.3-0.5c-0.6-0.2-1.2-0.5-1.8-0.7l-1.8-5.8c-0.4-0.2-0.8-0.4-1.2-0.6 c-1-0.4-2-0.9-2.9-1.4s-1.9-1-2.8-1.6c-3.6-2.1-6.9-4.6-9.9-7.4c-0.7-0.7-1.5-1.4-2.2-2.1c-1.9-1.9-3.6-4-5.1-6.2 c-0.2-0.3-0.4-0.5-0.6-0.8c-1.6-2.4-2.9-4.9-4-7.5c-0.3-0.7-0.6-1.4-0.8-2.1c-0.4-0.9-0.7-1.9-0.9-2.9 c-3.2-12.4-0.3-25.8-6.5-37.5c-2.1-3.7-4.7-7-7.7-10c-0.4-0.4-0.8-0.8-1.2-1.2c-1-1-2-1.9-3-2.9c-3-2.8-6.2-5.6-9.1-8.6 c-4.9-5-8.9-10.4-10-17c-0.1-0.3-0.1-0.7-0.1-1l0,0c1.3-12.6,11.3-24.4,9.9-36.9c0-0.3-0.1-0.6-0.1-0.9 c-2.7-16.8-24.5-26.8-28.5-43.2c-1.1-4.9-1.5-10-1.2-15c0.1-4.6,0.3-9.2,0.2-13.7c0-1.3-0.1-2.5-0.2-3.7 c-1-11.8-3.1-23.5-6.2-34.9c0.4,0,0.9-0.1,1.3-0.1c31.7-1.7,63.6,14.9,73.9,38.6c8.5,19.7,5,40.4,18.3,58.3l0.1,0.1 c3.3,4.4,9.3,8.6,13.6,12.5c3.5,3.2,6.7,6.8,9.5,10.6c0.1,0.1,4.2,2.4,1.3,2.9c0.5,0.6,1,1.3,1.4,2c0.5,0.9-1,3-0.6,3.8 c0,0,1.6-1.3,1.6-1.3c1.7,3.4,1.1,8.3,1.7,11.9c0.3,1.7,0.4,3.4,0.5,5.2l0,0c-0.4,10.5-2.8,21.5-2.4,32.1v0.2 c-0.2,3.1-0.1,6.3,0.3,9.4C171.6,418.5,175.5,427.7,176.2,436.8z"></path> <path class="st1" d="M170.1,399.7c-0.4-10.6,2-21.5,2.4-32.1C173,378.1,170.5,389,170.1,399.7z"></path> <path class="st1" d="M175.1,447.5c-2.5,7.4-5.7,14.6-9.5,21.5l-1.5-2.4l0,0c4.6-7.6,8.3-15.7,11.1-24.1c0.6-1.8,0.9-3.7,1.1-5.6 C176.5,440.5,176.1,444.1,175.1,447.5z"></path> <path class="st1" d="M150.7,499.1l-5-11.3l-1.8-5.8V482L69.7,242c46.5,57.3,69.1,176.4,78.4,241.8l0,0c0.3,1.8,0.5,3.6,0.7,5.3 l0,0c0.3,2.3,0.6,4.5,0.9,6.7C150,498.7,150.4,496.5,150.7,499.1z"></path> </g> <path class="st2" d="M176.2,436.8c-0.1,1.9-0.5,3.8-1.1,5.6c-2.8,8.4-6.5,16.5-11.1,24.2c-1.6,2.7-3.2,5.2-4.8,7.5 c-0.9,1.2-1.8,2.5-2.6,3.6c-0.6,0.8-1.1,1.5-1.7,2.2s-1.2,1.4-1.7,2c-0.3,0.4-0.6,0.7-0.9,1c-0.6,0.6-1.1,1.1-1.7,1.6 c-0.6-0.2-1.2-0.4-1.8-0.6c-0.3-0.1-0.5-0.2-0.7-0.3c-0.8-0.3-1.6-0.6-2.4-0.9l-0.4-0.2c-0.5-0.2-0.9-0.4-1.4-0.6 c-0.4-0.2-0.8-0.4-1.2-0.6c-1-0.4-2-0.9-2.9-1.4s-1.9-1-2.8-1.6c-3.6-2.1-6.9-4.6-9.9-7.4c-0.7-0.7-1.5-1.4-2.2-2.1 c-1.9-1.9-3.6-4-5.1-6.2c-0.2-0.3-0.4-0.5-0.6-0.8c-1.6-2.4-2.9-4.9-4-7.5c-0.3-0.7-0.6-1.4-0.8-2.1c-0.4-0.9-0.7-1.9-0.9-2.9 c-3.2-12.4-0.3-25.8-6.5-37.5c-2.1-3.7-4.7-7-7.7-10c-0.4-0.4-0.8-0.8-1.2-1.2c-3.9-3.9-8.2-7.5-12-11.4c-4.9-5-8.9-10.4-10-17 c-0.1-0.3-0.1-0.7-0.1-1l0,0c-1.4-12.7,8.6-24.6,9.9-36.9c0.2-2,0.2-4-0.1-6c-2.7-16.8-24.5-26.8-28.5-43.2 c-0.8-3.3-1.2-6.6-1.2-10c-0.1-4.5,0.1-9.1,0.2-13.7c0.1-2.9,0.1-5.9-0.2-8.8c-0.9-10.1-2.6-20-5-29.8c-0.4-1.7-0.8-3.3-1.3-5 c21.7-1.5,43.7,5.7,58.9,17.9c2,1.6,3.9,3.3,5.6,5c4.5,4.5,8.1,9.8,10.7,15.6c8.5,19.7,3.4,42.6,16.7,60.5c2.4,3.1,5,5.9,7.9,8.5 c1.1,1.1,2.3,2.2,3.5,3.2c2.4,2.2,4.7,4.3,6.9,6.5c2.7,2.7,5.1,5.6,7.2,8.8c0.4,0.6,0.7,1.2,1,1.8c0.2,0.5,0.5,0.9,0.7,1.4 s0.5,1.1,0.7,1.6s0.4,1,0.6,1.5c0,0.1,0,0.1,0.1,0.2c0.2,0.5,0.4,1.1,0.5,1.6s0.3,1.2,0.5,1.7s0.2,1,0.3,1.5s0.3,1.3,0.4,1.9 c0.5,3.4,0.6,6.8,0.5,10.2c-0.4,10.6-2.8,21.5-2.4,32.1c0,1.5,0.1,3,0.3,4.5C171.8,415.1,177.1,426.1,176.2,436.8z"></path> <path class="st2" d="M69.6,236.8c47.8,58.9,70.3,183,79.2,247.1c0.8,5.5,1.4,10.7,2,15.2"></path> <path class="st2" d="M278.2,314.9c-4.2,14.1-26.9,22.7-29.7,37.2c-2.4,12.9,12.6,24.9,10.1,37.9c-2.6,14-24.2,21.8-32.1,34.2 c-6.5,10.1-3.4,21.6-6.8,32.3c-3.8,12.2-16.6,23.1-33.5,28.8c-1,0.3-2.1,0.7-3.1,1l0,0c-0.6,0.2-1.2,0.3-1.8,0.5 c-5.1-3.9-10.8-10.6-15.7-17.9l-1.6-2.4c-1.6,2.7-3.2,5.2-4.8,7.5c-0.9,1.2-1.8,2.5-2.6,3.6c-0.6,0.8-1.1,1.5-1.7,2.2 s-1.2,1.4-1.7,2c-0.3,0.4-0.6,0.7-0.9,1c-0.6,0.6-1.1,1.2-1.7,1.7c-0.6-0.2-1.2-0.4-1.8-0.6l-0.7-0.3c-0.8-0.3-1.6-0.6-2.4-0.9 l-0.4-0.2c-0.5-0.2-1-0.4-1.4-0.7c-0.4-0.1-0.8-0.3-1.1-0.5c-1-0.4-2-0.9-2.9-1.4s-1.9-1-2.8-1.6c-3.6-2.1-6.9-4.6-9.9-7.4 c-0.7-0.7-1.5-1.4-2.2-2.1c-1.9-1.9-3.6-4-5.1-6.2c-0.2-0.3-0.4-0.5-0.6-0.8c-1.6-2.4-2.9-4.9-4-7.5c-0.3-0.7-0.6-1.4-0.8-2.1 c-0.4-0.9-0.7-1.9-0.9-2.9c-3.2-12.4-0.3-25.8-6.5-37.5c-2.1-3.7-4.7-7-7.7-10c-0.4-0.4-0.8-0.8-1.2-1.2c-3.9-3.8-8.2-7.5-12-11.4 c-4.9-5-8.9-10.4-10-17c-0.1-0.3-0.1-0.7-0.1-1l0,0c-1.4-12.7,8.6-24.6,9.9-36.9c0.2-2,0.2-4-0.1-6c-2.7-16.8-24.5-26.8-28.5-43.2 c-0.8-3.3-1.2-6.6-1.2-10c-0.1-4.5,0.1-9.1,0.2-13.7c0.1-2.9,0.1-5.9-0.2-8.8c-0.9-10.1-2.6-20-5-29.8c-0.4-1.7-0.8-3.3-1.3-5 c21.7-1.5,43.7,5.7,58.9,17.9c2,1.6,3.8,3.3,5.6,5c4.5,4.5,8.1,9.8,10.7,15.6c8.5,19.7,3.4,42.6,16.7,60.5c2.4,3.1,5,5.9,7.9,8.5 c1.1,1.1,2.3,2.2,3.5,3.2c2.4,2.2,4.7,4.3,6.9,6.5c2.7,2.7,5.1,5.6,7.2,8.8c0.4,0.6,0.7,1.2,1,1.8c0.2,0.5,0.5,0.9,0.7,1.4 s0.5,1.1,0.7,1.6s0.4,1,0.6,1.5c0,0.1,0,0.1,0.1,0.2c0.2,0.5,0.4,1.1,0.5,1.6s0.3,1.2,0.5,1.7s0.2,1,0.3,1.5s0.3,1.3,0.4,1.9 c6.1-4.9,13.2-9.5,18.2-15c13.8-15.5,8.5-35.3,17.4-52.3c10.8-20.7,44.8-35.2,78.2-33.3c-3.2,9.8-5.3,19.9-6.5,30.1 C278.4,296,280.8,306.1,278.2,314.9z"></path> <path class="st2" d="M141.9,317.1c0,0,3.3-51.2,30.9-66.7s27,71.7,27,71.7"></path> <path class="st2" d="M172,357.5c0,0-5.6-29.3,4.2-58"></path> </g> <line class="st4" x1="756.3" y1="583.5" x2="756.2" y2="583.5"></line> <path class="st1" d="M475,81.2c0,0,22.5-14.5,13-29.9S475,81.2,475,81.2z"></path> <path class="st1" d="M707.6,174.5c-12.6,6.5-26.2,6-39.2,1.1c-11.8-4.5-22.3-11.9-31.8-20.1l-64-48.5c-13.8-8.4-26.2-18.9-36.8-31.1 c-15.1-17.7-39.4-21.5-45.1-22.2l-4.1-7.9c7.7-3.1,15.8-7.2,24-8.3c16.5-2.2,33.8,4.8,45.8,15.8c6.7,6.1,12.5,13.2,19.1,19.4 c16.6,15.5,40.2,21,62,25.7c11,2.4,23.1,3.1,34.3,4.3c11.1,1.1,21.9,4.2,32,9c6.6,3.1,10.9,9.1,16,14.9c3.9,5.4,6.3,11.8,6.8,18.5 C727.4,158,718.7,168.8,707.6,174.5z"></path> <path class="st1" d="M475,81.2c-3,1.8-6.6,2.3-10.1,1.6h-0.1c-1-0.3-2-0.5-2.9-0.7c-0.4-0.1-0.8-0.2-1.1-0.4 c-10.1-3.7-15.9-2.2-14,8.5c2.2,12.6-14.3,14.3-25.2,12.4c-19.2-8.6-24.5-42.4-9.2-63.1c0.4-0.5,0.8-1.1,1.3-1.6s0.9-1.1,1.4-1.6 c1.1-1.2,2.3-2.4,3.6-3.5c0.4-0.4,0.9-0.8,1.4-1.1s1.1-0.9,1.7-1.3c0.5-0.4,1.1-0.8,1.7-1.2l0,0c10.4-6.9,23.2-9.1,35.3-6.3l0.3,0.1 c2.1,0.8,4.1,1.7,6.1,2.7c0.6,0.3,1.1,0.6,1.6,0.9c0.2,0.1,0.5,0.2,0.7,0.4c0.5,0.3,1.1,0.6,1.6,1c1.1,0.7,2.1,1.4,3.1,2.2 c3.7,2.8,6.9,6.1,9.7,9.9c0.5,0.6,0.9,1.3,1.3,1.9c0.3,0.4,0.6,0.9,0.9,1.4c0.4,0.6,0.8,1.3,1.1,2s0.9,1.6,1.2,2.5 c0.3,0.6,0.6,1.3,0.9,2c0.2,0.5,0.4,1,0.6,1.5c0.6,1.6,1.1,3.2,1.5,4.8c0.1,0.4,0.2,0.8,0.3,1.2c0.1,0.5,0.2,1,0.3,1.4 c0.1,0.5,0.2,1,0.3,1.5L475,81.2z"></path> <path class="st5" d="M483.1,41.3c7.7-3.1,15.7-7.2,24-8.3c16.5-2.2,33.8,4.8,45.8,15.8c6.7,6.1,12.5,13.2,19.1,19.4 c16.6,15.4,38.1,23.9,60,28.6c11,2.3,22.1,4,33.3,5.1c11.6,1.2,22.1,1.6,32.8,6.6c14,6.5,27.5,20.4,28.5,36.5 c0.8,13.1-7.9,23.9-19,29.6c-12.6,6.5-26.2,6-39.2,1c-11.8-4.5-22.3-11.9-31.8-20.2"></path> <path class="st5" d="M406.1,37.6c0.4-0.5,0.8-1.1,1.3-1.6s0.9-1.1,1.4-1.6c1.5-1.7,3.2-3.2,5-4.6c0.6-0.5,1.1-0.9,1.7-1.3l0.4-0.3 c0.5-0.3,0.9-0.6,1.4-0.9c13-8.5,28.3-9.4,41.6-4.5c0.6,0.2,1.2,0.4,1.7,0.6c1.6,0.6,3.2,1.4,4.7,2.2c0.6,0.3,1.1,0.6,1.7,0.9 c0.2,0.1,0.5,0.2,0.7,0.4c0.6,0.3,1.1,0.6,1.6,1c1.1,0.7,2.1,1.4,3.1,2.2c3.7,2.8,6.9,6.1,9.7,9.9c0.5,0.6,0.9,1.3,1.3,1.9 c0.3,0.4,0.6,0.9,0.9,1.4c0.4,0.6,0.8,1.3,1.1,2s0.9,1.6,1.2,2.5c0.3,0.6,0.6,1.3,0.9,2c0.2,0.5,0.4,1,0.6,1.5 c0.6,1.6,1.1,3.2,1.5,4.8c0.1,0.4,0.2,0.8,0.3,1.2c0.1,0.5,0.2,1,0.3,1.4c0.1,0.5,0.2,1,0.3,1.5s0.1,1.1,0.2,1.6"></path> <path class="st1" d="M548.1,584.9H625l1,20.4H525.2c0,0-17.8-12.2,2.5-20.4H548.1z"></path> <path class="st6" d="M454,205.7c0,0,53.6-36.7,118.6,30.2c0,0-8.8,52.8-36.8,75.1c0,0,164.5-24.2,181.8,36.6c0,0,5.7-106-84.1-195.2 s-141.8-58.8-158.6-12S459.9,168.2,454,205.7z"></path> <path class="st1" d="M809.1,583.2v-88.9l29.9,1v110h-50.5c0,0-6.8-10.2,3.8-13.6S809.1,593.5,809.1,583.2z"></path> <circle class="st1" cx="355.8" cy="481.8" r="5.6"></circle> <path class="st2" d="M555.5,98.2c95.8,44.7,162.2,141.9,162.2,254.6c0.1,57.6-17.6,113.8-50.7,160.9c-5.5,7.8-11.4,15.4-17.6,22.6"></path> <path class="st2" d="M613.9,306.7c0,0-185.8-10.2-185,84.7c0.3,18.4,7.4,36,20,49.4l105.6,115c6.2,6.7,9.6,12.1,11.5,16.3 c2,4.6-0.1,10-4.8,12c-1.2,0.5-2.4,0.8-3.7,0.8h-29.8c-5.6,0-10.2,4.6-10.2,10.2c0,5.6,4.6,10.2,10.2,10.2c0,0,0,0,0,0H626 c-0.9-73.2-29.1-124.4-52.8-154.6c-7.4-9.5-15.6-18.4-24.4-26.5"></path> <path class="st2" d="M667,513.7c0,0,73.7-24.7,172-18.4v110h-45.9c-3.8,0-6.8-3.1-6.8-6.8l0,0l0,0c0-3.4,2.6-6.4,6-6.8l10.5-1.3 c3.6-0.5,6.3-3.5,6.3-7.2l0,0c0-4-3.2-7.2-7.2-7.2c-0.4,0-0.8,0-1.2,0.1L626,605.3"></path> <path class="st2" d="M573.2,450.7L573.2,450.7c5.6-11.4,10.6-20.7,13.8-26.5"></path> <path class="st2" d="M538.5,584.9c-3.9-12.1-2.8-28.1,1-45.4"></path> <path class="st7" d="M361.2,481.8c0,3.1-2.5,5.6-5.6,5.6c0,0,0,0,0,0c-0.9,0-1.8-0.2-2.6-0.6c0.1,0.9,0.2,1.8,0.2,2.7v4.2 c0,8.9-7.2,16.1-16,16.1h-9.4l-0.1,40.2c-0.4,27-14.6,27.6-14.6,27.6v14.6h1.6c1.8,0,3.5,0.7,4.7,2c2.6,2.6,2.6,6.8,0,9.5 c-1.3,1.3-3.1,2-5,2c-3.3-0.1-6.7-0.6-9.9-1.3c-1.3,0.9-2.9,1.4-4.5,1.3c-10.2-0.4-28.6-4.2-39-25.9c-6.8,4.8-8.6,7.6-17.6,7.6 c-9.6,0-18.9-3.2-26.5-9.2v14.1h1.7c3.7,0.1,6.7,3.1,6.6,6.8c-0.1,3.7-3.1,6.7-6.8,6.6c-3.8-0.1-7.7-0.7-11.4-1.7v-0.1 c1.4-1.3,2.2-3.1,2.2-5c0-0.2,0-0.4,0-0.7l-2.2,5.6c-1.2,1.1-2.8,1.7-4.5,1.7h-0.2c-16-0.4-59-10.2-46.3-86.8 c9-54.2,58-49.7,81.2-28c6.1,5.8,7.7,12.7,6.4,18.9h12.4v-20.7c0-24.6,19.9-44.5,44.5-44.5h7.7c13.7,0,24.7,11.1,24.7,24.8l0,0 c7.3,0,14,3.9,17.7,10.2c1.4-2.8,4.7-4,7.5-2.6C360,477.7,361.2,479.6,361.2,481.8L361.2,481.8z"></path> <path class="st7" d="M209.1,598.9c0,1.9-0.8,3.7-2.2,5l2.2-5.6C209.1,598.4,209.1,598.6,209.1,598.9z"></path> <path class="st7" d="M209.1,598.9c0,1.9-0.8,3.7-2.2,5l2.2-5.6C209.1,598.4,209.1,598.6,209.1,598.9z"></path> <path class="st2" d="M214.1,549.9c5,22.6-13.4,27.6-13.4,27.6v14.6h1.6c3.7,0,6.7,3,6.7,6.7l0,0c0,3.7-3,6.7-6.7,6.7 c-0.1,0-0.1,0-0.2,0c-16.1-0.5-59-10.2-46.3-86.8c9-54.2,58-49.7,81.2-28c20.1,18.9-8.6,49.6-29.1,31.2c-2.8-2.5-5.3-5.2-7.7-8.1"></path> <path class="st2" d="M216.8,578v14.1h1.6c3.7,0,6.7,3,6.7,6.6c0,0,0,0.1,0,0.1c0,3.7-3,6.7-6.7,6.7c-0.1,0-0.2,0-0.2,0 c-3.9-0.1-7.7-0.7-11.4-1.7"></path> <path class="st2" d="M304.5,604.2c3.3,0.8,6.6,1.2,9.9,1.3c3.7,0.1,6.8-2.7,6.9-6.4c0-0.1,0-0.2,0-0.3c0-1.8-0.7-3.5-2-4.8 c-1.2-1.3-3-2-4.7-2H313v-14.5c0,0,14.2-0.6,14.6-27.7l0.1-40.2"></path> <line class="st2" x1="255.9" y1="509.7" x2="243.4" y2="509.7"></line> <path class="st2" d="M312.3,549.9c5,22.6-13.4,21.6-13.4,21.6v20.6h1.6c1.8,0,3.5,0.7,4.8,2c1.7,1.7,2.3,4.1,1.8,6.5 c-0.9,3.1-3.8,5.2-7.1,5c-10.2-0.4-28.6-4.2-39.1-25.9c-6.8,4.8-8.6,7.6-17.6,7.6c-12.9,0-25.1-5.8-33.2-15.9"></path> <path class="st2" d="M313.1,509.7h24c8.8,0,16-7.2,16-16.1v-4.2c0-0.9-0.1-1.8-0.2-2.7"></path> <path class="st2" d="M350.5,479.4c-0.9-1.6-2-3-3.3-4.3c-3.8-3.8-9-6-14.4-6c0-13.7-11.1-24.7-24.7-24.7h-7.7 c-24.6,0-44.5,19.9-44.5,44.5v27.6c-0.3,12.6,9.8,23.1,22.4,23.3c12.6,0.3,23.1-9.8,23.3-22.4c0-0.3,0-0.6,0-1v-35.4"></path> <path class="st2" d="M352.9,486.8c0.8,0.4,1.7,0.6,2.6,0.6c3.1,0,5.6-2.5,5.7-5.6c0-3.1-2.5-5.6-5.6-5.7c-2.2,0-4.2,1.3-5.1,3.3"></path> <path class="st2" d="M315.6,473.4c0,0,2-5.5,10.2-4.3"></path> <path class="st7" d="M265.4,448.5c0,0-1.4,12.3,6.6,10.2s8.1-8.3,9.4-3s8.8,9,13.8,2.8s2.1,2.5,4.9,4.2s10.2,2.3,13.2-3.4 s5.2-6.1,7.1-1.2s18.8-6.9,18.8-8.2s10.8-6.4,10.8-6.4l-4.6-16.8c0,0-6.5-3.9-8.1-4.3s-4.7-0.2-6.3-1.1s-19.1-5.4-19.1-5.4 S265.9,427.6,265.4,448.5z"></path> <path class="st2" d="M283.1,447.5c-0.2,0.5-0.4,1.1-0.6,1.6c0,0.1,0,0.2-0.1,0.3c-0.9,2-1.2,4.1-0.9,6.3c0.4,2.2,2.1,5.5,4.4,6.1 c6.7,1.7,10-3,12.2-8.3c1.4-3.2,2.4-6.7,3.5-9.2c1.5-3.1,3.6-5.9,6.2-8.2"></path> <path class="st2" d="M283.4,446.5c-0.1,0.3-0.2,0.6-0.3,1c-0.2,0.6-0.4,1.1-0.6,1.6c0,0.1,0,0.2-0.1,0.3c-1.9,4.5-5.3,8.6-10.4,9.3 c-5.7,0.8-9.3-8.3-4.1-17.7c0,0,0,0,0-0.1"></path> <path class="st2" d="M298,453.4c0,0-1.6,12,7.6,11c10.7-1.2,7.5-13.5,21.1-23.8"></path> <path class="st2" d="M317.4,452.7c1.5,3.6,4.7,5.8,8.7,5.4c5.7-0.7,8.9-5.6,12.7-9.2c0.1-0.1,0.2-0.2,0.3-0.3 c4.5-4.1,10.6-5.9,16.6-5c0,0,34,9.1,81.5-19.3"></path> <path class="st2" d="M540.5,310.2c24-35,36.8-76.4,36.8-118.8"></path> <path class="st2" d="M283.4,446.5c0,0,3.5-7.7,8.3-11.3"></path> <path class="st2" d="M490.3,60.2l65.2,38c-86-26.2-105.5,110.7-110,171.4c0,0-4,86.5-89.3,126.2l-12.4,5.7 c-10.8,4.9-22.1,8.8-33.6,11.6C273.3,422.4,268,441,268,441"></path> <line class="st2" x1="482.5" y1="127.3" x2="474.6" y2="115.5"></line> <path class="st2" d="M421.7,102.6l15.1,14.6c0.8,0.8,2.1,0.8,2.8,0c0.1-0.1,0.1-0.1,0.2-0.2l1.8-2.4c0.3,0,35.5,19,39.5-14"></path> <path class="st5" d="M489.4,53.4c0,0,29.2,2.2,46.4,22.4c10.5,12.3,22.9,22.8,36.8,31.1"></path> <path class="st5" d="M417.2,27.3c-27.9,17.3-24.7,63.4-1.6,73.5c8.8,3.9,34,4.8,31.3-10.6c-1.9-10.7,4-12.1,14-8.5 c6.2,2.2,13.1,1.9,18-2.9c1-0.9,1.8-2,2.6-3.1"></path> <path class="st2" d="M950,605.3c-4.8,0-864.2,0-864.2,0"></path> <path class="st2" d="M717.6,353.9L717.6,353.9c0,38.8-31.4,70.2-70.2,70.2H522"></path> <path class="st2" d="M526.5,525.3c0,0-9.5,33.1-4.5,42.9s13.2,2.1,14-6"></path> </svg> 