<?xml version="1.0" encoding="UTF-8"?> <!-- Generator: Adobe Illustrator 23.1.1, SVG Export Plug-In . SVG Version: 6.00 Build 0) --> <svg xmlns="http://www.w3.org/2000/svg" xmlns:xlink="http://www.w3.org/1999/xlink" id="Layer_2" x="0px" y="0px" viewBox="0 0 1000 657.5" style="enable-background:new 0 0 1000 657.5;" xml:space="preserve"> <style type="text/css"> .st0{fill:#428DFC;} .st1{fill:none;stroke:#CCDDE2;stroke-width:4.11;stroke-miterlimit:10;} .st2{fill:none;stroke:#000000;stroke-width:4.11;stroke-miterlimit:10;} .st3{fill:none;stroke:#000000;stroke-width:4.11;stroke-linecap:round;stroke-linejoin:round;} .st4{fill:#353642;} .st5{fill:#D7E8F0;} .st6{fill:#D0E0F8;} </style> <path class="st0" d="M209.9,40.5c-2.8,4.7-8.7,6.7-13.7,7.7c-6.4,1.3-13.1,1.7-19.6,2.2l-3.8,0.9l0,0c-3,0.9-4.7,4.1-3.8,7.1 c0,0,0,0,0,0c2.3,8.1,5.6,15.9,9.6,23.2l-6,6c-1.7-2.3-1.8-6.3-4.1-5.9c-2.2-2.2-4.8-3.3-7.5-0.3c-5.3,5.8-4.4,17.7,3.3,21l-1.7,8.6 c-1.2,6.2-6.7,10.7-13,10.7l1.3-10.2c-9,4.5-19.2-5.3-18.5-13.4c0.5-5.6-0.8-9.4-4.9-13.4c-0.3-0.3,1.4-1.3,1.1-1.5 c-1.2-3.5-1.3-7.6-0.2-9.9c2-4.1,7.9-6.6,5.2-11.1c-1.2-2-2.1-4.1-2.6-6.4c-1.1-6,0.5-12.2,4.3-17c4-4.8,10.5-3.5,15.8-5.2 c6.5-2,9.5-8.9,16.2-11.1c3.4-1.1,6.5-0.6,9.9,0.2c2.9,0.7,5.7,1.4,8.5,2.3s5.3,1.6,8,0.8c3.6-1,6.4-4.4,10.4-4.4 c2,0,3.9,0.6,5.5,1.8C212.6,28.4,212.6,36,209.9,40.5z"></path> <path class="st1" d="M86.1,175.9"></path> <line class="st2" x1="257.5" y1="224" x2="257.5" y2="224"></line> <path class="st3" d="M172.4,86.9c-1.1-1.8-2.3-3.6-3.8-5.1c-2.2-2.2-4.8-3.3-7.5-0.3c-5.3,5.8-4.4,17.7,3.3,21l-1.7,8.6 c-1.2,6.2-6.7,10.7-13,10.7"></path> <path class="st3" d="M144.8,159.9c0.4-3.3,1.5-12.1,2.6-20.5c1-7.8,1.9-15.2,2.2-17.7l1.3-10.2"></path> <path class="st2" d="M206.6,59.7c0,0-12.8,0.6-15.2,11.2"></path> <path class="st2" d="M211.2,87.6c3.5-0.1,8-0.6,9.6-4.1l-8.8-9.7c-2.1-2.4-3.4-5.4-3.6-8.6c-0.4-5.4,0.3-13.9-4.9-19.6"></path> <ellipse transform="matrix(0.6706 -0.7419 0.7419 0.6706 12.9172 173.0027)" cx="201.2" cy="72" rx="3.9" ry="3.3"></ellipse> <line class="st2" x1="202.8" y1="151.4" x2="196.2" y2="119.3"></line> <path class="st4" d="M370.9,296L328.2,331c51.4,78.4,12.5,92.8,12.5,92.8c-7.5,1.4-15.2,2.5-22.8,3.1c-37.2,2.7-75.3-6.9-105.9-28.4 c-62-43.5-116-130.6-87.2-206.4c2.4-6.4,5.4-12.6,8.9-18.5c3-5.1,6.8-9.8,11.3-13.7c16-14,38.7-17.3,58-8.5c3.6,1.7,7,3.7,10.2,6.1 c16.2,12.4,30.9,30,43.6,48.5c11.3,16.7,21.4,34.2,30.4,52.2c2.5,4.9,4.7,9.6,6.7,13.9c18-7.3,33-19.6,47-32.9 C323.8,270.8,370.9,296,370.9,296z"></path> <path class="st2" d="M341,321.6c-0.8,0.6-1.7,1.3-2.5,1.9"></path> <path class="st2" d="M214.7,188.8c11.3,21.7,22.7,43.4,34,65.2c8.6,16.4,23,26.6,43.3,18.8c22.1-8.5,40-24.7,56.5-41.2 s33.3-32.3,57.1-36.6c30.8-5.5,60,11.3,81,32.5c3.3,3.3,3.9,8.5,1.5,12.5c-3,4.8-9.2,6.3-14,3.3c-0.4-0.3-0.8-0.6-1.2-0.9 c-10-8.5-26.1-20.8-37.4-20.9"></path> <path class="st2" d="M404.7,250.7c3.5,2.3,8.3,4.9,12.3,4.9"></path> <path class="st2" d="M449.1,225.7c7.4,3.7,10.1,14.3,4.9,20.7c-6.6,8.2-14.9,14.9-24.3,19.6c-10.3,5.1-16.9,2-27-4.3"></path> <path class="st2" d="M432,235.3c0,0,14.6,3.6,14.2,17.8c0,0.6-0.1,1.2-0.3,1.8"></path> <path class="st2" d="M421.7,244.2c0,0,19.6,12.7,10.3,20.6"></path> <path class="st0" d="M800.5,293.9c-23.1,63.5-87.8,65.3-95.2,65.3c3.1-6.5,3.9-18-2.8-38.1c9.3-13.6,9.1-31.6-0.5-45 c0.1-0.1,0.1-0.2,0.2-0.3c3.2-0.2,6.4-0.7,9.6-1.5c11.2-2.7,33.2-8.5,50.6-16.7c11.8-5.6,25.7,3.4,24.6,16.4c0,0.2,0,0.3-0.1,0.5 c7.9,0,14.4,6.4,14.4,14.3C801.4,290.6,801.1,292.3,800.5,293.9z"></path> <path class="st5" d="M504,442.8c-7.8,13.3-19.9,24.7-31.6,34.6c-41.2,34.9-95,52.6-149,53.2c-54.2-0.7-108.2-18.5-149.6-53 C43.1,368.5,66.8,239.6,87.9,179.9c0.7-2.1,1.8-4,3-5.8c3.3-4.9,8.6-8.1,14.5-8.9c11.1,1.5,21.2,10.7,19.4,25c0,0.5-0.2,1.3-0.3,1.9 c-28.8,75.8,25.2,162.9,87.2,206.4c28.1,19.7,62.5,29.4,96.7,28.8h0.4c2.9-0.1,5.9-0.2,8.8-0.4c19.2-1.4,37.9-6,56.4-11.6l0,0 c21.7-6.5,43.2-14.4,64.8-19.9c7.6-1.9,15.3-3.8,22.9-5.6c4.4-0.9,9-1.2,13.5-0.9C501.9,390.7,520.6,414.4,504,442.8z"></path> <path class="st6" d="M510.6,442.8c-7.8,13.3-19.9,24.7-31.6,34.6c-42.8,36.3-99.3,54-155.6,53.2c-54.2-0.7-108.2-18.5-149.6-53 C43.1,368.5,66.8,239.6,87.9,179.9c0.7-2.1,1.8-4,3-5.8c3.3-4.9,8.6-8.1,14.5-8.9c11.1,1.5,21.2,10.7,19.4,25c0,0.5-0.2,1.3-0.3,1.9 c-28.8,75.8,25.2,162.9,87.2,206.4c28.1,19.7,62.5,29.4,96.7,28.8h0.4c5.2,0.1,10.3-0.1,15.4-0.4c19.2-1.4,37.9-6,56.4-11.6l0,0 c21.7-6.5,43.2-14.4,64.8-19.9c7.6-1.9,15.3-3.8,22.9-5.6c2.3-0.5,4.6-0.8,6.9-0.9C505.2,386.9,528.5,412.1,510.6,442.8z"></path> <path class="st4" d="M332.5,530.5l13.2,18.6c0,0,79.6,3.1,123.2,39.7c8.1,6.8,3.2,19.9-7.3,19.9l0,0c-2.6,0-5.2-0.9-7.2-2.6 c-10.3-8.6-49.6-35.8-138.5-36.6c-86.6-0.8-119.9,26-129.1,35.8c-2.1,2.2-5.1,3.5-8.1,3.5h-1.7c-10.8,0-15.4-13.6-6.8-20.3 c36.4-28.3,117.9-37.3,117.9-37.3l13.9-21"></path> <path class="st4" d="M684.9,427.3c0,0,24.4,23.2,16.8,95c-0.6,5.1-2.3,10-5.2,14.3l-2.7,4c-4.3,6.5-10.9,11.2-18.5,13.3 c-15.9,4.3-44.8,14.4-62.7,33.5c-7.5,8.1-1.9,21.3,9.1,21.3l0,0c4.2,0,8.1-2.1,10.4-5.6c7.3-10.9,29.3-34.2,82.4-33.7 c59.9,0.5,84,24.4,91.7,34.6c2.2,2.9,5.6,4.6,9.2,4.6l0,0c6.4,0,11.5-5.2,11.5-11.5c0-2.9-1.1-5.7-3.1-7.8 C800.6,564,772,554.5,756.2,551c-7.9-1.7-14.9-6.3-19.6-12.9l0,0c-3.6-5.1-5.6-11.1-5.9-17.3c-0.9-22.3-1.3-76.3,13.8-93.5"></path> <path class="st2" d="M374.2,415.3c42.9-20.8,89.4-34.5,135.2-47.3c46.1-12.9,92.6-24.2,139.2-34.8c18.6-4.2,37.5-8,56-12.8"></path> <polyline class="st2" points="414.5,255.2 414.5,255.2 414.5,255.2 "></polyline> <path class="st2" d="M409.7,252.5c-2.7,2.7-12.3,16.9-14.7,19.4c-13.2,14.2-27.3,27.6-42.1,40.1c-3.7,3.1-7.7,6.3-11.8,9.5 c-0.8,0.6-1.7,1.3-2.5,1.9c-28.2,21.4-65,42-99,28.8c-0.9-0.3-1.8-0.7-2.6-1.1c-52.1-23.3-88.6-81.8-91.8-138.3 c-0.1-1.8-0.2-3.7-0.2-5.5c-0.3-15.4,2-30.9,16.8-39"></path> <path class="st2" d="M124.8,191.9l0.2-1.6c3.3-26.6-34.5-35.6-43.5-10.3c-21.1,59.7-44.8,188.6,86,297.8 c84.4,70.5,221.1,71,305.2-0.2c11.7-9.9,23.8-21.3,31.6-34.7C524,409,493.9,382,460,390.3"></path> <path class="st2" d="M332.5,530.5l13.2,18.6c0,0,79.6,3.1,123.2,39.7c8.1,6.8,3.2,19.9-7.3,19.9l0,0c-2.6,0-5.2-0.9-7.2-2.6 c-10.3-8.6-49.6-35.8-138.5-36.6c-86.6-0.8-119.9,26-129.1,35.8c-2.1,2.2-5.1,3.5-8.1,3.5h-1.7c-10.8,0-15.4-13.6-6.8-20.3 c36.4-28.3,117.9-37.3,117.9-37.3l13.9-21"></path> <path class="st2" d="M288,256.6c33.4-9,47.1-56.1,52.7-87.8"></path> <path class="st2" d="M256.6,206c18.9-2.5,35.1-14.6,42.8-31.9c1.6-3.4,1.5-7.5-0.3-10.8c-3.6-6.7-9.1-14.5-7.8-22.6 c0.9-5.7,5.6-9.7,11-11c2.7-0.7,5.6-0.7,8.3,0.1c3.3,0.9,6,3.3,7.3,6.4c1.3,3.1-0.2,6.1-2.7,8.1s-5.2,2.7-8.2,3.5 c-0.4,0.1-1.4,0.3-2.6,0.5"></path> <path class="st2" d="M704.6,320.3c0,0,65.8-13.8,78.2-33.6c2.3-3.6,3.8-7.7,4.2-12"></path> <path class="st2" d="M380.8,286.4C495.6,274.2,625.2,276,625.2,276h72.7c4.7,0,9.4-0.5,14-1.6c11.2-2.7,33.2-8.5,50.6-16.7 c11.8-5.6,25.7,3.4,24.6,16.5c0,0.2,0,0.3-0.1,0.5c7.9,0,14.3,6.4,14.3,14.4c0,1.7-0.3,3.3-0.9,4.9c-24.5,67.4-95.9,65.3-95.9,65.3 c-9.1,0.3-18.2,0.6-27.3,1.1c-80.4,3.9-160.1,15.2-238.2,35.1c-21.7,5.5-43.1,13.4-64.8,19.9c-18.5,5.6-37.2,10.2-56.4,11.6 c-37.2,2.7-75.3-6.9-105.9-28.4c-67.1-47.1-124.8-145.2-78.4-224.9c16.4-28.1,53.6-35.8,79.5-16c36.5,28,65.7,82.4,80.7,114.5"></path> <line class="st2" x1="799" y1="427.3" x2="639.2" y2="427.3"></line> <path class="st2" d="M607,395L607,395c0-17.8,14.5-32.2,32.3-32.3H799c17.8,0,32.2,14.5,32.3,32.3l0,0"></path> <path class="st6" d="M834.4,406.5c0,11.5-9.2,20.8-20.7,20.8c0,0-0.1,0-0.1,0h-189c-10-0.9-17.3-9.8-16.4-19.8 c0.9-9.7,9.4-17,19.1-16.4h189c6.8,0,13.2,3.3,17.1,8.9C834.1,402.1,834.4,404.3,834.4,406.5z"></path> <path class="st2" d="M834.4,406.5c0,11.5-9.2,20.8-20.7,20.8c0,0-0.1,0-0.1,0h-189c-11.5,0.3-21-8.9-21.3-20.4 c-0.3-11.5,8.9-21,20.4-21.3c0.3,0,0.6,0,0.9,0h189c9,0,17,5.8,19.8,14.4C834.1,402.1,834.4,404.3,834.4,406.5z"></path> <path class="st2" d="M340.3,168.1l-0.4,3.2c-0.4,3-2.9,5.3-6,5.3h-20.8c-3,0-5.6-2.3-6-5.3l-2.7-23c1.1-0.2,2.2-0.4,2.6-0.5 c2.9-0.8,5.8-1.5,8.2-3.5s4-5,2.7-8.1c-1.4-3.1-4-5.5-7.3-6.4c-2.7-0.8-5.6-0.9-8.3-0.1l-0.6-5.5c-0.4-3.3,2-6.3,5.3-6.6 c0.2,0,0.4,0,0.6,0h31.9c3.3,0,6,2.7,6,6c0,0.2,0,0.4,0,0.6l-0.7,6.2"></path> <line class="st2" x1="343.1" y1="144.7" x2="343" y2="144.9"></line> <line class="st2" x1="341.5" y1="157.9" x2="341.5" y2="157.8"></line> <path class="st2" d="M341.8,157.9L341.8,157.9c-0.1,0-0.2,0-0.3,0c-0.1,0-0.3,0-0.4,0c-2.9,0-5.2,2.3-5.2,5.2c0,2.5,1.8,4.7,4.3,5.1 c0.6,0.1,1.1,0.1,1.7,0c2.5-0.4,4.8-1.7,6.4-3.6c2.2-3.7,3.8-7.7,4.5-11.9c0,0,0-0.1,0-0.1c0.6-3.1,0.8-6.3,0.7-9.4 c0-1.4-0.2-2.7-0.3-4c-0.6-4.5-4.1-8.1-8.6-8.8c-0.1,0-0.2,0-0.4-0.1c-4.2-0.5-10.1,1.1-11.2,5.8c-1,4.3,3.6,8,7.5,8.3 c0,0,1,0.1,2.4,0.2c2.8,0.2,7.5,0.2,10.6-1.5c0.5-0.2,0.9-0.5,1.3-0.9"></path> <path class="st2" d="M346.2,144.9h-0.7h-5.3h-2.4c-3.3,0-6,2.6-6.2,5.9l0,0c-0.2,3.2,2.1,6,5.3,6.5c6.9,1.1,14.8,1.3,16.1-4.8"></path> <path class="st2" d="M684.9,427.3c0,0,24.4,23.2,16.8,95c-0.6,5.1-2.3,10-5.2,14.3l-2.7,4c-4.3,6.5-10.9,11.2-18.5,13.3 c-15.9,4.3-44.8,14.4-62.7,33.5c-7.5,8.1-1.9,21.3,9.1,21.3l0,0c4.2,0,8.1-2.1,10.4-5.6c7.3-10.9,29.3-34.2,82.4-33.7 c59.9,0.5,84,24.4,91.7,34.6c2.2,2.9,5.6,4.6,9.2,4.6l0,0c6.4,0,11.5-5.2,11.5-11.5c0-2.9-1.1-5.7-3.1-7.8 C800.6,564,772,554.5,756.2,551c-7.9-1.7-14.9-6.3-19.6-12.9l0,0c-3.6-5.1-5.6-11.1-5.9-17.3c-0.9-22.3-1.3-76.3,13.8-93.5"></path> <path class="st2" d="M634.2,259.4v1.6c0,11.1-8.9,13-16.7,13.2l-149.4,3.5c-6.5,0.2-12.1-5.6-12.2-12.7v-0.3c0-7,5.2-12.8,11.6-13 c0,0,83.6-2.4,148.3-4.1c1.2,3.9,4.2,6.9,8,9.3C626.9,258.7,630.5,259.6,634.2,259.4z"></path> <path class="st2" d="M713.6,101.3c0,1.8-0.4,3.6-1.2,5.3l-66.8,137c-1.6,3.2-4.5,5.6-8,6.4c-2.8,0.7-5.7,0.4-8.2-0.8 c-4.2-2.1-6.8-6.3-6.8-11c0-0.6,0-1.1,0.1-1.7c0.2-1.2,0.5-2.4,1.1-3.6l66.8-137c2.9-6,10.2-8.5,16.2-5.5 C710.9,92.4,713.5,96.6,713.6,101.3L713.6,101.3z"></path> <path class="st3" d="M172.6,87.8c-0.1-0.3-0.2-0.5-0.3-0.8s-0.2-0.6-0.3-0.9"></path> <polyline class="st3" points="172.6,87.8 174.7,85.7 178.6,81.7 "></polyline> <path class="st2" d="M195.7,93.2c0,0,2.6,7.9,12.7,8.4"></path> <path class="st2" d="M151,111.6c-9,4.5-19.2-5.3-18.5-13.4c0.5-5.6-0.8-9.4-4.9-13.4c-0.3-0.3-0.5-0.5-0.8-0.8 c-3.2-3.5-4-8.6-1.9-12.8c1.9-4.4,5.9-6.9,3.1-11.6c-1.2-2-2.1-4.2-2.7-6.5c-1.1-6.2,0.5-12.6,4.4-17.5c4.1-5,10.8-3.6,16.3-5.4 c6.6-2.1,9.7-9.2,16.7-11.4c3.5-1.1,6.7-0.6,10.2,0.2c2.9,0.7,5.9,1.5,8.7,2.4s5.4,1.7,8.3,0.8c3.7-1.1,6.6-4.5,10.7-4.5 s7.2,2.4,9,5.7c2.9,5.2,2.9,12.9,0.2,17.4c-2.8,4.7-8.7,6.7-13.7,7.7c-6.4,1.3-13.1,1.7-19.6,2.2l-3.8,0.9l0,0 c-3,0.9-4.7,4.1-3.8,7.1c2.3,8.1,5.6,15.9,9.6,23.2"></path> <path class="st3" d="M178.6,112.7c0,0,19.8,14.5,31.1,6.5s4.9-31.5,4.9-31.5"></path> <path class="st2" d="M318.8,107.5c0,0-8.4-5.7-3.1-11.5s-1.8-13.5-1.8-13.5"></path> <path class="st2" d="M326.6,108.4c0,0,5.6-3.8,2-7.6s1.2-9,1.2-9"></path> <line class="st2" x1="86.5" y1="608.7" x2="950" y2="608.7"></line> </svg> 