<?xml version="1.0" encoding="UTF-8"?> <svg xmlns="http://www.w3.org/2000/svg" width="26" height="26" viewBox="0 0 26 26" fill="none"> <path d="M12.6517 25.2497C11.5717 17.1797 12.5317 9.77969 13.4917 1.76969C13.5417 1.34969 12.4917 -0.520308 12.2617 0.139692C9.35173 7.86969 10.2617 16.8397 11.6517 24.8097C11.7517 25.3897 12.8017 26.3397 12.6517 25.2497Z" fill="#D8E3E5"></path> <path d="M0.761774 13.2197C8.45177 14.6197 17.5418 15.8397 24.9918 12.7397C25.5918 12.4897 24.6918 10.7397 24.1418 10.7397C15.9618 11.3497 8.51178 12.7397 0.241777 11.6797C-0.338223 11.6097 0.241774 13.1197 0.761774 13.2197V13.2197Z" fill="#D8E3E5"></path> <path d="M18.6917 3.74983C16.4117 6.61983 14.0117 9.41983 11.4917 12.0898C8.97174 14.7598 5.70174 17.0898 3.72174 20.0898C3.49174 20.4398 4.00174 21.6598 4.50174 21.4298C7.59174 20.0098 10.0617 16.7298 12.2717 14.2398C14.8792 11.287 17.291 8.16702 19.4917 4.89983C19.7517 4.50983 19.0517 3.28983 18.6917 3.73983V3.74983Z" fill="#D8E3E5"></path> <path d="M19.8317 19.4297C16.6002 16.941 13.4963 14.291 10.5317 11.4897C8.1317 9.20965 6.0217 6.48965 3.4117 4.48965C2.7517 3.97965 3.0117 5.20965 3.1817 5.48965C7.1817 11.5597 13.9317 16.5697 19.8217 20.6497C20.5017 21.1297 20.1817 19.7797 19.8217 19.5097L19.8317 19.4297Z" fill="#D8E3E5"></path> </svg> 