<?xml version="1.0" encoding="UTF-8"?> <svg xmlns="http://www.w3.org/2000/svg" width="102" height="21" viewBox="0 0 102 21" fill="none"> <path d="M0.383923 20.2403C0.168461 20.0769 0.0546094 19.8927 0.0423669 19.6877C0.0397435 19.6438 0.0495747 19.5624 0.0718602 19.4435C0.0821284 19.3694 0.138379 18.7123 0.240611 17.472C0.342843 16.2317 0.501789 15.3259 0.717449 14.7547C0.788452 14.2215 0.956143 13.4622 1.22052 12.4766C1.30814 12.2216 1.37511 11.9899 1.42143 11.7814C1.45311 11.5738 1.64976 10.9303 2.01137 9.85082C2.28187 8.96778 2.42269 8.49655 2.43383 8.43711C2.44148 8.31911 2.60601 7.87585 2.92743 7.10732C3.26348 6.33791 3.50416 5.81663 3.64947 5.54349C3.96237 4.87831 4.2367 4.42849 4.47248 4.19401C4.66368 4.19729 4.80495 4.22558 4.89629 4.2789C4.98676 4.31757 5.08673 4.39241 5.19621 4.50341C5.32033 4.61354 5.42118 4.70302 5.49875 4.77185C5.53328 4.85795 5.45342 5.11984 5.25917 5.55754C5.06405 5.98059 4.85516 6.41916 4.6325 6.87324C4.1743 7.81156 3.91384 8.37075 3.85113 8.55081C3.82622 8.62576 3.68147 9.03112 3.41687 9.76687C3.15139 10.488 2.97277 11.0643 2.881 11.4959C3.01801 11.5759 3.15972 11.6115 3.30613 11.6027C3.52574 11.5896 3.82106 11.4912 4.19209 11.3074C4.59329 11.1365 4.86708 11.0467 5.01349 11.0379C5.40441 10.9411 5.6804 10.8879 5.84144 10.8783C6.06105 10.8652 6.23893 10.8913 6.37506 10.9566C6.52497 11.0064 6.68525 11.107 6.85592 11.2585C7.0032 11.2644 7.11682 11.1988 7.1968 11.0618C7.2759 10.9101 7.36526 10.6844 7.4649 10.3846C7.60059 9.95042 7.72906 9.64154 7.85034 9.45798L8.14565 8.86733C8.82825 7.5042 9.35234 6.56195 9.7179 6.04056C10.1497 5.39767 10.787 4.87474 11.6298 4.47177C11.7856 4.37431 11.944 4.32077 12.105 4.31115C12.2954 4.29978 12.4603 4.35605 12.6 4.47994C12.7387 4.5892 12.8371 4.75964 12.895 4.99126C13.0294 5.02731 13.2012 5.07582 13.4106 5.13678C13.6337 5.18223 13.8056 5.23073 13.9262 5.2823C14.0606 5.31835 14.1821 5.38456 14.2907 5.48092C14.4862 5.5574 14.6724 5.72259 14.8492 5.9765C15.0406 6.22954 15.1813 6.49295 15.2711 6.76675C15.3609 7.04055 15.3791 7.22312 15.3258 7.31446C15.3525 7.26879 15.3416 7.57799 15.2931 8.24207C15.2446 8.90614 15.1865 9.40917 15.1187 9.75115C15.0582 10.46 14.7303 11.6109 14.1349 13.2039L13.9081 13.8346C13.633 14.3947 13.2946 15.0026 12.893 15.6584C12.4914 16.3141 12.1236 16.7989 11.7897 17.1127C11.2476 17.63 10.7648 18.0335 10.3413 18.3232C9.93163 18.5975 9.52912 18.7464 9.13383 18.77C8.79709 18.7901 8.50122 18.7564 8.24621 18.6688C8.00584 18.5803 7.74088 18.4492 7.45135 18.2755C7.14542 18.0733 6.88461 17.7657 6.66892 17.3525C6.45324 16.9393 6.33577 16.5716 6.31654 16.2495C6.30867 16.1178 6.32407 16.0066 6.36274 15.9162C6.34635 15.8878 6.33466 15.815 6.32766 15.6979C6.30843 15.3758 6.36304 14.8142 6.49151 14.0131C6.56513 13.5238 6.6002 13.2499 6.5967 13.1914C6.68956 13.0242 6.76473 12.8067 6.82219 12.5388C6.87965 12.2709 6.88424 12.1016 6.83594 12.031C6.7127 11.9356 6.52663 11.8952 6.27774 11.9101C5.89709 11.9328 5.39898 12.0801 4.78343 12.352L3.94532 12.7106C3.64486 12.8461 3.35817 12.9661 3.08525 13.0705C2.81232 13.175 2.56649 13.2411 2.34776 13.2688C2.22386 13.4085 2.14739 13.604 2.11833 13.8556C2.08928 14.1071 2.06918 14.2626 2.05804 14.322L1.89089 15.2135C1.83518 15.5107 1.75336 15.9858 1.64543 16.6387C1.53663 17.277 1.48867 17.5811 1.50156 17.5509C1.50768 17.6534 1.49021 17.8528 1.44913 18.1491C1.41156 18.504 1.4049 18.7615 1.42916 18.9217C1.45167 19.0526 1.44064 19.2369 1.39607 19.4746C1.36352 19.6676 1.35292 19.8592 1.36429 20.0495C1.37741 20.2691 1.2522 20.3868 0.988672 20.4026C0.769063 20.4157 0.56748 20.3616 0.383923 20.2403ZM8.47267 17.6635C8.79477 17.6442 9.11336 17.5664 9.42846 17.4301C9.74268 17.2791 9.98239 17.1105 10.1476 16.9243L10.9722 15.9714C11.3723 15.5361 11.6876 15.1573 11.9182 14.835C12.1478 14.4981 12.4187 13.9897 12.7307 13.3099C13.0075 12.7791 13.1958 12.3638 13.2954 12.064C13.395 11.7642 13.4847 11.4209 13.5645 11.0341C13.6407 10.5888 13.7531 10.1339 13.9017 9.66956C14.0365 9.22073 14.1063 8.79046 14.1111 8.37878C14.1297 7.95158 14.1215 7.44517 14.0865 6.85954C14.088 6.63906 14.0108 6.45267 13.8548 6.30037C13.7134 6.14719 13.5557 6.09049 13.3818 6.13027C13.3241 6.1484 13.2229 6.17649 13.0783 6.21451C12.9327 6.2379 12.8031 6.28237 12.6895 6.34793C12.575 6.39884 12.4838 6.47041 12.4158 6.56263C12.279 6.73242 12.131 6.83676 11.9717 6.87566C11.9424 6.87741 11.8907 6.87315 11.8167 6.86288C11.7426 6.85262 11.6741 6.81263 11.6111 6.74293C11.5473 6.65858 11.4598 6.54626 11.3486 6.40598C11.068 6.62844 10.8796 6.79397 10.7832 6.90257C10.7015 7.0103 10.5398 7.25505 10.2981 7.6368C10.016 8.07974 9.75807 8.55797 9.52427 9.07149C9.30424 9.5695 9.17488 9.86373 9.13621 9.9542C8.56373 11.1932 8.13733 12.541 7.85701 13.9977C7.70277 14.8591 7.64138 15.5533 7.67286 16.0803C7.72271 16.9149 7.98931 17.4426 8.47267 17.6635Z" fill="#428DFC"></path> <path d="M15.2615 18.8669C15.1719 18.8428 15.0418 18.7551 14.8711 18.6037C14.7142 18.4367 14.6048 18.3257 14.5427 18.2706C14.5366 18.1682 14.561 18.0859 14.6161 18.0238C14.6858 17.9609 14.7344 17.9139 14.762 17.8829C14.8024 17.8217 14.8949 17.7721 15.0396 17.7341C15.1989 17.6952 15.2992 17.6524 15.3405 17.6059C15.3964 17.5585 15.5367 17.4473 15.7613 17.2722C15.986 17.0972 16.1813 16.9239 16.3474 16.7523C16.5272 16.5653 16.6704 16.3804 16.7771 16.1977C17.1254 15.6333 17.4895 14.9651 17.8695 14.193C17.9864 13.9363 18.1346 13.5895 18.3143 13.1527C18.5076 12.7003 18.615 12.4074 18.6364 12.2739L17.9425 12.095C17.9115 12.0674 17.8641 12.0115 17.8003 11.9271C17.7365 11.8428 17.6955 11.7718 17.6773 11.7141C17.6738 11.6555 17.6699 11.5896 17.6655 11.5164C17.655 11.3408 17.6623 11.2154 17.6872 11.1405C17.7267 11.0647 17.8046 11.0159 17.9209 10.9943C18.3695 10.8793 18.7389 10.7912 19.0291 10.7297C19.4648 10.6449 19.7907 10.5667 20.0068 10.495C20.1799 10.4406 20.3762 10.4068 20.5958 10.3937C20.9765 10.371 21.3245 10.4163 21.6398 10.5297C21.8646 10.6045 22.0655 10.7688 22.2422 11.0227C22.4638 11.2886 22.5829 11.5607 22.5995 11.8388C22.6057 11.9413 22.6045 12.0442 22.5959 12.1476C22.5865 12.2363 22.5849 12.3319 22.591 12.4344C22.5989 12.5662 22.6287 12.6966 22.6805 12.8258C22.5322 13.5399 22.3657 14.1963 22.1811 14.795C22.1441 14.9148 22.0901 15.1164 22.0188 15.3998C21.9476 15.6832 21.8961 15.9287 21.8645 16.1363C21.8337 16.3585 21.78 16.5674 21.7035 16.763C21.6065 17.1067 21.5495 17.382 21.5325 17.5887C21.5128 17.7515 21.4544 17.8799 21.3571 17.9738C21.2736 18.0523 21.1751 18.1243 21.0615 18.1898C20.9616 18.2399 20.8975 18.2731 20.8691 18.2895C20.8123 18.3223 20.7089 18.3137 20.559 18.2639C20.4091 18.2141 20.2798 18.141 20.1712 18.0447C20.1367 17.9586 20.1151 17.8423 20.1063 17.6959C20.0993 17.5788 20.119 17.416 20.1653 17.2075C20.3781 16.3426 20.6634 15.0914 21.021 13.4538L21.2127 12.6049C21.2488 12.4705 21.2616 12.3155 21.2511 12.1398C21.2432 12.008 21.2134 11.8776 21.1616 11.7484C20.9221 11.6746 20.7365 11.6416 20.6047 11.6494C20.5315 11.6538 20.4518 11.6733 20.3658 11.7078C20.2797 11.7423 20.2004 11.7691 20.1281 11.7881C19.9878 11.8993 19.9083 12.0437 19.8895 12.2211C19.6551 12.9697 19.408 13.631 19.1485 14.2048C18.8889 14.7786 18.6891 15.246 18.549 15.607C18.4992 15.7569 18.3474 16.0452 18.0938 16.4717C17.9338 16.7457 17.8212 16.9508 17.7558 17.087L17.5326 17.4088C17.4638 17.4864 17.3463 17.611 17.1803 17.7825C17.0142 17.9541 16.8968 18.0786 16.8279 18.1562L16.1786 18.7239C16.0952 18.8024 15.9363 18.8486 15.702 18.8626C15.4816 18.8611 15.3347 18.8625 15.2615 18.8669Z" fill="#428DFC"></path> <path d="M25.7718 8.67406C25.6632 8.5777 25.5649 8.40726 25.4768 8.16274C25.3888 7.91823 25.3813 7.79378 25.4545 7.78941C25.5708 7.76777 25.6951 7.63546 25.8275 7.39246C25.9737 7.13396 26.0347 6.92462 26.0104 6.76444C26.0069 6.70588 26.0258 6.65333 26.0671 6.60678C26.1075 6.5456 26.1566 6.50594 26.2143 6.4878C26.327 6.4076 26.4273 6.36488 26.5152 6.35963C26.7641 6.34476 27.0015 6.5069 27.2274 6.84603C27.3266 7.03111 27.3806 7.19685 27.3894 7.34326C27.3972 7.47502 27.3689 7.61629 27.3045 7.76707C27.2392 7.90321 27.1179 8.08677 26.9407 8.31774C26.7119 8.66934 26.4877 8.8517 26.2681 8.86482C26.1217 8.87356 25.9563 8.80998 25.7718 8.67406ZM24.1742 17.7174C23.957 17.5247 23.837 17.238 23.8143 16.8573C23.802 16.6524 23.8281 16.4745 23.8926 16.3237C23.8882 16.2505 23.8976 16.1618 23.9208 16.0576C23.9439 15.9533 23.9546 15.8866 23.9529 15.8573C23.933 15.7703 23.9771 15.5253 24.0853 15.1221C24.3138 14.5207 24.6036 13.4676 24.9545 11.9626C24.9501 11.8894 24.9759 11.8291 25.0318 11.7817C25.0869 11.7197 25.1725 11.6778 25.2888 11.6562C25.4042 11.6199 25.4838 11.6004 25.5277 11.5978C25.6156 11.5926 25.691 11.6248 25.7539 11.6945C25.8306 11.7487 25.9328 11.8601 26.0604 12.0288C26.1535 12.1114 26.2053 12.2406 26.2157 12.4163C26.2324 12.6944 26.1573 13.0368 25.9906 13.4435C25.8256 13.8795 25.723 14.2529 25.6828 14.5638C25.5308 14.9696 25.4135 15.344 25.3312 15.6868C25.3071 15.7764 25.2737 15.9547 25.2309 16.2217C25.1881 16.4888 25.1202 16.7059 25.0274 16.873C24.964 17.2882 24.9005 17.5785 24.8369 17.7439C24.7734 17.9094 24.6976 17.9947 24.6098 17.9999C24.5073 18.0061 24.3621 17.9119 24.1742 17.7174Z" fill="#428DFC"></path> <path d="M28.4156 18.0591C28.0789 18.0792 27.8243 17.9989 27.6519 17.8182C27.5079 17.6211 27.3845 17.4008 27.2818 17.1571C27.305 17.0529 27.3505 16.9547 27.4185 16.8625C27.4856 16.7556 27.5704 16.6991 27.6728 16.693C27.7314 16.6895 27.7986 16.7075 27.8744 16.7471C27.9037 16.7453 27.9339 16.7582 27.9649 16.7857C27.9959 16.8133 28.0343 16.8404 28.0799 16.867C28.55 16.6186 28.9355 16.309 29.2366 15.9384C29.5524 15.5669 29.8964 15.0542 30.2688 14.4001C30.0155 14.3418 29.7596 14.2395 29.5011 14.0934C29.2572 13.9463 29.0788 13.788 28.9658 13.6184C28.8209 13.4067 28.7096 13.1415 28.6318 12.8229C28.554 12.5043 28.5065 12.3235 28.4892 12.2805C28.5399 12.1452 28.6116 11.8691 28.7042 11.4522C28.7488 11.2144 28.8024 11.0055 28.8651 10.8255C28.9278 10.6454 29.04 10.433 29.2017 10.1883C29.4039 9.88233 29.6951 9.59312 30.0756 9.32062C30.4551 9.03348 30.7254 8.8851 30.8865 8.87548C31.0062 8.9124 31.1599 8.90322 31.3476 8.84793C31.5491 8.77713 31.6946 8.75374 31.7842 8.77778C31.8437 8.78892 31.8953 8.79318 31.9393 8.79055C31.9823 8.77329 32.0262 8.77067 32.071 8.78268C32.5155 8.84429 32.8665 8.94087 33.1242 9.07241C33.3809 9.18931 33.5555 9.40662 33.648 9.72434C33.6248 9.82857 33.5918 10.0142 33.549 10.2812C33.5053 10.5336 33.453 10.7645 33.392 10.9738C33.3311 11.1832 33.2546 11.3787 33.1626 11.5605L32.9319 12.1253C32.6998 12.6681 32.4961 13.0696 32.3206 13.3299L32.3724 13.459C32.5653 13.4916 32.7579 13.5168 32.9499 13.5347C33.1558 13.5371 33.2957 13.5435 33.3698 13.5537C33.5481 13.5872 33.7217 13.665 33.8906 13.7871C34.0596 13.9092 34.1746 13.9905 34.2358 14.031L34.241 14.1188C34.2463 14.2066 34.2227 14.3036 34.1703 14.4095C34.0156 14.7714 33.8922 15.0432 33.8002 15.225C33.7349 15.3612 33.6571 15.5348 33.5669 15.7459C33.4757 15.9423 33.3795 16.1758 33.2781 16.4463C33.2394 16.5368 33.1987 16.7156 33.1559 16.9826C33.0726 17.3108 33.025 17.4973 33.013 17.5421C32.8615 17.7128 32.7639 17.7994 32.7199 17.802C32.7053 17.8029 32.6756 17.7973 32.6308 17.7853C32.5851 17.7587 32.5184 17.748 32.4305 17.7532C32.2229 17.7215 32.0773 17.62 31.9936 17.4487C31.9754 17.391 31.9345 17.32 31.8707 17.2357C31.8206 17.1358 31.7934 17.0493 31.789 16.9761C31.7794 16.815 31.8408 16.613 31.9732 16.37C32.0377 16.2192 32.1197 15.9939 32.2194 15.6941C32.2683 15.5296 32.3564 15.2819 32.4835 14.9511C32.5111 14.92 32.5308 14.8821 32.5429 14.8373C32.5549 14.7925 32.5596 14.7482 32.557 14.7042L32.4032 14.7134L31.7378 14.643C31.6957 14.6749 31.6187 14.7383 31.5068 14.8331C31.394 14.9133 31.3132 15.0357 31.2642 15.2002C31.2092 15.2623 31.0806 15.4463 30.8785 15.7522C30.746 15.9952 30.5835 16.2253 30.3907 16.4425C29.9382 16.9838 29.573 17.3876 29.295 17.654C28.9869 17.9075 28.6938 18.0425 28.4156 18.0591ZM30.7781 13.3339C30.9081 13.2967 31.1408 13.011 31.4762 12.4767C31.8116 11.9424 31.9974 11.6081 32.0334 11.4737C32.0841 11.3385 32.1708 11.0688 32.2936 10.6648C32.4164 10.2607 32.5083 9.95403 32.5693 9.74469C32.3711 9.62429 32.1988 9.56847 32.0524 9.57721C32.0085 9.57983 31.8858 9.61655 31.6843 9.68735C30.6055 10.075 29.9438 10.8051 29.6993 11.8776C29.6668 12.0705 29.6558 12.2549 29.6663 12.4306C29.6837 12.7234 29.7645 12.9683 29.9085 13.1654C30.0516 13.3479 30.2403 13.4321 30.4746 13.4181C30.5771 13.412 30.6782 13.3839 30.7781 13.3339Z" fill="#428DFC"></path> <path d="M43.0407 17.7366C42.5047 17.3719 42.1496 17.0845 41.9754 16.8746C41.8004 16.6499 41.6882 16.3701 41.6388 16.0351C41.6198 15.9628 41.6046 15.8315 41.5932 15.6412C41.5687 15.2312 41.5747 14.7166 41.6112 14.0973C41.6477 13.4781 41.6916 12.9832 41.7429 12.6128C41.798 12.5508 41.822 12.4612 41.815 12.3441C41.8227 12.2261 41.8183 12.1529 41.8019 12.1245C41.7993 12.0805 41.8271 11.9319 41.8855 11.6787C42.0288 11.1265 42.1261 10.6652 42.1775 10.2948C42.5011 9.07067 42.8318 8.08853 43.1696 7.34841C43.5074 6.60829 43.8917 5.90946 44.3226 5.25193C44.9137 4.57015 45.3762 4.07235 45.7101 3.75855C46.0577 3.42924 46.445 3.14898 46.872 2.91778C47.4229 2.54694 47.8227 2.35409 48.0716 2.33923C48.1156 2.3366 48.1823 2.34731 48.2719 2.37134C49.1023 2.49806 49.7373 2.79807 50.177 3.27136C50.6158 3.73001 50.9609 4.46608 51.2125 5.47955C51.3976 6.36476 51.5037 7.03429 51.5308 7.48814C51.5745 8.22017 51.4869 8.96739 51.268 9.7298C51.049 10.4922 50.6292 11.4576 50.0084 12.6261C49.3105 14.2252 48.4478 15.5256 47.4204 16.5273C46.4076 17.5281 45.4254 18.057 44.4738 18.1138C43.9613 18.1444 43.4837 18.0187 43.0407 17.7366ZM44.4082 17.0158C44.9025 16.9275 45.3596 16.7092 45.7796 16.3608C46.2133 15.997 46.7369 15.4147 47.3502 14.6141C47.8818 13.9211 48.2547 13.3993 48.4689 13.0486C48.6976 12.697 48.8932 12.2813 49.0555 11.8014C49.2179 11.3215 49.4093 10.5902 49.6297 9.60726C49.7541 8.98273 49.8281 8.50079 49.8519 8.16144C49.8895 7.80657 49.8939 7.38756 49.865 6.90442L49.7578 5.47828C49.7283 5.23026 49.6617 4.97711 49.5582 4.71883C49.4537 4.44591 49.339 4.24706 49.214 4.12229C48.9795 3.88652 48.6866 3.77912 48.3352 3.80011C48.1156 3.81323 47.9064 3.87715 47.7075 3.99188C47.4363 4.12562 47.047 4.49415 46.5394 5.09749C46.0309 5.68619 45.575 6.29379 45.1716 6.92028C44.782 7.53127 44.5925 7.9246 44.603 8.10029C44.6038 8.11493 44.5991 8.15929 44.5889 8.23336C44.5786 8.30744 44.5533 8.37507 44.5128 8.43626C44.2797 8.71465 44.0334 9.26565 43.7741 10.0892C43.5147 10.9128 43.2959 11.8001 43.1176 12.7511C42.9393 13.7021 42.8543 14.4933 42.8627 15.1245L42.8633 15.8738C42.8712 16.0056 42.8847 16.1076 42.9037 16.18C42.9373 16.2514 42.9938 16.3362 43.0731 16.4343C43.1516 16.5178 43.2231 16.609 43.2878 16.708C43.368 16.8208 43.4908 16.9089 43.6563 16.9725C43.8217 17.0361 43.9922 17.0626 44.1679 17.0522C44.2704 17.046 44.3505 17.0339 44.4082 17.0158Z" fill="#428DFC"></path> <path d="M54.6414 16.3605C54.4381 16.402 54.2853 16.4258 54.1828 16.4319C53.6411 16.4643 53.1845 16.3226 52.813 16.0068C52.4415 15.6911 52.2379 15.2331 52.202 14.6328C52.105 13.9921 52.1964 13.1859 52.4763 12.2142C52.7708 11.2416 53.1624 10.4174 53.651 9.74174C53.9916 9.2953 54.2859 8.93245 54.5336 8.65318C54.7814 8.37391 55.0125 8.18379 55.2269 8.08283C55.5265 7.9327 55.8666 7.84627 56.2472 7.82353C56.5143 7.86636 56.777 7.96086 57.0355 8.10704C57.3087 8.25234 57.4501 8.40552 57.4597 8.56657L57.5761 8.66981C57.6639 8.66457 57.751 8.76956 57.8373 8.9848C57.9227 9.18539 57.9729 9.41013 57.9878 9.65902C58 9.86399 57.9739 10.0419 57.9094 10.1926C57.8675 10.4743 57.7794 10.722 57.6453 10.9357C57.5258 11.1486 57.4001 11.2589 57.2683 11.2668C57.1073 11.2764 57.0294 11.3251 57.0346 11.413C57.0381 11.4715 57.0106 11.5026 56.952 11.5061C56.8788 11.5104 56.7884 11.4718 56.6806 11.39C56.5729 11.3083 56.4936 11.2102 56.4427 11.0957C56.4401 11.0518 56.4619 10.9256 56.5082 10.7171C56.5545 10.5087 56.5995 10.2782 56.6432 10.0258C56.6767 9.84753 56.6895 9.69249 56.6816 9.56073C56.6641 9.26792 56.5455 9.12807 56.3259 9.14119C56.2088 9.14818 56.0934 9.18446 55.9798 9.25002C55.4134 9.60709 54.9243 10.1506 54.5124 10.8804C54.1005 11.6103 53.7776 12.5993 53.5436 13.8474C53.4896 14.1739 53.4683 14.4323 53.4797 14.6226C53.4884 14.769 53.5027 14.8857 53.5226 14.9727C53.5572 15.0588 53.5895 15.1083 53.6197 15.1212C53.6946 15.1461 53.8492 15.1515 54.0835 15.1376C54.6252 15.1052 55.0019 15.0166 55.2136 14.8717C55.6673 14.5948 56.1669 14.2271 56.7125 13.7684C56.7684 13.721 56.8519 13.6425 56.9629 13.533C57.073 13.4089 57.178 13.3218 57.2779 13.2718C57.3708 13.1046 57.4602 13.0038 57.5463 12.9692C57.6316 12.9201 57.7693 12.8898 57.9597 12.8784C58.1535 12.9256 58.312 12.997 58.4353 13.0925C58.5576 13.1733 58.562 13.2465 58.4484 13.3121C58.4045 13.3147 58.3761 13.3311 58.3632 13.3612C58.3503 13.3914 58.3443 13.4138 58.3451 13.4284C58.3788 13.4999 58.2726 13.6899 58.0266 13.9984C57.7805 14.307 57.5043 14.6026 57.198 14.8854C56.8907 15.1535 56.6786 15.2911 56.5614 15.2981C56.5029 15.3016 56.4521 15.312 56.409 15.3292C56.366 15.3465 56.3462 15.3844 56.3497 15.443C56.3532 15.5015 56.1346 15.6542 55.6938 15.9009C55.2669 16.1321 54.916 16.2853 54.6414 16.3605Z" fill="#428DFC"></path> <path d="M65.9873 15.6607C65.5238 15.5268 65.139 15.2339 64.8329 14.782C64.5267 14.3301 64.3213 13.8428 64.2166 13.3202C64.1864 13.3073 64.0273 13.4711 63.739 13.8115C63.2719 14.3537 62.8434 14.8053 62.4536 15.1666C62.0629 15.5131 61.6905 15.675 61.3365 15.652C61.0634 15.5067 60.8109 15.3381 60.579 15.1463C60.4394 15.0224 60.3514 14.9028 60.3151 14.7874C60.1088 14.2855 59.9948 13.8515 59.9729 13.4855C59.9554 13.1927 59.9681 12.9127 60.0109 12.6457C60.0675 12.3632 60.1679 11.9531 60.3121 11.4156C60.3361 11.326 60.4648 10.7747 60.6982 9.76161C60.9453 8.73304 61.1385 8.15583 61.278 8.02996L61.5621 7.99094C61.7085 7.9822 61.8214 8.02688 61.9007 8.12499C61.9335 8.18181 62.0184 8.2502 62.1554 8.33017C62.3071 8.40927 62.3864 8.50739 62.3934 8.62451C62.4065 8.84412 62.2787 9.41008 62.0099 10.3224C61.791 11.0848 61.6232 11.7193 61.5065 12.2258C61.389 12.7177 61.342 13.1613 61.3656 13.5566C61.3779 13.7615 61.4108 13.9432 61.4643 14.1016C61.5521 14.0964 61.686 14.0003 61.8658 13.8132C62.0594 13.6106 62.1979 13.4701 62.2814 13.3917C62.4648 13.2632 62.7478 12.9598 63.1307 12.4814C63.5273 11.9876 63.7986 11.6114 63.9448 11.3529C64.0772 11.1099 64.2564 10.6657 64.4823 10.0204C64.7229 9.37429 64.8366 8.9414 64.8235 8.72179C64.8139 8.56075 64.8284 8.43499 64.8671 8.34452C64.9058 8.25406 64.9815 8.16872 65.0942 8.08853C65.3138 8.07541 65.4753 8.07311 65.5787 8.08163C65.6882 8.19263 65.7972 8.29632 65.9058 8.39268C66.0282 8.47353 66.1282 8.54836 66.2057 8.6172C66.242 8.73257 66.2619 8.81954 66.2654 8.8781C66.2829 9.17091 66.1766 9.72824 65.9465 10.5501C65.7885 11.1032 65.6692 11.5658 65.5886 11.9379C65.5226 12.3092 65.5002 12.6705 65.5211 13.0218C65.5535 13.5635 65.7343 14.0082 66.0636 14.3559C66.2918 14.2394 66.4902 14.1174 66.6589 13.9897C66.8276 13.8621 66.9816 13.7354 67.121 13.6095C67.2733 13.4535 67.5044 13.2634 67.8143 13.0392C67.9504 13.1045 68.0629 13.2667 68.1519 13.5259C68.2546 13.7695 68.3116 13.9865 68.323 14.1769C68.1698 14.3182 68.0799 14.4118 68.0532 14.4574C67.9519 14.728 67.7036 14.9999 67.3086 15.2733C66.9273 15.5311 66.5755 15.6697 66.2535 15.6889C66.1949 15.6924 66.1062 15.683 65.9873 15.6607Z" fill="#428DFC"></path> <path d="M75.1855 14.5604C74.9339 14.5313 74.722 14.4264 74.5496 14.2457C74.3763 14.0504 74.2826 13.8356 74.2686 13.6013C74.2643 13.5281 74.2732 13.4321 74.2955 13.3132C74.4371 12.7317 74.5254 12.2416 74.5603 11.8428C74.5791 11.6654 74.6323 11.4492 74.7199 11.1941C74.8281 10.791 74.9113 10.4628 74.9697 10.2095C75.028 9.95624 75.0502 9.71248 75.0362 9.47824C75.0152 9.12686 74.8905 8.88453 74.6622 8.75124C74.4648 8.64549 74.2697 8.57633 74.0768 8.54378C73.8829 8.49658 73.6456 8.45933 73.3648 8.43202C73.1581 8.41498 73.0026 8.39489 72.8984 8.37173C72.8536 8.35971 72.7804 8.36408 72.6788 8.38484C72.5918 8.40473 72.4971 8.41773 72.3946 8.42386C72.2921 8.42998 72.2185 8.42703 72.1737 8.41501C72.0708 8.90602 72.0095 9.23292 71.9898 9.39572C71.8011 10.171 71.6951 10.6108 71.6719 10.715C71.5957 11.1604 71.5224 11.5321 71.452 11.8301C71.3954 12.1127 71.3139 12.4702 71.2075 12.9026C71.1835 12.9922 71.1548 13.1261 71.1213 13.3045C71.1017 13.4673 71.0587 13.6094 70.9925 13.7309C70.9676 13.8058 70.9569 13.8726 70.9604 13.9312C70.963 13.9751 70.9652 14.0117 70.967 14.041C70.9783 14.2313 70.9001 14.3976 70.7323 14.5398C70.6617 14.5881 70.5834 14.6296 70.4973 14.6641C70.4258 14.6977 70.3548 14.7387 70.2842 14.787C70.1464 14.6924 70.0296 14.5818 69.9338 14.4553C69.8381 14.3288 69.7506 14.2165 69.6713 14.1184C69.9068 12.6497 70.0719 11.8464 70.1665 11.7085C70.1931 11.6629 70.2274 11.4992 70.2694 11.2175C70.3207 10.8471 70.3718 10.5943 70.4224 10.4591C70.3982 10.2989 70.4174 10.1288 70.4801 9.94872C70.5566 9.75314 70.6004 9.62564 70.6116 9.5662C70.6725 9.35686 70.7192 9.03083 70.7515 8.58811C70.7548 8.39691 70.7774 8.16048 70.8193 7.87881C70.9742 7.76671 71.0879 7.70115 71.1602 7.68214C71.2316 7.64848 71.3763 7.61046 71.5942 7.56806L71.665 7.27732C71.8749 7.10316 72.1922 7.0034 72.6168 6.97804C72.9389 6.9588 73.2421 6.99211 73.5264 7.07798C73.5858 7.08913 73.6306 7.10114 73.6608 7.11403C73.69 7.11229 73.7266 7.1101 73.7706 7.10748C73.9764 7.10987 74.2456 7.1893 74.5782 7.34575C74.9246 7.48668 75.1904 7.63242 75.3757 7.78298C75.9316 8.23463 76.2336 8.86308 76.2817 9.66831C76.3167 10.2539 76.2011 11.0249 75.935 11.9811C75.9101 12.056 75.8689 12.2275 75.8114 12.4954C75.7686 12.7624 75.749 12.9252 75.7525 12.9838C75.7603 13.1155 75.7897 13.2387 75.8406 13.3532C75.9062 13.4668 76.0019 13.5933 76.1278 13.7327C76.1046 13.837 76.0457 13.958 75.9511 14.0959C75.8703 14.2183 75.7786 14.2825 75.6761 14.2886C75.5883 14.2939 75.4953 14.3362 75.3972 14.4155C75.3137 14.4939 75.2431 14.5422 75.1855 14.5604Z" fill="#428DFC"></path> <path d="M80.9368 14.9001C80.762 14.9252 80.6151 14.9266 80.4963 14.9043C80.3912 14.8665 80.2322 14.7879 80.0193 14.6684C79.3592 14.1935 79.0216 13.7068 79.0065 13.2082C79.0185 13.1634 79.0219 13.097 79.0166 13.0092C79.0114 12.9213 79.0001 12.8559 78.9829 12.8129C78.9647 12.7552 78.9552 12.719 78.9544 12.7044C78.8932 12.6639 78.8548 12.6368 78.8393 12.6231C78.8376 12.5938 78.8431 12.5641 78.856 12.5339C78.8835 12.5029 78.9038 12.4723 78.9167 12.4421C78.9743 12.424 79.0019 12.393 78.9992 12.3491C78.9966 12.3051 78.9789 12.2548 78.9461 12.198C78.8952 12.0835 78.9015 11.8186 78.9648 11.4034C79.0419 10.9727 79.1501 10.5696 79.2893 10.1939C79.3898 9.90876 79.5514 9.53914 79.774 9.08505C80.0113 8.6301 80.2328 8.27893 80.4384 8.03157C80.7249 7.66183 80.9868 7.37437 81.2244 7.16917C81.4765 6.9631 81.7675 6.79145 82.0972 6.65421C82.3968 6.50409 82.6052 6.42552 82.7223 6.41853C82.8687 6.40978 83.0569 6.4867 83.287 6.64926C83.6445 6.73076 83.9168 6.86143 84.1039 7.04126C84.3047 7.20558 84.4677 7.47501 84.5929 7.84954C84.6991 8.15175 84.7636 8.49318 84.7863 8.87383C84.8353 9.6937 84.6329 10.6094 84.1791 11.6209C83.947 12.1637 83.7153 12.589 83.4839 12.8966C83.2516 13.1897 82.9272 13.5396 82.5107 13.9465C82.2182 14.2138 81.9587 14.4203 81.7323 14.566C81.5206 14.7109 81.2554 14.8223 80.9368 14.9001ZM82.5376 12.1818C82.8179 11.7096 83.0277 11.2856 83.1669 10.91C83.3052 10.5197 83.409 10.0434 83.4782 9.4809C83.4894 9.42147 83.4897 9.30391 83.4792 9.12822C83.4617 8.83541 83.4158 8.55899 83.3415 8.29895C83.2672 8.03892 83.1857 7.90421 83.097 7.89481C82.9772 7.85789 82.8661 7.84249 82.7636 7.84861C82.4269 7.86872 82.08 8.08779 81.7229 8.50582C81.3961 8.93675 81.1183 9.45289 80.8898 10.0543C80.675 10.6401 80.4681 11.3577 80.269 12.2071C80.2133 12.5043 80.1907 12.7407 80.2012 12.9164C80.217 13.1799 80.2809 13.3892 80.393 13.5441C80.5042 13.6844 80.655 13.7488 80.8453 13.7375C81.0796 13.7235 81.3434 13.5902 81.6369 13.3376C81.9295 13.0703 82.2297 12.685 82.5376 12.1818Z" fill="#428DFC"></path> <path d="M89.3156 8.49311C89.3079 8.61111 89.33 8.73468 89.3818 8.86382C89.4327 8.97832 89.4987 9.09927 89.5798 9.22666C89.6971 9.46943 89.7826 9.67003 89.8361 9.82845C89.9034 9.97136 89.9432 10.1453 89.9554 10.3503C89.9677 10.5552 89.9502 10.7546 89.903 10.9485C89.8224 11.3206 89.6854 11.7328 89.492 12.1852C89.4533 12.2756 89.3389 12.4514 89.1488 12.7126C88.9734 12.9728 88.8508 13.1344 88.7811 13.1973C88.7536 13.2284 88.7178 13.2452 88.6739 13.2478C88.6153 13.2513 88.5482 13.2333 88.4723 13.1937C88.4111 13.1533 88.3642 13.1047 88.3314 13.0479C88.2486 12.8912 88.1674 12.6389 88.0878 12.2911C88.022 11.9277 87.9985 11.6573 88.0173 11.4798C88.0276 11.4057 88.0407 11.1332 88.0566 10.662C88.0717 10.1763 88.1256 9.72492 88.2182 9.30799C88.3108 8.89106 88.4286 8.64894 88.5715 8.58163C88.9563 8.38233 89.2563 8.23952 89.4716 8.1532C89.6868 8.06688 89.9554 7.88922 90.2772 7.62022C90.6146 7.36498 90.7975 7.22917 90.8259 7.21278C90.9343 7.05938 91.1012 6.90248 91.3267 6.74208C91.5238 6.59808 91.6903 6.43386 91.8263 6.24943C91.9217 6.12618 92.0874 5.94732 92.3231 5.71284C92.3791 5.66543 92.447 5.57321 92.527 5.4362C92.6061 5.28454 92.6956 5.1837 92.7955 5.13365C92.8057 5.05958 92.8526 4.98331 92.9361 4.90486C93.0187 4.81177 93.0655 4.73551 93.0767 4.67607C93.1549 4.50978 93.2473 4.33529 93.354 4.15261C93.5139 3.87859 93.6188 3.66662 93.6686 3.51672C93.7064 3.41161 93.7756 3.21647 93.8761 2.93131C93.9757 2.6315 94.0194 2.37911 94.0072 2.17414C93.9984 2.02774 93.9617 1.90504 93.897 1.80606C93.7202 1.55215 93.4715 1.32457 93.151 1.12332C92.8442 0.906562 92.6671 0.770213 92.6196 0.714274L92.4387 0.636924C92.4112 0.667954 92.3681 0.685219 92.3096 0.688716C92.2648 0.676699 92.2204 0.672001 92.1765 0.674625C91.9835 0.642072 91.7876 0.683158 91.5888 0.797884C91.3899 0.912611 91.1425 1.07432 90.8464 1.28301C89.9306 1.94011 89.1623 2.85288 88.5416 4.0213C87.9354 5.18885 87.4594 6.44413 87.1135 7.78714C86.9844 7.83894 86.789 7.88734 86.5272 7.93236C86.4671 8.15634 86.4241 8.29849 86.3984 8.3588C86.4148 8.38721 86.4644 8.47975 86.5472 8.63642C86.6438 8.77758 86.7679 8.88771 86.9195 8.96681C86.7795 9.3278 86.6917 9.82526 86.656 10.4592C86.6342 11.0776 86.6464 11.6499 86.6925 12.1761C86.6951 12.22 86.7137 12.285 86.7482 12.3711C86.7965 12.4417 86.8151 12.5067 86.8039 12.5661C86.7851 12.7435 86.8353 12.9683 86.9544 13.2403C87.0873 13.4969 87.2403 13.7228 87.4136 13.9182C87.6016 14.1126 87.7614 14.2059 87.8932 14.1981C87.981 14.1928 88.13 14.228 88.3403 14.3036C88.5514 14.3938 88.7301 14.4346 88.8765 14.4258C88.979 14.4197 89.0513 14.4007 89.0935 14.3688C89.1649 14.3351 89.2726 14.292 89.4163 14.2393C89.5601 14.1867 89.6673 14.1362 89.7379 14.0879C89.9918 13.9111 90.3122 13.4953 90.6992 12.8403C90.8463 12.5965 90.9764 12.192 91.0896 11.6269L91.1938 11.1579C91.2316 11.0528 91.2426 10.8684 91.2269 10.6049L91.2072 10.2755C91.2002 10.1584 91.2032 10.0847 91.216 10.0546L91.023 9.40493C90.9712 9.27579 90.8815 9.12687 90.7538 8.95818C90.6254 8.77485 90.5292 8.64101 90.4654 8.55667C90.3913 8.5464 90.2651 8.52455 90.0868 8.49112C89.9085 8.45769 89.7457 8.43803 89.5984 8.43214C89.4831 8.46841 89.3888 8.48874 89.3156 8.49311ZM88.6633 7.16564C88.7561 6.99847 88.9108 6.63661 89.1274 6.08004C89.3568 5.49332 89.5244 5.10129 89.6301 4.90397L89.87 4.49293C90.1736 3.91648 90.3649 3.55243 90.444 3.40077L90.502 3.26507C90.6112 3.12631 90.8534 2.87676 91.2286 2.51642C91.5616 2.18798 91.7212 2.03152 91.7075 2.04703C91.8589 1.87637 92.0707 1.73148 92.3427 1.61238L92.4292 1.58518C92.5024 1.5808 92.5627 1.60659 92.6102 1.66253C92.6722 1.71759 92.7054 1.78172 92.7098 1.85493C92.7291 2.17702 92.6484 2.54915 92.4679 2.97133C92.3012 3.378 92.1017 3.72785 91.8695 4.02089L91.5043 4.54959L91.1172 5.07962C90.8437 5.4192 90.4418 5.82521 89.9117 6.29766C89.3954 6.75459 88.9792 7.04392 88.6633 7.16564Z" fill="#428DFC"></path> <path d="M93.2664 13.5025C93.2172 13.4172 93.1388 13.3338 93.031 13.2521C92.9371 13.1548 92.8892 13.0916 92.8875 13.0623C92.8778 12.9012 92.8338 12.779 92.7554 12.6955C92.7243 12.668 92.7058 12.603 92.6996 12.5005C92.6856 12.2662 92.7718 11.8644 92.9582 11.2949C93.1584 10.7099 93.4218 10.0771 93.7484 9.39642C93.831 9.30333 93.9317 9.14304 94.0503 8.91557C94.1836 8.68721 94.2713 8.55708 94.3135 8.52518C94.31 8.46662 94.3289 8.41406 94.3702 8.36752C94.4106 8.30633 94.4601 8.27399 94.5187 8.27049L94.5108 8.13873C94.5029 8.00696 94.7257 7.67776 95.1791 7.15112C95.6316 6.60985 96.0059 6.23486 96.302 6.02617C96.6532 5.75542 97.0191 5.60868 97.3997 5.58594C97.6633 5.5702 97.8946 5.62985 98.0936 5.76489C98.1721 5.84836 98.5276 6.14302 99.1602 6.64887L100.016 7.32504L99.6864 8.44669C99.5782 8.84986 99.5338 9.21249 99.553 9.53458C99.5862 10.0909 99.7792 10.6157 100.132 11.1089C100.215 11.2655 100.37 11.4105 100.599 11.5438C100.827 11.6771 101.052 11.7518 101.273 11.768C101.599 11.8073 101.769 11.9587 101.785 12.2223C101.803 12.5151 101.681 12.6986 101.421 12.7729C101.364 12.7911 101.276 12.8036 101.159 12.8106C100.295 12.8622 99.5124 12.2993 98.8103 11.1217C98.7465 11.0373 98.6563 10.8811 98.5399 10.653C98.438 10.424 98.3772 10.266 98.3573 10.179C98.2764 10.3014 98.1749 10.447 98.0528 10.616C97.9307 10.7849 97.8145 10.9314 97.7044 11.0555C96.2039 12.7466 94.9925 13.6198 94.0701 13.6749C93.7773 13.6923 93.5094 13.6349 93.2664 13.5025ZM93.9835 12.2254C93.9879 12.2986 94.0624 12.3162 94.2071 12.2782C94.3664 12.2393 94.5523 12.1547 94.7649 12.0245C94.9922 11.8934 95.2172 11.7257 95.4401 11.5213C96.6345 10.3627 97.4858 9.3642 97.9941 8.52573L98.43 7.70629C98.2652 7.40758 98.0984 7.19715 97.9295 7.07501C97.7597 6.93822 97.6089 6.87376 97.4771 6.88163C97.1697 6.89999 96.7097 7.31683 96.0972 8.13213C95.4839 8.93279 94.9374 9.86904 94.4578 10.9409C94.3409 11.1976 94.2391 11.4608 94.1523 11.7305C94.0647 11.9855 94.0084 12.1505 93.9835 12.2254Z" fill="#428DFC"></path> </svg> 