<?xml version="1.0" encoding="UTF-8"?> <svg xmlns="http://www.w3.org/2000/svg" width="110" height="22" viewBox="0 0 110 22" fill="none"> <path d="M0.810654 21.2798C0.644361 21.2016 0.522427 21.1281 0.444852 21.0593C0.381917 20.9896 0.346952 20.8961 0.339957 20.779C0.331212 20.6326 0.377532 20.4242 0.478916 20.1536C0.594066 19.8676 0.787878 19.4226 1.06035 18.8186C1.13683 18.623 1.28508 18.2762 1.50511 17.7782C2.2572 16.1024 2.62887 15.1913 2.62013 15.0449C2.60374 15.0165 2.5938 14.973 2.5903 14.9144C2.58155 14.768 2.69081 14.6293 2.91806 14.4981C3.23468 14.1413 3.49143 13.766 3.6883 13.3722C3.81547 13.0414 3.99038 12.6489 4.21304 12.1948C4.43482 11.7261 4.71035 11.1734 5.03964 10.5366C5.19696 10.2186 5.43382 9.75637 5.75022 9.14976C6.2342 8.15113 6.86667 7.05547 7.64762 5.86279C7.95724 5.38882 8.22229 5.15259 8.44278 5.15411C8.72095 5.1375 9.03627 5.2509 9.38874 5.49432C9.75498 5.72222 10.0136 5.99328 10.1646 6.30751C10.2293 6.40649 10.2717 6.62435 10.2918 6.96109C10.3189 7.41494 10.3136 8.18664 10.2758 9.27616C10.2579 9.46824 10.2465 9.77012 10.2417 10.1818C10.2372 10.8432 10.2133 11.5499 10.17 12.3018C10.1069 13.9512 10.0663 15.2393 10.0482 16.166C10.0301 17.0927 10.0451 17.9587 10.0932 18.7639C10.1176 19.1739 10.1429 19.4736 10.1689 19.663L10.1781 19.8167L10.1863 20.3231C10.1037 20.4162 9.97456 20.468 9.79887 20.4785C9.5939 20.4908 9.39319 20.4513 9.19674 20.3602C9.00117 20.2837 8.88481 20.1805 8.84765 20.0505C8.83214 20.0367 8.8093 20.0234 8.77915 20.0105C8.74899 19.9976 8.73042 19.9326 8.72342 19.8155L8.71653 19.331L8.70895 18.0973L8.60626 14.5331L8.32208 14.5721C8.02927 14.5896 7.38126 14.687 6.37806 14.8645C5.37486 15.042 4.751 15.1747 4.50648 15.2628C4.37471 15.2707 4.21891 15.3681 4.03908 15.5552C3.85925 15.7422 3.70443 15.9792 3.57464 16.2661C3.53946 16.4152 3.44966 16.6336 3.30523 16.9214C3.15992 17.1945 3.08858 17.353 3.09121 17.397C3.00686 17.4608 2.93115 17.5461 2.86406 17.653C2.81075 17.7443 2.77764 17.8051 2.76475 17.8352C2.77437 17.9963 2.64513 18.4154 2.37703 19.0926C2.12357 19.7689 1.86355 20.3354 1.59697 20.7921L1.17777 21.5224L0.810654 21.2798ZM4.93419 13.9369C5.02116 13.917 5.20974 13.8764 5.49992 13.815C5.78924 13.7389 6.05058 13.6866 6.28396 13.658C7.32321 13.3461 7.95996 13.1832 8.19421 13.1692C8.2967 13.1631 8.39317 13.1793 8.48364 13.218C8.53106 13.274 8.5776 13.3153 8.62327 13.3419C8.68271 13.3531 8.71975 13.3582 8.73439 13.3573C8.75843 13.2677 8.79905 12.4719 8.85626 10.9698C8.92723 9.45221 8.95518 8.44408 8.94009 7.94543L8.94038 6.84345C8.85254 6.8487 8.67227 7.02843 8.39957 7.38266C8.12687 7.73688 7.82369 8.19577 7.49003 8.75933C7.17014 9.30738 6.88772 9.86788 6.64278 10.4408C6.51212 10.7131 6.38058 10.9708 6.24816 11.2137C6.12951 11.4412 6.04091 11.5567 5.98235 11.5602C5.88598 11.6688 5.66802 12.0785 5.32847 12.7894C4.98891 13.5002 4.85749 13.8827 4.93419 13.9369Z" fill="#428DFC"></path> <path d="M11.5219 19.8246C11.4323 19.8006 11.3022 19.7129 11.1315 19.5614C10.9746 19.3945 10.8651 19.2835 10.8031 19.2284C10.797 19.1259 10.8214 19.0437 10.8765 18.9816C10.9462 18.9187 10.9948 18.8717 11.0224 18.8407C11.0628 18.7795 11.1553 18.7299 11.3 18.6918C11.4593 18.6529 11.5596 18.6102 11.6009 18.5637C11.6568 18.5163 11.7971 18.405 12.0217 18.23C12.2464 18.055 12.4417 17.8817 12.6078 17.7101C12.7876 17.5231 12.9308 17.3382 13.0375 17.1555C13.3858 16.5911 13.7499 15.9228 14.1299 15.1508C14.2468 14.8941 14.395 14.5473 14.5747 14.1105C14.768 13.6581 14.8754 13.3652 14.8968 13.2317L14.2029 13.0527C14.1719 13.0252 14.1245 12.9693 14.0607 12.8849C13.9969 12.8006 13.9559 12.7296 13.9377 12.6719C13.9342 12.6133 13.9303 12.5474 13.9259 12.4742C13.9154 12.2985 13.9227 12.1732 13.9476 12.0983C13.9871 12.0224 14.065 11.9737 14.1813 11.9521C14.6299 11.8371 14.9993 11.7489 15.2895 11.6875C15.7252 11.6027 16.0511 11.5245 16.2672 11.4528C16.4403 11.3984 16.6366 11.3646 16.8562 11.3515C17.2369 11.3288 17.5849 11.3741 17.9002 11.4875C18.125 11.5622 18.3259 11.7266 18.5026 11.9805C18.7242 12.2464 18.8433 12.5184 18.8599 12.7966C18.8661 12.8991 18.8649 13.002 18.8563 13.1054C18.8469 13.1941 18.8453 13.2897 18.8514 13.3922C18.8593 13.5239 18.8891 13.6544 18.9409 13.7835C18.7926 14.4977 18.6261 15.1541 18.4415 15.7528C18.4045 15.8726 18.3505 16.0742 18.2792 16.3576C18.208 16.641 18.1565 16.8865 18.1249 17.0941C18.0941 17.3163 18.0404 17.5252 17.9639 17.7208C17.8669 18.0645 17.8099 18.3397 17.7929 18.5465C17.7732 18.7093 17.7148 18.8376 17.6175 18.9316C17.534 19.0101 17.4355 19.0821 17.3219 19.1476C17.222 19.1977 17.1579 19.2309 17.1295 19.2473C17.0727 19.28 16.9693 19.2715 16.8194 19.2217C16.6695 19.1719 16.5402 19.0988 16.4316 19.0024C16.3971 18.9163 16.3755 18.8001 16.3667 18.6537C16.3597 18.5366 16.3794 18.3738 16.4257 18.1653C16.6385 17.3004 16.9238 16.0492 17.2814 14.4116L17.4731 13.5627C17.5092 13.4283 17.522 13.2732 17.5115 13.0975C17.5036 12.9658 17.4738 12.8353 17.422 12.7062C17.1825 12.6323 16.9969 12.5993 16.8651 12.6072C16.7919 12.6116 16.7123 12.631 16.6262 12.6656C16.5401 12.7001 16.4608 12.7269 16.3885 12.7459C16.2482 12.8571 16.1687 13.0014 16.1499 13.1789C15.9155 13.9275 15.6684 14.5888 15.4089 15.1626C15.1493 15.7364 14.9495 16.2038 14.8094 16.5648C14.7596 16.7147 14.6078 17.003 14.3541 17.4295C14.1942 17.7035 14.0816 17.9086 14.0162 18.0447L13.793 18.3666C13.7242 18.4442 13.6067 18.5688 13.4407 18.7403C13.2746 18.9118 13.1572 19.0364 13.0883 19.114L12.439 19.6817C12.3556 19.7601 12.1967 19.8064 11.9624 19.8204C11.742 19.8188 11.5951 19.8203 11.5219 19.8246Z" fill="#428DFC"></path> <path d="M22.0322 9.63184C21.9236 9.53548 21.8253 9.36504 21.7372 9.12052C21.6492 8.87601 21.6417 8.75156 21.7149 8.74719C21.8312 8.72555 21.9555 8.59324 22.0879 8.35024C22.2341 8.09173 22.2951 7.8824 22.2708 7.72222C22.2673 7.66366 22.2862 7.61111 22.3275 7.56456C22.3679 7.50338 22.417 7.46371 22.4747 7.44558C22.5874 7.36538 22.6877 7.32265 22.7756 7.31741C23.0245 7.30254 23.2619 7.46467 23.4878 7.80381C23.587 7.98889 23.641 8.15463 23.6498 8.30104C23.6576 8.4328 23.6293 8.57407 23.5649 8.72485C23.4996 8.86099 23.3783 9.04454 23.2011 9.27552C22.9723 9.62712 22.7481 9.80948 22.5285 9.8226C22.3821 9.83134 22.2167 9.76776 22.0322 9.63184ZM20.4346 18.6752C20.2174 18.4825 20.0974 18.1958 20.0747 17.8151C20.0624 17.6101 20.0885 17.4323 20.153 17.2815C20.1486 17.2083 20.158 17.1196 20.1812 17.0153C20.2043 16.9111 20.215 16.8444 20.2133 16.8151C20.1934 16.7281 20.2375 16.483 20.3457 16.0799C20.5742 15.4785 20.864 14.4254 21.2149 12.9204C21.2105 12.8472 21.2363 12.7869 21.2922 12.7395C21.3473 12.6774 21.4329 12.6356 21.5492 12.6139C21.6646 12.5777 21.7442 12.5582 21.7881 12.5556C21.876 12.5504 21.9514 12.5826 22.0143 12.6523C22.091 12.7065 22.1932 12.8179 22.3208 12.9866C22.4139 13.0692 22.4657 13.1983 22.4761 13.374C22.4928 13.6522 22.4177 13.9946 22.251 14.4013C22.086 14.8372 21.9834 15.2107 21.9432 15.5216C21.7912 15.9274 21.6739 16.3017 21.5916 16.6446C21.5675 16.7342 21.5341 16.9125 21.4913 17.1795C21.4485 17.4466 21.3806 17.6636 21.2878 17.8308C21.2244 18.246 21.1609 18.5363 21.0973 18.7017C21.0338 18.8671 20.958 18.9525 20.8702 18.9577C20.7677 18.9638 20.6225 18.8697 20.4346 18.6752Z" fill="#428DFC"></path> <path d="M30.4099 10.9607C30.5657 10.8632 30.7241 10.8097 30.8852 10.8001C31.0901 10.7878 31.2697 10.8432 31.424 10.9663C31.5921 11.0738 31.6818 11.2227 31.6931 11.413C31.6949 11.4423 31.6846 11.5164 31.6623 11.6352C31.6949 11.4423 31.56 11.7662 31.2576 12.6071C30.9552 13.448 30.7911 13.8985 30.7653 13.9589L30.7692 14.0247C30.9742 14.0125 31.1099 14.0705 31.1763 14.1988C31.2565 14.3115 31.2954 14.4708 31.293 14.6767C31.163 14.7138 31.0416 14.7725 30.9289 14.8527C30.8161 14.9329 30.7231 14.9752 30.6499 14.9795C30.606 14.9822 30.5561 15.0072 30.5001 15.0546C30.4442 15.102 30.4107 15.1555 30.3995 15.2149C30.3737 15.2752 30.336 15.5052 30.2864 15.9049L29.9856 17.5097C29.9624 17.6139 29.9164 17.7048 29.8476 17.7824C29.7788 17.8599 29.7155 17.9078 29.6578 17.9259C29.5984 17.9148 29.4791 17.8852 29.2999 17.8371C29.1345 17.7735 29.0216 17.7289 28.9613 17.7031C28.9001 17.6627 28.8389 17.6222 28.7777 17.5818L28.7699 17.45C28.7576 17.2451 28.7816 17.0306 28.8416 16.8066C28.9378 16.4482 29.0256 15.9508 29.1051 15.3142C28.9854 15.2773 28.6939 15.3168 28.2306 15.4326C27.7665 15.5338 27.5125 15.5857 27.4686 15.5883C27.3833 15.6375 27.209 15.6699 26.9454 15.6857C26.5209 15.711 26.2185 15.6924 26.0385 15.6297L25.9107 15.7034C25.8892 15.8369 25.8541 15.9859 25.8051 16.1505C25.6712 16.614 25.6108 16.9555 25.6239 17.1751C25.6069 17.3818 25.5876 17.552 25.5662 17.6855C25.5457 17.8336 25.5295 18.055 25.5177 18.3495C25.5276 18.7604 25.4007 18.9736 25.1372 18.9894C24.9761 18.999 24.797 18.9509 24.5996 18.8452C24.4937 18.7927 24.3476 18.6839 24.1614 18.5187L24.4118 16.8067C24.4478 16.6723 24.4808 16.4867 24.5107 16.2498C24.5553 16.0121 24.6025 15.8183 24.6523 15.6684L24.8532 14.9732C24.9983 14.4502 25.1344 14.0234 25.2616 13.6925C25.2616 13.6925 25.3895 13.2514 25.6454 12.3693C25.6832 12.2642 25.7617 11.9803 25.881 11.5177C26.0141 11.0396 26.0931 10.7631 26.118 10.6881C26.1669 10.5236 26.2793 10.4361 26.4549 10.4256C26.6883 10.3969 26.8895 10.4437 27.0584 10.5658C27.2411 10.6725 27.345 10.8132 27.3701 10.988C27.3727 11.0319 27.3698 11.1056 27.3613 11.2089C27.3519 11.2976 27.3412 11.3644 27.3291 11.4092L26.3538 14.2664L26.3643 14.4421C26.4254 14.4825 26.5292 14.4984 26.6756 14.4896C26.7928 14.4826 26.9671 14.4502 27.1988 14.3923C27.445 14.3335 27.5975 14.3023 27.656 14.2988C27.7869 14.2763 27.9837 14.2499 28.2463 14.2195C28.509 14.1891 28.7721 14.1661 29.0356 14.1503C29.2406 14.1381 29.3508 14.1388 29.3663 14.1526L29.5659 13.4354C29.7573 12.7041 29.9717 12.1109 30.209 11.6559C30.221 11.6111 30.2455 11.5289 30.2824 11.4091C30.3184 11.2747 30.3609 11.1253 30.4099 10.9607Z" fill="#428DFC"></path> <path d="M33.488 17.8074C33.4388 17.7221 33.3604 17.6387 33.2526 17.557C33.1587 17.4597 33.1108 17.3965 33.1091 17.3672C33.0994 17.2061 33.0554 17.0839 32.977 17.0004C32.9459 16.9729 32.9274 16.9079 32.9212 16.8054C32.9072 16.5711 32.9934 16.1693 33.1798 15.5998C33.38 15.0148 33.6434 14.382 33.97 13.7013C34.0526 13.6082 34.1532 13.4479 34.2719 13.2205C34.4052 12.9921 34.4929 12.862 34.5351 12.8301C34.5316 12.7715 34.5505 12.719 34.5918 12.6724C34.6322 12.6112 34.6817 12.5789 34.7403 12.5754L34.7324 12.4436C34.7245 12.3119 34.9473 11.9827 35.4007 11.456C35.8532 10.9148 36.2275 10.5398 36.5236 10.3311C36.8748 10.0603 37.2407 9.91358 37.6213 9.89085C37.8849 9.8751 38.1162 9.93475 38.3152 10.0698C38.3937 10.1533 38.7492 10.4479 39.3818 10.9538L40.2377 11.6299L39.908 12.7516C39.7998 13.1548 39.7554 13.5174 39.7746 13.8395C39.8078 14.3958 40.0008 14.9206 40.3535 15.4138C40.4363 15.5704 40.5919 15.7154 40.8202 15.8487C41.0486 15.982 41.2735 16.0567 41.4948 16.0729C41.8204 16.1122 41.9911 16.2636 42.0068 16.5272C42.0243 16.82 41.903 17.0035 41.643 17.0778C41.5853 17.096 41.4979 17.1086 41.3808 17.1155C40.517 17.1671 39.734 16.6042 39.0319 15.4266C38.9681 15.3422 38.8779 15.186 38.7615 14.9579C38.6596 14.7289 38.5988 14.5709 38.5789 14.4839C38.498 14.6063 38.3965 14.7519 38.2744 14.9209C38.1523 15.0898 38.0361 15.2363 37.926 15.3604C36.4255 17.0516 35.214 17.9247 34.2917 17.9798C33.9989 17.9972 33.731 17.9398 33.488 17.8074ZM34.2051 16.5303C34.2095 16.6035 34.284 16.6211 34.4287 16.5831C34.588 16.5442 34.7739 16.4596 34.9865 16.3294C35.2138 16.1983 35.4389 16.0306 35.6617 15.8262C36.8561 14.6676 37.7074 13.6691 38.2157 12.8306L38.6516 12.0112C38.4868 11.7125 38.32 11.5021 38.1511 11.3799C37.9813 11.2431 37.8305 11.1787 37.6987 11.1865C37.3913 11.2049 36.9313 11.6217 36.3188 12.437C35.7055 13.2377 35.159 14.1739 34.6794 15.2458C34.5625 15.5025 34.4607 15.7657 34.3739 16.0354C34.2863 16.2904 34.23 16.4554 34.2051 16.5303Z" fill="#428DFC"></path> <path d="M60.1916 3.76024C60.2296 3.9049 60.2009 4.03885 60.1054 4.1621C60.0237 4.26983 59.827 4.42116 59.5154 4.61608C58.8758 4.97752 58.5169 5.24139 58.4387 5.40769C58.369 5.47062 58.2081 5.60512 57.9559 5.81119C57.7184 6.01638 57.4176 6.26943 57.0536 6.57034C56.5053 6.9851 56.029 7.37352 55.6245 7.73562C55.2347 8.09684 54.9791 8.36922 54.8579 8.55278C54.8139 8.5554 54.7567 8.58086 54.6861 8.62916C54.6302 8.67658 54.5798 8.69428 54.535 8.68226C54.5066 8.69865 54.4433 8.74651 54.3452 8.82583C54.2471 8.90515 54.1779 8.97541 54.1374 9.0366C54.1005 9.15634 54.0343 9.27784 53.9388 9.40109C53.8571 9.50882 53.7499 9.5593 53.6173 9.55253C53.3478 9.71555 52.8229 10.151 52.0423 10.8587C52.2122 11.98 52.5567 12.9511 53.0759 13.7723C53.5564 14.6839 54.0294 15.3463 54.4949 15.7592C54.8224 16.0776 55.1237 16.3241 55.3986 16.4987C55.6881 16.6724 55.9061 16.7549 56.0525 16.7461C56.1869 16.7822 56.376 16.8737 56.6199 17.0208C56.8637 17.1678 56.9961 17.2922 57.0168 17.3938C57.0332 17.4222 57.044 17.4803 57.0493 17.5682C57.0624 17.7878 57.0354 17.951 56.9683 18.0579C56.9159 18.1638 56.869 18.2401 56.8277 18.2866C56.7873 18.3478 56.7158 18.3815 56.6134 18.3876C56.4523 18.3972 56.2512 18.3505 56.0099 18.2473C55.7766 18.276 55.3608 18.0804 54.7627 17.6607C54.1646 17.2409 53.7005 16.8499 53.3703 16.4876C52.9409 15.9402 52.5658 15.441 52.245 14.99C51.9389 14.5381 51.696 14.0384 51.5163 13.4908C51.442 13.2308 51.3086 12.842 51.1161 12.3246C50.997 12.0525 50.9266 11.8584 50.905 11.7421L50.8801 11.3249L50.6559 11.9994C50.6439 12.0442 50.5631 12.2915 50.4137 12.7412C50.2789 13.19 50.091 13.98 49.85 15.111L49.5668 16.274C49.293 17.3482 49.1059 18.0279 49.0054 18.3131C48.9195 18.5974 48.818 18.743 48.7009 18.75C48.6423 18.7535 48.5596 18.7217 48.4528 18.6546C48.3614 18.6013 48.2929 18.5613 48.2472 18.5347C48.1257 18.4685 48.0413 18.4074 47.9939 18.3515C47.9465 18.2955 47.9201 18.2236 47.9149 18.1358C47.9088 18.0333 47.9344 17.8481 47.9919 17.5802C47.9659 17.3908 47.9696 17.2069 48.003 17.0286C48.0364 16.8503 48.0523 16.7465 48.0505 16.7172C48.153 16.7111 48.1973 16.5909 48.1833 16.3566C48.1763 16.2395 48.2269 15.9793 48.335 15.5762L48.492 14.8836L48.7175 14.231C48.854 13.8114 48.9215 13.587 48.9197 13.5577C48.9083 13.3674 48.9891 13.1202 49.1619 12.816C49.21 12.6368 49.2499 12.4434 49.2815 12.2358C49.3132 12.0282 49.3251 11.8585 49.3172 11.7268C49.3422 11.6518 49.4126 11.4786 49.5286 11.2072C49.6447 10.9358 49.7241 10.6666 49.7669 10.3996C49.7772 10.3255 49.7943 10.2437 49.8184 10.1541C49.857 10.0636 49.8944 9.9512 49.9305 9.81681L50.5371 7.79705L50.8219 7.0307C50.8468 6.95575 50.9284 6.72314 51.0668 6.33287C51.2197 5.94172 51.3255 5.74439 51.384 5.7409L51.3696 5.49933C51.3661 5.44076 51.4353 5.24563 51.5771 4.91392L51.8091 4.37111C51.9149 4.17379 51.9918 3.98554 52.0399 3.80635C52.1017 3.61165 52.1382 3.48458 52.1493 3.42515C52.1622 3.39499 52.1884 3.342 52.228 3.26617C52.2675 3.19035 52.3148 3.12141 52.3699 3.05934C52.524 2.9326 52.6669 2.86529 52.7986 2.85742C53.0036 2.84518 53.188 2.98109 53.3519 3.26516C53.4666 3.46401 53.5288 3.64395 53.5384 3.805C53.5472 3.95141 53.4918 4.13103 53.3723 4.34387C52.9383 5.44236 52.4988 6.57057 52.0537 7.7285C51.6233 8.88556 51.4133 9.55193 51.4238 9.72762L52.1377 9.134C52.4956 8.73061 53.073 8.18922 53.8699 7.50983L56.4399 5.1524C56.8376 4.92295 57.3015 4.572 57.8316 4.09955C57.9728 4.00297 58.0851 3.91545 58.1686 3.837C58.2521 3.75855 58.3222 3.70293 58.379 3.67015C58.4625 3.59171 58.6307 3.45677 58.8838 3.26534C59.1359 3.05927 59.2991 2.96137 59.3731 2.97164C59.5298 2.88882 59.7099 2.95153 59.9133 3.15977C60.1168 3.36801 60.2095 3.56817 60.1916 3.76024Z" fill="#428DFC"></path> <path d="M61.0527 16.3152C60.9081 16.3533 60.7772 16.3758 60.6601 16.3828C60.4697 16.3941 60.2932 16.39 60.1304 16.3703C59.9667 16.336 59.8831 16.2896 59.8796 16.231C59.877 16.1871 59.8679 16.1583 59.8524 16.1445C59.8369 16.1307 59.8072 16.1252 59.7633 16.1278C59.7477 16.114 59.7016 16.08 59.6249 16.0258C59.5482 15.9717 59.4573 15.9257 59.3522 15.8879C59.2082 15.6908 59.1292 15.4751 59.1152 15.2408C59.1004 14.992 59.1431 14.6 59.2434 14.0651C59.2593 13.594 59.4439 12.9953 59.7972 12.2689C60.1506 11.5425 60.572 10.8488 61.0614 10.1878C61.5655 9.52592 62.0224 9.05784 62.4321 8.78359C62.6386 8.55087 62.9102 8.42445 63.247 8.40434C63.5105 8.3886 63.7633 8.43961 64.0054 8.55739C64.2174 8.66227 64.4415 8.84724 64.6777 9.11229C64.9286 9.37647 65.1286 9.65103 65.2779 9.93597C65.3496 10.1521 65.3915 10.3626 65.4038 10.5676C65.4169 10.7872 65.4082 11.133 65.3776 11.605C65.3201 11.8729 65.2735 12.1989 65.2377 12.5831C65.2165 12.9664 65.2142 13.2971 65.2308 13.5753C65.2138 13.782 65.2384 13.9495 65.3049 14.0777C65.3704 14.1914 65.4545 14.2451 65.5569 14.239C65.6302 14.2346 65.7094 14.2078 65.7946 14.1587C65.9366 14.0767 66.0955 14.0305 66.2712 14.02C66.4322 14.0104 66.5666 14.0464 66.6743 14.1282C66.7821 14.2099 66.8412 14.3386 66.8517 14.5143C66.8674 14.7778 66.7001 15.0523 66.3499 15.3377C66.0142 15.6222 65.6854 15.7741 65.3633 15.7933C65.1437 15.8064 64.9286 15.6503 64.7182 15.3249C64.5215 14.984 64.3192 14.548 64.1111 14.0168L63.9492 13.5196L63.0587 14.4764L62.5837 15.0116C62.3635 15.2599 62.24 15.4068 62.2134 15.4525C62.0689 15.7403 61.682 16.0279 61.0527 16.3152ZM61.0412 15.0156C61.3804 14.7897 61.7908 14.4052 62.2726 13.8621C62.7545 13.3191 63.1497 12.8033 63.4585 12.3147C63.8765 11.6873 64.1266 11.0773 64.2087 10.4847C64.1397 10.3125 64.034 10.1425 63.8917 9.97469C63.7495 9.80687 63.6267 9.7187 63.5233 9.71018C63.2305 9.72767 62.9331 9.9144 62.6311 10.2704C62.3291 10.6263 61.9765 11.1176 61.5731 11.7441L60.9127 12.8634C60.8318 12.9858 60.6969 13.3098 60.5079 13.8353C60.318 14.3462 60.2261 14.6529 60.2323 14.7554C60.2515 15.0775 60.3563 15.2328 60.5466 15.2215C60.693 15.2127 60.8579 15.1441 61.0412 15.0156Z" fill="#428DFC"></path> <path d="M70.3142 15.8943C69.8603 15.9214 69.5589 15.9174 69.4099 15.8822C69.2599 15.8324 69.0846 15.7253 68.8838 15.561C68.7199 15.2769 68.5603 15.0661 68.4052 14.9284C68.337 14.7708 68.2933 14.531 68.2741 14.2089C68.2522 13.8429 68.2725 13.445 68.335 13.0152C68.3966 12.5707 68.4892 12.1538 68.6129 11.7644C68.6645 11.6438 68.7019 11.5313 68.725 11.4271C68.7628 11.322 68.7882 11.2544 68.801 11.2242C68.7949 11.1217 68.9591 10.796 69.2937 10.2471C69.642 9.68266 69.9198 9.2914 70.1272 9.07331C70.2227 8.95007 70.3689 8.81644 70.566 8.67243C70.7778 8.52755 70.9624 8.42102 71.12 8.35284C71.5212 8.18195 71.8755 8.08732 72.1829 8.06896C72.6075 8.0436 72.978 8.21982 73.2944 8.59763C73.6358 8.90048 73.8182 9.24956 73.8418 9.64485C73.8506 9.79126 73.8383 9.95361 73.8048 10.1319C73.6934 10.7263 73.4986 11.0318 73.2204 11.0484C73.0301 11.0598 72.8405 10.9609 72.6517 10.7518C72.5844 10.6089 72.5495 10.5155 72.5468 10.4715C72.5442 10.4276 72.5661 10.3014 72.6124 10.093C72.6329 9.9448 72.6414 9.84144 72.6379 9.78288C72.6274 9.60719 72.589 9.45521 72.5226 9.32695C72.4561 9.19868 72.3717 9.13761 72.2692 9.14373C71.9324 9.16384 71.5107 9.48288 71.004 10.1009C70.8259 10.3172 70.5963 10.6542 70.315 11.1117C70.0485 11.5684 69.8525 11.9769 69.727 12.337C69.6069 12.7849 69.5112 13.1506 69.4399 13.434C69.3687 13.7175 69.3206 13.8966 69.2957 13.9716C69.2975 14.0009 69.3152 14.0512 69.3488 14.1227C69.3971 14.1933 69.4226 14.2505 69.4252 14.2945C69.4313 14.3969 69.4581 14.4761 69.5055 14.5321C69.5529 14.588 69.637 14.6418 69.7576 14.6933C69.9256 14.8009 70.1195 14.848 70.3391 14.8349C70.5733 14.8209 70.8398 14.7316 71.1385 14.5668C71.3236 14.4676 71.5831 14.2611 71.9169 13.9473L72.4204 13.5205C72.5185 13.4412 72.6029 13.3774 72.6734 13.3291C72.7578 13.2653 72.8215 13.2247 72.8645 13.2075C72.9067 13.1756 72.9287 13.1742 72.9304 13.2035C72.9339 13.2621 72.9576 13.2901 73.0015 13.2874C73.0455 13.2848 73.0949 13.2525 73.15 13.1904C73.2713 13.0069 73.4344 12.909 73.6394 12.8967C73.7565 12.8897 73.8164 12.9082 73.819 12.9521L73.8036 13.0632C73.808 13.1364 73.8489 13.2074 73.9265 13.2763C73.93 13.3348 73.9129 13.4167 73.8751 13.5218C73.851 13.6114 73.8115 13.6872 73.7564 13.7492C73.6764 13.8863 73.5323 14.0565 73.3241 14.2599C73.1296 14.4479 72.9975 14.5733 72.9278 14.6362L72.9059 14.6375C72.8327 14.6419 72.7341 14.7139 72.6102 14.8535C72.4028 15.0716 72.2186 15.1855 72.0576 15.1951C72.0008 15.2279 71.9371 15.2684 71.8665 15.3167C71.7951 15.3504 71.7606 15.3892 71.7633 15.4331C71.6256 15.5882 71.456 15.7012 71.2546 15.772C71.0522 15.8282 70.7388 15.8689 70.3142 15.8943Z" fill="#428DFC"></path> <path d="M77.5349 6.31674C77.4263 6.22038 77.3279 6.04994 77.2399 5.80542C77.1518 5.5609 77.1444 5.43646 77.2176 5.43209C77.3338 5.41045 77.4582 5.27814 77.5906 5.03514C77.7367 4.77663 77.7977 4.56729 77.7734 4.40712C77.77 4.34856 77.7889 4.29601 77.8302 4.24946C77.8706 4.18827 77.9196 4.14861 77.9773 4.13047C78.0901 4.05028 78.1904 4.00755 78.2782 4.00231C78.5271 3.98744 78.7645 4.14957 78.9905 4.4887C79.0897 4.67378 79.1437 4.83953 79.1524 4.98593C79.1603 5.1177 79.132 5.25897 79.0675 5.40975C79.0022 5.54589 78.8809 5.72944 78.7037 5.96042C78.4749 6.31202 78.2507 6.49438 78.0311 6.50749C77.8847 6.51624 77.7193 6.45265 77.5349 6.31674ZM75.9372 15.3601C75.72 15.1674 75.6 14.8807 75.5773 14.5C75.5651 14.295 75.5912 14.1172 75.6556 13.9664C75.6513 13.8932 75.6607 13.8045 75.6838 13.7002C75.707 13.596 75.7177 13.5293 75.7159 13.5C75.696 13.413 75.7402 13.1679 75.8483 12.7648C76.0769 12.1634 76.3666 11.1103 76.7175 9.60533C76.7131 9.53212 76.7389 9.47181 76.7949 9.42439C76.8499 9.36233 76.9356 9.32048 77.0518 9.29885C77.1672 9.26257 77.2468 9.24312 77.2908 9.2405C77.3786 9.23525 77.454 9.26748 77.5169 9.33719C77.5936 9.39138 77.6958 9.50282 77.8234 9.67151C77.9165 9.7541 77.9683 9.88325 77.9788 10.0589C77.9954 10.3371 77.9204 10.6795 77.7536 11.0862C77.5887 11.5221 77.4861 11.8956 77.4459 12.2065C77.2938 12.6123 77.1766 12.9866 77.0942 13.3295C77.0702 13.4191 77.0367 13.5974 76.9939 13.8644C76.9511 14.1315 76.8833 14.3485 76.7904 14.5157C76.727 14.9309 76.6636 15.2212 76.6 15.3866C76.5364 15.552 76.4607 15.6374 76.3728 15.6426C76.2704 15.6487 76.1252 15.5546 75.9372 15.3601Z" fill="#428DFC"></path> <path d="M78.8843 15.8012C78.7947 15.7771 78.6646 15.6894 78.4939 15.538C78.337 15.371 78.2275 15.26 78.1655 15.205C78.1593 15.1025 78.1838 15.0202 78.2389 14.9581C78.3086 14.8952 78.3572 14.8482 78.3847 14.8172C78.4252 14.756 78.5177 14.7064 78.6623 14.6684C78.8216 14.6295 78.9219 14.5868 78.9632 14.5402C79.0192 14.4928 79.1595 14.3816 79.3841 14.2065C79.6087 14.0315 79.8041 13.8582 79.9701 13.6867C80.15 13.4996 80.2932 13.3147 80.3998 13.1321C80.7481 12.5676 81.1123 11.8994 81.4923 11.1274C81.6092 10.8706 81.7574 10.5238 81.937 10.087C82.1304 9.63465 82.2378 9.34172 82.2592 9.20821L81.5653 9.02926C81.5343 9.00173 81.4868 8.94579 81.423 8.86145C81.3592 8.7771 81.3183 8.70609 81.3001 8.6484C81.2966 8.58984 81.2927 8.52395 81.2883 8.45075C81.2778 8.27506 81.285 8.14974 81.3099 8.07479C81.3495 7.99897 81.4274 7.95024 81.5436 7.9286C81.9922 7.81365 82.3616 7.72547 82.6518 7.66405C83.0875 7.57926 83.4135 7.50102 83.6296 7.42934C83.8026 7.37493 83.999 7.34116 84.2186 7.32804C84.5992 7.30531 84.9472 7.35064 85.2626 7.46404C85.4874 7.53877 85.6882 7.70309 85.865 7.957C86.0866 8.22293 86.2057 8.49498 86.2223 8.77315C86.2284 8.87563 86.2272 8.97855 86.2187 9.08191C86.2093 9.17063 86.2077 9.26623 86.2138 9.36871C86.2217 9.50048 86.2515 9.63093 86.3033 9.76007C86.1549 10.4742 85.9884 11.1306 85.8038 11.7294C85.7669 11.8491 85.7128 12.0507 85.6416 12.3341C85.5704 12.6175 85.5189 12.863 85.4872 13.0706C85.4564 13.2929 85.4028 13.5018 85.3263 13.6973C85.2293 14.0411 85.1723 14.3163 85.1552 14.523C85.1356 14.6858 85.0771 14.8142 84.9799 14.9081C84.8964 14.9866 84.7979 15.0586 84.6842 15.1241C84.5844 15.1742 84.5202 15.2074 84.4918 15.2238C84.435 15.2566 84.3317 15.2481 84.1818 15.1982C84.0319 15.1484 83.9026 15.0753 83.794 14.979C83.7595 14.8929 83.7378 14.7766 83.7291 14.6302C83.7221 14.5131 83.7418 14.3503 83.7881 14.1418C84.0009 13.2769 84.2861 12.0257 84.6438 10.3881L84.8355 9.53919C84.8716 9.4048 84.8843 9.24977 84.8739 9.07408C84.866 8.94231 84.8362 8.81186 84.7844 8.68272C84.5449 8.60887 84.3592 8.57588 84.2275 8.58375C84.1543 8.58812 84.0746 8.60757 83.9885 8.6421C83.9024 8.67663 83.8232 8.70339 83.7509 8.72241C83.6106 8.83364 83.5311 8.97797 83.5123 9.15541C83.2778 9.90405 83.0308 10.5653 82.7712 11.1391C82.5117 11.7129 82.3118 12.1804 82.1718 12.5414C82.122 12.6913 81.9702 12.9795 81.7165 13.406C81.5566 13.6801 81.4439 13.8851 81.3786 14.0213L81.1554 14.3432C81.0866 14.4207 80.9691 14.5453 80.803 14.7168C80.637 14.8884 80.5195 15.0129 80.4507 15.0905L79.8014 15.6582C79.7179 15.7367 79.5591 15.7829 79.3248 15.7969C79.1043 15.7954 78.9575 15.7968 78.8843 15.8012Z" fill="#428DFC"></path> <path d="M88.8785 14.9618C88.7028 14.9723 88.562 14.9513 88.456 14.8989C88.35 14.8464 88.1971 14.7454 87.9971 14.5957C87.4834 14.1121 87.2138 13.6581 87.1885 13.2335C87.1823 13.131 87.1853 13.0574 87.1973 13.0126C87.2351 12.9074 87.2436 12.8041 87.2229 12.7025C87.2167 12.6 87.2128 12.5341 87.2111 12.5048C87.149 12.4498 87.1175 12.4149 87.1167 12.4003C87.1149 12.371 87.1282 12.3482 87.1566 12.3318C87.1842 12.3007 87.2044 12.2701 87.2173 12.24C87.3051 12.2347 87.3296 12.1525 87.2907 11.9932C87.2544 11.8778 87.2977 11.6181 87.4205 11.2141C87.5424 10.7954 87.7031 10.4111 87.9026 10.0613C88.0479 9.7881 88.2625 9.4447 88.5463 9.03104C88.8448 8.61651 89.1124 8.29933 89.349 8.07949C89.682 7.75105 89.9832 7.50532 90.2527 7.3423C90.5221 7.17928 90.823 7.05111 91.1554 6.9578C91.4438 6.86711 91.6392 6.8187 91.7417 6.81258C91.8442 6.80646 91.9338 6.83049 92.0105 6.88468C92.101 6.92336 92.216 7.00464 92.3557 7.12854C92.7615 7.28061 93.0459 7.49136 93.2089 7.76079C93.3857 8.0147 93.4911 8.42715 93.5252 8.99813C93.5821 9.94977 93.2557 11.0051 92.5462 12.1641C92.2384 12.6674 91.9459 13.0595 91.6688 13.3405C91.3909 13.6069 91.0191 13.9009 90.5534 14.2226C90.2591 14.4606 89.9832 14.6387 89.7258 14.7569C89.4822 14.8596 89.1997 14.9279 88.8785 14.9618ZM90.8477 12.508C91.1755 12.0917 91.4314 11.7018 91.6153 11.3382C91.814 10.9737 91.9923 10.5149 92.1502 9.96182C92.2086 9.70856 92.2272 9.40624 92.2062 9.05487C92.18 8.61565 92.1066 8.37026 91.986 8.31869C91.8352 8.25424 91.6866 8.22638 91.5402 8.23512C91.2181 8.25436 90.8901 8.42088 90.5562 8.73468C90.1535 9.12605 89.8 9.60265 89.4956 10.1645C89.1903 10.7116 88.8856 11.391 88.5815 12.2026C88.4534 12.5188 88.3982 12.8233 88.4156 13.1161C88.4288 13.3357 88.4905 13.5083 88.6009 13.634C88.7258 13.7587 88.8835 13.8154 89.0738 13.8041C89.557 13.7752 90.1483 13.3432 90.8477 12.508Z" fill="#428DFC"></path> <path d="M97.0237 14.6075C96.885 14.4983 96.7928 14.4303 96.7471 14.4037C96.7014 14.377 96.567 14.3409 96.3439 14.2955C96.3085 14.1948 96.2093 14.0097 96.0463 13.7403C95.8402 13.4881 95.7242 13.2673 95.6982 13.0778L95.6916 12.968L95.6851 12.8582C95.6754 12.6972 95.6319 12.5822 95.5543 12.5134C95.624 12.4505 95.6334 12.3618 95.5825 12.2473C95.5307 12.1181 95.5323 12.0225 95.5874 11.9604L95.6001 11.8054C95.5518 11.7348 95.5238 11.6337 95.5159 11.5019C95.5019 11.2676 95.5471 10.7948 95.6516 10.0833C95.7577 9.40107 95.7923 8.99496 95.7551 8.86494L95.3155 8.51653C95.3317 8.29517 95.3587 8.13194 95.3965 8.02683C95.4334 7.90708 95.5302 7.8058 95.6869 7.72298L95.8446 7.77968C95.9022 7.76154 95.9453 7.74428 95.9737 7.72789C96.0159 7.69598 96.0512 7.67183 96.0796 7.65544C96.3005 7.17208 96.4997 6.57247 96.6774 5.8566C96.7486 5.57318 96.8409 5.27381 96.9543 4.95849C97.0815 4.62765 97.2126 4.3627 97.3476 4.16363C97.4293 4.0559 97.5024 3.92664 97.5669 3.77586C97.6314 3.62509 97.6765 3.51954 97.7023 3.45923C97.869 3.05257 98.1498 2.58767 98.5446 2.06453C98.9541 1.54051 99.3353 1.15777 99.6882 0.916301C99.899 0.756778 100.084 0.657567 100.243 0.618666C100.403 0.579766 100.65 0.54294 100.986 0.508187C101.183 0.613943 101.383 0.763621 101.586 0.957221C101.788 1.13618 101.893 1.30618 101.903 1.46723L101.923 1.79664C101.938 2.04553 101.913 2.24537 101.848 2.39615C101.871 2.52704 101.847 2.74151 101.776 3.03957C101.726 3.17483 101.691 3.32386 101.671 3.48665C101.35 4.26983 101.057 4.88977 100.79 5.34647C100.523 5.78854 100.223 6.18843 99.8922 6.54615C99.5747 6.88836 99.0468 7.39741 98.3084 8.0733C98.9494 8.22602 99.2924 8.55816 99.3377 9.0697C99.3403 9.11362 99.3378 9.19458 99.3302 9.31258C99.3363 9.41507 99.3488 9.50248 99.3678 9.5748L99.4433 10.0992C99.4503 10.2164 99.4754 10.3912 99.5187 10.6237C99.5818 10.9431 99.5779 11.3695 99.5069 11.9027C99.4949 11.9475 99.4751 11.9854 99.4476 12.0164C99.4347 12.0466 99.4295 12.0836 99.4322 12.1275C99.4418 12.2886 99.4212 12.4367 99.3706 12.572C99.3336 12.6917 99.2756 12.8274 99.1965 12.9791C99.1312 13.1152 99.0727 13.2436 99.0212 13.3642C98.9954 13.4245 98.9408 13.4939 98.8573 13.5724C98.7729 13.6362 98.7106 13.6987 98.6701 13.7598C98.5067 13.9753 98.3393 14.1249 98.168 14.2086C97.9967 14.2923 97.7737 14.3717 97.499 14.4469C97.2958 14.4884 97.1511 14.5264 97.065 14.561L97.0237 14.6075ZM97.8371 6.82318L98.8813 5.8572C98.9381 5.82442 99.0741 5.63999 99.2891 5.3039C99.5041 4.96782 99.6309 4.75454 99.6696 4.66408C99.8228 4.52269 99.9818 4.23403 100.147 3.79808C100.311 3.3475 100.438 2.89178 100.528 2.43092C100.617 1.95543 100.64 1.60875 100.598 1.39089L100.448 1.46596C100.245 1.75725 99.9528 2.14938 99.5709 2.64236C99.1201 3.21292 98.7176 3.85406 98.3634 4.56578C98.0239 5.27662 97.7653 5.98998 97.5876 6.70584L97.8371 6.82318ZM97.4682 13.1925C97.8123 12.8046 98.0312 12.4095 98.1247 12.0073C98.2173 11.5903 98.2461 11.089 98.2112 10.5034L98.1652 9.73479C98.1626 9.69087 98.144 9.62586 98.1095 9.53977C98.0896 9.4528 98.0926 9.37916 98.1184 9.31885C98.0838 9.23275 98.0157 9.0752 97.9138 8.8462C97.8266 8.61632 97.7055 8.43255 97.5503 8.29489C97.4367 8.36045 97.3455 8.43202 97.2766 8.50959C97.2078 8.58717 97.1201 8.7173 97.0134 8.89998C96.9361 9.08091 96.8705 9.45949 96.8168 10.0357C96.7768 10.5964 96.7726 11.1403 96.8041 11.6674C96.8521 12.4726 96.9784 12.9867 97.1827 13.2096L97.4682 13.1925Z" fill="#428DFC"></path> <path d="M103.28 13.793C103.136 13.8311 103.005 13.8536 102.888 13.8606C102.697 13.8719 102.521 13.8678 102.358 13.8481C102.194 13.8138 102.111 13.7674 102.107 13.7088C102.104 13.6649 102.095 13.6361 102.08 13.6223C102.064 13.6085 102.035 13.603 101.991 13.6056C101.975 13.5918 101.929 13.5578 101.852 13.5037C101.776 13.4495 101.685 13.4035 101.58 13.3657C101.436 13.1686 101.357 12.9529 101.343 12.7187C101.328 12.4698 101.371 12.0779 101.471 11.5429C101.487 11.0718 101.671 10.4731 102.025 9.7467C102.378 9.02034 102.799 8.32665 103.289 7.66562C103.793 7.00372 104.25 6.53565 104.66 6.2614C104.866 6.02868 105.138 5.90226 105.474 5.88214C105.738 5.8664 105.991 5.91742 106.233 6.03519C106.445 6.14008 106.669 6.32504 106.905 6.5901C107.156 6.85428 107.356 7.12884 107.505 7.41378C107.577 7.62989 107.619 7.84043 107.631 8.0454C107.644 8.26501 107.636 8.61081 107.605 9.08281C107.548 9.35071 107.501 9.67674 107.465 10.0609C107.444 10.4442 107.442 10.7749 107.458 11.0531C107.441 11.2598 107.466 11.4273 107.532 11.5555C107.598 11.6692 107.682 11.7229 107.784 11.7168C107.858 11.7124 107.937 11.6857 108.022 11.6365C108.164 11.5545 108.323 11.5083 108.499 11.4978C108.66 11.4882 108.794 11.5243 108.902 11.606C109.01 11.6877 109.069 11.8164 109.079 11.9921C109.095 12.2556 108.928 12.5301 108.577 12.8155C108.242 13.1 107.913 13.2519 107.591 13.2711C107.371 13.2842 107.156 13.1281 106.946 12.8027C106.749 12.4619 106.547 12.0258 106.339 11.4946L106.177 10.9974L105.286 11.9542L104.811 12.4894C104.591 12.7377 104.467 12.8846 104.441 12.9303C104.296 13.2181 103.91 13.5057 103.28 13.793ZM103.269 12.4934C103.608 12.2675 104.018 11.883 104.5 11.3399C104.982 10.7969 105.377 10.2811 105.686 9.79249C106.104 9.16512 106.354 8.55512 106.436 7.9625C106.367 7.79031 106.261 7.62031 106.119 7.45249C105.977 7.28468 105.854 7.19651 105.751 7.18799C105.458 7.20548 105.161 7.39221 104.859 7.74818C104.557 8.10415 104.204 8.59539 103.801 9.22188L103.14 10.3413C103.059 10.4636 102.924 10.7876 102.735 11.3131C102.545 11.824 102.454 12.1307 102.46 12.2332C102.479 12.5553 102.584 12.7106 102.774 12.6993C102.92 12.6905 103.085 12.6219 103.269 12.4934Z" fill="#428DFC"></path> </svg> 