<?xml version="1.0" encoding="UTF-8"?> <!-- Generator: Adobe Illustrator 23.1.1, SVG Export Plug-In . SVG Version: 6.00 Build 0) --> <svg xmlns="http://www.w3.org/2000/svg" xmlns:xlink="http://www.w3.org/1999/xlink" id="Слой_1" x="0px" y="0px" viewBox="0 0 793.7 360" style="enable-background:new 0 0 793.7 360;" xml:space="preserve"> <style type="text/css"> .st0{fill:#FFFFFF;} .st1{fill:#C5C5C5;} </style> <g> <path class="st0" d="M107.6,1.9h36.1c1.1,0,1.9,0.3,2.5,0.9c0.6,0.6,0.9,1.5,0.9,2.5v155c0,1.1-0.3,1.9-0.9,2.5 c-0.6,0.6-1.5,0.9-2.5,0.9h-36.6c-1.1,0-1.9-0.3-2.5-0.9c-0.6-0.6-0.9-1.5-0.9-2.5v-84c0-0.6-0.2-1-0.5-1c-0.3-0.1-0.6,0.1-0.9,0.6 l-15.7,25.7c-0.9,1.5-2.3,2.3-4.2,2.3H64.8c-1.9,0-3.2-0.8-4.2-2.3L44.9,75.9c-0.3-0.5-0.6-0.7-0.9-0.6c-0.3,0.1-0.5,0.4-0.5,1v84 c0,1.1-0.3,1.9-0.9,2.5c-0.6,0.6-1.5,0.9-2.5,0.9H3.5c-1.1,0-1.9-0.3-2.5-0.9c-0.6-0.6-0.9-1.5-0.9-2.5V5.3c0-1.1,0.3-1.9,0.9-2.5 c0.6-0.6,1.5-0.9,2.5-0.9h36.1c1.9,0,3.2,0.8,4.2,2.3l29.1,47c0.5,0.9,0.9,0.9,1.4,0l29.1-47C104.3,2.6,105.7,1.9,107.6,1.9z"></path> <path class="st0" d="M168.4,162.9c-0.6-0.6-0.9-1.5-0.9-2.5V5.3c0-1.1,0.3-1.9,0.9-2.5c0.6-0.6,1.5-0.9,2.5-0.9h36.6 c1.1,0,1.9,0.3,2.5,0.9c0.6,0.6,0.9,1.5,0.9,2.5v155c0,1.1-0.3,1.9-0.9,2.5c-0.6,0.6-1.5,0.9-2.5,0.9H171 C169.9,163.8,169,163.5,168.4,162.9z"></path> <path class="st0" d="M312.5,161.2l-25.4-58.8c-0.3-0.6-0.8-0.9-1.4-0.9H276c-0.8,0-1.2,0.4-1.2,1.2v57.6c0,1.1-0.3,1.9-0.9,2.5 c-0.6,0.6-1.5,0.9-2.5,0.9h-36.6c-1.1,0-1.9-0.3-2.5-0.9c-0.6-0.6-0.9-1.5-0.9-2.5V5.3c0-1.1,0.3-1.9,0.9-2.5 c0.6-0.6,1.5-0.9,2.5-0.9h70.1c10.5,0,19.7,2.2,27.6,6.5c7.9,4.3,14.1,10.4,18.5,18.2c4.4,7.8,6.6,16.8,6.6,27 c0,10.2-2.5,19.1-7.5,26.7c-5,7.6-11.9,13.2-20.7,16.8c-0.8,0.3-1,0.8-0.7,1.6l29.4,61.1c0.3,0.9,0.5,1.5,0.5,1.6 c0,0.8-0.3,1.4-0.9,1.9c-0.6,0.5-1.4,0.7-2.3,0.7h-38.9C314.5,163.8,313.1,162.9,312.5,161.2z M274.8,40.3v27.1 c0,0.8,0.4,1.2,1.2,1.2h21.7c4.9,0,8.9-1.3,12-4c3.1-2.7,4.6-6.2,4.6-10.5c0-4.5-1.5-8.1-4.6-10.8c-3.1-2.7-7.1-4-12-4H276 C275.2,39.1,274.8,39.5,274.8,40.3z"></path> <path class="st0" d="M457.1,161.2l-25.4-58.8c-0.3-0.6-0.8-0.9-1.4-0.9h-9.7c-0.8,0-1.2,0.4-1.2,1.2v57.6c0,1.1-0.3,1.9-0.9,2.5 c-0.6,0.6-1.5,0.9-2.5,0.9h-36.6c-1.1,0-1.9-0.3-2.5-0.9c-0.6-0.6-0.9-1.5-0.9-2.5V5.3c0-1.1,0.3-1.9,0.9-2.5 c0.6-0.6,1.5-0.9,2.5-0.9h70.1c10.5,0,19.7,2.2,27.6,6.5c7.9,4.3,14.1,10.4,18.5,18.2c4.4,7.8,6.6,16.8,6.6,27 c0,10.2-2.5,19.1-7.5,26.7c-5,7.6-11.9,13.2-20.7,16.8c-0.8,0.3-1,0.8-0.7,1.6l29.4,61.1c0.3,0.9,0.5,1.5,0.5,1.6 c0,0.8-0.3,1.4-0.9,1.9c-0.6,0.5-1.4,0.7-2.3,0.7H461C459,163.8,457.7,162.9,457.1,161.2z M419.4,40.3v27.1c0,0.8,0.4,1.2,1.2,1.2 h21.7c4.9,0,8.9-1.3,12-4c3.1-2.7,4.6-6.2,4.6-10.5c0-4.5-1.5-8.1-4.6-10.8c-3.1-2.7-7.1-4-12-4h-21.7 C419.8,39.1,419.4,39.5,419.4,40.3z"></path> <path class="st0" d="M549.3,158.8c-9.8-5.2-17.4-12.4-22.8-21.7c-5.4-9.3-8.1-20.2-8.1-32.5V61.1c0-12,2.7-22.7,8.1-31.9 c5.4-9.3,13-16.4,22.8-21.5c9.8-5.1,21.1-7.6,33.9-7.6c13,0,24.3,2.5,34.1,7.6c9.8,5.1,17.4,12.3,22.8,21.5 c5.4,9.3,8.1,19.9,8.1,31.9v43.5c0,12.3-2.7,23.2-8.1,32.5c-5.4,9.3-13,16.6-22.8,21.7c-9.8,5.2-21.2,7.7-34.1,7.7 C570.4,166.6,559.1,164,549.3,158.8z M598.8,123c3.9-4.2,5.9-9.9,5.9-17V60.6c0-7.1-2-12.8-5.9-17c-3.9-4.2-9.1-6.4-15.6-6.4 c-6.3,0-11.5,2.1-15.4,6.4c-3.9,4.2-5.9,9.9-5.9,17V106c0,7.1,2,12.8,5.9,17c3.9,4.2,9.1,6.4,15.4,6.4 C589.7,129.3,594.9,127.2,598.8,123z"></path> <path class="st0" d="M747.7,161.2l-25.4-58.8c-0.3-0.6-0.8-0.9-1.4-0.9h-9.7c-0.8,0-1.2,0.4-1.2,1.2v57.6c0,1.1-0.3,1.9-0.9,2.5 c-0.6,0.6-1.5,0.9-2.5,0.9h-36.6c-1.1,0-1.9-0.3-2.5-0.9c-0.6-0.6-0.9-1.5-0.9-2.5V5.3c0-1.1,0.3-1.9,0.9-2.5 c0.6-0.6,1.5-0.9,2.5-0.9H740c10.5,0,19.7,2.2,27.6,6.5c7.9,4.3,14.1,10.4,18.5,18.2c4.4,7.8,6.6,16.8,6.6,27 c0,10.2-2.5,19.1-7.5,26.7c-5,7.6-11.9,13.2-20.7,16.8c-0.8,0.3-1,0.8-0.7,1.6l29.4,61.1c0.3,0.9,0.5,1.5,0.5,1.6 c0,0.8-0.3,1.4-0.9,1.9c-0.6,0.5-1.4,0.7-2.3,0.7h-38.9C749.6,163.8,748.3,162.9,747.7,161.2z M710,40.3v27.1 c0,0.8,0.4,1.2,1.2,1.2h21.7c4.9,0,8.9-1.3,12-4c3.1-2.7,4.6-6.2,4.6-10.5c0-4.5-1.5-8.1-4.6-10.8c-3.1-2.7-7.1-4-12-4h-21.7 C710.3,39.1,710,39.5,710,40.3z"></path> <path class="st0" d="M105.5,272.4c6.9,3.9,12,8.8,15.3,14.8c3.2,6,4.9,13.3,4.9,21.7c0,15.9-5.6,27.6-16.7,35 c-11.1,7.5-25.5,11.2-43.3,11.2H3.5c-1.1,0-1.9-0.3-2.5-0.9c-0.6-0.6-0.9-1.5-0.9-2.5v-155c0-1.1,0.3-1.9,0.9-2.5 c0.6-0.6,1.5-0.9,2.5-0.9h60.1c19.7,0,34.6,3.5,44.5,10.5c9.9,7,14.9,18.8,14.9,35.3c0,14.7-5.9,25.3-17.6,31.9 C104.9,271.4,104.9,271.9,105.5,272.4z M43.5,231.7v23.1c0,0.8,0.4,1.2,1.2,1.2h19c11.3,0,16.9-4.2,16.9-12.7 c0-8.5-5.6-12.7-16.9-12.7h-19C43.9,230.5,43.5,230.9,43.5,231.7z M82.1,304.3c0-8.6-5.4-13-16.2-13H44.6c-0.8,0-1.2,0.4-1.2,1.2 v24.3c0,0.8,0.4,1.2,1.2,1.2h21.1C76.6,317.9,82.1,313.4,82.1,304.3z"></path> <path class="st0" d="M173.4,350.2c-9.8-5.2-17.4-12.4-22.8-21.7c-5.4-9.3-8.1-20.2-8.1-32.5v-43.5c0-12,2.7-22.7,8.1-31.9 c5.4-9.3,13-16.4,22.8-21.5c9.8-5.1,21.1-7.6,33.9-7.6c13,0,24.3,2.5,34.1,7.6c9.8,5.1,17.4,12.3,22.8,21.5 c5.4,9.3,8.1,19.9,8.1,31.9V296c0,12.3-2.7,23.2-8.1,32.5c-5.4,9.3-13,16.6-22.8,21.7c-9.8,5.2-21.2,7.7-34.1,7.7 C194.5,358,183.2,355.4,173.4,350.2z M222.9,314.4c3.9-4.2,5.9-9.9,5.9-17V252c0-7.1-2-12.8-5.9-17c-3.9-4.2-9.1-6.4-15.6-6.4 c-6.3,0-11.5,2.1-15.4,6.4c-3.9,4.2-5.9,9.9-5.9,17v45.3c0,7.1,2,12.8,5.9,17c3.9,4.2,9.1,6.4,15.4,6.4 C213.8,320.7,219,318.6,222.9,314.4z"></path> <path class="st0" d="M319.4,350.2c-9.8-5.2-17.4-12.4-22.8-21.7c-5.4-9.3-8.1-20.2-8.1-32.5v-43.5c0-12,2.7-22.7,8.1-31.9 c5.4-9.3,13-16.4,22.8-21.5c9.8-5.1,21.1-7.6,33.9-7.6c13,0,24.3,2.5,34.1,7.6c9.8,5.1,17.4,12.3,22.8,21.5 c5.4,9.3,8.1,19.9,8.1,31.9V296c0,12.3-2.7,23.2-8.1,32.5c-5.4,9.3-13,16.6-22.8,21.7c-9.8,5.2-21.2,7.7-34.1,7.7 C340.4,358,329.1,355.4,319.4,350.2z M368.9,314.4c3.9-4.2,5.9-9.9,5.9-17V252c0-7.1-2-12.8-5.9-17c-3.9-4.2-9.1-6.4-15.6-6.4 c-6.3,0-11.5,2.1-15.4,6.4c-3.9,4.2-5.9,9.9-5.9,17v45.3c0,7.1,2,12.8,5.9,17c3.9,4.2,9.1,6.4,15.4,6.4 C359.7,320.7,364.9,318.6,368.9,314.4z"></path> <path class="st0" d="M437.4,354.3c-0.6-0.6-0.9-1.5-0.9-2.5v-155c0-1.1,0.3-1.9,0.9-2.5c0.6-0.6,1.5-0.9,2.5-0.9h36.6 c1.1,0,1.9,0.3,2.5,0.9c0.6,0.6,0.9,1.5,0.9,2.5V252c0,0.5,0.2,0.8,0.5,0.9c0.3,0.2,0.6,0,0.9-0.5l40.3-57.1 c0.9-1.4,2.4-2.1,4.4-2.1h41.4c1.9,0,2.8,0.7,2.8,2.1c0,0.6-0.2,1.3-0.7,2.1l-48.1,66.9c-0.3,0.5-0.3,1,0,1.6l49.7,85.1 c0.5,0.6,0.7,1.3,0.7,2.1c0,1.4-1,2.1-3,2.1h-40.9c-2,0-3.4-0.8-4.2-2.3L491.8,296c-0.2-0.5-0.4-0.7-0.7-0.7 c-0.3,0-0.6,0.2-0.9,0.7l-9.7,14.8c-0.3,0.6-0.5,1.1-0.5,1.4v39.6c0,1.1-0.3,1.9-0.9,2.5c-0.6,0.6-1.5,0.9-2.5,0.9H440 C438.9,355.2,438.1,354.9,437.4,354.3z"></path> <path class="st0" d="M606.3,350.7c-9.7-4.2-17.2-10.3-22.6-18.2c-5.3-7.9-8-17-8-27.3V302c0-1.1,0.3-1.9,0.9-2.5 c0.6-0.6,1.5-0.9,2.5-0.9h35.9c1.1,0,1.9,0.3,2.5,0.9c0.6,0.6,0.9,1.5,0.9,2.5v1.4c0,4.3,2.3,8.1,6.8,11.5c4.5,3.3,10.6,5,18.2,5 c5.7,0,9.8-1.2,12.3-3.6c2.5-2.4,3.7-5,3.7-8c0-3.4-1.5-5.9-4.6-7.6c-3.1-1.7-8.7-3.8-16.9-6.2l-6.7-1.9 c-15.3-4.6-28.1-10.8-38.4-18.5c-10.3-7.7-15.5-18.9-15.5-33.5c0-9.7,2.6-18.3,7.9-25.8c5.2-7.5,12.5-13.2,21.6-17.2 c9.2-4,19.5-6,30.9-6c12,0,22.9,2.2,32.7,6.7c9.8,4.5,17.5,10.8,23.1,19c5.6,8.2,8.4,17.5,8.4,28v2.1c0,1.1-0.3,1.9-0.9,2.5 c-0.6,0.6-1.5,0.9-2.5,0.9h-35.9c-1.1,0-1.9-0.3-2.5-0.9c-0.6-0.6-0.9-1.5-0.9-2.5v-0.2c0-4.6-2.1-8.8-6.2-12.6 c-4.2-3.8-9.8-5.7-16.9-5.7c-4.9,0-8.8,1-11.7,3c-2.9,2-4.3,4.8-4.3,8.3c0,2.8,1,5.1,3.1,7.1c2.1,1.9,5.3,3.8,9.6,5.6 c4.3,1.8,10.9,4,19.9,6.8c1.2,0.5,6.7,2.1,16.3,5c9.6,2.9,17.7,8,24.2,15.5c6.5,7.5,9.7,16.5,9.7,27.2c0,10.3-2.6,19.2-7.9,26.7 c-5.2,7.5-12.6,13.2-22,17.2c-9.4,4-20.4,6-32.9,6C627.4,357,616,354.9,606.3,350.7z"></path> </g> </svg> 