<svg width="86" height="40" viewBox="0 0 86 40" fill="none" xmlns="http://www.w3.org/2000/svg">
<g clip-path="url(#clip0_4646_46)">
<path d="M11.6588 0.205933H15.5704C15.6896 0.205933 15.7763 0.238439 15.8413 0.303451C15.9063 0.368463 15.9388 0.465981 15.9388 0.574334V17.3691C15.9388 17.4883 15.9063 17.575 15.8413 17.64C15.7763 17.705 15.6788 17.7375 15.5704 17.7375H11.6047C11.4855 17.7375 11.3988 17.705 11.3338 17.64C11.2688 17.575 11.2363 17.4774 11.2363 17.3691V8.26742C11.2363 8.20241 11.2146 8.15907 11.1821 8.15907C11.1496 8.14823 11.1171 8.1699 11.0846 8.22408L9.38343 11.0088C9.28591 11.1713 9.13422 11.258 8.92834 11.258H7.02133C6.81545 11.258 6.67459 11.1713 6.56624 11.0088L4.86509 8.22408C4.83259 8.1699 4.80008 8.14823 4.76758 8.15907C4.73507 8.1699 4.7134 8.20241 4.7134 8.26742V17.3691C4.7134 17.4883 4.68089 17.575 4.61588 17.64C4.55087 17.705 4.45335 17.7375 4.345 17.7375H0.379266C0.260077 17.7375 0.173394 17.705 0.108382 17.64C0.0433703 17.575 0.0108643 17.4774 0.0108643 17.3691V0.574334C0.0108643 0.455145 0.0433703 0.368463 0.108382 0.303451C0.173394 0.238439 0.270912 0.205933 0.379266 0.205933H4.29082C4.49669 0.205933 4.63755 0.292615 4.74591 0.455145L7.89899 5.54775C7.95316 5.64527 7.99651 5.64527 8.05068 5.54775L11.2038 0.455145C11.3013 0.28178 11.453 0.205933 11.6588 0.205933Z" fill="white"/>
<path d="M18.2467 17.6508C18.1817 17.5858 18.1492 17.4883 18.1492 17.3799V0.574334C18.1492 0.455145 18.1817 0.368462 18.2467 0.303451C18.3117 0.238439 18.4092 0.205933 18.5176 0.205933H22.4833C22.6025 0.205933 22.6892 0.238439 22.7542 0.303451C22.8192 0.368462 22.8517 0.46598 22.8517 0.574334V17.3691C22.8517 17.4883 22.8192 17.575 22.7542 17.64C22.6892 17.705 22.5917 17.7375 22.4833 17.7375H18.5284C18.4092 17.7483 18.3117 17.7158 18.2467 17.6508Z" fill="white"/>
<path d="M33.8604 17.4666L31.1083 11.0954C31.0758 11.0304 31.0216 10.9979 30.9566 10.9979H29.9055C29.8189 10.9979 29.7755 11.0413 29.7755 11.1279V17.3691C29.7755 17.4883 29.743 17.575 29.678 17.64C29.613 17.705 29.5155 17.7375 29.4071 17.7375H25.4414C25.3222 17.7375 25.2355 17.705 25.1705 17.64C25.1055 17.575 25.073 17.4775 25.073 17.3691V0.574334C25.073 0.455145 25.1055 0.368463 25.1705 0.303451C25.2355 0.238439 25.333 0.205933 25.4414 0.205933H33.037C34.1747 0.205933 35.1715 0.44431 36.0275 0.910229C36.8835 1.37615 37.5553 2.0371 38.032 2.88226C38.5088 3.72742 38.7472 4.70259 38.7472 5.8078C38.7472 6.913 38.4763 7.87735 37.9345 8.70083C37.3928 9.52432 36.6451 10.1311 35.6916 10.5212C35.6049 10.5537 35.5833 10.6078 35.6158 10.6945L38.8013 17.3149C38.8338 17.4124 38.8555 17.4775 38.8555 17.4883C38.8555 17.575 38.823 17.64 38.758 17.6942C38.693 17.7483 38.6063 17.77 38.5088 17.77H34.2939C34.0771 17.7483 33.9255 17.6508 33.8604 17.4666ZM29.7755 4.3667V7.30307C29.7755 7.38976 29.8189 7.4331 29.9055 7.4331H32.2568C32.7877 7.4331 33.2212 7.29224 33.5571 6.99968C33.8929 6.70713 34.0555 6.32789 34.0555 5.86198C34.0555 5.37439 33.8929 4.98431 33.5571 4.69176C33.2212 4.39921 32.7877 4.25835 32.2568 4.25835H29.9055C29.8189 4.23668 29.7755 4.28002 29.7755 4.3667Z" fill="white"/>
<path d="M49.5283 17.4666L46.7761 11.0954C46.7436 11.0304 46.6895 10.9979 46.6244 10.9979H45.5734C45.4867 10.9979 45.4434 11.0413 45.4434 11.1279V17.3691C45.4434 17.4883 45.4109 17.575 45.3459 17.64C45.2809 17.705 45.1833 17.7375 45.075 17.7375H41.1092C40.9901 17.7375 40.9034 17.705 40.8384 17.64C40.7734 17.575 40.7408 17.4775 40.7408 17.3691V0.574334C40.7408 0.455145 40.7734 0.368463 40.8384 0.303451C40.9034 0.238439 41.0009 0.205933 41.1092 0.205933H48.7048C49.8425 0.205933 50.8394 0.44431 51.6954 0.910229C52.5514 1.37615 53.2232 2.0371 53.6999 2.88226C54.1767 3.72742 54.4151 4.70259 54.4151 5.8078C54.4151 6.913 54.1442 7.87735 53.6024 8.70083C53.0606 9.52432 52.313 10.1311 51.3595 10.5212C51.2728 10.5537 51.2511 10.6078 51.2836 10.6945L54.4692 17.3149C54.5017 17.4124 54.5234 17.4775 54.5234 17.4883C54.5234 17.575 54.4909 17.64 54.4259 17.6942C54.3609 17.7483 54.2742 17.77 54.1767 17.77H49.9509C49.7342 17.7483 49.5933 17.6508 49.5283 17.4666ZM45.4434 4.3667V7.30307C45.4434 7.38976 45.4867 7.4331 45.5734 7.4331H47.9247C48.4556 7.4331 48.889 7.29224 49.2249 6.99968C49.5608 6.70713 49.7233 6.32789 49.7233 5.86198C49.7233 5.37439 49.5608 4.98431 49.2249 4.69176C48.889 4.39921 48.4556 4.25835 47.9247 4.25835H45.5734C45.4867 4.23668 45.4434 4.28002 45.4434 4.3667Z" fill="white"/>
<path d="M59.5184 17.2065C58.4565 16.6431 57.6331 15.8629 57.048 14.8553C56.4628 13.8476 56.1703 12.6665 56.1703 11.3338V6.62041C56.1703 5.32017 56.4628 4.16079 57.048 3.16394C57.6331 2.15626 58.4565 1.38695 59.5184 0.834349C60.5803 0.281747 61.8047 0.0108643 63.1916 0.0108643C64.6002 0.0108643 65.8246 0.281747 66.8865 0.834349C67.9483 1.38695 68.7718 2.16709 69.3569 3.16394C69.942 4.17163 70.2346 5.32017 70.2346 6.62041V11.3338C70.2346 12.6665 69.942 13.8476 69.3569 14.8553C68.7718 15.8629 67.9483 16.6539 66.8865 17.2065C65.8246 17.77 64.5894 18.0408 63.1916 18.0408C61.8047 18.0517 60.5803 17.77 59.5184 17.2065ZM64.8819 13.3275C65.3045 12.8724 65.5212 12.2548 65.5212 11.4855V6.56624C65.5212 5.79693 65.3045 5.17931 64.8819 4.72423C64.4593 4.26915 63.8959 4.03077 63.1916 4.03077C62.509 4.03077 61.9455 4.25831 61.523 4.72423C61.1004 5.17931 60.8837 5.79693 60.8837 6.56624V11.4855C60.8837 12.2548 61.1004 12.8724 61.523 13.3275C61.9455 13.7826 62.509 14.0209 63.1916 14.0209C63.8959 14.0101 64.4593 13.7826 64.8819 13.3275Z" fill="white"/>
<path d="M81.0158 17.4666L78.2637 11.0954C78.2312 11.0304 78.177 10.9979 78.112 10.9979H77.061C76.9743 10.9979 76.9309 11.0413 76.9309 11.1279V17.3691C76.9309 17.4883 76.8984 17.575 76.8334 17.64C76.7684 17.705 76.6709 17.7375 76.5625 17.7375H72.5968C72.4776 17.7375 72.3909 17.705 72.3259 17.64C72.2609 17.575 72.2284 17.4775 72.2284 17.3691V0.574334C72.2284 0.455145 72.2609 0.368463 72.3259 0.303451C72.3909 0.238439 72.4884 0.205933 72.5968 0.205933H80.1815C81.3192 0.205933 82.3161 0.44431 83.1721 0.910229C84.0281 1.37615 84.6999 2.0371 85.1766 2.88226C85.6534 3.72742 85.8917 4.70259 85.8917 5.8078C85.8917 6.913 85.6209 7.87735 85.0791 8.70083C84.5373 9.52432 83.7897 10.1311 82.8362 10.5212C82.7495 10.5537 82.7278 10.6078 82.7603 10.6945L85.9459 17.3149C85.9784 17.4124 86.0001 17.4775 86.0001 17.4883C86.0001 17.575 85.9676 17.64 85.9026 17.6942C85.8376 17.7483 85.7509 17.77 85.6534 17.77H81.4384C81.2217 17.7483 81.0809 17.6508 81.0158 17.4666ZM76.9309 4.3667V7.30307C76.9309 7.38976 76.9743 7.4331 77.061 7.4331H79.4122C79.9432 7.4331 80.3766 7.29224 80.7125 6.99968C81.0484 6.70713 81.2109 6.32789 81.2109 5.86198C81.2109 5.37439 81.0484 4.98431 80.7125 4.69176C80.3766 4.39921 79.9432 4.25835 79.4122 4.25835H77.061C76.9634 4.23668 76.9309 4.28002 76.9309 4.3667Z" fill="white"/>
<path d="M11.4313 29.5155C12.1789 29.938 12.7315 30.469 13.0891 31.1191C13.4358 31.7692 13.62 32.5602 13.62 33.4704C13.62 35.1932 13.0133 36.4609 11.8105 37.2627C10.6078 38.0754 9.04753 38.4763 7.11884 38.4763H0.379265C0.260077 38.4763 0.173394 38.4438 0.108382 38.3788C0.0433702 38.3138 0.0108643 38.2162 0.0108643 38.1079V21.3131C0.0108643 21.1939 0.0433702 21.1072 0.108382 21.0422C0.173394 20.9772 0.270912 20.9447 0.379265 20.9447H6.8913C9.02586 20.9447 10.6403 21.3239 11.713 22.0824C12.7857 22.8409 13.3275 24.1195 13.3275 25.9073C13.3275 27.5001 12.6882 28.6486 11.4205 29.3638C11.3663 29.4071 11.3663 29.4613 11.4313 29.5155ZM4.7134 25.1055V27.6084C4.7134 27.6951 4.75674 27.7385 4.84342 27.7385H6.90213C8.12653 27.7385 8.7333 27.2834 8.7333 26.3624C8.7333 25.4414 8.12653 24.9863 6.90213 24.9863H4.84342C4.75674 24.9755 4.7134 25.0188 4.7134 25.1055ZM8.89583 32.9719C8.89583 32.0401 8.31073 31.5633 7.14051 31.5633H4.83259C4.7459 31.5633 4.70256 31.6067 4.70256 31.6934V34.3263C4.70256 34.413 4.7459 34.4564 4.83259 34.4564H7.11884C8.29989 34.4455 8.89583 33.9579 8.89583 32.9719Z" fill="white"/>
<path d="M18.7884 37.9453C17.7266 37.3819 16.9031 36.6017 16.318 35.594C15.7329 34.5863 15.4403 33.4053 15.4403 32.0725V27.3592C15.4403 26.0589 15.7329 24.8996 16.318 23.9027C16.9031 22.895 17.7266 22.1257 18.7884 21.5731C19.8503 21.0205 21.0747 20.7496 22.4616 20.7496C23.8702 20.7496 25.0946 21.0205 26.1564 21.5731C27.2183 22.1257 28.0418 22.9059 28.6269 23.9027C29.212 24.9104 29.5046 26.0589 29.5046 27.3592V32.0725C29.5046 33.4053 29.212 34.5863 28.6269 35.594C28.0418 36.6017 27.2183 37.3927 26.1564 37.9453C25.0946 38.5087 23.8594 38.7796 22.4616 38.7796C21.0747 38.7905 19.8503 38.5087 18.7884 37.9453ZM24.1519 34.0662C24.5745 33.6112 24.7912 32.9936 24.7912 32.2242V27.305C24.7912 26.5357 24.5745 25.9181 24.1519 25.463C23.7293 25.0079 23.1659 24.7695 22.4616 24.7695C21.779 24.7695 21.2155 24.9971 20.793 25.463C20.3704 25.9181 20.1537 26.5357 20.1537 27.305V32.2134C20.1537 32.9827 20.3704 33.6003 20.793 34.0554C21.2155 34.5105 21.779 34.7489 22.4616 34.7489C23.1659 34.7489 23.7293 34.5213 24.1519 34.0662Z" fill="white"/>
<path d="M34.608 37.9453C33.5461 37.3819 32.7227 36.6017 32.1375 35.594C31.5524 34.5863 31.2599 33.4053 31.2599 32.0725V27.3592C31.2599 26.0589 31.5524 24.8996 32.1375 23.9027C32.7227 22.895 33.5461 22.1257 34.608 21.5731C35.6699 21.0205 36.8943 20.7496 38.2812 20.7496C39.6898 20.7496 40.9142 21.0205 41.976 21.5731C43.0379 22.1257 43.8614 22.9059 44.4465 23.9027C45.0316 24.9104 45.3241 26.0589 45.3241 27.3592V32.0725C45.3241 33.4053 45.0316 34.5863 44.4465 35.594C43.8614 36.6017 43.0379 37.3927 41.976 37.9453C40.9142 38.5087 39.6789 38.7796 38.2812 38.7796C36.8834 38.7905 35.659 38.5087 34.608 37.9453ZM39.9715 34.0662C40.3941 33.6112 40.6108 32.9936 40.6108 32.2242V27.305C40.6108 26.5357 40.3941 25.9181 39.9715 25.463C39.5489 25.0079 38.9855 24.7695 38.2812 24.7695C37.5986 24.7695 37.0351 24.9971 36.6125 25.463C36.19 25.9181 35.9733 26.5357 35.9733 27.305V32.2134C35.9733 32.9827 36.19 33.6003 36.6125 34.0554C37.0351 34.5105 37.5986 34.7489 38.2812 34.7489C38.9746 34.7489 39.5381 34.5213 39.9715 34.0662Z" fill="white"/>
<path d="M47.3938 38.3895C47.3288 38.3245 47.2963 38.227 47.2963 38.1186V21.3239C47.2963 21.2047 47.3288 21.118 47.3938 21.053C47.4588 20.988 47.5563 20.9555 47.6647 20.9555H51.6304C51.7496 20.9555 51.8363 20.988 51.9013 21.053C51.9663 21.118 51.9988 21.2156 51.9988 21.3239V27.305C51.9988 27.3592 52.0205 27.3917 52.053 27.4025C52.0855 27.4242 52.118 27.4025 52.1505 27.3483L56.5171 21.1614C56.6146 21.0097 56.7772 20.9338 56.9939 20.9338H61.4797C61.6856 20.9338 61.7831 21.0097 61.7831 21.1614C61.7831 21.2264 61.7614 21.3022 61.7072 21.3889L56.4955 28.6377C56.463 28.6919 56.463 28.7461 56.4955 28.8111L61.8806 38.032C61.9348 38.097 61.9565 38.1728 61.9565 38.2595C61.9565 38.4112 61.8481 38.4871 61.6314 38.4871H57.1998C56.983 38.4871 56.8314 38.4004 56.7447 38.2378L53.2882 32.0725C53.2665 32.0184 53.2449 31.9967 53.2124 31.9967C53.1798 31.9967 53.1473 32.0184 53.1148 32.0725L52.0638 33.6762C52.0313 33.7412 52.0096 33.7954 52.0096 33.8279V38.1186C52.0096 38.2378 51.9771 38.3245 51.9121 38.3895C51.8471 38.4545 51.7496 38.4871 51.6412 38.4871H47.6755C47.5563 38.4871 47.4696 38.4545 47.3938 38.3895Z" fill="white"/>
<path d="M65.6947 37.9995C64.6436 37.5444 63.831 36.8834 63.2459 36.0275C62.6716 35.1715 62.379 34.1855 62.379 33.0694V32.7227C62.379 32.6035 62.4115 32.5168 62.4765 32.4518C62.5416 32.3868 62.6391 32.3543 62.7474 32.3543H66.6373C66.7565 32.3543 66.8432 32.3868 66.9082 32.4518C66.9732 32.5168 67.0057 32.6143 67.0057 32.7227V32.8744C67.0057 33.3403 67.2549 33.752 67.7425 34.1204C68.2301 34.478 68.8911 34.6622 69.7146 34.6622C70.3322 34.6622 70.7764 34.5322 71.0473 34.2721C71.3182 34.0121 71.4482 33.7304 71.4482 33.4053C71.4482 33.0369 71.2857 32.766 70.9498 32.5818C70.6139 32.3976 70.0071 32.1701 69.1186 31.91L68.3927 31.7042C66.7348 31.2057 65.3479 30.534 64.2319 29.6996C63.1158 28.8653 62.5524 27.6518 62.5524 26.0698C62.5524 25.0188 62.8341 24.0869 63.4084 23.2743C63.9718 22.4616 64.7628 21.844 65.7488 21.4106C66.7457 20.9772 67.8617 20.7605 69.097 20.7605C70.3972 20.7605 71.5783 20.9989 72.6401 21.4865C73.702 21.9741 74.5363 22.6567 75.1431 23.5452C75.7499 24.4337 76.0533 25.4414 76.0533 26.5791V26.8066C76.0533 26.9258 76.0208 27.0125 75.9558 27.0775C75.8907 27.1425 75.7932 27.175 75.6849 27.175H71.795C71.6758 27.175 71.5891 27.1425 71.5241 27.0775C71.4591 27.0125 71.4266 26.915 71.4266 26.8066V26.7849C71.4266 26.2865 71.199 25.8314 70.7548 25.4197C70.2997 25.0079 69.6929 24.8021 68.9236 24.8021C68.3927 24.8021 67.9701 24.9104 67.6559 25.1271C67.3416 25.3438 67.1899 25.6472 67.1899 26.0265C67.1899 26.3299 67.2983 26.5791 67.5258 26.7958C67.7534 27.0016 68.1001 27.2075 68.566 27.4025C69.0319 27.5976 69.7471 27.836 70.7223 28.1393C70.8523 28.1935 71.4482 28.3669 72.4884 28.6811C73.5286 28.9953 74.4063 29.5479 75.1106 30.3606C75.8149 31.1732 76.1616 32.1484 76.1616 33.3078C76.1616 34.4238 75.8799 35.3882 75.3056 36.2008C74.7422 37.0135 73.9404 37.6311 72.9218 38.0645C71.9033 38.4979 70.7114 38.7146 69.357 38.7146C67.9809 38.6821 66.7457 38.4546 65.6947 37.9995Z" fill="white"/>
</g>
<defs>
<clipPath id="clip0_4646_46">
<rect width="86" height="39.0072" fill="white"/>
</clipPath>
</defs>
</svg>
