<?xml version="1.0" encoding="UTF-8"?> <!-- Generator: Adobe Illustrator 23.1.1, SVG Export Plug-In . SVG Version: 6.00 Build 0) --> <svg xmlns="http://www.w3.org/2000/svg" xmlns:xlink="http://www.w3.org/1999/xlink" id="Layer_2" x="0px" y="0px" viewBox="0 0 1000 330.2" style="enable-background:new 0 0 1000 330.2;" xml:space="preserve"> <style type="text/css"> .st0{fill:#FFFFFF;} .st1{fill:#2E2E2E;} .st2{fill:#428DFC;} .st3{fill:none;stroke:#000000;stroke-width:4.23;stroke-miterlimit:10;} </style> <path class="st0" d="M264.3,156c0,0-35.1-3.4-31.3-39s10.7-34,42.2-48.8c0,0,25.7-0.1,32.9,7.6s11.3-7.6,11.3-7.6 s33.5-42.1,75.3-33.3s-32.6,42.4-32.6,42.4s-48,0.7-35.6,18.5c0,0,7.2,13.4,3.1,24.6s-4.1,29.1-6.9,29.6s-43.8,9.5-43.8,9.5 L264.3,156z"></path> <path class="st1" d="M591.8,291.1h-97.4c-32.6,0-63.8-12.9-86.9-35.9c0,2.4-0.3,4.7-0.8,7.1v-64.9c-32-37.4-69.3-18.4-74.3-15.5 c-2.2-21.2-4.2-38-4.2-38s-5.4-45.5,36.8-62.2c0.3-0.2,0.7-0.3,1-0.4c19.8-7.5,37.6-3.8,52.6,3.5c0.2,0.2,0.5,0.2,0.8,0.4 c15.8,7.9,28.1,19.8,35.8,26.8c0.8,0.7,1.6,1.4,2.3,2c7.9,6.9,28.4,27.1,51.4,43.5l0.4,0.3c16.9,11.9,35.2,21.8,50.8,22.6 C560.1,180.4,599.6,220.1,591.8,291.1z"></path> <path class="st2" d="M583.8,174.5L583.8,174.5c-9.1,3.6-16.9,5.6-24.4,5.9c-4,0.1-7.9-0.3-11.8-1.2c-11.3-2.5-23.2-9.3-39-21.5 l-0.4-0.3c-13.6-10.4-30-24.7-51.4-43.5c-0.7-0.6-1.5-1.3-2.3-2c-2.1-1.8-4.2-3.7-6.4-5.6c-9-8.1-18.9-15.2-29.4-21.2 c-0.2-0.2-0.5-0.2-0.8-0.4c-1-0.6-2-1.1-3.1-1.7c-2.3-1.2-4.7-2.2-7.2-3.1c-6-2.2-12.4-3.3-18.8-3.4l-3.9,0.1 C334.4,78.3,323.2,90,323.2,90c5.2,7,8.3,15.3,9.2,24c-4.2-0.7-8.4,0.6-9.1,5.2c-0.9,5.7-2.2,10.9-7.5,14.2c-3.2,1.9-7,2.5-10.6,1.7 c0,0-0.1,0-0.1,0c-1.1-0.3-2.1-0.6-3-0.8c-0.4-0.1-0.8-0.2-1.2-0.4c-10.6-3.9-16.8-2.4-14.8,9c2.4,13.4-15.1,15.1-26.6,13.1 c-20.3-9.1-25.8-44.8-9.8-66.7c0.4-0.6,0.9-1.2,1.3-1.8s1-1.2,1.5-1.7c1.2-1.3,2.5-2.5,3.8-3.7c0.5-0.4,0.9-0.8,1.4-1.2 s1.2-0.9,1.8-1.3c0.6-0.5,1.2-0.9,1.8-1.2l0,0c11-7.2,24.5-9.6,37.3-6.6c5.1,1.8,9.9,4.4,14.2,7.7c0,0,0.4-0.6,1.2-1.7 c1.9,1.1,3.7,2.3,5.4,3.7c0,0,30.5-46.4,74.6-45.9c3.6,0,7.1,0.5,10.6,1.2c34.4,12.2,57.8,56.1,78.9,62.8c1.6,0.5,3.2,0.9,4.9,1.3 l0,0c16.3,3.5,34.5-0.3,50.7-1.3c10.7-0.7,21.6-0.4,31.9,2.4c1.3,0.3,2.6,0.8,3.9,1.2h0.1c14.4,5.2,28.6,16.6,32.1,31.9 C611.2,152.1,598.3,167.9,583.8,174.5z"></path> <path class="st2" d="M886.1,37.2c-0.9,3.6-3.4,6.6-6.7,8.1l-28,13.4l-62.5,22.9l6-20.8c1.9-2.7,4.5-4.8,7.6-6L856.7,34l13.3-5.2 c5.5-2,11.6,0.1,14.6,5.1C885.3,34.9,885.8,36,886.1,37.2z"></path> <path class="st3" d="M856.7,28l13.3-5.2c6.3-2.3,13.4,0.9,15.7,7.3c2.2,6-0.6,12.7-6.4,15.3l-28,13.4l-41.7,202 c-4.8,17.9-21,30.3-39.6,30.3H493.7c-32.6,0-63.8-12.9-86.9-35.9"></path> <path class="st3" d="M760.4,155.5l-0.9,2.4c-15.8,42.3-17.6,67-17.6,67"></path> <path class="st3" d="M339.9,263.4l-12.3-125.6c0-24.4,14.4-46.4,36.8-56.1c16.2-7.2,34.8-6.6,50.5,1.5c1,0.5,2,1.1,3.1,1.7 c0.2,0.2,0.5,0.2,0.8,0.4c10.5,6,20.3,13.1,29.4,21.2c2.2,1.9,4.3,3.8,6.4,5.6c0.8,0.7,1.6,1.4,2.3,2c21.4,18.7,37.8,33,51.4,43.5 l0.4,0.3c21.2,16.3,35.5,23.1,50.8,22.6c9.7-0.3,19.7-3.5,32.2-9.1c46.8-20.8,125.3-7.2,152.3,44.8"></path> <path class="st3" d="M370.9,291c0.7,0,1.3,0.1,1.9,0.1c18.8,0,34-15.2,34-34v-96.9"></path> <path class="st3" d="M332.4,114c-3.6-36.9-46.9-57.8-77.5-37.5c-0.5,0.3-1,0.6-1.5,1l-0.4,0.3c-0.6,0.4-1.2,0.9-1.8,1.3 c-1.9,1.5-3.6,3.1-5.3,4.9c-0.5,0.6-1,1.2-1.5,1.7s-0.9,1.2-1.3,1.8"></path> <path class="st3" d="M259.6,156c5.7,5.6,12.3,10.2,19.6,13.3c29.4,11.8,43.6-10.5,43.6-10.5"></path> <path class="st3" d="M575.7,177.5c0.9-0.3,1.8-0.6,2.7-0.9l0.3-0.1c0.2-0.1,0.5-0.2,0.7-0.2c0.8-0.2,1.5-0.5,2.3-0.8l1.5-0.6 c14.8-6.5,28.1-22.5,24.1-39.7c-3.9-16.6-20.3-28.7-36-33.1c-10.3-2.9-21.2-3.1-31.9-2.4c-17.8,1.1-38.1,5.6-55.6,0.1 c-24.4-7.8-51.9-65.4-96.1-66S313,79.6,313,79.6"></path> <path class="st3" d="M323.2,90.1c0,0,9.1-12.4,63.2-13.4"></path> <path class="st3" d="M759.5,157.9l26.8-75.3l2.1-5.9l6.7-18.8c0.5-1.4,1.2-2.8,2.2-4c1.9-2.7,4.5-4.8,7.6-6L856.7,28"></path> <path class="st2" d="M734,33.7l-14.2,23.5l-36.9,49.7L678,84.3c0.1-3.3,1.1-6.5,3.1-9.1L713.4,30l3.5-4.4c3.4-4.7,9.7-6.3,15-3.8 c1.4,0.6,2.6,1.5,3.6,2.6C736.3,27.6,735.7,30.9,734,33.7z"></path> <path class="st3" d="M764.7,143.2l-44.9-86L734,33.7c2.5-4.1,2.5-9.2-0.2-13.2c-1.2-1.9-3-3.4-5-4.3c-5.3-2.4-11.5-0.9-15,3.8 l-3.5,4.4"></path> <path class="st3" d="M710.3,24.3l-32.3,45.1c-1.9,2.7-2.9,5.9-3,9.2c-0.1,1.5,0.1,3.1,0.4,4.5l4.8,19.4l1.5,6.1l16.2,65.7"></path> <path class="st3" d="M254.8,76.5c-29.4,18.3-26.1,67-1.7,77.7c9.3,4.1,36,5.1,33-11.2c-2-11.3,4.2-12.8,14.8-9 c18.4,6.7,22.3-11.1,22.3-12.4"></path> <line class="st3" x1="317.4" y1="164.8" x2="329.4" y2="168.4"></line> <path class="st3" d="M222.5,220.6L222.5,220.6L211,244.3c-1.7,3.4-5.7,5-9.3,3.5l0,0c-3.7-1.5-5.4-5.8-3.8-9.4 c0.1-0.3,0.2-0.5,0.4-0.8l2.2-3.9c0.1-0.2,0.2-0.4,0.2-0.6l1.6-3.1l13.2-26.6c3.2-6.6,9.6-11.1,16.9-12h0.3"></path> <path class="st3" d="M248,218.7l-17,4.9c-4,1.2-8.2-1.1-9.4-5.2c0,0,0,0,0,0l0,0c-1.2-4,1.1-8.2,5.2-9.4c0,0,0,0,0,0l24.1-7"></path> <path class="st3" d="M234.9,222.5c0.6,2.6,0.2,5.3-1.1,7.6c-3.2,5.2-11.2,7-17.5,5.9"></path> <path class="st3" d="M202.3,230c-6.6-4.5-7.9-12.8-5.9-20.1c8.3-30.2,42.7-23,65.6-17.7c13.6,3.2,27,7.5,40,12.7 c10.8,4.3,21.3,10.1,32.9,11.7"></path> <path class="st3" d="M233.8,230.1c0,0,2.4,0.8,6.4,2.4c17.5,6.9,34.2,15.8,49.7,26.5c7.6,5.2,17.4,8.8,28.5,11.2"></path> <path class="st3" d="M337.7,247.5c-7.4-1.3-14.7,2.7-17.7,9.5c-6.3,13,2.5,28.4,16.8,30.6c11.9,1.9,23.9,3.1,36,3.4"></path> <path class="st1" d="M332.6,182.3l-0.6-0.1c0,0,0.2-0.1,0.6-0.3C332.5,182,332.6,182.2,332.6,182.3z"></path> <path class="st3" d="M146.8,248.8l141.7,26.9c3.6,0.7,5.9,4.1,5.3,7.7l-0.6,3.2c-0.7,3.6-4.1,5.9-7.7,5.3L143.7,265 c-3.6-0.7-5.9-4.1-5.3-7.7l0.6-3.2C139.7,250.5,143.2,248.1,146.8,248.8z"></path> <line class="st3" x1="161" y1="268.3" x2="161" y2="291.1"></line> <line class="st3" x1="55.5" y1="291.1" x2="905.3" y2="291.1"></line> </svg> 