<?xml version="1.0" encoding="UTF-8"?> <svg xmlns="http://www.w3.org/2000/svg" width="104" height="21" viewBox="0 0 104 21" fill="none"> <path d="M0.810663 20.6051C0.64437 20.5269 0.522435 20.4534 0.44486 20.3846C0.381926 20.3149 0.346961 20.2214 0.339965 20.1043C0.33122 19.9579 0.37754 19.7495 0.478924 19.4789C0.594075 19.1929 0.787887 18.7479 1.06036 18.1439C1.13684 17.9483 1.28509 17.6015 1.50512 17.1035C2.25721 15.4277 2.62888 14.5166 2.62014 14.3702C2.60375 14.3418 2.5938 14.2983 2.59031 14.2397C2.58156 14.0933 2.69082 13.9546 2.91807 13.8234C3.23469 13.4666 3.49144 13.0913 3.68831 12.6975C3.81548 12.3667 3.99039 11.9742 4.21304 11.5201C4.43483 11.0514 4.71036 10.4987 5.03965 9.86189C5.19697 9.54395 5.43383 9.08167 5.75022 8.47506C6.23421 7.47643 6.86668 6.38077 7.64762 5.18809C7.95725 4.71411 8.2223 4.47789 8.44278 4.47941C8.72096 4.4628 9.03628 4.5762 9.38875 4.81962C9.75499 5.04752 10.0136 5.31858 10.1646 5.63281C10.2293 5.73179 10.2717 5.94965 10.2918 6.28639C10.3189 6.74024 10.3136 7.51193 10.2758 8.60146C10.2579 8.79353 10.2465 9.09541 10.2417 9.5071C10.2372 10.1685 10.2133 10.8752 10.17 11.6271C10.1069 13.2765 10.0663 14.5646 10.0482 15.4913C10.0301 16.418 10.0451 17.284 10.0932 18.0892C10.1177 18.4992 10.1429 18.7989 10.1689 18.9883L10.1781 19.142L10.1863 19.6484C10.1037 19.7415 9.97456 19.7933 9.79888 19.8038C9.59391 19.8161 9.3932 19.7766 9.19675 19.6855C9.00118 19.609 8.88481 19.5058 8.84766 19.3758C8.83215 19.362 8.80931 19.3487 8.77916 19.3358C8.749 19.3229 8.73043 19.2579 8.72343 19.1408L8.71653 18.6563L8.70896 17.4226L8.60627 13.8584L8.32209 13.8974C8.02928 13.9149 7.38127 14.0123 6.37807 14.1898C5.37486 14.3673 4.751 14.5 4.50649 14.5881C4.37472 14.596 4.21892 14.6934 4.03909 14.8805C3.85925 15.0675 3.70444 15.3045 3.57465 15.5914C3.53947 15.7405 3.44967 15.9589 3.30524 16.2467C3.15993 16.5198 3.08859 16.6783 3.09121 16.7223C3.00687 16.7861 2.93115 16.8714 2.86407 16.9783C2.81076 17.0696 2.77765 17.1304 2.76476 17.1605C2.77438 17.3216 2.64514 17.7407 2.37704 18.4179C2.12358 19.0942 1.86356 19.6607 1.59698 20.1174L1.17778 20.8477L0.810663 20.6051ZM4.9342 13.2622C5.02116 13.2423 5.20974 13.2017 5.49993 13.1403C5.78925 13.0642 6.05059 13.0119 6.28396 12.9833C7.32322 12.6714 7.95997 12.5085 8.19422 12.4945C8.29671 12.4884 8.39318 12.5046 8.48365 12.5433C8.53107 12.5993 8.57761 12.6406 8.62328 12.6672C8.68272 12.6784 8.71976 12.6835 8.7344 12.6826C8.75843 12.593 8.79906 11.7972 8.85627 10.2951C8.92724 8.77751 8.95519 7.76938 8.94009 7.27073L8.94039 6.16875C8.85255 6.174 8.67228 6.35373 8.39958 6.70796C8.12688 7.06218 7.8237 7.52107 7.49004 8.08463C7.17015 8.63268 6.88773 9.19318 6.64279 9.76614C6.51212 10.0384 6.38058 10.296 6.24817 10.539C6.12952 10.7665 6.04092 10.882 5.98235 10.8855C5.88599 10.9941 5.66803 11.4038 5.32848 12.1147C4.98892 12.8255 4.8575 13.208 4.9342 13.2622Z" fill="#428DFC"></path> <path d="M18.5502 10.9944C18.706 10.8969 18.8644 10.8434 19.0254 10.8338C19.2304 10.8215 19.41 10.8769 19.5643 10.9999C19.7324 11.1074 19.8221 11.2563 19.8334 11.4467C19.8352 11.476 19.8249 11.55 19.8026 11.6689C19.8352 11.476 19.7002 11.7999 19.3978 12.6408C19.0954 13.4816 18.9313 13.9322 18.9056 13.9925L18.9095 14.0584C19.1145 14.0462 19.2502 14.1042 19.3166 14.2324C19.3968 14.3452 19.4357 14.5045 19.4333 14.7103C19.3033 14.7475 19.1819 14.8062 19.0691 14.8864C18.9564 14.9666 18.8634 15.0088 18.7902 15.0132C18.7463 15.0158 18.6964 15.0409 18.6404 15.0883C18.5845 15.1357 18.5509 15.1891 18.5398 15.2486C18.514 15.3089 18.4763 15.5389 18.4267 15.9385L18.1259 17.5433C18.1027 17.6476 18.0567 17.7385 17.9879 17.816C17.9191 17.8936 17.8558 17.9415 17.7981 17.9596C17.7387 17.9485 17.6194 17.9189 17.4402 17.8708C17.2748 17.8072 17.1619 17.7625 17.1016 17.7367C17.0404 17.6963 16.9792 17.6559 16.918 17.6155L16.9102 17.4837C16.8979 17.2787 16.9218 17.0643 16.9819 16.8403C17.0781 16.4819 17.1659 15.9845 17.2454 15.3479C17.1257 15.311 16.8342 15.3504 16.3709 15.4663C15.9068 15.5675 15.6528 15.6194 15.6088 15.622C15.5236 15.6711 15.3493 15.7036 15.0857 15.7193C14.6611 15.7447 14.3588 15.726 14.1788 15.6633L14.0509 15.7371C14.0295 15.8706 13.9944 16.0196 13.9454 16.1842C13.8115 16.6476 13.7511 16.9892 13.7642 17.2088C13.7471 17.4155 13.7279 17.5856 13.7065 17.7191C13.686 17.8673 13.6698 18.0886 13.658 18.3832C13.6679 18.794 13.541 19.0073 13.2775 19.023C13.1164 19.0326 12.9372 18.9846 12.7399 18.8788C12.6339 18.8264 12.4879 18.7176 12.3017 18.5524L12.5521 16.8404C12.5881 16.706 12.6211 16.5204 12.651 16.2835C12.6956 16.0458 12.7428 15.8519 12.7926 15.702L12.9935 15.0068C13.1386 14.4839 13.2747 14.057 13.4019 13.7262C13.4019 13.7262 13.5298 13.2851 13.7857 12.403C13.8235 12.2978 13.902 12.014 14.0213 11.5514C14.1544 11.0733 14.2334 10.7967 14.2583 10.7218C14.3072 10.5572 14.4195 10.4697 14.5952 10.4592C14.8286 10.4306 15.0297 10.4774 15.1987 10.5995C15.3813 10.7061 15.4853 10.8469 15.5104 11.0217C15.513 11.0656 15.5101 11.1392 15.5015 11.2426C15.4922 11.3313 15.4814 11.3981 15.4694 11.4429L14.4941 14.3001L14.5045 14.4758C14.5657 14.5162 14.6695 14.532 14.8159 14.5233C14.9331 14.5163 15.1074 14.4838 15.3391 14.4259C15.5853 14.3671 15.7377 14.336 15.7963 14.3325C15.9272 14.31 16.124 14.2836 16.3866 14.2532C16.6493 14.2228 16.9124 14.1997 17.1759 14.184C17.3809 14.1717 17.4911 14.1725 17.5066 14.1863L17.7062 13.4691C17.8976 12.7377 18.112 12.1446 18.3493 11.6896C18.3613 11.6448 18.3858 11.5625 18.4227 11.4428C18.4587 11.3084 18.5012 11.1589 18.5502 10.9944Z" fill="#428DFC"></path> <path d="M26.8658 18.0792C26.7469 18.0569 26.6207 18.0351 26.4872 18.0136C26.3528 17.9776 26.2111 17.942 26.0621 17.9068C25.9353 17.7527 25.8641 17.544 25.8484 17.2804C25.8352 17.0608 25.8639 16.802 25.9342 16.5039C26.0037 16.1912 26.0809 15.8854 26.1659 15.5865C26.19 15.4969 26.2311 15.3255 26.2895 15.0722C26.3625 14.8181 26.4015 14.61 26.4065 14.4481C26.3892 14.4051 26.3664 14.3917 26.338 14.4081C26.3096 14.4245 26.2962 14.4473 26.298 14.4766C26.1612 14.6464 25.8461 14.7828 25.3527 14.8857C24.7293 15.0258 24.1872 15.1757 23.7266 15.3355L23.428 15.1329C23.3109 15.1399 23.2163 15.2778 23.1442 15.5466C23.0721 15.8153 23.0052 16.172 22.9436 16.6164C22.882 17.0609 22.8323 17.3357 22.7945 17.4408L22.4238 17.507C22.292 17.5149 22.0767 17.4763 21.7777 17.3913C21.6337 17.1942 21.5569 17.0152 21.5473 16.8541C21.5403 16.737 21.5544 16.6039 21.5896 16.4549C21.6127 16.3506 21.6444 16.1431 21.6846 15.8321C21.7394 15.5203 21.8296 15.1843 21.955 14.8242C21.9799 14.7492 22.0306 14.614 22.1071 14.4184C22.1827 14.2082 22.2148 14.0079 22.2034 13.8176C22.298 13.6797 22.3685 13.5065 22.4148 13.2981C22.4603 13.0749 22.5014 12.9035 22.5384 12.7838L22.9133 11.6815C23.037 11.2921 23.1349 10.963 23.207 10.6942C23.2937 10.4245 23.3392 10.2014 23.3433 10.0249C23.3457 9.81903 23.4494 9.70999 23.6544 9.69775C23.8593 9.6855 24.0695 9.76111 24.285 9.92455C24.5151 10.0871 24.6367 10.2782 24.6498 10.4978C24.6533 10.5564 24.6431 10.6305 24.619 10.72C24.5683 10.8553 24.5189 11.0125 24.4709 11.1917C24.4228 11.3709 24.361 11.5656 24.2854 11.7758C24.0055 12.7476 23.8209 13.3463 23.7315 13.572C23.7195 13.6168 23.6932 13.6698 23.6528 13.731C23.6115 13.7776 23.5926 13.8301 23.5961 13.8887C23.6582 13.9437 23.7844 13.9656 23.9747 13.9542C24.2382 13.9385 24.4552 13.8814 24.6257 13.7831L25.9213 13.7057C26.1488 13.8244 26.329 14.012 26.4619 14.2685L26.7388 13.3704C27.1845 11.9773 27.4249 11.0814 27.4598 10.6826C27.4898 10.4457 27.6317 10.2389 27.8856 10.0621C27.9761 10.1008 28.1036 10.1446 28.2681 10.1935C28.4473 10.2416 28.5912 10.3138 28.6998 10.4102C28.8075 10.4919 28.8809 10.6124 28.9198 10.7717C28.9139 10.919 28.8864 11.0749 28.8375 11.2395C28.7877 11.3894 28.7568 11.4867 28.7447 11.5315C28.7087 11.6659 28.5721 12.0855 28.3351 12.7902C28.2981 12.9099 28.1985 13.2097 28.0362 13.6896C27.8876 14.1539 27.7592 14.5877 27.651 14.9909C27.5567 15.3785 27.4963 15.7201 27.4698 16.0155C27.4373 16.2084 27.3802 16.4837 27.2987 16.8412C27.231 17.1831 27.1796 17.4287 27.1444 17.5777C27.1557 17.768 27.0629 17.9352 26.8658 18.0792Z" fill="#428DFC"></path> <path d="M30.4426 17.3146C30.3935 17.2293 30.315 17.1459 30.2073 17.0642C30.1133 16.9669 30.0655 16.9037 30.0637 16.8744C30.0541 16.7133 30.0101 16.5911 29.9316 16.5076C29.9006 16.4801 29.882 16.4151 29.8759 16.3126C29.8619 16.0783 29.9481 15.6765 30.1345 15.107C30.3346 14.522 30.598 13.8892 30.9247 13.2085C31.0073 13.1154 31.1079 12.9551 31.2266 12.7277C31.3598 12.4993 31.4476 12.3692 31.4897 12.3373C31.4862 12.2787 31.5051 12.2262 31.5464 12.1796C31.5869 12.1184 31.6364 12.0861 31.6949 12.0826L31.6871 11.9508C31.6792 11.8191 31.902 11.4899 32.3554 10.9632C32.8079 10.4219 33.1822 10.047 33.4783 9.83827C33.8294 9.56752 34.1953 9.42078 34.576 9.39804C34.8395 9.3823 35.0708 9.44195 35.2699 9.57698C35.3483 9.66046 35.7039 9.95512 36.3365 10.461L37.1923 11.1371L36.8626 12.2588C36.7545 12.662 36.71 13.0246 36.7292 13.3467C36.7625 13.903 36.9554 14.4278 37.3081 14.921C37.391 15.0776 37.5466 15.2226 37.7749 15.3559C38.0033 15.4892 38.2281 15.5639 38.4495 15.5801C38.7751 15.6194 38.9457 15.7708 38.9615 16.0344C38.979 16.3272 38.8577 16.5107 38.5977 16.585C38.54 16.6032 38.4526 16.6157 38.3354 16.6227C37.4716 16.6743 36.6887 16.1114 35.9866 14.9338C35.9227 14.8494 35.8326 14.6932 35.7161 14.4651C35.6143 14.2361 35.5534 14.0781 35.5335 13.9911C35.4527 14.1135 35.3512 14.2591 35.2291 14.428C35.1069 14.597 34.9908 14.7435 34.8806 14.8676C33.3801 16.5587 32.1687 17.4319 31.2463 17.487C30.9535 17.5044 30.6856 17.447 30.4426 17.3146ZM31.1598 16.0375C31.1641 16.1107 31.2387 16.1283 31.3833 16.0903C31.5426 16.0514 31.7286 15.9668 31.9412 15.8366C32.1684 15.7055 32.3935 15.5378 32.6164 15.3334C33.8108 14.1748 34.6621 13.1763 35.1703 12.3378L35.6062 11.5184C35.4415 11.2197 35.2746 11.0093 35.1057 10.8871C34.9359 10.7503 34.7851 10.6859 34.6534 10.6937C34.3459 10.7121 33.886 11.1289 33.2735 11.9442C32.6601 12.7449 32.1136 13.6811 31.634 14.753C31.5171 15.0097 31.4153 15.2729 31.3286 15.5426C31.2409 15.7976 31.1847 15.9626 31.1598 16.0375Z" fill="#428DFC"></path> <path d="M47.8457 17.2889C47.6847 17.2985 47.5434 17.2702 47.4219 17.204C47.043 17.256 46.6618 17.1466 46.2783 16.8756C45.8939 16.59 45.6537 16.2591 45.5578 15.8828C45.5362 15.7666 45.5184 15.5913 45.5044 15.3571C45.4904 15.1228 45.4872 14.9467 45.4948 14.8287C45.5873 14.162 45.7197 13.4268 45.892 12.6231C46.0782 11.8039 46.2838 11.0643 46.5089 10.4044C46.6317 10.0003 46.803 9.42442 47.0228 8.67665C47.2572 7.928 47.3911 7.46453 47.4246 7.28622C47.5439 6.82361 47.6675 6.43422 47.7956 6.11802C47.8876 5.93621 48.0461 5.51534 48.2712 4.85542C48.5598 4.03007 48.9096 3.24515 49.3206 2.50066C49.3877 2.3938 49.4462 2.26542 49.496 2.11552C49.5458 1.96561 49.5767 1.86826 49.5887 1.82347C49.6807 1.64166 49.7999 1.54638 49.9463 1.53764C50.0488 1.53152 50.1832 1.56757 50.3495 1.64579C50.5304 1.72314 50.6661 1.78116 50.7566 1.81983C50.9539 1.92559 51.0574 2.05899 51.067 2.22003C51.0731 2.32252 51.0358 2.43495 50.9549 2.55732C50.5301 3.31733 50.0522 4.29356 49.521 5.48602C49.509 5.53082 49.4325 5.72639 49.2915 6.07275C49.1506 6.4191 49.0836 6.65084 49.0906 6.76796C48.9626 7.08416 48.5916 8.25236 47.9776 10.2726L47.7587 11.035C47.458 11.9051 47.2495 12.7183 47.133 13.4746L47.0291 14.3183L46.9151 15.361C46.9022 15.3911 46.898 15.4428 46.9023 15.516C46.9102 15.6478 46.962 15.7769 47.0577 15.9034C47.5695 16.1079 48.1987 16.1879 48.9454 16.1433C49.2528 16.1249 49.596 16.0897 49.9749 16.0377C50.3538 15.9857 50.616 15.948 50.7616 15.9246C50.7917 15.9375 50.9459 15.9357 51.224 15.919C51.6633 15.8928 51.919 15.8702 51.9914 15.8512C52.0043 15.821 52.0094 15.784 52.0068 15.7401C52.0024 15.6669 51.939 15.5898 51.8167 15.509C51.6381 15.2258 51.5449 15.0183 51.537 14.8865C51.53 14.7694 51.5648 14.6131 51.6413 14.4175C51.7169 14.2073 51.7731 14.0423 51.8101 13.9226C51.8863 13.4772 52.2494 12.1772 52.8995 10.0227C53.5641 7.8672 54.015 6.4371 54.2521 5.73238C54.442 5.22148 54.5721 4.81701 54.6424 4.51895C54.7274 4.22002 54.8201 3.80308 54.9203 3.26815L55.0465 2.79779C55.1326 2.76327 55.2049 2.74425 55.2635 2.74075C55.3953 2.73288 55.5512 2.7603 55.7312 2.82301C55.8803 2.85819 56.0319 2.93729 56.1862 3.06031C56.3542 3.16782 56.4426 3.29477 56.4514 3.44118C56.4549 3.49974 56.4373 3.57425 56.3986 3.66472C56.4262 3.63369 56.1672 4.46461 55.6219 6.15747C55.0765 7.85033 54.6986 9.02628 54.4882 9.68534L54.2653 10.3819C53.9494 11.488 53.7442 12.2349 53.6498 12.6225C53.5434 13.055 53.3628 13.8445 53.1081 14.9911L52.9485 15.6397C53.0863 15.7343 53.2065 15.7786 53.309 15.7725C53.3822 15.7681 53.4537 15.7344 53.5234 15.6715C53.904 15.6488 54.3777 15.5838 54.9443 15.4764C55.5255 15.3683 56.0116 15.2658 56.4025 15.169C56.8081 15.0713 57.0251 15.0142 57.0535 14.9978C57.1534 14.9478 57.261 14.9046 57.3763 14.8684C57.4917 14.8321 57.5993 14.7889 57.6992 14.7389C57.7241 14.6639 57.7657 14.4998 57.8241 14.2466L57.927 13.7555C58.0257 13.4411 58.1223 13.0901 58.2167 12.7024C58.4295 11.8375 58.6193 11.2017 58.786 10.7951C58.9621 10.2997 59.0673 9.97016 59.1016 9.80649C59.1547 9.46538 59.4599 8.426 60.0173 6.68834C60.2492 5.89578 60.5497 4.90075 60.919 3.70327C61.3029 2.50492 61.594 1.59862 61.7924 0.984361C61.8501 0.966223 61.9302 0.954093 62.0327 0.947972C62.3548 0.928734 62.6856 1.0559 63.0252 1.32947C63.0588 1.40093 63.0805 1.51718 63.0901 1.67823C63.0997 1.83927 63.0667 2.0249 62.9911 2.23512C62.5513 3.48089 61.85 5.63854 60.8873 8.70807C60.6915 9.36624 60.5374 9.86031 60.4249 10.1903C60.3759 10.3548 60.2647 10.7067 60.0912 11.246C59.9324 11.7845 59.801 12.2919 59.6973 12.7682C59.6319 12.9044 59.5289 13.2705 59.3882 13.8666C59.2475 14.4627 59.1862 14.7896 59.2043 14.8473C59.2983 14.9446 59.2993 15.0841 59.2073 15.2659C59.1144 15.4331 59.0039 15.5499 58.8756 15.6163C58.8472 15.6327 58.7904 15.6655 58.7052 15.7146C58.6337 15.7483 58.5596 15.738 58.4829 15.6838C58.0817 15.8547 57.6426 16.0058 57.1656 16.1372C56.6886 16.2685 56.2111 16.3925 55.7333 16.5092C55.2691 16.6104 54.9647 16.68 54.8201 16.7181C54.7331 16.7379 54.5579 16.7558 54.2943 16.7715L53.4159 16.824C52.9767 16.8502 52.7145 16.8879 52.6292 16.9371C52.6155 16.9526 52.55 16.9638 52.4329 16.9708C52.3158 16.9778 52.0953 16.9763 51.7715 16.9663L51.2857 16.9512C50.9343 16.9722 50.6053 16.9992 50.2988 17.0322C49.9922 17.0652 49.7295 17.0956 49.5108 17.1233L48.2177 17.2446L47.8457 17.2889Z" fill="#428DFC"></path> <path d="M69.1105 15.5339C68.647 15.4 68.2622 15.1071 67.956 14.6552C67.6499 14.2033 67.4445 13.716 67.3398 13.1933C67.3096 13.1804 67.1504 13.3442 66.8622 13.6847C66.395 14.2268 65.9665 14.6785 65.5767 15.0397C65.186 15.3863 64.8137 15.5481 64.4597 15.5252C64.1865 15.3799 63.934 15.2113 63.7022 15.0195C63.5625 14.8956 63.4746 14.7759 63.4383 14.6606C63.232 14.1586 63.1179 13.7247 63.0961 13.3586C63.0786 13.0658 63.0913 12.7859 63.1341 12.5189C63.1907 12.2363 63.2911 11.8263 63.4353 11.2887C63.4593 11.1991 63.588 10.6478 63.8213 9.63478C64.0685 8.60622 64.2617 8.029 64.4011 7.90313L64.6853 7.86412C64.8317 7.85537 64.9446 7.90006 65.0239 7.99817C65.0567 8.05498 65.1416 8.12338 65.2786 8.20335C65.4302 8.28245 65.5096 8.38056 65.5166 8.49768C65.5297 8.71729 65.4019 9.28325 65.1331 10.1956C64.9142 10.958 64.7464 11.5924 64.6297 12.099C64.5122 12.5909 64.4652 13.0344 64.4888 13.4297C64.501 13.6347 64.5339 13.8164 64.5875 13.9748C64.6753 13.9696 64.8092 13.8734 64.989 13.6864C65.1826 13.4838 65.3211 13.3433 65.4046 13.2648C65.5879 13.1363 65.871 12.8329 66.2538 12.3546C66.6504 11.8607 66.9218 11.4845 67.068 11.226C67.2004 10.983 67.3796 10.5389 67.6055 9.89362C67.8461 9.24746 67.9598 8.81458 67.9467 8.59497C67.9371 8.43392 67.9516 8.30816 67.9903 8.2177C68.0289 8.12723 68.1047 8.0419 68.2174 7.9617C68.437 7.94858 68.5985 7.94628 68.7019 7.9548C68.8113 8.06581 68.9204 8.16949 69.029 8.26585C69.1514 8.3467 69.2513 8.42154 69.3289 8.49037C69.3652 8.60575 69.3851 8.69271 69.3886 8.75128C69.4061 9.04409 69.2998 9.60142 69.0697 10.4233C68.9117 10.9763 68.7924 11.4389 68.7118 11.8111C68.6458 12.1823 68.6233 12.5436 68.6443 12.895C68.6767 13.4367 68.8575 13.8814 69.1868 14.2291C69.4149 14.1126 69.6133 13.9905 69.782 13.8629C69.9507 13.7353 70.1048 13.6085 70.2442 13.4827C70.3965 13.3267 70.6276 13.1365 70.9374 12.9123C71.0736 12.9777 71.1861 13.1399 71.275 13.3991C71.3778 13.6427 71.4348 13.8597 71.4462 14.05C71.293 14.1914 71.2031 14.2849 71.1764 14.3306C71.075 14.6011 70.8268 14.8731 70.4317 15.1465C70.0504 15.4043 69.6987 15.5429 69.3766 15.5621C69.3181 15.5656 69.2294 15.5562 69.1105 15.5339Z" fill="#428DFC"></path> <path d="M77.9812 15.2245C77.8822 15.2892 77.7418 15.2755 77.56 15.1835C77.3928 15.0907 77.2226 14.9465 77.0493 14.7512C76.9208 14.5679 76.8358 14.3746 76.7943 14.1714C76.7674 13.9673 76.7347 13.5431 76.6963 12.899C76.6875 12.7525 76.6539 12.6811 76.5953 12.6846C76.5514 12.6872 76.4533 12.7665 76.301 12.9226C76.1478 13.0639 75.9611 13.2588 75.7408 13.507C75.382 13.8958 75.0477 14.2022 74.7378 14.4264C74.428 14.6506 74.1701 14.7615 73.9643 14.7591C73.8033 14.7688 73.621 14.6695 73.4176 14.4612C73.2288 14.2521 73.0744 14.0042 72.9544 13.7175C72.9 13.5444 72.8658 13.3408 72.8518 13.1065C72.8151 12.4916 72.8949 11.7375 73.0913 10.8442C73.3024 9.95006 73.5575 9.17814 73.8566 8.52848C74.1695 7.86331 74.4577 7.52285 74.7213 7.50711C74.9409 7.494 75.1603 7.72332 75.3795 8.1951C75.4286 8.28032 75.455 8.35221 75.4585 8.41077C75.4646 8.51325 75.4121 8.61923 75.3011 8.72871C75.0981 9.02 74.8717 9.53308 74.6217 10.268C74.3717 11.0028 74.1773 11.683 74.0383 12.3084C73.914 12.9329 73.9031 13.2421 74.0056 13.236C74.2105 13.2237 74.4473 13.1288 74.7158 12.9511C74.9844 12.7735 75.2499 12.5446 75.5123 12.2644C75.7739 11.9696 76.0053 11.662 76.2065 11.3414C76.4069 11.0062 76.6519 10.5581 76.9417 9.99716C77.498 8.97951 77.8006 8.38842 77.8496 8.22387C78.0447 7.80082 78.1827 7.52811 78.2635 7.40574C78.3581 7.26785 78.4773 7.17257 78.6211 7.11991L78.9286 7.10154C79.0173 7.11094 79.1237 7.1707 79.2478 7.28083C79.3529 7.31863 79.4146 7.36637 79.4327 7.42406C79.4646 7.46623 79.4832 7.53124 79.4884 7.61908L79.1856 8.45262L79.0155 8.92561C79.0043 8.98504 78.9339 9.15822 78.8041 9.44513C78.5119 10.2119 78.2916 10.8275 78.143 11.2918C77.9944 11.7562 77.8907 12.2326 77.8317 12.7209C77.8214 12.795 77.8215 12.9199 77.832 13.0956C77.8582 13.5348 77.9205 13.8396 78.0189 14.0101C78.1664 14.2657 78.3095 14.4482 78.4483 14.5574C78.525 14.6116 78.5651 14.668 78.5686 14.7266C78.5747 14.8291 78.493 14.9368 78.3234 15.0498C78.1685 15.1619 78.0544 15.2201 77.9812 15.2245ZM77.1514 6.12777C76.2644 6.2836 75.6132 5.71274 75.1978 4.4152C75.1615 4.29983 75.142 4.22018 75.1394 4.17626C75.1333 4.07377 75.156 3.96222 75.2076 3.8416C75.2334 3.78129 75.2893 3.73387 75.3754 3.69934C75.4615 3.66481 75.5343 3.65312 75.5937 3.66426C75.7884 3.7261 75.9405 3.81252 76.05 3.92352C76.1586 4.01988 76.2323 4.14771 76.2712 4.30701C76.3213 4.40687 76.3494 4.50804 76.3555 4.61053C76.4945 4.96954 76.6664 5.14293 76.8714 5.13069C76.9153 5.12807 77.0234 5.09223 77.1956 5.02317C77.7956 4.73755 78.2402 4.43184 78.5293 4.10602C78.5293 4.10602 78.8197 3.80217 79.4005 3.19446L79.4211 3.17118C79.4779 3.13841 79.5283 3.1207 79.5722 3.11808C79.6747 3.11196 79.7492 3.12955 79.7958 3.17085C79.8742 3.25432 79.9229 3.33222 79.942 3.40455C79.961 3.47687 79.9727 3.54964 79.977 3.62284C79.9814 3.69605 79.9849 3.75461 79.9875 3.79853L79.9682 3.84376C80.0027 3.92986 79.94 4.10992 79.7801 4.38394C79.6192 4.64332 79.4338 4.8601 79.2238 5.03426C78.9588 5.27048 78.5138 5.56888 77.8888 5.92945C77.7899 5.99413 77.6603 6.0386 77.5001 6.06286C77.3399 6.08712 77.2237 6.10876 77.1514 6.12777Z" fill="#428DFC"></path> <path d="M85.5844 14.4838C85.2389 14.3575 85.0015 14.1954 84.8721 13.9974C84.729 13.815 84.6456 13.5261 84.622 13.1308C84.6054 12.8526 84.5996 12.6326 84.6046 12.4707C84.614 12.382 84.6775 12.0917 84.795 11.5998C84.9272 11.107 85.0242 10.7633 85.0861 10.5686C84.9561 10.6057 84.8347 10.6644 84.7219 10.7446C84.6238 10.8239 84.5257 10.9033 84.4276 10.9826C84.2899 11.1377 84.101 11.2959 83.8609 11.4572C83.6207 11.6185 83.4004 11.7418 83.1998 11.8273C83.1429 11.8601 83.0779 11.8786 83.0047 11.883C82.8437 11.8926 82.6576 11.8523 82.4465 11.7621C82.2492 11.6563 82.1014 11.5182 82.003 11.3478C81.9193 11.1765 81.8563 10.9819 81.8139 10.764C81.7949 10.6917 81.781 10.5823 81.7723 10.4359C81.7504 10.0699 81.8168 9.70597 81.9715 9.3441L82.4536 8.19131C82.5705 7.93455 82.7313 7.55028 82.9358 7.03851C82.9745 6.94805 83.0338 6.83431 83.1137 6.69729C83.1937 6.56028 83.2453 6.43966 83.2684 6.33543C83.2796 6.27599 83.3196 6.20748 83.3884 6.12991C83.471 6.03682 83.5489 5.98809 83.6221 5.98371C84.0045 5.99026 84.2837 6.11317 84.4596 6.35244C84.5535 6.44968 84.604 6.55686 84.611 6.67398C84.6198 6.82039 84.5695 6.96297 84.4603 7.10173C84.0431 7.74374 83.624 8.59892 83.203 9.66726C83.0852 9.90938 83.0333 10.1476 83.0473 10.3818C83.0517 10.455 83.0625 10.5131 83.0798 10.5562C83.314 10.5422 83.6411 10.361 84.0611 10.0127C84.4811 9.66438 85.0181 9.18418 85.6721 8.57209L86.1729 8.1014C86.493 7.80311 86.7657 7.44889 86.991 7.03873C87.1079 6.78197 87.327 6.63665 87.6482 6.60277C87.8739 6.69214 88.0169 6.74971 88.0772 6.7755C88.1428 6.88912 88.2088 7.01007 88.2752 7.13834C88.3554 7.25109 88.3977 7.34407 88.4021 7.41727C88.41 7.54904 88.318 7.73084 88.1261 7.9627C88.0245 7.98346 87.8331 8.22263 87.5519 8.68021C87.2844 9.12228 87.0793 9.50184 86.9367 9.81892C86.8971 9.89474 86.8434 9.97876 86.7754 10.071C86.7212 10.1477 86.6679 10.239 86.6155 10.345L85.9016 12.4152C85.8905 12.4747 85.8802 12.5488 85.8708 12.6375C85.8614 12.7262 85.8607 12.8364 85.8685 12.9682C85.8755 13.0853 85.895 13.165 85.9269 13.2071C86.0001 13.2028 86.0582 13.192 86.1013 13.1747C86.1589 13.1566 86.2171 13.1457 86.2756 13.1422C86.3635 13.137 86.4242 13.1701 86.4579 13.2416C86.5459 13.4861 86.5917 13.6376 86.5952 13.6962C86.604 13.8426 86.5124 14.0317 86.3206 14.2636C86.1691 14.4342 86.0202 14.5239 85.8738 14.5327C85.8006 14.537 85.7041 14.5208 85.5844 14.4838Z" fill="#428DFC"></path> <path d="M95.07 6.1154C95.3183 6.33565 95.4498 6.57023 95.4647 6.81912C95.4804 7.08265 95.3323 7.55432 95.0203 8.23413C94.9233 8.57786 94.8103 8.9005 94.6814 9.20206C94.5671 9.50274 94.476 9.69919 94.408 9.7914L93.9725 10.9855C93.7817 11.4818 93.5445 12.0616 93.2609 12.725C92.9146 13.5685 92.6727 14.1927 92.5353 14.5976L92.2773 15.0758C91.6152 16.2908 91.1006 17.1444 90.7332 17.6365C89.9709 18.4019 89.3736 18.8564 88.9413 18.9997C88.7545 19.0697 88.5293 19.1125 88.2658 19.1282C87.7827 19.1571 87.3222 19.0744 86.8845 18.8801C86.4331 18.7014 86.1698 18.4747 86.0946 18.2C86.0738 18.0984 86.1039 17.9864 86.1847 17.8641C86.2656 17.7417 86.3572 17.6774 86.4597 17.6713C86.5329 17.667 86.5932 17.6927 86.6406 17.7487C86.763 17.8295 86.9362 17.9 87.1602 17.9601C87.3997 18.0339 87.6512 18.063 87.9147 18.0472C88.0172 18.0411 88.1554 18.0182 88.3294 17.9784C88.6187 17.9023 88.9156 17.7083 89.2202 17.3962C89.5248 17.0842 89.7984 16.7446 90.0409 16.3775C90.495 15.6157 90.9747 14.6688 91.4801 13.5366C91.2717 13.4903 91.0657 13.363 90.8623 13.1548C90.6579 12.9319 90.4898 12.6995 90.3578 12.4576C90.2404 12.2149 90.1929 12.034 90.2152 11.9152L90.2008 11.6736C90.069 11.6815 89.9443 11.4391 89.8268 10.9466C89.7238 10.4532 89.6527 9.87708 89.6133 9.21826C89.5985 8.96937 89.5943 8.65372 89.6009 8.27132C89.6454 8.03357 89.6577 7.74633 89.6375 7.4096C89.6312 7.05735 89.625 6.82998 89.6188 6.7275L89.6136 6.63965C89.6031 6.46397 89.6103 6.33865 89.6352 6.2637C89.6748 6.18787 89.7367 6.11805 89.8211 6.05424C89.9347 5.98869 90.0501 5.95241 90.1672 5.94541C90.5771 5.92093 90.8144 6.45039 90.8792 7.53379C90.8888 7.69484 90.8929 8.01048 90.8916 8.48073C90.8892 8.68657 90.9003 8.99446 90.9248 9.4044C90.9702 10.1657 91.0763 10.8352 91.2431 11.413C91.4098 11.9907 91.6315 12.3816 91.9082 12.5854L92.0216 12.2701C92.1573 11.8359 92.2655 11.5576 92.3464 11.4353C92.526 10.9984 92.6269 10.7206 92.6492 10.6017C92.6724 10.4975 92.7428 10.3243 92.8606 10.0822L93.1107 9.47219C93.1347 9.38259 93.2133 9.09874 93.3463 8.62062C93.4785 8.12787 93.6164 7.73027 93.76 7.42784C93.8115 7.30722 93.8893 7.1336 93.9933 6.907C94.0965 6.66576 94.1816 6.4917 94.2486 6.38485C94.3157 6.27799 94.3923 6.2073 94.4784 6.17277C94.5894 6.06329 94.6815 6.00637 94.7547 6.00199C94.8133 5.9985 94.9184 6.0363 95.07 6.1154Z" fill="#428DFC"></path> <path d="M96.8832 14.0294C96.704 13.9813 96.5109 13.8239 96.304 13.5571C96.0962 13.2756 95.9853 13.0178 95.9713 12.7835L96.2236 11.8428L96.5622 10.5002C96.6826 10.302 96.7715 10.069 96.829 9.80108C96.9002 9.51766 96.9418 9.35356 96.9538 9.30876C97.0836 9.02184 97.3362 8.33089 97.7116 7.23589L98.0685 6.20077L98.2193 5.77302C98.294 5.54817 98.3421 5.36898 98.3635 5.23547C98.3565 5.11834 98.3801 5.02143 98.4343 4.94473C98.4876 4.85339 98.5435 4.80597 98.6021 4.80247C98.6709 4.72489 98.8078 4.67999 99.0128 4.66774C99.1738 4.65812 99.319 4.7523 99.4484 4.95027C99.5778 5.14825 99.6481 5.3424 99.6595 5.53272C99.6691 5.69377 99.6112 5.95435 99.4858 6.31447C99.375 6.67371 99.2496 7.03383 99.1096 7.39483C98.9944 7.68087 98.893 7.95139 98.8054 8.2064C98.7316 8.4459 98.7179 8.5863 98.7644 8.62759C98.8213 8.59482 98.9422 8.52882 99.1273 8.42961C99.3115 8.31576 99.5017 8.17951 99.6979 8.02086C99.8253 7.93979 99.9454 7.85915 100.058 7.77895C100.17 7.68411 100.268 7.60479 100.352 7.54098C100.788 7.20642 101.056 7.02144 101.157 6.98603C101.241 6.92223 101.403 6.80969 101.644 6.64841C101.897 6.45699 102.03 6.35352 102.044 6.338C102.214 6.23966 102.358 6.187 102.475 6.18C102.563 6.17475 102.645 6.19923 102.722 6.25342C102.799 6.30761 102.892 6.3902 103.001 6.50121C103.095 6.59844 103.145 6.6983 103.151 6.80079C103.157 6.90327 103.105 7.01657 102.995 7.14069C102.884 7.25017 102.695 7.40106 102.427 7.59337C102.245 7.7365 102.055 7.87275 101.857 8.00212C101.659 8.13148 101.468 8.26041 101.285 8.38891C100.269 9.09605 99.7479 9.47246 99.7212 9.51813C99.754 9.57495 99.8278 9.70278 99.9425 9.90162C100.072 10.0996 100.192 10.2687 100.303 10.409L100.667 10.9603C100.857 11.1987 100.955 11.3545 100.959 11.4277C101.113 11.7859 101.306 12.0609 101.538 12.2527C101.784 12.4437 102.039 12.5313 102.303 12.5156C102.434 12.5077 102.586 12.4619 102.757 12.3782C102.972 12.2773 103.145 12.2228 103.276 12.215C103.481 12.2027 103.627 12.3115 103.715 12.5414C103.764 12.6266 103.79 12.6912 103.792 12.7351C103.796 12.7937 103.701 12.9316 103.508 13.1488C103.151 13.5522 102.774 13.7657 102.379 13.7893C102.247 13.7972 102.091 13.7697 101.911 13.707C101.692 13.7348 101.405 13.605 101.05 13.3177C100.71 13.0294 100.224 12.5222 99.5928 11.7958C99.5893 11.7373 99.4974 11.5518 99.3171 11.2393C99.2507 11.111 99.1778 10.9978 99.0985 10.8997C99.0183 10.787 98.9623 10.7095 98.9304 10.6673C98.9269 10.6088 98.8859 10.5378 98.8074 10.4543C98.7427 10.3553 98.694 10.2774 98.6612 10.2206C98.4976 10.1863 98.3667 10.2088 98.2686 10.2881C98.1851 10.3666 98.1034 10.4743 98.0234 10.6113C97.9581 10.7474 97.9052 10.8461 97.8648 10.9073C97.7411 11.2967 97.6227 11.7739 97.5095 12.339C97.3954 12.8895 97.3652 13.2439 97.4187 13.4023C97.4327 13.6366 97.4057 13.7998 97.3378 13.892C97.269 13.9696 97.1174 14.0154 96.8832 14.0294Z" fill="#428DFC"></path> </svg> 