<?xml version="1.0" encoding="UTF-8"?> <svg xmlns="http://www.w3.org/2000/svg" width="109" height="21" viewBox="0 0 109 21" fill="none"> <path d="M0.810657 20.6052C0.644363 20.5269 0.522429 20.4534 0.444854 20.3846C0.381919 20.3149 0.346954 20.2215 0.339959 20.1043C0.331214 19.9579 0.377534 19.7495 0.478918 19.4789C0.594068 19.1929 0.78788 18.7479 1.06035 18.1439C1.13683 17.9483 1.28508 17.6015 1.50512 17.1035C2.2572 15.4277 2.62888 14.5166 2.62013 14.3702C2.60374 14.3418 2.5938 14.2983 2.5903 14.2397C2.58156 14.0933 2.69081 13.9546 2.91806 13.8234C3.23468 13.4666 3.49143 13.0913 3.6883 12.6975C3.81547 12.3667 3.99038 11.9742 4.21304 11.5201C4.43482 11.0514 4.71035 10.4987 5.03964 9.8619C5.19696 9.54396 5.43382 9.08168 5.75022 8.47507C6.2342 7.47644 6.86667 6.38078 7.64762 5.18809C7.95724 4.71412 8.2223 4.4779 8.44278 4.47942C8.72095 4.46281 9.03627 4.57621 9.38875 4.81963C9.75499 5.04753 10.0136 5.31859 10.1646 5.63281C10.2293 5.7318 10.2717 5.94966 10.2918 6.28639C10.3189 6.74025 10.3136 7.51194 10.2758 8.60147C10.2579 8.79354 10.2465 9.09542 10.2417 9.50711C10.2372 10.1686 10.2133 10.8752 10.17 11.6272C10.1069 13.2765 10.0663 14.5646 10.0482 15.4913C10.0301 16.418 10.0451 17.284 10.0932 18.0892C10.1176 18.4992 10.1429 18.7989 10.1689 18.9883L10.1781 19.142L10.1863 19.6485C10.1037 19.7415 9.97456 19.7933 9.79887 19.8038C9.5939 19.8161 9.39319 19.7766 9.19674 19.6855C9.00117 19.609 8.88481 19.5058 8.84766 19.3758C8.83214 19.362 8.80931 19.3487 8.77915 19.3358C8.74899 19.3229 8.73042 19.2579 8.72342 19.1408L8.71653 18.6563L8.70895 17.4226L8.60626 13.8584L8.32208 13.8974C8.02927 13.9149 7.38127 14.0123 6.37806 14.1898C5.37486 14.3673 4.751 14.5 4.50648 14.5881C4.37471 14.596 4.21892 14.6934 4.03908 14.8805C3.85925 15.0675 3.70443 15.3045 3.57464 15.5914C3.53947 15.7405 3.44966 15.9589 3.30523 16.2467C3.15992 16.5198 3.08858 16.6784 3.09121 16.7223C3.00686 16.7861 2.93115 16.8714 2.86407 16.9783C2.81075 17.0696 2.77765 17.1304 2.76476 17.1605C2.77437 17.3216 2.64513 17.7407 2.37703 18.4179C2.12357 19.0942 1.86355 19.6607 1.59697 20.1174L1.17777 20.8477L0.810657 20.6052ZM4.93419 13.2622C5.02116 13.2424 5.20974 13.2017 5.49993 13.1403C5.78924 13.0642 6.05058 13.0119 6.28396 12.9833C7.32321 12.6714 7.95997 12.5085 8.19422 12.4945C8.2967 12.4884 8.39317 12.5047 8.48364 12.5433C8.53106 12.5993 8.57761 12.6406 8.62328 12.6672C8.68271 12.6784 8.71975 12.6835 8.73439 12.6826C8.75843 12.593 8.79905 11.7972 8.85626 10.2951C8.92724 8.77752 8.95518 7.76939 8.94009 7.27074L8.94039 6.16876C8.85254 6.17401 8.67227 6.35374 8.39957 6.70796C8.12687 7.06219 7.82369 7.52108 7.49004 8.08464C7.17014 8.63269 6.88773 9.19319 6.64278 9.76615C6.51212 10.0384 6.38058 10.2961 6.24816 10.5391C6.12952 10.7665 6.04091 10.882 5.98235 10.8855C5.88599 10.9941 5.66803 11.4038 5.32847 12.1147C4.98892 12.8255 4.85749 13.208 4.93419 13.2622Z" fill="#428DFC"></path> <path d="M18.5502 10.9944C18.706 10.8969 18.8644 10.8434 19.0254 10.8338C19.2304 10.8215 19.41 10.8769 19.5643 10.9999C19.7323 11.1074 19.822 11.2564 19.8334 11.4467C19.8352 11.476 19.8249 11.55 19.8026 11.6689C19.8352 11.476 19.7002 11.7999 19.3978 12.6408C19.0954 13.4816 18.9313 13.9322 18.9056 13.9925L18.9095 14.0584C19.1145 14.0462 19.2502 14.1042 19.3166 14.2325C19.3968 14.3452 19.4357 14.5045 19.4333 14.7103C19.3033 14.7475 19.1819 14.8062 19.0691 14.8864C18.9564 14.9666 18.8634 15.0089 18.7902 15.0132C18.7463 15.0158 18.6964 15.0409 18.6404 15.0883C18.5845 15.1357 18.5509 15.1891 18.5398 15.2486C18.514 15.3089 18.4763 15.5389 18.4267 15.9385L18.1259 17.5433C18.1027 17.6476 18.0567 17.7385 17.9879 17.816C17.9191 17.8936 17.8558 17.9415 17.7981 17.9596C17.7387 17.9485 17.6194 17.9189 17.4402 17.8708C17.2748 17.8072 17.1619 17.7625 17.1016 17.7367C17.0404 17.6963 16.9792 17.6559 16.918 17.6155L16.9102 17.4837C16.8979 17.2787 16.9218 17.0643 16.9819 16.8403C17.0781 16.4819 17.1659 15.9845 17.2454 15.3479C17.1257 15.311 16.8342 15.3504 16.3709 15.4663C15.9068 15.5675 15.6528 15.6194 15.6088 15.622C15.5236 15.6712 15.3492 15.7036 15.0857 15.7194C14.6611 15.7447 14.3588 15.726 14.1788 15.6633L14.0509 15.7371C14.0295 15.8706 13.9943 16.0196 13.9454 16.1842C13.8115 16.6476 13.7511 16.9892 13.7642 17.2088C13.7471 17.4155 13.7279 17.5856 13.7065 17.7191C13.686 17.8673 13.6698 18.0887 13.658 18.3832C13.6678 18.794 13.541 19.0073 13.2775 19.023C13.1164 19.0327 12.9372 18.9846 12.7399 18.8788C12.6339 18.8264 12.4879 18.7176 12.3017 18.5524L12.552 16.8404C12.5881 16.706 12.6211 16.5204 12.651 16.2835C12.6956 16.0458 12.7428 15.8519 12.7926 15.702L12.9935 15.0068C13.1386 14.4839 13.2747 14.057 13.4019 13.7262C13.4019 13.7262 13.5298 13.2851 13.7857 12.403C13.8235 12.2979 13.902 12.014 14.0213 11.5514C14.1544 11.0733 14.2334 10.7967 14.2583 10.7218C14.3072 10.5572 14.4195 10.4697 14.5952 10.4592C14.8286 10.4306 15.0297 10.4774 15.1987 10.5995C15.3813 10.7061 15.4853 10.8469 15.5104 11.0217C15.513 11.0656 15.5101 11.1392 15.5015 11.2426C15.4921 11.3313 15.4814 11.3981 15.4694 11.4429L14.494 14.3001L14.5045 14.4758C14.5657 14.5162 14.6695 14.5321 14.8159 14.5233C14.9331 14.5163 15.1074 14.4839 15.3391 14.4259C15.5853 14.3672 15.7377 14.336 15.7963 14.3325C15.9272 14.31 16.124 14.2836 16.3866 14.2532C16.6493 14.2228 16.9124 14.1997 17.1759 14.184C17.3809 14.1718 17.4911 14.1725 17.5066 14.1863L17.7062 13.4691C17.8976 12.7377 18.112 12.1446 18.3493 11.6896C18.3613 11.6448 18.3857 11.5625 18.4227 11.4428C18.4587 11.3084 18.5012 11.1589 18.5502 10.9944Z" fill="#428DFC"></path> <path d="M26.8658 18.0792C26.7469 18.0569 26.6207 18.0351 26.4872 18.0136C26.3528 17.9776 26.2111 17.942 26.0621 17.9068C25.9353 17.7528 25.8641 17.544 25.8483 17.2804C25.8352 17.0608 25.8638 16.802 25.9342 16.5039C26.0037 16.1912 26.0809 15.8854 26.1659 15.5865C26.1899 15.4969 26.2311 15.3255 26.2895 15.0722C26.3624 14.8181 26.4014 14.61 26.4065 14.4481C26.3892 14.4051 26.3664 14.3917 26.338 14.4081C26.3096 14.4245 26.2962 14.4474 26.298 14.4766C26.1612 14.6464 25.8461 14.7828 25.3527 14.8857C24.7293 15.0258 24.1872 15.1757 23.7266 15.3355L23.428 15.1329C23.3109 15.1399 23.2163 15.2778 23.1442 15.5466C23.0721 15.8154 23.0052 16.172 22.9436 16.6164C22.882 17.0609 22.8323 17.3357 22.7945 17.4408L22.4238 17.507C22.292 17.5149 22.0766 17.4763 21.7777 17.3913C21.6337 17.1942 21.5569 17.0152 21.5473 16.8541C21.5403 16.737 21.5544 16.6039 21.5895 16.4549C21.6127 16.3507 21.6444 16.1431 21.6846 15.8321C21.7394 15.5203 21.8296 15.1843 21.955 14.8242C21.9799 14.7492 22.0306 14.614 22.107 14.4184C22.1826 14.2082 22.2148 14.0079 22.2034 13.8176C22.298 13.6797 22.3685 13.5065 22.4148 13.2981C22.4602 13.075 22.5014 12.9035 22.5384 12.7838L22.9133 11.6815C23.037 11.2921 23.1349 10.963 23.207 10.6942C23.2937 10.4246 23.3391 10.2014 23.3433 10.0249C23.3457 9.81904 23.4494 9.71 23.6543 9.69776C23.8593 9.68551 24.0695 9.76111 24.285 9.92456C24.5151 10.0871 24.6367 10.2782 24.6498 10.4978C24.6533 10.5564 24.643 10.6305 24.619 10.7201C24.5683 10.8553 24.5189 11.0125 24.4709 11.1917C24.4228 11.3709 24.361 11.5656 24.2854 11.7758C24.0055 12.7476 23.8208 13.3463 23.7315 13.5721C23.7195 13.6168 23.6932 13.6698 23.6528 13.731C23.6115 13.7776 23.5926 13.8301 23.5961 13.8887C23.6582 13.9437 23.7844 13.9656 23.9747 13.9542C24.2382 13.9385 24.4552 13.8814 24.6256 13.7831L25.9213 13.7057C26.1488 13.8244 26.329 14.012 26.4619 14.2685L26.7388 13.3704C27.1845 11.9773 27.4249 11.0814 27.4598 10.6826C27.4898 10.4457 27.6317 10.2389 27.8856 10.0621C27.9761 10.1008 28.1036 10.1446 28.2681 10.1936C28.4473 10.2416 28.5912 10.3138 28.6998 10.4102C28.8075 10.4919 28.8808 10.6124 28.9197 10.7717C28.9138 10.919 28.8864 11.0749 28.8375 11.2395C28.7877 11.3894 28.7568 11.4867 28.7447 11.5315C28.7087 11.6659 28.5721 12.0855 28.335 12.7902C28.2981 12.9099 28.1985 13.2097 28.0361 13.6896C27.8876 14.154 27.7592 14.5877 27.651 14.9909C27.5567 15.3785 27.4962 15.7201 27.4698 16.0155C27.4373 16.2085 27.3802 16.4837 27.2987 16.8412C27.231 17.1832 27.1796 17.4287 27.1444 17.5777C27.1557 17.768 27.0629 17.9352 26.8658 18.0792Z" fill="#428DFC"></path> <path d="M30.4426 17.3146C30.3935 17.2294 30.315 17.1459 30.2073 17.0642C30.1133 16.9669 30.0655 16.9037 30.0637 16.8744C30.0541 16.7133 30.0101 16.5911 29.9316 16.5076C29.9006 16.4801 29.882 16.4151 29.8759 16.3126C29.8619 16.0783 29.9481 15.6765 30.1345 15.107C30.3346 14.522 30.598 13.8892 30.9247 13.2085C31.0073 13.1154 31.1079 12.9552 31.2265 12.7277C31.3598 12.4993 31.4476 12.3692 31.4897 12.3373C31.4862 12.2787 31.5051 12.2262 31.5464 12.1796C31.5869 12.1184 31.6364 12.0861 31.6949 12.0826L31.687 11.9508C31.6792 11.8191 31.9019 11.4899 32.3554 10.9632C32.8079 10.422 33.1822 10.047 33.4783 9.83828C33.8294 9.56753 34.1953 9.42078 34.576 9.39805C34.8395 9.38231 35.0708 9.44196 35.2699 9.57699C35.3483 9.66046 35.7039 9.95512 36.3365 10.461L37.1923 11.1371L36.8626 12.2588C36.7545 12.662 36.71 13.0246 36.7292 13.3467C36.7625 13.903 36.9554 14.4278 37.3081 14.921C37.391 15.0777 37.5465 15.2226 37.7749 15.3559C38.0033 15.4892 38.2281 15.5639 38.4495 15.5801C38.7751 15.6194 38.9457 15.7709 38.9615 16.0344C38.979 16.3272 38.8577 16.5107 38.5976 16.5851C38.54 16.6032 38.4526 16.6158 38.3354 16.6228C37.4716 16.6743 36.6887 16.1114 35.9865 14.9338C35.9227 14.8494 35.8326 14.6932 35.7161 14.4651C35.6143 14.2361 35.5534 14.0781 35.5335 13.9911C35.4527 14.1135 35.3512 14.2591 35.229 14.4281C35.1069 14.597 34.9908 14.7435 34.8806 14.8676C33.3801 16.5588 32.1687 17.4319 31.2463 17.487C30.9535 17.5044 30.6856 17.447 30.4426 17.3146ZM31.1598 16.0375C31.1641 16.1107 31.2387 16.1283 31.3833 16.0903C31.5426 16.0514 31.7286 15.9668 31.9412 15.8366C32.1684 15.7055 32.3935 15.5378 32.6164 15.3334C33.8108 14.1748 34.6621 13.1763 35.1703 12.3378L35.6062 11.5184C35.4415 11.2197 35.2746 11.0093 35.1057 10.8871C34.9359 10.7503 34.7851 10.6859 34.6534 10.6937C34.3459 10.7121 33.886 11.1289 33.2735 11.9442C32.6601 12.7449 32.1136 13.6811 31.634 14.753C31.5171 15.0097 31.4153 15.2729 31.3286 15.5426C31.2409 15.7976 31.1847 15.9626 31.1598 16.0375Z" fill="#428DFC"></path> <path d="M56.198 1.78134C56.2325 1.86744 56.283 1.97462 56.3494 2.10289C56.4296 2.21564 56.4482 2.28065 56.4051 2.29791C56.2839 2.48147 56.1354 2.57849 55.9597 2.58898C55.8718 2.59423 55.7827 2.57752 55.6922 2.53884C55.588 2.51568 54.9382 2.58388 53.743 2.74343C52.5623 2.9021 51.5724 3.05673 50.7733 3.20731C50.6459 3.28838 50.5349 3.39786 50.4403 3.53575C50.3595 3.65812 50.2666 3.82529 50.1617 4.03725C50.0835 4.20354 49.885 4.69292 49.5662 5.50537C49.2612 6.30231 49.0515 6.85112 48.9372 7.1518C48.8968 7.21298 48.8779 7.26554 48.8805 7.30946C48.8875 7.42658 49.1033 7.47247 49.5279 7.44711C49.6011 7.44273 49.72 7.46502 49.8845 7.51396C50.0482 7.54827 50.1735 7.55547 50.2605 7.53559C50.4051 7.49756 50.7833 7.55578 51.3949 7.71026C52.0065 7.86473 52.4037 7.99529 52.5864 8.10192C52.9965 8.3272 53.3176 8.53576 53.5494 8.72761C53.7804 8.90482 53.9769 9.12082 54.1391 9.37561C54.3375 9.74577 54.489 10.0673 54.5934 10.3402C54.6979 10.6132 54.7446 10.9042 54.7337 11.2134C54.7425 11.3598 54.7152 11.6406 54.6518 12.0558C54.5876 12.4563 54.5163 12.7398 54.4381 12.9061C54.1759 13.436 53.8396 13.9556 53.4293 14.465C53.2254 14.7416 52.9832 14.9912 52.7026 15.2136C52.4358 15.4206 52.1031 15.6315 51.7046 15.8463C51.2922 16.0766 51.0219 16.225 50.8937 16.2914C50.7645 16.3432 50.5553 16.4071 50.266 16.4832L49.3361 16.7811C49.1812 16.8933 49.0094 16.9696 48.8208 17.0103C48.646 17.0354 48.4195 17.0563 48.1413 17.0729L47.3947 17.1175C47.219 17.128 46.9968 17.0972 46.728 17.0251C46.4738 16.9521 46.2925 16.8674 46.1839 16.7711C46.0261 16.5895 45.8863 16.3407 45.7646 16.0247C45.642 15.6941 45.5859 15.4918 45.5961 15.4177L45.7508 13.5792C45.7895 13.4888 45.8178 13.3475 45.8357 13.1554C45.8536 12.9633 45.8819 12.8221 45.9206 12.7316C45.8954 12.5568 46.0468 11.8939 46.3748 10.743L46.519 10.2054C46.5498 9.98318 46.6421 9.68381 46.796 9.3073L46.9674 8.85628C47.0609 8.45399 47.1377 8.14085 47.1978 7.91687C47.2725 7.69202 47.349 7.49644 47.4272 7.33015C47.5201 7.16298 47.6292 6.89934 47.7546 6.53922L48.8745 3.51907C48.7238 3.45461 48.5837 3.3234 48.4543 3.12543C48.3241 2.91281 48.2537 2.71866 48.2432 2.54298L48.2406 2.49906C48.2371 2.44049 48.256 2.38794 48.2973 2.34139C48.3532 2.29398 48.4169 2.25344 48.4884 2.21979L49.1679 2.15716C49.3289 2.14754 49.4465 2.14787 49.5205 2.15814L49.5864 2.1542C49.645 2.1507 49.71 2.13213 49.7815 2.09847C49.8529 2.06482 49.9408 2.05957 50.045 2.08273C50.1639 2.10502 50.2599 2.11397 50.3331 2.1096C50.5088 2.09911 50.6676 2.05289 50.8097 1.97094L52.0356 1.8316C52.5161 1.75883 52.8515 1.71675 53.0418 1.70538C53.1004 1.70189 53.472 1.65031 54.1566 1.55064C54.8412 1.45098 55.2123 1.39208 55.27 1.37394C55.3277 1.3558 55.4078 1.34368 55.5103 1.33755C55.686 1.32706 55.8204 1.36311 55.9134 1.44571C56.0057 1.51366 56.1005 1.62554 56.198 1.78134ZM50.4526 8.53792C50.3044 8.51738 50.0017 8.49138 49.5443 8.45993C49.0861 8.41383 48.7545 8.39691 48.5495 8.40915C48.1853 9.44471 47.9182 10.2614 47.7482 10.8593C47.4357 12.024 47.2238 12.9035 47.1124 13.4979C47.0532 13.7365 47.0116 14.0255 46.9878 14.3649C46.964 14.7042 46.96 15.0057 46.9757 15.2692C46.9985 15.6498 47.0637 15.881 47.1714 15.9628C47.2886 15.9558 47.4862 15.944 47.7644 15.9273C48.0563 15.8952 48.3177 15.8429 48.5484 15.7703C49.5282 15.4473 50.2747 15.153 50.7877 14.8872C51.3155 14.6206 51.7978 14.2098 52.2348 13.6548C52.5764 13.223 52.824 12.8188 52.9779 12.4423C53.1463 12.0649 53.2674 11.6316 53.341 11.1423C53.3615 10.9942 53.3701 10.8908 53.3666 10.8323C53.3587 10.7005 53.3176 10.5046 53.2433 10.2446C53.1751 10.087 53.1293 9.93547 53.106 9.78994C52.9558 9.49036 52.8118 9.29326 52.6739 9.19865C52.5498 9.08852 52.4206 9.01543 52.2862 8.97938C52.1518 8.94333 52.0471 8.91285 51.9722 8.88794C51.7421 8.72537 51.2355 8.60869 50.4526 8.53792ZM50.4087 8.54054L50.4526 8.53792L50.4087 8.54054Z" fill="#428DFC"></path> <path d="M58.2433 15.8083C58.0986 15.8464 57.9677 15.8689 57.8506 15.8759C57.6603 15.8872 57.4837 15.8831 57.3209 15.8634C57.1573 15.8291 57.0737 15.7827 57.0702 15.7241C57.0676 15.6802 57.0585 15.6514 57.043 15.6376C57.0275 15.6238 56.9977 15.6183 56.9538 15.6209C56.9383 15.6071 56.8922 15.5732 56.8155 15.519C56.7388 15.4648 56.6479 15.4188 56.5428 15.381C56.3988 15.1839 56.3198 14.9682 56.3058 14.734C56.2909 14.4851 56.3336 14.0932 56.4339 13.5582C56.4498 13.0871 56.6345 12.4884 56.9878 11.762C57.3411 11.0356 57.7625 10.342 58.252 9.68093C58.7561 9.01903 59.213 8.55096 59.6227 8.27671C59.8292 8.04398 60.1008 7.91756 60.4375 7.89745C60.7011 7.88171 60.9539 7.93273 61.196 8.0505C61.408 8.15538 61.6321 8.34035 61.8683 8.6054C62.1191 8.86958 62.3192 9.14414 62.4685 9.42909C62.5401 9.6452 62.5821 9.85574 62.5943 10.0607C62.6075 10.2803 62.5987 10.6261 62.5681 11.0981C62.5107 11.366 62.464 11.692 62.4282 12.0762C62.407 12.4595 62.4047 12.7902 62.4214 13.0684C62.4043 13.2751 62.429 13.4426 62.4954 13.5708C62.561 13.6845 62.645 13.7382 62.7475 13.7321C62.8207 13.7277 62.8999 13.701 62.9851 13.6518C63.1272 13.5698 63.286 13.5236 63.4617 13.5131C63.6228 13.5035 63.7572 13.5396 63.8649 13.6213C63.9726 13.703 64.0317 13.8317 64.0422 14.0074C64.058 14.2709 63.8907 14.5454 63.5404 14.8308C63.2048 15.1153 62.8759 15.2672 62.5538 15.2864C62.3342 15.2995 62.1192 15.1434 61.9088 14.818C61.7121 14.4772 61.5097 14.0411 61.3017 13.5099L61.1398 13.0127L60.2492 13.9695L59.7743 14.5047C59.554 14.753 59.4306 14.8999 59.4039 14.9456C59.2595 15.2334 58.8726 15.521 58.2433 15.8083ZM58.2318 14.5087C58.5709 14.2828 58.9814 13.8983 59.4632 13.3553C59.945 12.8122 60.3403 12.2964 60.649 11.8078C61.067 11.1804 61.3171 10.5704 61.3993 9.97781C61.3302 9.80562 61.2246 9.63562 61.0823 9.4678C60.94 9.29998 60.8172 9.21182 60.7139 9.2033C60.4211 9.22079 60.1237 9.40752 59.8217 9.76349C59.5197 10.1195 59.167 10.6107 58.7637 11.2372L58.1032 12.3566C58.0224 12.4789 57.8875 12.8029 57.6985 13.3284C57.5086 13.8393 57.4167 14.146 57.4228 14.2485C57.4421 14.5706 57.5468 14.7259 57.7372 14.7146C57.8836 14.7058 58.0484 14.6372 58.2318 14.5087Z" fill="#428DFC"></path> <path d="M64.5552 20.9852C64.3907 20.9363 64.2218 20.8141 64.0485 20.6188C63.8761 20.4381 63.7859 20.2818 63.7781 20.1501C63.765 19.9305 63.8681 19.197 64.0874 17.9497C64.3077 16.7171 64.5341 15.7118 64.7668 14.9338C64.778 14.8744 64.8587 14.6272 65.009 14.1921C65.1594 13.757 65.2971 13.2345 65.4223 12.6247C65.5141 12.1931 65.7721 11.3475 66.1964 10.088L66.7389 8.46876L67.1613 7.05506C67.1983 6.93531 67.2653 6.82846 67.3626 6.73449C67.4736 6.62501 67.5721 6.55301 67.6582 6.51848C67.6866 6.50209 67.7374 6.49171 67.8106 6.48734C68.0156 6.4751 68.1983 6.58173 68.3587 6.80723C68.4079 6.89245 68.4351 6.97898 68.4403 7.06683C68.4491 7.21323 68.3783 7.50397 68.2279 7.93904L68.1004 8.38744L68.8805 8.16453C69.0855 8.15229 69.2543 8.14955 69.387 8.15632C69.914 8.12484 70.2443 8.11981 70.3778 8.14122C70.7008 8.13662 70.9312 8.18163 71.0691 8.27624C71.2216 8.36998 71.3703 8.52272 71.5152 8.73446C71.7936 8.96761 71.9531 9.17847 71.9938 9.36705C72.0335 9.54099 72.0565 9.6792 72.0626 9.78169C72.0906 10.2502 71.9804 10.7416 71.7319 11.256C71.4826 11.7558 71.1751 12.1415 70.8093 12.4131C70.6664 12.4804 70.5454 12.5464 70.4464 12.6111C70.3475 12.6758 70.2838 12.7163 70.2554 12.7327C70.2331 12.8516 69.9077 13.062 69.2793 13.364C68.6646 13.6505 68.154 13.8353 67.7476 13.9183C67.6029 13.9563 67.4354 13.981 67.2451 13.9924C67.0841 14.002 66.9583 13.9875 66.8678 13.9488C66.6904 13.93 66.5724 13.9224 66.5138 13.9259C66.4699 13.9285 66.4497 13.9591 66.4532 14.0177C66.1519 15.1229 65.9108 16.1291 65.7299 17.0362C65.3102 18.6187 65.0264 19.6494 64.8787 20.1284C64.7319 20.622 64.6241 20.9076 64.5552 20.9852ZM66.8163 12.7177C66.8345 12.7754 66.9167 12.7999 67.0632 12.7911C67.3706 12.7728 67.8308 12.6057 68.4437 12.2899C69.0704 11.9586 69.5576 11.6283 69.9052 11.299C70.1908 10.9146 70.4072 10.6005 70.5542 10.3566C70.715 10.0973 70.7915 9.90168 70.7836 9.76992C70.7801 9.71136 70.7474 9.65454 70.6853 9.59948C70.5258 9.38862 70.2557 9.29455 69.875 9.31729C69.3919 9.34614 68.8245 9.56369 68.1729 9.96993C67.8862 10.0899 67.6823 10.2417 67.561 10.4252C67.4535 10.5933 67.3559 10.8048 67.2683 11.0598C67.1807 11.3148 67.1115 11.51 67.0608 11.6452C66.8598 12.2156 66.7783 12.573 66.8163 12.7177Z" fill="#428DFC"></path> <path d="M74.847 14.7285C74.5869 14.8028 74.2966 14.7393 73.9761 14.5381C73.6555 14.3368 73.4581 14.1062 73.3838 13.8461C73.3656 13.7885 73.3526 13.6937 73.3447 13.562C73.3124 13.0203 73.4758 12.3126 73.835 11.439C74.208 10.5498 74.6732 9.72861 75.2306 8.97537C75.7872 8.20748 76.3087 7.71351 76.7951 7.49345C77.0929 7.31404 77.2857 7.22172 77.3736 7.21647C77.4614 7.21122 77.6639 7.27994 77.9809 7.42262C78.1894 7.46894 78.3471 7.52564 78.4539 7.59273C78.5608 7.65981 78.7013 7.79834 78.8755 8.00833C79.0885 8.37762 79.2556 8.83781 79.3767 9.3889C79.4829 9.69111 79.5399 9.90809 79.5478 10.0399C79.5548 10.157 79.517 10.2621 79.4344 10.3552C79.4206 10.3707 79.3931 10.4017 79.3518 10.4483C79.3251 10.4939 79.3127 10.5314 79.3144 10.5607C79.3153 10.5753 79.3304 10.5818 79.3597 10.58C79.3605 10.5947 79.3554 10.6317 79.3442 10.6912C79.3322 10.7359 79.3069 10.8036 79.2682 10.894C79.1258 11.4609 79.0663 11.9419 79.0899 12.3372C79.0978 12.469 79.1208 12.6072 79.1588 12.7519C79.3279 13.1238 79.5882 13.2992 79.9396 13.2783C80.2324 13.2608 80.5027 13.1124 80.7505 12.8331C80.9751 12.6581 81.1369 12.5382 81.2359 12.4735C81.3486 12.3933 81.4081 12.4045 81.4142 12.507C81.4297 12.5207 81.4603 12.5409 81.506 12.5676C81.5516 12.5943 81.5964 12.6063 81.6404 12.6037C81.7428 12.5975 81.798 12.6604 81.8059 12.7921C81.8138 12.9239 81.7713 13.0734 81.6784 13.2405C81.582 13.3491 81.5068 13.4418 81.4526 13.5185C81.3984 13.5952 81.3726 13.6555 81.3752 13.6994L81.0642 14.0265C80.7956 14.2042 80.471 14.3044 80.0904 14.3271C79.6951 14.3507 79.3755 14.289 79.1316 14.142C78.9179 14.0078 78.7076 13.8073 78.5006 13.5405C78.2937 13.2737 78.1544 13.0323 78.0827 12.8162L77.9598 12.6031L77.3478 13.0584C77.2102 13.2135 77.051 13.3773 76.8703 13.5497C76.6887 13.7075 76.5704 13.8174 76.5153 13.8795C76.4069 14.0329 76.3088 14.1122 76.221 14.1175L76.0014 14.1306C76.0075 14.2331 75.8681 14.3589 75.5831 14.5082C75.312 14.6419 75.0666 14.7154 74.847 14.7285ZM74.5565 13.5557C74.7176 13.5461 75.1139 13.2947 75.7457 12.8015C76.3765 12.2936 76.7732 11.9246 76.9358 11.6945L77.5333 10.9977C77.7518 10.7201 77.9169 10.4091 78.0285 10.0645C78.1548 9.71901 78.2097 9.40718 78.1931 9.12901C78.1782 8.88012 78.1311 8.70662 78.0518 8.60851C77.9827 8.43632 77.8896 8.35372 77.7725 8.36072C77.7139 8.36422 77.5486 8.42552 77.2766 8.54461C77.0089 8.73692 76.6377 9.16314 76.1628 9.82329C75.7027 10.4826 75.295 11.1607 74.94 11.8578C74.584 12.5403 74.4152 13.0352 74.4336 13.3427C74.4362 13.3866 74.4535 13.4296 74.4854 13.4718C74.5173 13.514 74.541 13.5419 74.5565 13.5557Z" fill="#428DFC"></path> <path d="M84.0228 14.7975C83.9324 14.7588 83.7816 14.6944 83.5705 14.6041C83.3732 14.4984 83.2207 14.4046 83.1129 14.3229C82.6191 13.9263 82.3516 13.384 82.3105 12.6959C82.2939 12.4177 82.3126 12.1154 82.3665 11.7889C82.4196 11.4478 82.4448 11.2553 82.4422 11.2114C82.4206 11.0951 82.4424 10.9689 82.5078 10.8328C82.5722 10.682 82.6173 10.5765 82.6431 10.5162C82.9147 9.89753 83.1498 9.40597 83.3485 9.04148C83.5471 8.67699 83.8378 8.25557 84.2206 7.77723C84.2628 7.74532 84.3325 7.68239 84.4297 7.58842C84.527 7.49446 84.6186 7.43021 84.7047 7.39569L85.2321 7.73885C85.3115 7.83696 85.3537 7.92994 85.359 8.01778C85.3616 8.06171 85.3518 8.1431 85.3295 8.26198C85.2574 8.53075 85.1878 8.71857 85.1207 8.82543C84.9547 8.99697 84.8119 9.18916 84.6923 9.40199C84.5866 9.59932 84.4817 9.81128 84.3777 10.0379C84.2875 10.249 84.2166 10.4148 84.165 10.5355C84.1702 10.6233 84.1182 10.7366 84.009 10.8754C83.9144 11.0132 83.8697 11.1261 83.8749 11.214C83.8828 11.3457 83.8515 11.5606 83.7812 11.8587C83.7047 12.0543 83.6752 12.2985 83.6927 12.5913L83.7527 13.2268C83.9026 13.2766 83.9995 13.3002 84.0435 13.2976C84.1606 13.2906 84.2811 13.2173 84.405 13.0777C84.6838 12.8259 84.8761 12.6014 84.9818 12.4041C85.1022 12.2059 85.2054 11.9646 85.2912 11.6803C85.3308 11.6045 85.3626 11.5218 85.3866 11.4322C85.4244 11.3271 85.4695 11.2216 85.522 11.1156C85.6647 10.7985 85.7797 10.3876 85.8671 9.88281C85.9683 9.36252 86.0092 8.94133 85.99 8.61923C85.9821 8.48747 85.9695 8.40006 85.9523 8.35701L85.9496 8.31309L85.9559 8.04825C85.9498 7.94577 85.9006 7.86055 85.8084 7.79259C85.8634 7.73053 85.8853 7.60434 85.8739 7.41401C85.8652 7.2676 85.834 7.11519 85.7805 6.95677C85.7407 6.78283 85.6967 6.66057 85.6484 6.58999C85.5607 5.86059 85.5034 5.26895 85.4762 4.8151C85.4395 4.20019 85.4515 3.66319 85.5123 3.20408C85.5234 3.14465 85.6094 2.98524 85.7702 2.72585C85.9302 2.45183 86.0721 2.245 86.196 2.10536C86.4326 1.88553 86.7593 1.69705 87.176 1.53992C87.5927 1.3828 87.963 1.30926 88.2868 1.3193C88.2731 1.33482 88.3467 1.33777 88.5077 1.32815C88.8738 1.30629 89.297 1.25897 89.7775 1.18619C89.9368 1.14729 90.0669 1.11013 90.1676 1.07473C90.2821 1.02382 90.4594 0.917721 90.6996 0.756449C90.7555 0.709029 90.7981 0.684445 90.8274 0.682696C90.8704 0.665432 90.9217 0.662372 90.9811 0.673514L91.6042 1.1432C91.6149 1.56865 91.5235 1.88266 91.3299 2.08523C91.1509 2.28693 90.7997 2.43279 90.2761 2.52284L89.9454 2.52055C89.8868 2.52405 89.7999 2.54394 89.6845 2.58021C89.6561 2.5966 89.6199 2.60611 89.576 2.60873C89.5174 2.61223 89.4511 2.60885 89.377 2.59858C89.3021 2.57367 89.2353 2.56296 89.1768 2.56646C89.0596 2.57346 88.9361 2.59553 88.8061 2.63268C88.6752 2.65519 88.5438 2.67038 88.4121 2.67825C88.2803 2.68612 88.1847 2.68449 88.1253 2.67334C87.5501 2.88401 87.1382 3.12166 86.8896 3.38629C86.6409 3.65092 86.5328 4.05408 86.5651 4.59578C86.6119 4.88685 86.6941 5.27864 86.8116 5.77118C86.9827 6.42213 87.0819 6.97454 87.109 7.4284C87.1289 7.51537 87.1561 7.6019 87.1906 7.68799C87.2242 7.75945 87.2424 7.81714 87.245 7.86106C87.2494 7.93426 87.2309 7.99413 87.1896 8.04068C87.2847 8.40232 87.3401 8.71491 87.3558 8.97844C87.3751 9.30053 87.346 9.55204 87.2687 9.73298C87.2593 9.8217 87.2487 10.0133 87.2369 10.3079C87.2397 10.6016 87.1831 10.8841 87.0671 11.1555C86.7199 11.9844 86.3855 12.6582 86.0639 13.1769C85.756 13.6802 85.3632 14.115 84.8855 14.4815C84.8012 14.5453 84.6652 14.6049 84.4775 14.6602C84.2898 14.7155 84.1382 14.7612 84.0228 14.7975Z" fill="#428DFC"></path> <path d="M89.3981 13.7932C89.3489 13.708 89.2705 13.6245 89.1628 13.5428C89.0688 13.4456 89.0209 13.3823 89.0192 13.353C89.0096 13.192 88.9655 13.0697 88.8871 12.9863C88.8561 12.9587 88.8375 12.8937 88.8314 12.7912C88.8174 12.557 88.9036 12.1551 89.0899 11.5857C89.2901 11.0007 89.5535 10.3679 89.8802 9.68719C89.9627 9.5941 90.0634 9.43382 90.182 9.20634C90.3153 8.97798 90.403 8.84786 90.4452 8.81595C90.4417 8.75739 90.4606 8.70484 90.5019 8.65829C90.5423 8.5971 90.5918 8.56476 90.6504 8.56126L90.6425 8.4295C90.6347 8.29773 90.8574 7.96853 91.3108 7.4419C91.7634 6.90062 92.1377 6.52564 92.4338 6.31694C92.7849 6.04619 93.1508 5.89945 93.5315 5.87671C93.795 5.86097 94.0263 5.92062 94.2254 6.05566C94.3038 6.13913 94.6593 6.43379 95.292 6.93964L96.1478 7.61581L95.8181 8.73747C95.7099 9.14063 95.6655 9.50326 95.6847 9.82536C95.7179 10.3817 95.9109 10.9065 96.2636 11.3996C96.3464 11.5563 96.502 11.7013 96.7304 11.8346C96.9587 11.9679 97.1836 12.0426 97.4049 12.0588C97.7305 12.0981 97.9012 12.2495 97.9169 12.513C97.9344 12.8059 97.8132 12.9894 97.5531 13.0637C97.4954 13.0819 97.408 13.0944 97.2909 13.1014C96.4271 13.153 95.6441 12.59 94.942 11.4125C94.8782 11.3281 94.7881 11.1719 94.6716 10.9437C94.5698 10.7147 94.5089 10.5568 94.489 10.4698C94.4082 10.5922 94.3067 10.7378 94.1845 10.9067C94.0624 11.0756 93.9462 11.2222 93.8361 11.3463C92.3356 13.0374 91.1242 13.9105 90.2018 13.9656C89.909 13.9831 89.6411 13.9257 89.3981 13.7932ZM90.1152 12.5162C90.1196 12.5894 90.1941 12.607 90.3388 12.569C90.4981 12.5301 90.684 12.4455 90.8967 12.3153C91.1239 12.1841 91.349 12.0164 91.5719 11.8121C92.7662 10.6535 93.6175 9.65497 94.1258 8.81651L94.5617 7.99706C94.3969 7.69835 94.2301 7.48792 94.0612 7.36578C93.8914 7.22899 93.7406 7.16453 93.6088 7.1724C93.3014 7.19077 92.8414 7.6076 92.2289 8.4229C91.6156 9.22356 91.0691 10.1598 90.5895 11.2316C90.4726 11.4884 90.3708 11.7516 90.284 12.0213C90.1964 12.2763 90.1402 12.4413 90.1152 12.5162Z" fill="#428DFC"></path> <path d="M100.224 13.3009C99.9547 13.2288 99.7126 13.111 99.4972 12.9476C99.2808 12.7695 99.1433 12.5573 99.0845 12.3111C99.0655 12.2387 99.0309 12.1527 98.9809 12.0528C98.9446 11.9374 98.9316 11.8427 98.9419 11.7686C99.0902 11.0545 99.2438 10.4282 99.4027 9.88979C99.5607 9.33673 99.757 8.81075 99.9917 8.31187L100.066 8.08702C100.183 7.58049 100.366 7.07003 100.614 6.55564C100.654 6.47981 100.71 6.32215 100.784 6.08266C100.81 6.02234 100.841 5.93232 100.878 5.81257C100.914 5.67818 100.946 5.59547 100.974 5.56444C101.069 5.44119 101.168 5.37651 101.271 5.37039C101.461 5.35902 101.653 5.4945 101.846 5.77681C102.053 6.04362 102.192 6.29239 102.265 6.52314C101.889 7.11861 101.5 7.98668 101.098 9.12735C100.695 10.2534 100.415 11.2105 100.256 11.9987C100.365 12.095 100.551 12.1353 100.814 12.1196C101.034 12.1065 101.23 12.0654 101.402 11.9963C101.548 11.9876 101.781 11.9443 102.099 11.8665C102.52 11.768 102.855 11.7186 103.104 11.7183C103.13 11.658 103.139 11.5693 103.132 11.4522L103.123 11.2985C103.115 11.1667 103.132 11.0702 103.172 11.009C103.345 10.7049 103.489 10.2849 103.604 9.74907C103.696 9.33213 103.838 8.74334 104.027 7.98268C104.217 7.22202 104.346 6.79558 104.414 6.70336C104.483 6.64043 104.604 6.57443 104.776 6.50538C104.942 6.56896 105.048 6.6214 105.094 6.6627C105.156 6.70312 105.211 6.76595 105.26 6.85117C105.309 6.93639 105.381 7.03493 105.476 7.14681L105.525 7.60668C105.532 7.7238 105.53 7.80476 105.518 7.84956C105.462 7.89698 105.349 8.21962 105.179 8.81749C105.023 9.39984 104.941 9.75001 104.933 9.86801C104.827 10.0507 104.745 10.2833 104.688 10.5659C104.591 10.8949 104.502 11.1353 104.423 11.287L104.391 11.4872L104.978 11.364C105.397 11.2361 105.746 11.1712 106.025 11.1692C106.332 10.9011 106.476 10.6133 106.458 10.3059C106.525 10.199 106.675 9.75663 106.908 8.97871C107.155 8.19991 107.276 7.76659 107.271 7.67874C107.406 7.47967 107.495 7.24662 107.538 6.97959C107.594 6.69705 107.628 6.51874 107.638 6.44466C107.881 6.32731 108.03 6.24493 108.086 6.19751C108.432 6.33844 108.709 6.54963 108.917 6.83107L108.994 7.37747C108.784 7.8014 108.627 8.25155 108.524 8.72791C108.419 9.18964 108.261 9.75003 108.051 10.4091C107.855 11.0673 107.668 11.6148 107.488 12.0516C107.475 12.0817 107.463 12.1192 107.451 12.164C107.439 12.2088 107.412 12.2618 107.372 12.323C107.264 12.4764 107.173 12.5626 107.101 12.5816C106.986 12.6179 106.875 12.6171 106.77 12.5793C106.664 12.5269 106.566 12.474 106.474 12.4207C106.397 12.3665 106.344 12.3329 106.314 12.3201L106.292 12.3214C106.219 12.3257 106.068 12.3935 105.841 12.5246C105.767 12.5143 105.679 12.5123 105.576 12.5184C105.489 12.5236 105.394 12.544 105.294 12.5794C105.207 12.5992 105.119 12.6118 105.031 12.6171C104.724 12.6354 104.062 12.7484 103.046 12.956C102.9 12.9794 102.566 13.0434 102.044 13.1481C101.536 13.2519 101.121 13.3135 100.798 13.3327C100.55 13.3476 100.358 13.337 100.224 13.3009Z" fill="#428DFC"></path> </svg> 