<?xml version="1.0" encoding="UTF-8"?> <!-- Generator: Adobe Illustrator 23.1.1, SVG Export Plug-In . SVG Version: 6.00 Build 0) --> <svg xmlns="http://www.w3.org/2000/svg" xmlns:xlink="http://www.w3.org/1999/xlink" id="Layer_2" x="0px" y="0px" viewBox="0 0 1000 1000" style="enable-background:new 0 0 1000 1000;" xml:space="preserve"> <style type="text/css"> .st0{opacity:0.2;fill:none;stroke:#428DFC;stroke-width:5.55;stroke-miterlimit:10;} .st1{opacity:0.2;fill:#428DFC;} .st2{fill:#428DFC;} .st3{fill:#2E2E2E;} .st4{fill:none;stroke:#000000;stroke-width:5.55;stroke-miterlimit:10;} .st5{fill:#D7E8F0;} .st6{fill:none;} .st7{clip-path:url(#SVGID_2_);} .st8{fill:none;stroke:#CCDDE2;stroke-width:3.69;stroke-miterlimit:10;} </style> <path class="st0" d="M153.3,639.9c-8.9-8.1-17.1-17-24.5-26.6c-23.3-31.2-33.8-70.3-29.3-109c5.1-41.9,28.7-85.4,67.1-104.7 c41-20.6,91.8-16.4,128.2-47c30.4-25.6,41.1-67.2,63.3-99.3c19-27.4,42-52.3,69.9-70.8c75.4-50,168-37.4,247.7-4.6 c39.1,16.1,68.8,36.8,91.3,59.8c0,0,90.8,87.3,55.4,252.3"></path> <circle class="st1" cx="469.4" cy="342" r="18.6"></circle> <ellipse transform="matrix(0.1602 -0.9871 0.9871 0.1602 98.7419 796.6571)" class="st1" cx="517.5" cy="340.3" rx="18.6" ry="18.6"></ellipse> <path class="st0" d="M238.1,740.9c29.6,104.1-8.9,148.1-8.9,148.1"></path> <path class="st2" d="M716.7,447.3c-3.3-12.1-9.6-23.1-18.3-32.2c-17-18.1-42.1-28.7-67-27.9c-17.5,0.6-40.4,4.6-54.7-8.2 c-7.5-6.7-9.1-17.5-12-26.6c-3.2-10.2-5.9-20.6-8-31.1c-1.9-10-5.5-19.6-10.7-28.3c-5.6-9.5-13.4-17.4-22.9-23 c-17.8-10.3-42.5-11.2-60.4-0.7c-2.5,1.5-4.9,3.3-7.2,5.2c-0.5,0.4-1,0.9-1.5,1.4c-15.5,14.3-22.9,37.3-22.5,58c0,0,0,1.3,0,3.5 c0,1.2,0,2.3,0,3.2c0,1.9,0.1,4.1,0,6.5c0.8,12.1,2.8,64.3-19.7,92.2c10.9-3.4,22-6.5,33.2-9l0,0c0,0,0.1,0,0.1,0 c1.2-0.6,12.3-6.5,19.8-4c2.9,1,5.1,3.3,5.9,6.2c0,0.1,0,0.1,0.1,0.2c0.1,0.4,0.2,0.7,0.3,1.1c0.1,0.4,0.2,0.7,0.3,1.1 c0.9,2.9,2.2,5.6,3.8,8.2c0.2,0.4,0.5,0.8,0.8,1.1c1.6,2.1,3.4,3.9,5.5,5.5c-0.8-0.8-1.6-1.6-2.5-2.5c-5.8-5.8-8.7-13.9-7.7-22.1 c0,0,1.9,2.2,5.6,0.1s-1.9-20.8-3.4-26.4c-0.5-2.1,2.5-1.8,7.3-0.6c-3.5-2.4-6.6-5.1-9.4-8.3c-1.9-2.1-3.7-4.4-5.3-6.9 c-6.8-10.6-9.4-18.8-10.8-28.8l0,0c-6.6-7.4-6.2-18.7,1-25.6c0.1-0.1,0.2-0.2,0.3-0.3c2.1-2.8,6.5-3.8,9.4-5.8c3-2.3,5.7-5,8-8.1 c2.6-3.5,7-8.5,6.6-13.2c1.2,12.6,12.1,21,24.2,21.3c2.9,0,5.8-0.2,8.7-0.5c0,0,0,0,0.1,0c1.2-0.3,2.5-0.4,3.8-0.4 c6,0,11.7,2.9,15.2,7.9c0.2,0.2,0.3,0.4,0.5,0.7c0.2,0.3,0.4,0.7,0.7,1.1c0.7,1.1,1.3,2.2,1.8,3.5c2.8,7.1,2.5,15,2.1,22.5 c-0.7,11-3.2,22.5-9.3,32c0.6-0.5,1.3-0.7,2.1-0.6c4.8,0.8,1.4,31.5,6.6,33.1s5,5.7,5,5.7c0,0.7-0.1,1.4-0.2,2.1 c0.5-2.5,0.7-5.1,0.5-7.7c1.5,0.1,3.1,0.2,4.7,0.5c8.8-3,26,6.4,26,6.4c0,0,0.1,0,0.1,0c41.3,15.9,69.5,55.8,79,100.3 c3.5,16,5.3,32.3,5.4,48.7V496c0-4.3,3.5-7.8,7.7-7.8c0,0,0,0,0,0h53.2C717.7,474.4,720.3,460.9,716.7,447.3z M503.1,459.4 c1.4,0.4,2.9,0.7,4.4,1c0.9,0,1.9-0.1,2.8-0.2c7.1-0.8,13.9-3.7,19.3-8.4c-5.3,3.8-12,6.1-19.8,7C507.2,459.1,505,459.3,503.1,459.4 z M524.2,394.8c-5.1,5.2-11.8,8.6-19,9.6c1.4,0.2,2.7,0.4,4.1,0.4C516.4,404.9,520.8,399.4,524.2,394.8z"></path> <path class="st3" d="M635.6,673.5c-2.6,6.9-4.4,10.8-4.4,10.8C631.9,717,611.8,792,611.8,792c-26.8,2.4-50.5,1.9-71.5-0.8 C593.9,751,620.3,707.3,635.6,673.5z"></path> <path class="st3" d="M655.2,583.8c-66.6-25-107.4,11.3-107.4,11.3c-0.1,97.7-83.8,151.8-102.4,162.6c-47.4-31.8-60.5-73.5-60.5-73.5 l4.3-5c3-8.4,10.7-34.4,13.2-59.4c2.4-23.7-0.3-46.5-0.5-53c-0.4-13.2-6.4-10.2-13.4-7.7s-39.6,3.3-39.6,3.3 C385,542.2,366.3,456,366.3,456l78.6-25.6c0,0,22.2-12.5,26.1,3.5s19.4,23,36.3,26.6s32.6-15.9,34.7-31.7s31,0,31,0 C644.3,464.2,658.6,528.6,655.2,583.8z"></path> <path class="st2" d="M119.1,900.6c0,0,61.2-6.7,71.8,0c0,0,1.9,13.9-7.4,31.1s-20.8,5.4-82.6,9.3c0,0-50.2,4-50.8-14.4 s22.8-20.9,36.5-21.1S119.1,900.6,119.1,900.6z"></path> <path class="st4" d="M350,882.9h-0.7"></path> <path class="st4" d="M319.8,489.9c21.9-9.4,37.5-33.3,51-51.8c9-12.3,20-28.3,29-40.6c8.8-11.9,26.4-33,31-47 c0.2-0.6,0.4-1.2,0.6-1.8"></path> <path class="st4" d="M400.1,557.1c-25,5.2-136.1,23.4-148.8-57.6c-14.4-91.4,132.1-126.1,144.1-153.8S395,288,426.7,274 c14-6.2,23.8-4.9,27.2,1.9"></path> <path class="st4" d="M191,906.6c11.9-56.1,39.2-170,76.4-225.2"></path> <path class="st4" d="M395.8,541.2c10.2,31.3,15.5,80.7-10.1,147.9"></path> <path class="st2" d="M202.6,957.6h-35.3c-11.2-0.1-20.3-9.2-20.4-20.4c0-0.9,0.1-1.9,0.2-2.8l0,0c0.7-1.6,1.2-3.4,1.5-5.1 c0.6-3.4,0.7-5.3,6.8-8.5c3.8-2,7.8-3.7,11.9-5.2c0.8-0.3,1.6-0.6,2.4-0.9c3.2-1.2,7.6-2.8,12.7-4.8c1.3-0.5,2.6-1,4-1.5 s3.1-1.2,4.7-1.8c23.6-8.8,57.2-21.3,79.2-29.5h0.1c1.1-0.2,2.2-0.3,3.3-0.3c10.6,0,19.2,8.6,19.2,19.2 C292.8,896,159.5,933.9,202.6,957.6z"></path> <path class="st4" d="M256,700.6c15.8,41.6,26,93.4,72.6,156.6"></path> <path class="st4" d="M546.9,577.6c7.2,69.7-28.8,144.2-122.6,191.7c-29.6,15-57.2,35-77.8,61.1c-5.7,7.3-10.9,15-15.6,23 c-3.5,6-11.7,17-7.9,24.3c2,3.8,5.3,5.2,9.4,5.2c11.2,0,22.6-28.5,31.4-41.1"></path> <path class="st4" d="M384.2,849.6c0,0-20.2,32.9-34.2,33.3s-4.1-10.8-4.1-10.8"></path> <path class="st4" d="M480.1,423.9c-44.3,6-88.6,20.5-127.8,38.1"></path> <path class="st4" d="M398.6,860.6c-0.1,0.1-0.2,0.3-0.3,0.4c-1.7,2.3-3.5,4.7-5.5,7c-4.7,5.7-10.2,11.1-17.2,13.4 c-5.6,1.9-16.9,0.4-10.4-7.5"></path> <path class="st4" d="M364.2,875.4c-0.2,0-0.5,0.1-0.7,0.2"></path> <path class="st4" d="M534.6,853.1c-22.4,0.1-43.5,1.2-63,3c-17.9,1.6-27,2.7-42.4,5.3"></path> <path class="st4" d="M393,868.2c-0.6,0.1-1.2,0.2-1.8,0.4l0,0"></path> <path class="st4" d="M343.7,881.5c-15.6,4.9-30.8,10.8-45.6,17.7c-0.5,0.3-1,0.4-1.6,0.4c-2,0-3.7-1.7-3.7-3.7 c0-10.6-8.6-19.2-19.2-19.2c-1.1,0-2.2,0.1-3.3,0.3h-0.1c-1.1,0.2-2.2,0.6-3.3,1L191,906.6c-1.6,0.6-3.1,1.2-4.7,1.8s-2.7,1-4,1.5 c-5.1,1.9-9.5,3.6-12.7,4.8c-0.9,0.3-1.6,0.6-2.4,0.9l-5.2,1.9c-2.4,0.6-4.7,1.7-6.7,3.2c-3,2.1-5.4,5.1-6.8,8.5 c-0.8,1.6-1.2,3.4-1.5,5.1l0,0c-0.1,0.9-0.2,1.9-0.2,2.8c0.1,11.2,9.2,20.3,20.4,20.4h479c28.3-0.1,51.2-23.1,51.2-51.4 c0-16.1-7.6-31.2-20.5-40.9l-51.9-40.5c-9.1-7.1-17-22-13.3-32.9c11.6-34.8,18.1-71.1,19.4-107.7"></path> <path class="st4" d="M147,939.4H64.3c-7.9,0-14.3-6.3-14.3-14.2c0,0,0,0,0,0c0-7,7.2-14.8,14.1-16l59.9-9.3 c-3.9-149.5,23-267.8,53.4-320c9.2-15.9,23.9-27,40.6-33.2c37.5-13.8,79.5,2.2,100.7,36l26.1,41.6l32.8,52.4 c0.3,0.4,0.6,0.9,0.9,1.3l13.4,17.9"></path> <path class="st4" d="M411.9,439.3c22.9-17,19.5-105.5,19.5-105.5c-0.4-21.3,7.5-45.1,24.1-59.3c2.3-1.9,4.7-3.7,7.2-5.2 c17.9-10.5,42.6-9.6,60.4,0.7c9.5,5.6,17.3,13.5,22.9,23c5.2,8.7,8.8,18.3,10.7,28.3c2.1,10.5,4.8,20.9,8,31.1 c2.8,9,4.4,19.9,11.9,26.6c14.4,12.9,37.2,8.8,54.7,8.2c24.8-0.8,49.9,9.9,67,27.9c8.7,9,15,20.1,18.3,32.1 c3.6,13.6,1,27.1,1.9,40.9"></path> <polyline class="st4" points="484.3,442.2 479,418.9 471.5,389.9 "></polyline> <circle class="st4" cx="499" cy="379" r="7.1"></circle> <path class="st5" d="M825.1,698.7c0,11.8-9.5,21.3-21.2,21.3c0,0,0,0-0.1,0c-2.6,0-5.1-0.5-7.5-1.4c-8.3-8.3-8.3-21.8,0.1-30.1 c4-4,9.4-6.2,15-6.2c2.6,0,5.1,0.5,7.5,1.4C822.8,687.6,825.1,693,825.1,698.7z"></path> <path class="st5" d="M825.1,562.5c0,11.8-9.5,21.3-21.3,21.3c0,0,0,0,0,0c-7,0.9-13.4-4.1-14.2-11.1c-0.2-1.8-0.1-3.6,0.5-5.3 c0-11.8,9.5-21.3,21.3-21.3c0,0,0,0,0,0c2.6,0,5.2,0.5,7.6,1.4C822.9,551.5,825.1,556.9,825.1,562.5z"></path> <path class="st5" d="M825.1,842.2c0,11.8-9.5,21.3-21.3,21.3c0,0,0,0,0,0c-2.6,0-5.1-0.5-7.5-1.4c-8.3-8.3-8.3-21.8,0.1-30.1 c4-4,9.4-6.2,15-6.2c2.6,0,5.1,0.5,7.5,1.4C822.8,831.2,825.1,836.6,825.1,842.2z"></path> <path class="st2" d="M825.1,698.7c0,11.8-9.5,21.3-21.2,21.3c0,0,0,0-0.1,0c-2.6,0-5.1-0.5-7.5-1.4c-8.3-8.3-8.3-21.8,0.1-30.1 c4-4,9.4-6.2,15-6.2c2.6,0,5.1,0.5,7.5,1.4C822.8,687.6,825.1,693,825.1,698.7z"></path> <path class="st2" d="M825.1,562.5c0,11.8-9.5,21.3-21.3,21.3c0,0,0,0,0,0c-7,0.9-13.4-4.1-14.2-11.1c-0.2-1.8-0.1-3.6,0.5-5.3 c0-11.8,9.5-21.3,21.3-21.3c0,0,0,0,0,0c2.6,0,5.2,0.5,7.6,1.4C822.9,551.5,825.1,556.9,825.1,562.5z"></path> <path class="st2" d="M825.1,842.2c0,11.8-9.5,21.3-21.3,21.3c0,0,0,0,0,0c-2.6,0-5.1-0.5-7.5-1.4c-8.3-8.3-8.3-21.8,0.1-30.1 c4-4,9.4-6.2,15-6.2c2.6,0,5.1,0.5,7.5,1.4C822.8,831.2,825.1,836.6,825.1,842.2z"></path> <circle class="st4" cx="469.4" cy="342" r="18.6"></circle> <ellipse transform="matrix(0.1602 -0.9871 0.9871 0.1602 98.7419 796.6571)" class="st4" cx="517.5" cy="340.3" rx="18.6" ry="18.6"></ellipse> <path class="st4" d="M488,342c0,0,4.2-6.9,11-1.6"></path> <path class="st4" d="M455.5,354.2c1.4,10.1,4,18.3,10.8,28.9c7.1,11,19.9,21.6,33.4,21.6c11.6,0.2,22.5-5.6,28.8-15.5 c6.1-9.4,8.7-20.9,9.3-32c0.4-7.5,0.6-15.4-2.1-22.5c-3-7.7-10-13-18.4-12.9c-4.1,0.1-8.2,0.8-12.3,0.7 c-12.1-0.4-23.1-8.7-24.2-21.4c0.4,4.6-4,9.7-6.6,13.2c-2.3,3-5,5.7-8,8c-2.9,2.1-7.6,3.1-9.6,6.1"></path> <path class="st4" d="M697.5,909.1h244.7c4.3,0,7.8-3.5,7.8-7.8V496c0-4.3-3.5-7.8-7.8-7.8c0,0,0,0,0,0H665.3c-4.3,0-7.8,3.5-7.8,7.7 c0,0,0,0,0,0v354.1"></path> <rect x="657.6" y="627.7" class="st4" width="292.4" height="141.9"></rect> <path class="st4" d="M542.2,419c2.3,20.6-12.1,39-32.1,41.3s-38.1-12.6-40.4-33.2"></path> <path class="st4" d="M532,382.7l4.1,38.7l0,0c2,0.1,4,0.2,6,0.4c58.2,4.6,98.2,52.4,110,107.3c3.5,16,5.3,32.3,5.4,48.7 c0.1,20.9-2.8,41.8-8.5,61.9c-5.7,19.6-13.9,38.5-24.2,56.1c-10.6,17.9-22.9,34.7-36.9,50.1c-14.4,15.8-30,30.5-46.7,43.8 c-13.6,10.9-27.8,20.8-42.2,30.6c-12.9,8.7-27,15.3-40.4,23c-14,8-27.6,16.6-40.9,25.7c-7.1,4.9-15.8,9.5-24.1,4.7 c-2.3-1.3-2-3.5-0.7-5.9c1.5-2.7,4.2-5.5,5.5-7"></path> <circle class="st4" cx="803.8" cy="698.7" r="21.3"></circle> <circle class="st4" cx="803.8" cy="562.5" r="21.3"></circle> <circle class="st4" cx="803.8" cy="842.2" r="21.3"></circle> <path d="M649.7,637.1c-3.5,9.8-7.9,22.2-14.2,36.3c6.2-16.7,17.3-50.9,19.6-89.6C655.2,583.8,662.5,601.9,649.7,637.1z"></path> <path class="st6" d="M481.1,398.2c6.5,1.6,16.4,5,24,6.1c-1.8,0.3-3.5,0.4-5.3,0.4C493.2,404.7,486.8,402.2,481.1,398.2z"></path> <path class="st6" d="M481.7,449.8c5.8,4.6,13.3,7.5,21.4,9.6C491.6,459.9,488.4,456.6,481.7,449.8z"></path> <path class="st6" d="M528.5,389.4c-1.3,2-2.7,3.8-4.3,5.4C525.4,392.8,526.9,391,528.5,389.4z"></path> <path class="st6" d="M541.3,433.3c0.2-1,0.5-2,0.7-3c-1,9.5-5.5,16.7-12.4,21.5c2.9-2.5,5.4-5.4,7.5-8.6c0.3-0.6,0.7-1.3,1.1-1.9 c0.1-0.2,0.2-0.4,0.3-0.6c0.3-0.6,0.6-1.2,0.9-1.8c0.3-0.6,0.5-1.1,0.7-1.7c0.2-0.5,0.4-0.9,0.5-1.4 C540.8,434.9,541,434.1,541.3,433.3z"></path> <path class="st6" d="M542,430.2C542,430.3,542,430.3,542,430.2c0-0.2,0.1-0.4,0.1-0.7C542.1,429.8,542.1,430,542,430.2z"></path> <g> <defs> <path id="SVGID_1_" d="M-281.8,1964.5c0,0,88.3,11.1,102.8-67.2c6.6-35.7-0.5-73.2-25.5-100.4c-10.6-11.4-23.4-20.5-37.6-26.7 c-13.7-6.1-37.3-5.9-47.3-17.2c-20.8-23.5,3-53.4,17.9-71.8c19.5-24.2,35.6-51,47.6-79.7c34.4-81.8,27.5-166.2,13.9-251.7 c-19.8-124.3-98.8-218.3-216.8-261.5c-1.3-0.5-2.7-0.9-4-0.4c-2.1,0.9-2.3,3.8-2,6.1c4.1,35.7,26,72.6,41,104.8 c6,13,12.9,25.8,18.2,39.1c0.5,1.2,6.6,14.7,2.9,9.2c-16.1-23.7-18.4-55.2-9.8-82.2c0.2-0.6,0.4-1.2,0.6-1.7 c0,0-234.5-97.5-298.8-7.4c-22.2,31.3-36.9,67.3-43,105.2c-5.9,36-9.3,74.4,5.5,108.5c9.4,21.6,22.4,41.5,30.3,63.7 c15.9,44,10.8,96.3-16.9,134.4c-25.9,35.8-66.8,56.6-96.3,89.1c-35.6,39.3-55.4,92.5-54.1,145.5c1,39.1,13.8,74.2,39.5,103.8 c18.7,21.6,40.8,45.6,69.4,53.1c17.5,4.6,36.3,3.8,54.2,5"></path> </defs> <clipPath id="SVGID_2_"> <use xlink:href="#SVGID_1_" style="overflow:visible;"></use> </clipPath> <g class="st7"> <line class="st8" x1="34.1" y1="983.3" x2="29" y2="997.1"></line> </g> </g> </svg> 