<?xml version="1.0" encoding="UTF-8"?> <!-- Generator: Adobe Illustrator 23.1.1, SVG Export Plug-In . SVG Version: 6.00 Build 0) --> <svg xmlns="http://www.w3.org/2000/svg" xmlns:xlink="http://www.w3.org/1999/xlink" id="Layer_2" x="0px" y="0px" viewBox="0 0 1000 1000" style="enable-background:new 0 0 1000 1000;" xml:space="preserve"> <style type="text/css"> .st0{opacity:0.2;fill:none;stroke:#428DFC;stroke-width:4.01;stroke-miterlimit:10;} .st1{opacity:0.2;} .st2{fill:none;stroke:#428DFC;stroke-width:4.01;stroke-miterlimit:10;} .st3{opacity:0.25;} .st4{fill:none;stroke:#CCDDE2;stroke-width:4.01;stroke-miterlimit:10;} .st5{opacity:0.2;fill:#D7E8F0;stroke:#428DFC;stroke-miterlimit:10;} .st6{opacity:0.46;} .st7{fill:#2E2E2E;} .st8{fill:#FFFFFF;} .st9{fill:#3FBDF1;} .st10{fill:#428DFC;} .st11{fill:none;stroke:#000000;stroke-width:4.01;stroke-miterlimit:10;} .st12{fill:none;stroke:#000000;stroke-width:4.01;stroke-linecap:round;stroke-linejoin:round;} .st13{fill:none;stroke:#000000;stroke-width:4.01;stroke-linecap:round;stroke-miterlimit:10;} .st14{fill:none;stroke:#000000;stroke-width:4.01;stroke-linecap:square;stroke-linejoin:round;} </style> <polyline class="st0" points="590.5,445 656.1,365.9 721.7,445 721.7,751.3 "></polyline> <g class="st1"> <rect x="679.8" y="458.2" class="st2" width="17.6" height="17.6"></rect> <rect x="646.4" y="458.2" class="st2" width="17.6" height="17.6"></rect> <rect x="613.1" y="458.2" class="st2" width="17.6" height="17.6"></rect> </g> <g class="st1"> <rect x="679.8" y="499.1" class="st2" width="17.6" height="17.6"></rect> <rect x="646.4" y="499.1" class="st2" width="17.6" height="17.6"></rect> <rect x="613.1" y="499.1" class="st2" width="17.6" height="17.6"></rect> </g> <g class="st3"> <rect x="679.8" y="541.8" class="st4" width="17.6" height="17.6"></rect> <rect x="646.4" y="541.8" class="st4" width="17.6" height="17.6"></rect> <rect x="613.1" y="541.8" class="st4" width="17.6" height="17.6"></rect> </g> <g class="st3"> <rect x="679.8" y="578.5" class="st4" width="17.6" height="17.6"></rect> <rect x="646.4" y="578.5" class="st4" width="17.6" height="17.6"></rect> <rect x="613.1" y="578.5" class="st4" width="17.6" height="17.6"></rect> </g> <polyline class="st0" points="746.1,703.3 746.1,331.6 916.3,331.6 916.3,752 "></polyline> <path class="st5" d="M763,365.9v21.8h21.8v-39.9H763V365.9z M766.6,351.3h14.6v14.6h-14.6V351.3z M766.6,369.4h14.6V384h-14.6V369.4 z"></path> <path class="st5" d="M801.4,365.9v21.8h21.7v-39.9h-21.7V365.9z M804.9,351.3h14.6v14.6h-14.6V351.3z M804.9,369.4h14.6V384h-14.6 V369.4z"></path> <path class="st5" d="M838.7,365.9v21.8h21.7v-39.9h-21.7V365.9z M842.2,351.3h14.6v14.6h-14.6V351.3z M842.2,369.4h14.6V384h-14.6 V369.4z"></path> <path class="st5" d="M873.8,347.7v39.9h21.7v-39.9H873.8z M891.9,384h-14.6v-14.6h14.6V384z M891.9,365.8h-14.6v-14.6h14.6V365.8z"></path> <path class="st5" d="M763,419.6v21.8h21.8v-39.9H763V419.6z M766.6,405h14.6v14.6h-14.6V405z M766.6,423.1h14.6v14.6h-14.6V423.1z"></path> <path class="st5" d="M801.4,419.6v21.8h21.7v-39.9h-21.7V419.6z M804.9,405h14.6v14.6h-14.6V405z M804.9,423.1h14.6v14.6h-14.6 V423.1z"></path> <path class="st5" d="M838.7,419.6v21.8h21.7v-39.9h-21.7V419.6z M842.2,405h14.6v14.6h-14.6V405z M842.2,423.1h14.6v14.6h-14.6 V423.1z"></path> <path class="st5" d="M873.8,419.6v21.8h21.7v-39.9h-21.7V419.6z M877.3,405h14.6v14.6h-14.6V405z M877.3,423.1h14.6v14.6h-14.6 V423.1z"></path> <path class="st5" d="M763,473.3V495h21.8v-39.9H763V473.3z M766.6,458.7h14.6v14.6h-14.6V458.7z M766.6,476.8h14.6v14.6h-14.6V476.8 z"></path> <path class="st5" d="M801.4,473.3V495h21.7v-39.9h-21.7V473.3z M804.9,458.7h14.6v14.6h-14.6V458.7z M804.9,476.8h14.6v14.6h-14.6 V476.8z"></path> <path class="st5" d="M838.7,473.3V495h21.7v-39.9h-21.7V473.3z M842.2,458.7h14.6v14.6h-14.6V458.7z M842.2,476.8h14.6v14.6h-14.6 V476.8z"></path> <path class="st5" d="M873.8,473.3V495h21.7v-39.9h-21.7V473.3z M877.3,458.7h14.6v14.6h-14.6V458.7z M877.3,476.8h14.6v14.6h-14.6 V476.8z"></path> <path class="st5" d="M763,527v21.7h21.8v-39.9H763V527z M766.6,512.4h14.6V527h-14.6V512.4z M766.6,530.6h14.6v14.6h-14.6V530.6z"></path> <path class="st5" d="M801.4,527v21.7h21.7v-39.9h-21.7V527z M804.9,512.4h14.6V527h-14.6V512.4z M804.9,530.6h14.6v14.6h-14.6V530.6 z"></path> <path class="st5" d="M838.7,527v21.7h21.7v-39.9h-21.7V527z M842.2,512.4h14.6V527h-14.6V512.4z M842.2,530.6h14.6v14.6h-14.6V530.6 z"></path> <path class="st5" d="M873.8,527v21.7h21.7v-39.9h-21.7V527z M877.3,512.4h14.6V527h-14.6V512.4z M877.3,530.6h14.6v14.6h-14.6V530.6 z"></path> <path class="st5" d="M763,580.7v21.8h21.8v-39.9H763V580.7z M766.6,566.1h14.6v14.6h-14.6V566.1z M766.6,584.2h14.6v14.6h-14.6 V584.2z"></path> <path class="st5" d="M801.4,580.7v21.8h21.7v-39.9h-21.7V580.7z M804.9,566.1h14.6v14.6h-14.6V566.1z M804.9,584.2h14.6v14.6h-14.6 V584.2z"></path> <path class="st5" d="M838.7,580.7v21.8h21.7v-39.9h-21.7V580.7z M842.2,566.1h14.6v14.6h-14.6V566.1z M842.2,584.2h14.6v14.6h-14.6 V584.2z"></path> <path class="st5" d="M873.8,580.7v21.8h21.7v-39.9h-21.7V580.7z M877.3,566.1h14.6v14.6h-14.6V566.1z M877.3,584.2h14.6v14.6h-14.6 V584.2z"></path> <path class="st0" d="M356.4,752.1V583.8c0-23.5-8.2-46.2-23.2-64.2l0,0c-9.9-12-27.7-13.6-39.6-3.7c-1.3,1.1-2.6,2.3-3.7,3.7l0,0 c-15,18.1-23.2,40.8-23.2,64.2v168.6"></path> <g class="st1"> <rect x="283.2" y="556.6" class="st2" width="12" height="12"></rect> <rect x="306" y="556.6" class="st2" width="12" height="12"></rect> <rect x="328.8" y="556.6" class="st2" width="12" height="12"></rect> </g> <g class="st6"> <rect x="283.2" y="584.6" class="st4" width="12" height="12"></rect> <rect x="306" y="584.6" class="st4" width="12" height="12"></rect> <rect x="328.8" y="584.6" class="st4" width="12" height="12"></rect> </g> <g class="st3"> <rect x="283.2" y="613.7" class="st4" width="12" height="12"></rect> <rect x="306" y="613.7" class="st4" width="12" height="12"></rect> <rect x="328.8" y="613.7" class="st4" width="12" height="12"></rect> </g> <g class="st3"> <rect x="283.2" y="638.8" class="st4" width="12" height="12"></rect> <rect x="306" y="638.8" class="st4" width="12" height="12"></rect> <rect x="328.8" y="638.8" class="st4" width="12" height="12"></rect> </g> <polyline class="st0" points="133.6,752.9 133.6,470.1 250,470.1 250,752.5 "></polyline> <path class="st5" d="M238.4,493.5v14.9h-14.9V481h14.9V493.5z M236,483.5h-10v10h10L236,483.5z M236,495.9h-10v10h10L236,495.9z"></path> <path class="st5" d="M212.2,493.5v14.9h-14.9V481h14.9V493.5z M209.8,483.5h-10v10h10V483.5z M209.8,495.9h-10v10h10V495.9z"></path> <path class="st5" d="M186.7,493.5v14.9h-14.9V481h14.9V493.5z M184.3,483.5h-10v10h10V483.5z M184.3,495.9h-10v10h10V495.9z"></path> <path class="st5" d="M162.7,481v27.3h-14.9V481H162.7z M150.3,505.9h10v-10h-10V505.9z M150.3,493.5h10v-10h-10V493.5z"></path> <path class="st5" d="M238.4,530.2V545h-14.9v-27.2h14.9V530.2z M236,520.2h-10v10h10L236,520.2z M236,532.6h-10v10h10L236,532.6z"></path> <path class="st5" d="M212.2,530.2V545h-14.9v-27.2h14.9V530.2z M209.8,520.2h-10v10h10V520.2z M209.8,532.6h-10v10h10V532.6z"></path> <path class="st5" d="M186.7,530.2V545h-14.9v-27.2h14.9V530.2z M184.3,520.2h-10v10h10V520.2z M184.3,532.6h-10v10h10V532.6z"></path> <path class="st5" d="M162.7,530.2V545h-14.9v-27.2h14.9V530.2z M160.3,520.2h-10v10h10V520.2z M160.3,532.6h-10v10h10V532.6z"></path> <path class="st5" d="M238.4,566.9v14.9h-14.9v-27.3h14.9V566.9z M236,556.9h-10v10h10L236,556.9z M236,569.3h-10v10h10L236,569.3z"></path> <path class="st5" d="M212.2,566.9v14.9h-14.9v-27.3h14.9V566.9z M209.8,556.9h-10v10h10V556.9z M209.8,569.3h-10v10h10V569.3z"></path> <path class="st5" d="M186.7,566.9v14.9h-14.9v-27.3h14.9V566.9z M184.3,556.9h-10v10h10V556.9z M184.3,569.3h-10v10h10V569.3z"></path> <path class="st5" d="M162.7,566.9v14.9h-14.9v-27.3h14.9V566.9z M160.3,556.9h-10v10h10V556.9z M160.3,569.3h-10v10h10V569.3z"></path> <path class="st5" d="M238.4,603.6v14.9h-14.9v-27.3h14.9V603.6z M236,593.6h-10v10h10L236,593.6z M236,606h-10v10h10V606z"></path> <path class="st5" d="M212.2,603.6v14.9h-14.9v-27.3h14.9V603.6z M209.8,593.6h-10v10h10V593.6z M209.8,606h-10v10h10V606z"></path> <path class="st5" d="M186.7,603.6v14.9h-14.9v-27.3h14.9V603.6z M184.3,593.6h-10v10h10V593.6z M184.3,606h-10v10h10V606z"></path> <path class="st5" d="M162.7,603.6v14.9h-14.9v-27.3h14.9V603.6z M160.3,593.6h-10v10h10V593.6z M160.3,606h-10v10h10V606z"></path> <path class="st5" d="M238.4,640.3v14.9h-14.9v-27.3h14.9V640.3z M236,630.3h-10v10h10L236,630.3z M236,642.7h-10v10h10L236,642.7z"></path> <path class="st5" d="M212.2,640.3v14.9h-14.9v-27.3h14.9V640.3z M209.8,630.3h-10v10h10V630.3z M209.8,642.7h-10v10h10V642.7z"></path> <path class="st5" d="M186.7,640.3v14.9h-14.9v-27.3h14.9V640.3z M184.3,630.3h-10v10h10V630.3z M184.3,642.7h-10v10h10V642.7z"></path> <path class="st5" d="M162.7,640.3v14.9h-14.9v-27.3h14.9V640.3z M160.3,630.3h-10v10h10V630.3z M160.3,642.7h-10v10h10V642.7z"></path> <path class="st7" d="M436.1,444c0,0-2.8,38.5-45.5,34.9c0,0,14.9,38.3,25.7,45.1l53.9,34.1l12.9-60.3L436.1,444z"></path> <path class="st8" d="M390.4,589L277.5,752.4l-124.5,0.4v-2.3c0-11,8.6-20.2,19.6-20.9l34.3-2.3l100.1-180.8 c18.9-35.1,62.7-48.3,97.8-29.5c1.8,1,3.5,2,5.2,3.1l0.9,0.6l57.6,36.4l-40.9,98.6l-51.9-45.6"></path> <path class="st7" d="M772.1,684.2c-10.4,28.9-29.4,33.6-51.6,32.1c-11.6-15.2-25.4-36-36.5-51.5C671,646.7,658,628.6,645,610.6 c-3.3-4.6-6.6-9.2-10-13.9v69.5c0,3.6-0.2,7.2-0.7,10.7c-63.3,54.1-153.8-13.8-166.1-23.6l0,0c-0.9-0.7-1.4-1.1-1.4-1.1 c-5.9-42.8,0.5-75.2,1.8-99.7c1.9-32.7,7.9-43.1,13.3-53.2l2.2-5.6c4.2-7.8,4-9.7,4.6-10.1l-0.2-1.4c0,0,2.2-2.4,2.2-2.5 c12.2-20.2,21.6-37,41.9-49.1c-7,5.2-11.8,17.7-4.4,24.5c8.6,8,20.4-1.5,27.5-7c9-6.8,17-15,23.5-24.3c2.1-3,4.7-6.2,4.3-10 c14.7-0.2,27.1,5,42.2,13.7c19.1,11.1,34.4,27.8,44.8,47.3L772.1,684.2z"></path> <path class="st9" d="M589.4,374.3v0.3c0,12.2-9.8,22-22,22c-3.7,0-7.4-0.9-10.7-2.8c-0.9-0.5-1.8-1.1-2.7-1.7 c-1.2-1-1.3-2.7-0.4-3.9c0.2-0.2,0.4-0.5,0.7-0.6c4.5-2.7,8.8-6.7,10.3-11.6c0.5-1.5,0.6-3.1,0.5-4.7c-0.3-4.1-2.7-7.7-6.4-9.5 c-0.6-0.2-1.2-0.4-1.8-0.4c-1.7-0.3-4-0.2-4.5,1c2.7-6,3.3-12.6,1.8-19c-0.9-3.9-2.8-7.6-5.3-10.8c0.1,4.2-3.2,7.8-7.4,7.9 c-0.5,0-1,0-1.4-0.1c-8.7-1-9.7-9.5-9.7-9.5s-0.1,0.1-0.1,0.1c-4.6,9.2-15.7,8.5-23.3,3.6c-2.7-1.7-5-3.9-6.7-6.5 c-1.5-9.9,7.3-18.6,16.7-19.2c0.7-6.1,5.8-12.4,11.9-12.4c4.3,0,8.3,2.3,10.4,6.1c0.2,0.3,0.3,0.6,0.4,0.9c2.8-3.4,7.2-7,11.5-7 c6.3,0,11.8,4,13.9,9.9c0-0.4,4-1.9,4.4-2c1.6-0.5,3.3-0.7,5-0.7c6,0.2,11.5,3.3,14.6,8.5c0.2,0.9,0.2,1.8,0.2,2.7 c0,2.7-0.6,5.3-1.8,7.7c1.4,0.5,2.6,1.3,3.7,2.3c2.3,2,3.8,4.9,4,8l0,0c0,0.3,0,0.6,0,0.9c0,2.3-0.7,4.6-2,6.5 c1.4,0.5,2.8,1.3,4,2.2c3.7,2.7,6.2,6.7,7,11.3c0.2,1,0.3,2,0.2,3C604.6,365.6,598.1,373.1,589.4,374.3z"></path> <path class="st9" d="M589.4,374.3v0.3c0,12.2-9.8,22-22,22c-3.7,0-7.4-0.9-10.7-2.8c4.5-2.7,8.8-6.7,10.3-11.6 c1.1-3.7,0.4-7.7-1.9-10.9c-0.3-4.1-2.7-7.7-6.4-9.5c-0.6-0.2-1.2-0.4-1.8-0.4c1.1-6.1,0.1-12.5-2.7-18c-0.9-3.9-2.8-7.6-5.3-10.8 c0.1,4.2-3.2,7.8-7.4,7.9c-0.5,0-1,0-1.4-0.1c-8.7-1-9.7-9.5-9.7-9.5s-0.1,0.1-0.1,0.1c-4.6,9.2-15.7,8.5-23.3,3.6 c-2.7-1.7-5-3.9-6.7-6.5c-1.5-9.9,7.3-18.6,16.7-19.2c0.7-6.1,5.8-12.4,11.9-12.4c4.3,0,8.3,2.3,10.4,6.1c0.2,0.3,0.3,0.6,0.4,0.9 c2.8-3.4,7.2-7,11.5-7c6.3,0,11.8,4,13.9,9.9c0-0.4,4-1.9,4.4-2c1.6-0.5,3.3-0.7,5-0.7c6,0.2,11.5,3.3,14.6,8.5 c0.2,0.9,0.2,1.8,0.2,2.7c0,2.7-0.6,5.3-1.8,7.7c1.4,0.5,2.6,1.3,3.7,2.3c-0.3,1.4-0.8,2.7-1.4,3.9c2.2,0.8,4,2.2,5.4,4l0,0 c0,0.3,0,0.6,0,0.9c0,2.3-0.7,4.6-2,6.5c1.4,0.5,2.8,1.3,4,2.2c-0.3,1.4-0.9,2.8-1.7,4c3.7,1.4,6.8,3.9,8.8,7.2c0.2,1,0.3,2,0.2,3 C604.7,365.6,598.2,373.1,589.4,374.3z"></path> <path class="st10" d="M532.6,957.1H390.4v-2.8c0-11.3,8.9-20.6,20.2-21l33.6-1.4h79.2L532.6,957.1z"></path> <path class="st10" d="M277.5,752.4l-124.5-0.3v-2.8c0-11.3,8.9-20.6,20.2-21l33.6-1.4l87.3,1.4L277.5,752.4z"></path> <path class="st11" d="M483.5,751.7h66c43-0.1,79.3-32.1,84.8-74.7c0.5-3.6,0.7-7.1,0.7-10.7v-69.5"></path> <path class="st11" d="M507.5,652l-38.7,1.3h-0.6l-24.4,0.5c-5.4,0.1-10.7,0.7-16,1.9c-43.6,9.4-71.5,53.1-62.2,96.4 c1.4,6.4,3.5,12.7,6.4,18.6L444.2,932l-33.6,1.4c-11.3,0.4-20.2,9.7-20.2,21v2.8h142.2l-9.2-25.1l-66.1-180.5"></path> <line class="st11" x1="390.4" y1="589" x2="277.5" y2="752.4"></line> <line class="st11" x1="427.7" y1="655.8" x2="375.8" y2="610.2"></line> <line class="st11" x1="537" y1="751.7" x2="536.7" y2="751.3"></line> <line class="st11" x1="411" y1="520.8" x2="377.2" y2="451.7"></line> <path class="st11" d="M820.7,751.5c0,0.1,0.1,0.1,0.1,0.2h-28.5"></path> <path class="st11" d="M491.2,751.8c0-0.2-0.1-0.3-0.1-0.4"></path> <path class="st11" d="M583.4,414.7c10.6-0.3,21.1,1.9,30.7,6.3c22.4,10.5,41.1,27.6,53.5,49c13.6,23.8,24.7,49.5,36.8,74 c15.2,30.8,30.4,61.7,45.6,92.5c7.3,14.9,14.7,29.8,22,44.6l15.6,31.5c3.2,5.3,7.7,9.6,13.1,12.6c5.4,3,11.4,4.6,17.6,4.6 c12.6,0,24,7.3,29.3,18.7l1.4,2.9h-37.5"></path> <path class="st11" d="M468.8,653.3c-4.4-28.3-3.5-56.8-1.2-85.2c4-50.8,19.5-101.8,60.9-134.6c1.1-0.9,2.2-1.7,3.3-2.5"></path> <path class="st11" d="M571.4,482.2c-0.8,29.9,24.8,60.3,24.8,60.3s0.1,0.1,0.1,0.1c13,18,25.9,36.1,38.8,54.2 c3.3,4.6,6.7,9.2,10,13.9c13,18.1,26,36.1,38.9,54.2c11.1,15.6,21.5,31.9,33.1,47.2c3,3.9,6.1,7.8,9.3,11.5 c4.1,4.8,8.3,10.3,13.4,14.1s10.8,7.5,16,11.6c4.3,3.6,8.1,8,11,12.8c3.2,5.5,3.6,11.7,6.3,17.2c4.8,9.7,16.7,8.1,20.8-1.2 c5.7-12.9-6.7-40.7-6.7-40.7"></path> <line class="st11" x1="950" y1="751.6" x2="792.2" y2="751.6"></line> <path class="st11" d="M468.6,557.2L411,520.8l-0.9-0.6c-33.4-21.7-78.2-12.3-99.9,21.2c-1.1,1.7-2.1,3.4-3.1,5.2L207,727.3 l-34.4,2.3c-11,0.7-19.6,9.9-19.6,20.9v2.3"></path> <path class="st11" d="M362.9,397.4c4.8,0.9,6.6,0.6,10,1.3c0.7,0.1,1.3-0.4,1.4-1c0.1-0.4-0.1-0.8-0.4-1.1l-11.4-11 c-3.1-2.7-5.3-6.3-6.1-10.3l-0.1-0.4c0.8-2.8,3-4.9,5.9-5.5c2.4-0.4,4.9-0.1,7.1,0.9c3.7,1.5,8.7,2.8,13.4,4.4 c6.6,2.3,12.1,6.9,15.5,12.9l0.4,0.8c13.6,23.7,29.2,46.2,46.6,67.2l37,45.5"></path> <path class="st10" d="M368.8,456.4L368.8,456.4c-4.4,0-8.2-2.8-9.5-7l-9.5-29.4l-8.4-27.7l-11-35.7c-1.5-4.8,1.2-9.9,6-11.4 c1-0.3,2-0.4,3-0.4l0,0c3.8,0.1,7.2,2.6,8.4,6.3l15.1,46.4l15.4,45.9c1.7,5.2-1.2,10.8-6.4,12.5 C370.9,456.2,369.9,456.4,368.8,456.4z"></path> <path class="st11" d="M368.8,456.4L368.8,456.4c-4.4,0-8.2-2.8-9.5-7l-9.5-29.4l-8.4-27.7l-11-35.7c-1.5-4.8,1.2-9.9,6-11.4 c1-0.3,2-0.4,3-0.4l0,0c3.8,0.1,7.2,2.6,8.4,6.3l15.1,46.4l15.4,45.9c1.7,5.2-1.2,10.8-6.4,12.5 C370.9,456.2,369.9,456.4,368.8,456.4z"></path> <path class="st11" d="M329.9,411.4L329.9,411.4c-2.4-0.1-4.7-0.9-6.6-2.2c-4.4-3.3-5.4-9.6-2.1-14c0.1-0.1,0.1-0.2,0.2-0.2 c1.5-1.8,3.5-3.2,5.8-3.9c2.9-1,6-0.9,8.9,0.1c3.1,1.3,5.6,3.7,7.1,6.6"></path> <path class="st11" d="M335.8,430.5c-2.4,0-4.7-0.7-6.7-2c-4.5-3.2-5.6-9.4-2.4-13.9c0.1-0.1,0.1-0.2,0.2-0.2c1.4-1.9,3.4-3.3,5.7-4 c2.9-1,6-1.1,8.9-0.1c2.9,1,5.7,2.8,7.1,5.4"></path> <path class="st11" d="M354,432.9c-3.5-4.7-9.8-6.3-15.2-3.9c-2,0.9-3.7,2.3-4.8,4.1c-2.7,4.3-1.4,9.9,2.9,12.5 c0.1,0,0.1,0.1,0.2,0.1l1.4,0.7c0,0,8.2,3.3,21.8,4.9"></path> <path class="st11" d="M444.8,751.8c3.8,0,42.5,0,46.4,0c15.2-0.1,30.5-0.1,45.8-0.1c75.8-0.2,151.9-0.3,221-0.3"></path> <path class="st11" d="M792.2,751.3c23.1,0,35.9,0,56.8,0c34,0.1,64.6,0.2,90.6,0.3"></path> <path class="st11" d="M50,753.3c1.8,0,141.6-0.6,315.5-1.2"></path> <path class="st11" d="M583.4,413.8c0.4,3.8-2.2,7.1-4.3,10c-6.6,9.3-14.5,17.4-23.5,24.3c-7.1,5.5-18.8,14.9-27.5,7 c-7.4-6.8-2.6-19.3,4.4-24.5l0.1-0.1"></path> <path class="st11" d="M514.1,348.1c0,0,12.5,1.2,14.5,12"></path> <path class="st11" d="M508.3,379.6c-2.9,0.5-5.9,0.4-8.8-0.3c-1.8-0.5-3-2.3-2.5-4.2c0.1-0.4,0.3-0.8,0.5-1.1c3-4.2,6-8.4,9.3-12.3 c0.5-0.5,0.9-1.1,1-1.8c0,0-0.1-13.2,3.3-23"></path> <ellipse transform="matrix(0.2057 -0.9786 0.9786 0.2057 58.9161 790.8328)" cx="516.6" cy="359.1" rx="3.9" ry="3.3"></ellipse> <path class="st12" d="M583.4,414.7c-4.6-13.4-6.7-20.2-6.7-20.2"></path> <line class="st11" x1="532.7" y1="410.2" x2="532.6" y2="456.4"></line> <path class="st12" d="M503.7,379.9c0,0,3.2,26.5,16.1,31.6s25.7-10.5,25.7-10.5"></path> <path class="st12" d="M506.3,391.9c3.4,2.4,7.8,2.9,11.6,1.3"></path> <path class="st13" d="M538.6,302.4c0-2-0.5-4-1.5-5.8c-3.3-5.7-10.7-7.7-16.4-4.4c-3.7,2.1-5.9,6-6,10.2"></path> <path class="st12" d="M532,320c0-5.9-2.9-11.3-7.8-14.6c-12-8.1-29.3,4.3-25.9,18.2c1.2,4.9,4.7,8.6,8.8,11.2 c7.6,4.9,18.7,5.5,23.2-3.6l0.1-0.1c0,0,1,8.4,9.7,9.5c4.2,0.6,8.2-2.2,8.8-6.5c0.1-0.5,0.1-0.9,0.1-1.4c6.9,8.3,7.9,20,3.5,29.8 c0.8-1.8,5.1-1.1,6.3-0.5c5.2,2.3,7.6,8.9,5.9,14.2c-1.5,4.9-5.8,8.9-10.3,11.6c-1.3,0.8-1.7,2.4-1,3.7c0.2,0.3,0.4,0.5,0.6,0.7 c9.7,7.4,23.5,5.5,30.8-4.2c2.9-3.8,4.5-8.5,4.5-13.3v-0.3c9.6-1.2,16.4-10,15.2-19.6c-0.8-6.5-5.1-12-11.2-14.2 c1.3-1.9,2-4.2,2-6.5c0-6.6-5.4-12-12-12"></path> <path class="st14" d="M538.6,296.2c2.7-3.7,5.5-5.8,10.4-5.8c6.3,0,11.9,4,13.9,9.9c-0.1-0.4,4-1.9,4.4-2c1.6-0.5,3.3-0.7,5-0.7 c9.4,0.3,17,7.9,17.1,17.3c0,2.7-0.6,5.3-1.8,7.7"></path> <path class="st9" d="M589.4,374.3v0.3c0,12.2-9.8,22-22,22c-3.7,0-7.4-0.9-10.7-2.8c-0.9-0.5-1.8-1.1-2.7-1.7 c-1.2-1-1.3-2.7-0.4-3.9c0.2-0.2,0.4-0.5,0.7-0.6c4.5-2.7,8.8-6.7,10.3-11.6c0.5-1.5,0.6-3.1,0.5-4.7c-0.3-4.1-2.7-7.7-6.4-9.5 c-0.6-0.2-1.2-0.4-1.8-0.4c-1.7-0.3-4-0.2-4.5,1c2.7-6,3.3-12.6,1.8-19c-0.9-3.9-2.8-7.6-5.3-10.8c0.1,4.2-3.2,7.8-7.4,7.9 c-0.5,0-1,0-1.4-0.1c-8.7-1-9.7-9.5-9.7-9.5s-0.1,0.1-0.1,0.1c-4.6,9.2-15.7,8.5-23.3,3.6c-2.7-1.7-5-3.9-6.7-6.5 c-1.5-9.9,7.3-18.6,16.7-19.2c0.7-6.1,5.8-12.4,11.9-12.4c4.3,0,8.3,2.3,10.4,6.1c0.2,0.3,0.3,0.6,0.4,0.9c2.8-3.4,7.2-7,11.5-7 c6.3,0,11.8,4,13.9,9.9c0-0.4,4-1.9,4.4-2c1.6-0.5,3.3-0.7,5-0.7c6,0.2,11.5,3.3,14.6,8.5c0.2,0.9,0.2,1.8,0.2,2.7 c0,2.7-0.6,5.3-1.8,7.7c1.4,0.5,2.6,1.3,3.7,2.3c2.3,2,3.8,4.9,4,8l0,0c0,0.3,0,0.6,0,0.9c0,2.3-0.7,4.6-2,6.5 c1.4,0.5,2.8,1.3,4,2.2c3.7,2.7,6.2,6.7,7,11.3c0.2,1,0.3,2,0.2,3C604.6,365.6,598.1,373.1,589.4,374.3z"></path> <path class="st10" d="M589.4,374.3v0.3c0,12.2-9.8,22-22,22c-3.7,0-7.4-0.9-10.7-2.8c4.5-2.7,8.8-6.7,10.3-11.6 c1.1-3.7,0.4-7.7-1.9-10.9c-0.3-4.1-2.7-7.7-6.4-9.5c-0.6-0.2-1.2-0.4-1.8-0.4c1.1-6.1,0.1-12.5-2.7-18c-0.9-3.9-2.8-7.6-5.3-10.8 c0.1,4.2-3.2,7.8-7.4,7.9c-0.5,0-1,0-1.4-0.1c-8.7-1-9.7-9.5-9.7-9.5s-0.1,0.1-0.1,0.1c-4.6,9.2-15.7,8.5-23.3,3.6 c-2.7-1.7-5-3.9-6.7-6.5c-1.5-9.9,7.3-18.6,16.7-19.2c0.7-6.1,5.8-12.4,11.9-12.4c4.3,0,8.3,2.3,10.4,6.1c0.2,0.3,0.3,0.6,0.4,0.9 c2.8-3.4,7.2-7,11.5-7c6.3,0,11.8,4,13.9,9.9c0-0.4,4-1.9,4.4-2c1.6-0.5,3.3-0.7,5-0.7c6,0.2,11.5,3.3,14.6,8.5 c0.2,0.9,0.2,1.8,0.2,2.7c0,2.7-0.6,5.3-1.8,7.7c1.4,0.5,2.6,1.3,3.7,2.3c-0.3,1.4-0.8,2.7-1.4,3.9c2.2,0.8,4,2.2,5.4,4l0,0 c0,0.3,0,0.6,0,0.9c0,2.3-0.7,4.6-2,6.5c1.4,0.5,2.8,1.3,4,2.2c-0.3,1.4-0.9,2.8-1.7,4c3.7,1.4,6.8,3.9,8.8,7.2c0.2,1,0.3,2,0.2,3 C604.7,365.6,598.2,373.1,589.4,374.3z"></path> <path class="st11" d="M514.1,348.1c0,0,12.5,1.2,14.5,12"></path> <path class="st11" d="M508.3,379.6c-2.9,0.5-5.9,0.4-8.8-0.3c-1.8-0.5-3-2.3-2.5-4.2c0.1-0.4,0.3-0.8,0.5-1.1c3-4.2,6-8.4,9.3-12.3 c0.5-0.5,0.9-1.1,1-1.8c0,0-0.1-13.2,3.3-23"></path> <ellipse transform="matrix(0.2057 -0.9786 0.9786 0.2057 58.9161 790.8328)" cx="516.6" cy="359.1" rx="3.9" ry="3.3"></ellipse> <path class="st12" d="M583.4,414.7c-4.6-13.4-6.7-20.2-6.7-20.2"></path> <line class="st11" x1="532.7" y1="410.2" x2="532.6" y2="456.4"></line> <path class="st12" d="M503.7,379.9c0,0,3.2,26.5,16.1,31.6s25.7-10.5,25.7-10.5"></path> <path class="st12" d="M506.3,391.9c3.4,2.4,7.8,2.9,11.6,1.3"></path> <path class="st13" d="M538.6,302.4c0-2-0.5-4-1.5-5.8c-3.3-5.7-10.7-7.7-16.4-4.4c-3.7,2.1-5.9,6-6,10.2"></path> <path class="st12" d="M532,320c0-5.9-2.9-11.3-7.8-14.6c-12-8.1-29.3,4.3-25.9,18.2c1.2,4.9,4.7,8.6,8.8,11.2 c7.6,4.9,18.7,5.5,23.2-3.6l0.1-0.1c0,0,1,8.4,9.7,9.5c4.2,0.6,8.2-2.2,8.8-6.5c0.1-0.5,0.1-0.9,0.1-1.4c6.9,8.3,7.9,20,3.5,29.8 c0.8-1.8,5.1-1.1,6.3-0.5c5.2,2.3,7.6,8.9,5.9,14.2c-1.5,4.9-5.8,8.9-10.3,11.6c-1.3,0.8-1.7,2.4-1,3.7c0.2,0.3,0.4,0.5,0.6,0.7 c9.7,7.4,23.5,5.5,30.8-4.2c2.9-3.8,4.5-8.5,4.5-13.3v-0.3c9.6-1.2,16.4-10,15.2-19.6c-0.8-6.5-5.1-12-11.2-14.2 c1.3-1.9,2-4.2,2-6.5c0-6.6-5.4-12-12-12"></path> <path class="st14" d="M538.6,296.2c2.7-3.7,5.5-5.8,10.4-5.8c6.3,0,11.9,4,13.9,9.9c-0.1-0.4,4-1.9,4.4-2c1.6-0.5,3.3-0.7,5-0.7 c9.4,0.3,17,7.9,17.1,17.3c0,2.7-0.6,5.3-1.8,7.7"></path> </svg> 