<?xml version="1.0" encoding="UTF-8"?> <svg xmlns="http://www.w3.org/2000/svg" width="160" height="23" viewBox="0 0 160 23" fill="none"> <path d="M0.73072 22.8808C0.657517 22.8851 0.575245 22.8607 0.483904 22.8073C0.408078 22.7678 0.33826 22.7058 0.274451 22.6215C0.15208 22.5406 0.0856472 22.4124 0.0751536 22.2367C0.055041 21.9 0.251026 20.9993 0.663108 19.5348C0.741107 19.1188 0.827301 18.7169 0.92169 18.3293C1.00843 18.0596 1.04787 17.8589 1.04 17.7271C1.033 17.61 1.03977 17.4774 1.06031 17.3292C1.09461 17.1656 1.11002 17.0544 1.10652 16.9959C1.28221 16.9854 1.42532 16.6756 1.53588 16.0666C1.58132 15.8435 1.62163 15.6574 1.65681 15.5084C1.69111 15.3447 1.71296 15.2186 1.72236 15.1298C1.74901 15.0842 1.77436 15.0165 1.79839 14.9269C1.83707 14.8365 1.86886 14.7538 1.89377 14.6788C1.98991 14.3204 2.10888 13.9754 2.25069 13.6437C2.38702 12.9744 2.55089 12.274 2.74229 11.5426C2.94746 10.7957 3.12007 10.2418 3.26013 9.88081L3.48431 9.20625C3.49633 9.16145 3.5208 9.07918 3.55773 8.95943C3.60842 8.82417 3.63202 8.72725 3.62852 8.66869C3.62502 8.61013 3.60044 8.56752 3.55477 8.54086C3.47894 8.50131 3.43797 8.4303 3.43184 8.32781C3.42048 8.13748 3.5813 7.8781 3.91431 7.54966C4.07688 7.31956 4.21498 7.17173 4.3286 7.10617C4.45599 7.0251 4.6295 6.978 4.8491 6.96489L5.55447 6.96683C5.73104 6.97098 6.19997 6.95032 6.96128 6.90485C7.1267 6.96843 7.3214 7.03027 7.54538 7.09035C7.99334 7.21052 8.21907 7.29989 8.22257 7.35845C8.22694 7.43166 8.25196 7.48159 8.29764 7.50824C8.35795 7.53403 8.43978 7.55118 8.54314 7.5597C8.68955 7.55095 8.92653 7.70577 9.2541 8.02413C9.59543 8.32699 9.85711 8.64929 10.0391 8.99105C10.1556 9.21918 10.2406 9.41245 10.2942 9.57087C10.3615 9.71378 10.4012 9.88772 10.4135 10.0927C10.4266 10.3123 10.4225 10.4889 10.401 10.6224C10.3858 10.8584 10.3627 11.0875 10.3319 11.3097C10.3011 11.5319 10.2582 11.6741 10.2031 11.7362C9.97935 11.9258 9.87141 12.0866 9.87928 12.2183C9.88627 12.3354 9.71431 12.6543 9.36338 13.1748C9.0271 13.6944 8.70021 14.1253 8.38272 14.4676C8.0283 14.9295 7.59761 15.3446 7.09066 15.7128C5.40942 16.5919 4.22387 17.0374 3.53402 17.0492C3.06989 17.1504 2.78834 17.2334 2.68935 17.298C2.58949 17.3481 2.51596 17.47 2.46877 17.6638C2.40693 17.8585 2.34554 18.0606 2.28457 18.2699C2.23826 18.4784 2.21684 18.6119 2.22034 18.6704C2.14212 18.8367 1.97682 19.3902 1.72446 20.331C1.48674 21.2708 1.3302 21.9707 1.25482 22.4307C1.20763 22.6245 1.14874 22.7456 1.07816 22.7939C1.00758 22.8422 0.891767 22.8711 0.73072 22.8808ZM3.04724 15.9102C3.07827 15.9378 3.17431 15.9467 3.33536 15.9371C3.52568 15.9257 3.77283 15.8816 4.07678 15.8047C4.39537 15.7269 4.69758 15.6207 4.9834 15.486C5.49996 15.2789 6.06853 14.9584 6.68911 14.5246C6.87157 14.3815 7.09401 14.1699 7.35644 13.8897C7.63351 13.6087 7.89376 13.2919 8.13717 12.9395C8.21627 12.7878 8.37141 12.4333 8.60258 11.8758C8.70747 11.6639 8.80153 11.3938 8.88478 11.0656C8.98266 10.7365 9.02417 10.4475 9.00931 10.1986C9.00231 10.0815 8.98974 9.99407 8.97161 9.93638C8.87567 9.5601 8.65703 9.22053 8.3157 8.91767C7.98814 8.5993 7.61589 8.3938 7.19896 8.30116C6.88801 8.26096 6.60809 8.24829 6.3592 8.26316C6.16887 8.27453 5.95057 8.30961 5.70431 8.3684C5.47443 8.45559 5.30486 8.56857 5.19561 8.70733C5.101 8.84521 4.97852 9.13169 4.8282 9.56676C4.52994 10.2311 4.26446 10.9522 4.03176 11.7301C3.82682 12.7268 3.61182 13.555 3.38677 14.215C3.16172 14.8749 3.03029 15.2574 2.99249 15.3625L2.99774 15.4504C3.00298 15.5382 3.00091 15.6265 2.99152 15.7152C2.98212 15.8039 3.0007 15.8689 3.04724 15.9102Z" fill="#428DFC"></path> <path d="M11.6374 20.8408C11.4617 20.8513 11.3209 20.8304 11.2149 20.7779C11.109 20.7255 10.956 20.6244 10.756 20.4747C10.2423 19.9912 9.97274 19.5371 9.94738 19.1125C9.94126 19.01 9.94421 18.9364 9.95623 18.8916C9.99403 18.7865 10.0025 18.6831 9.98179 18.5815C9.97566 18.479 9.97173 18.4132 9.96998 18.3839C9.90792 18.3288 9.87645 18.294 9.87558 18.2793C9.87383 18.25 9.88716 18.2272 9.91556 18.2108C9.9431 18.1798 9.96331 18.1492 9.9762 18.119C10.064 18.1138 10.0885 18.0315 10.0496 17.8722C10.0133 17.7568 10.0566 17.4971 10.1794 17.0931C10.3013 16.6744 10.462 16.2902 10.6615 15.9403C10.8068 15.6672 11.0214 15.3237 11.3052 14.9101C11.6037 14.4956 11.8713 14.1784 12.1079 13.9585C12.4409 13.6301 12.7422 13.3844 13.0116 13.2214C13.281 13.0583 13.5819 12.9302 13.9143 12.8368C14.2027 12.7462 14.3982 12.6977 14.5007 12.6916C14.6031 12.6855 14.6927 12.7095 14.7694 12.7637C14.8599 12.8024 14.9749 12.8837 15.1146 13.0076C15.5204 13.1597 15.8048 13.3704 15.9678 13.6398C16.1446 13.8937 16.25 14.3062 16.2841 14.8772C16.341 15.8288 16.0147 16.8842 15.3052 18.0432C14.9973 18.5464 14.7048 18.9386 14.4277 19.2196C14.1498 19.486 13.778 19.78 13.3123 20.1017C13.018 20.3396 12.7421 20.5177 12.4847 20.636C12.2411 20.7387 11.9587 20.807 11.6374 20.8408ZM13.6066 18.3871C13.9344 17.9708 14.1903 17.5808 14.3743 17.2172C14.5729 16.8527 14.7512 16.3939 14.9091 15.8409C14.9675 15.5876 14.9862 15.2853 14.9652 14.9339C14.9389 14.4947 14.8655 14.2493 14.7449 14.1977C14.5941 14.1333 14.4455 14.1054 14.2991 14.1142C13.977 14.1334 13.649 14.2999 13.3151 14.6137C12.9124 15.0051 12.5589 15.4817 12.2545 16.0435C11.9493 16.5907 11.6446 17.2701 11.3404 18.0816C11.2124 18.3978 11.1571 18.7023 11.1746 18.9951C11.1877 19.2148 11.2494 19.3874 11.3598 19.513C11.4848 19.6378 11.6424 19.6945 11.8328 19.6831C12.3159 19.6543 12.9072 19.2222 13.6066 18.3871Z" fill="#428DFC"></path> <path d="M20.2632 20.4138C20.06 20.4553 19.9071 20.4791 19.8046 20.4853C19.2629 20.5176 18.8063 20.3759 18.4348 20.0602C18.0634 19.7444 17.8597 19.2864 17.8238 18.6862C17.7268 18.0455 17.8182 17.2392 18.0981 16.2675C18.3926 15.2949 18.7842 14.4707 19.2728 13.7951C19.6134 13.3486 19.9077 12.9858 20.1555 12.7065C20.4032 12.4272 20.6343 12.2371 20.8487 12.1362C21.1483 11.986 21.4884 11.8996 21.869 11.8769C22.1361 11.9197 22.3988 12.0142 22.6573 12.1604C22.9305 12.3057 23.0719 12.4588 23.0815 12.6199L23.1979 12.7231C23.2857 12.7179 23.3728 12.8229 23.4591 13.0381C23.5446 13.2387 23.5947 13.4635 23.6096 13.7123C23.6218 13.9173 23.5957 14.0952 23.5313 14.246C23.4893 14.5276 23.4012 14.7753 23.2671 14.989C23.1476 15.2019 23.0219 15.3122 22.8902 15.3201C22.7291 15.3297 22.6512 15.3784 22.6565 15.4663C22.66 15.5249 22.6324 15.5559 22.5739 15.5594C22.5007 15.5638 22.4102 15.5251 22.3025 15.4434C22.1947 15.3616 22.1154 15.2635 22.0645 15.149C22.0619 15.1051 22.0837 14.9789 22.13 14.7704C22.1763 14.562 22.2214 14.3315 22.2651 14.0792C22.2985 13.9009 22.3113 13.7458 22.3034 13.614C22.2859 13.3212 22.1674 13.1814 21.9477 13.1945C21.8306 13.2015 21.7152 13.2378 21.6016 13.3033C21.0352 13.6604 20.5461 14.2039 20.1342 14.9337C19.7223 15.6636 19.3994 16.6526 19.1654 17.9008C19.1114 18.2272 19.0901 18.4856 19.1015 18.676C19.1102 18.8224 19.1246 18.9391 19.1444 19.026C19.179 19.1121 19.2113 19.1616 19.2415 19.1745C19.3164 19.1994 19.471 19.2049 19.7053 19.1909C20.247 19.1585 20.6237 19.0699 20.8354 18.925C21.2891 18.6481 21.7887 18.2804 22.3343 17.8217C22.3903 17.7743 22.4737 17.6958 22.5847 17.5863C22.6949 17.4622 22.7999 17.3751 22.8997 17.3251C22.9926 17.1579 23.0821 17.0571 23.1682 17.0226C23.2534 16.9734 23.3911 16.9431 23.5815 16.9317C23.7753 16.9789 23.9338 17.0503 24.0571 17.1458C24.1795 17.2266 24.1838 17.2998 24.0702 17.3654C24.0263 17.368 23.9979 17.3844 23.985 17.4145C23.9721 17.4447 23.9661 17.4671 23.967 17.4817C24.0006 17.5532 23.8944 17.7432 23.6484 18.0518C23.4023 18.3603 23.1261 18.656 22.8198 18.9387C22.5126 19.2069 22.3004 19.3444 22.1833 19.3514C22.1247 19.3549 22.0739 19.3653 22.0308 19.3826C21.9878 19.3998 21.968 19.4377 21.9715 19.4963C21.975 19.5549 21.7564 19.7075 21.3157 19.9542C20.8887 20.1854 20.5379 20.3386 20.2632 20.4138Z" fill="#428DFC"></path> <path d="M26.2566 19.4828C26.1308 19.3434 26.0635 19.2005 26.0547 19.0541C26.0477 18.9369 26.0076 18.8806 25.9344 18.8849C25.8413 18.8023 25.98 18.2945 26.3503 17.3614C26.7198 16.4137 27.0439 15.6891 27.3225 15.1876C27.3784 15.1402 27.4188 15.079 27.4437 15.004C27.4678 14.9144 27.4651 14.8705 27.4359 14.8723C27.4625 14.8266 27.5021 14.7508 27.5545 14.6448C27.6069 14.5388 27.6603 14.4475 27.7144 14.3708C27.9345 13.8728 28.0138 13.4787 27.9524 13.1885C27.8903 13.1334 27.8231 13.1154 27.7508 13.1344C27.6931 13.1525 27.6574 13.1694 27.6436 13.1849C27.6152 13.2013 27.5364 13.2354 27.4073 13.2872C27.2919 13.3234 27.1921 13.3735 27.1077 13.4373C26.7841 13.677 26.5784 13.7995 26.4905 13.8047C26.4027 13.81 26.3195 13.7709 26.2411 13.6874C26.1773 13.6031 26.1026 13.4606 26.0172 13.26C25.9654 13.1308 25.9378 13.037 25.9343 12.9784C25.9281 12.876 25.9806 12.77 26.0916 12.6605C26.1742 12.5674 26.2727 12.4954 26.3872 12.4445C26.5155 12.378 26.6007 12.3289 26.6429 12.297C26.9399 12.1029 27.1533 11.9873 27.2834 11.9502C27.5425 11.8612 27.7526 11.8119 27.9137 11.8023C28.3529 11.7761 28.6726 11.9627 28.8727 12.3621C29.0926 12.5988 29.2121 12.8782 29.2314 13.2003C29.248 13.4784 29.1669 13.8432 28.9882 14.2947L28.7882 14.6372C28.7496 14.7277 28.7311 14.7876 28.7329 14.8168C28.7346 14.8461 28.7428 14.8603 28.7574 14.8595C28.816 14.856 28.8788 14.8008 28.9459 14.6939C29.0147 14.6164 29.1047 14.5228 29.2157 14.4133C29.3258 14.2892 29.4028 14.2259 29.4467 14.2232C29.4614 14.2224 29.4829 14.2137 29.5113 14.1973C29.5388 14.1663 29.55 14.1069 29.5447 14.019L29.7525 13.8083C29.8111 13.8048 29.9794 13.6698 30.2573 13.4034L30.6549 13.0491C30.8089 12.9224 30.9518 12.8551 31.0836 12.8472C31.1266 12.8299 31.1921 12.8187 31.2799 12.8134C31.5581 12.7968 31.7942 12.937 31.9883 13.2339C32.1814 13.5163 32.292 13.8917 32.32 14.3602L31.9297 15.5736L32.6625 14.5601C32.7847 14.3912 32.9499 14.205 33.1581 14.0016C33.1822 13.912 33.2157 13.8585 33.2587 13.8413C33.3156 13.8085 33.3513 13.7917 33.3659 13.7908C33.3806 13.7899 33.3948 13.7817 33.4085 13.7662C33.4369 13.7498 33.4503 13.727 33.4485 13.6977C33.5045 13.6503 33.5746 13.5947 33.6589 13.5309C33.7571 13.4515 33.8194 13.389 33.8461 13.3434C33.9744 13.2769 34.119 13.2389 34.2801 13.2293C34.5875 13.2109 34.8555 13.3933 35.0841 13.7763C35.1816 13.9321 35.2416 14.0755 35.2641 14.2064C35.3004 14.3217 35.3272 14.5258 35.3447 14.8186C35.3054 15.1442 35.2743 15.484 35.2513 15.838C35.2548 15.8966 35.2489 16.0439 35.2336 16.2799C35.1701 16.4453 35.1483 16.6964 35.1684 17.0331C35.1807 17.2381 35.1959 17.3694 35.214 17.4271C35.2468 17.4839 35.3071 17.5097 35.3949 17.5044C35.6119 17.4474 35.8913 17.3278 36.2331 17.1458C36.5886 16.9483 36.8421 16.7642 36.9935 16.5935C37.2 16.3608 37.3911 16.2392 37.5667 16.2287C37.7278 16.219 37.8355 16.3008 37.8899 16.4738C37.9391 16.559 37.836 16.8003 37.5805 17.1976C37.3397 17.594 37.1681 17.7952 37.0656 17.8013C37.0363 17.8031 36.9804 17.8505 36.8978 17.9436C36.8298 18.0358 36.7748 18.0979 36.7326 18.1298C36.5003 18.4228 36.3037 18.5741 36.1426 18.5838C36.0841 18.5873 36.0049 18.614 35.905 18.6641C35.8189 18.6986 35.7393 18.718 35.666 18.7224C35.6376 18.7388 35.5649 18.7505 35.4478 18.7575C35.2281 18.7706 35.0124 18.7247 34.8004 18.6199C34.5884 18.515 34.4462 18.3472 34.3736 18.1164C34.239 17.8306 34.156 17.4241 34.1245 16.8971C34.1166 16.7653 34.1186 16.5522 34.1304 16.2576L34.1995 15.5703C34.2122 15.2903 34.2314 15.1202 34.2572 15.0599L34.2454 14.8623C34.2305 14.6134 34.2011 14.4902 34.1572 14.4929C34.0401 14.4999 33.6748 14.9037 33.0615 15.7043C32.4472 16.4904 31.9806 17.1647 31.6616 17.7274C31.567 17.8653 31.4617 18.0699 31.3456 18.3413C31.2434 18.5972 31.178 18.7334 31.1496 18.7497C31.0946 18.8118 31.0304 18.845 30.9572 18.8494C30.8694 18.8546 30.7716 18.8164 30.6639 18.7347C30.5562 18.653 30.4618 18.5484 30.3807 18.421C30.3134 18.2781 30.2775 18.17 30.2732 18.0968C30.267 17.9944 30.2992 17.7941 30.3695 17.496C30.439 17.1833 30.5394 16.7733 30.6707 16.2659C30.8029 15.7731 30.9097 15.348 30.9912 14.9905C31.0874 14.6321 31.1466 14.3935 31.1689 14.2746C31.1627 14.1722 30.8125 14.4576 30.118 15.1308C29.9821 15.3153 29.8247 15.5083 29.6457 15.71C29.33 16.0815 28.9738 16.5142 28.5772 17.008C28.1953 17.501 27.8632 17.969 27.5812 18.4119C27.2853 18.8704 27.0621 19.1922 26.9115 19.3776C26.7756 19.562 26.6564 19.6573 26.5539 19.6634C26.4807 19.6678 26.3816 19.6076 26.2566 19.4828Z" fill="#428DFC"></path> <path d="M45.2703 18.8981C44.8068 18.7642 44.422 18.4713 44.1159 18.0194C43.8097 17.5675 43.6043 17.0802 43.4996 16.5575C43.4695 16.5446 43.3103 16.7084 43.0221 17.0489C42.5549 17.591 42.1264 18.0427 41.7366 18.4039C41.3459 18.7505 40.9735 18.9123 40.6195 18.8894C40.3464 18.7441 40.0939 18.5755 39.862 18.3836C39.7224 18.2597 39.6344 18.1401 39.5981 18.0247C39.3919 17.5228 39.2778 17.0888 39.2559 16.7228C39.2384 16.43 39.2511 16.1501 39.2939 15.8831C39.3505 15.6005 39.4509 15.1905 39.5951 14.6529C39.6191 14.5633 39.7478 14.012 39.9812 12.999C40.2283 11.9704 40.4216 11.3932 40.561 11.2673L40.8451 11.2283C40.9916 11.2196 41.1044 11.2642 41.1837 11.3623C41.2165 11.4192 41.3014 11.4876 41.4384 11.5675C41.5901 11.6466 41.6694 11.7447 41.6764 11.8619C41.6895 12.0815 41.5617 12.6474 41.293 13.5597C41.074 14.3222 40.9062 14.9566 40.7895 15.4631C40.672 15.955 40.625 16.3986 40.6486 16.7939C40.6609 16.9989 40.6938 17.1806 40.7473 17.339C40.8352 17.3338 40.969 17.2376 41.1488 17.0506C41.3424 16.848 41.481 16.7075 41.5644 16.629C41.7478 16.5005 42.0308 16.1971 42.4137 15.7188C42.8103 15.2249 43.0817 14.8487 43.2278 14.5902C43.3602 14.3472 43.5394 13.9031 43.7653 13.2578C44.0059 12.6116 44.1196 12.1788 44.1065 11.9591C44.0969 11.7981 44.1114 11.6723 44.1501 11.5819C44.1888 11.4914 44.2645 11.4061 44.3773 11.3259C44.5969 11.3128 44.7583 11.3105 44.8617 11.319C44.9712 11.43 45.0802 11.5337 45.1888 11.63C45.3112 11.7109 45.4112 11.7857 45.4887 11.8545C45.525 11.9699 45.5449 12.0569 45.5484 12.1155C45.5659 12.4083 45.4596 12.9656 45.2295 13.7874C45.0716 14.3405 44.9523 14.8031 44.8716 15.1753C44.8057 15.5465 44.7832 15.9078 44.8041 16.2592C44.8365 16.8009 45.0173 17.2456 45.3466 17.5932C45.5748 17.4768 45.7732 17.3547 45.9419 17.2271C46.1106 17.0995 46.2646 16.9727 46.404 16.8469C46.5563 16.6908 46.7874 16.5007 47.0973 16.2765C47.2334 16.3418 47.3459 16.5041 47.4349 16.7632C47.5376 17.0069 47.5946 17.2239 47.606 17.4142C47.4528 17.5556 47.3629 17.6491 47.3362 17.6948C47.2349 17.9653 46.9866 18.2373 46.5916 18.5106C46.2103 18.7685 45.8586 18.907 45.5365 18.9263C45.4779 18.9298 45.3892 18.9204 45.2703 18.8981Z" fill="#428DFC"></path> <path d="M52.0233 18.1862C51.852 18.2699 51.6711 18.3174 51.4808 18.3288C51.1734 18.3472 50.7952 18.2889 50.3464 18.1541C50.2732 18.1585 50.1521 18.0996 49.9832 17.9775C49.8143 17.8553 49.6884 17.7159 49.6056 17.5592C49.3831 17.2787 49.257 16.8895 49.2273 16.3917C49.1827 15.645 49.3417 14.7393 49.7041 13.6745C49.8451 13.3281 50.0824 12.8731 50.416 12.3096C50.7635 11.7305 51.0009 11.4004 51.1283 11.3194C51.1713 11.3021 51.2716 11.2594 51.4292 11.1912C51.5858 11.1084 51.7636 11.0096 51.9624 10.8949C52.1613 10.7801 52.3998 10.7145 52.678 10.6979C52.9561 10.6812 53.2697 10.7654 53.6187 10.9502C53.9814 11.1196 54.2731 11.3299 54.4939 11.5812C54.7146 11.8324 54.8013 12.055 54.7541 12.2488C54.7421 12.2936 54.66 12.394 54.5077 12.5501C54.37 12.7052 54.2599 12.8293 54.1773 12.9224C54.1084 13 54.0228 13.0418 53.9203 13.048C53.7885 13.0558 53.6683 13.0116 53.5597 12.9152C53.4503 12.8042 53.3825 12.654 53.3565 12.4645C53.322 12.3784 53.2211 12.289 53.054 12.1961C52.9014 12.1024 52.795 12.0426 52.7347 12.0168C52.6176 12.0238 52.4553 12.1364 52.248 12.3544C52.0552 12.5716 51.8656 12.8401 51.679 13.1598C51.3632 13.5313 51.1035 13.9802 50.8999 14.5066C50.6962 15.0331 50.5541 15.4823 50.4735 15.8545C50.4477 15.9148 50.4392 16.0181 50.4479 16.1645C50.4576 16.3256 50.4818 16.4858 50.5207 16.6451C50.5743 16.8035 50.6243 16.9033 50.6708 16.9446C50.701 16.9575 50.7746 16.9605 50.8918 16.9535C51.2285 16.9334 51.7013 16.8537 52.31 16.7145C52.9326 16.5598 53.4083 16.4065 53.7372 16.2546C54.0608 16.0149 54.3763 15.8858 54.6838 15.8675C54.7862 15.8613 54.8599 15.8643 54.9047 15.8763C55.1002 15.9528 55.2015 16.0496 55.2085 16.1667C55.2208 16.3717 55.0216 16.604 54.611 16.8636C54.37 17.0102 54.1656 17.1546 53.9978 17.2969C53.8299 17.4392 53.7482 17.5469 53.7526 17.6201C53.7233 17.6218 53.6661 17.6473 53.5808 17.6965C53.4947 17.731 53.4366 17.7418 53.4065 17.7289C53.2463 17.7532 53.0005 17.8193 52.669 17.9273C52.3375 18.0352 52.1223 18.1215 52.0233 18.1862Z" fill="#428DFC"></path> <path d="M56.1379 18.4253C56.0483 18.4013 55.9182 18.3135 55.7475 18.1621C55.5906 17.9952 55.4811 17.8842 55.4191 17.8291C55.4129 17.7266 55.4374 17.6444 55.4925 17.5823C55.5622 17.5194 55.6108 17.4724 55.6383 17.4413C55.6787 17.3802 55.7713 17.3306 55.9159 17.2925C56.0752 17.2536 56.1755 17.2109 56.2168 17.1644C56.2728 17.1169 56.4131 17.0057 56.6377 16.8307C56.8623 16.6556 57.0577 16.4823 57.2237 16.3108C57.4036 16.1238 57.5468 15.9389 57.6534 15.7562C58.0017 15.1918 58.3659 14.5235 58.7459 13.7515C58.8628 13.4947 59.011 13.148 59.1906 12.7111C59.384 12.2588 59.4914 11.9659 59.5128 11.8324L58.8189 11.6534C58.7879 11.6259 58.7404 11.5699 58.6766 11.4856C58.6128 11.4013 58.5718 11.3302 58.5537 11.2725C58.5502 11.214 58.5463 11.1481 58.5419 11.0749C58.5314 10.8992 58.5386 10.7739 58.5635 10.6989C58.6031 10.6231 58.681 10.5744 58.7972 10.5528C59.2458 10.4378 59.6152 10.3496 59.9054 10.2882C60.3411 10.2034 60.6671 10.1252 60.8832 10.0535C61.0562 9.99908 61.2526 9.96531 61.4722 9.95219C61.8528 9.92946 62.2008 9.97479 62.5161 10.0882C62.741 10.1629 62.9418 10.3272 63.1186 10.5811C63.3402 10.8471 63.4593 11.1191 63.4759 11.3973C63.482 11.4998 63.4808 11.6027 63.4723 11.7061C63.4629 11.7948 63.4613 11.8904 63.4674 11.9929C63.4753 12.1246 63.5051 12.2551 63.5569 12.3842C63.4085 13.0983 63.242 13.7548 63.0574 14.3535C63.0205 14.4733 62.9664 14.6748 62.8952 14.9583C62.824 15.2417 62.7725 15.4872 62.7408 15.6948C62.71 15.917 62.6564 16.1259 62.5799 16.3215C62.4829 16.6652 62.4259 16.9404 62.4088 17.1471C62.3892 17.3099 62.3307 17.4383 62.2335 17.5323C62.15 17.6107 62.0515 17.6827 61.9378 17.7483C61.838 17.7983 61.7738 17.8316 61.7454 17.8479C61.6886 17.8807 61.5853 17.8722 61.4354 17.8224C61.2854 17.7726 61.1562 17.6995 61.0476 17.6031C61.0131 17.517 60.9914 17.4008 60.9827 17.2544C60.9757 17.1372 60.9953 16.9745 61.0417 16.766C61.2545 15.9011 61.5397 14.6499 61.8974 13.0123L62.0891 12.1633C62.1252 12.029 62.1379 11.8739 62.1275 11.6982C62.1196 11.5665 62.0897 11.436 62.038 11.3069C61.7985 11.233 61.6128 11.2 61.4811 11.2079C61.4079 11.2123 61.3282 11.2317 61.2421 11.2662C61.156 11.3008 61.0768 11.3275 61.0045 11.3466C60.8642 11.4578 60.7847 11.6021 60.7659 11.7796C60.5314 12.5282 60.2844 13.1894 60.0248 13.7633C59.7652 14.3371 59.5654 14.8045 59.4254 15.1655C59.3756 15.3154 59.2238 15.6036 58.9701 16.0302C58.8102 16.3042 58.6975 16.5093 58.6322 16.6454L58.409 16.9673C58.3402 17.0449 58.2227 17.1694 58.0566 17.341C57.8906 17.5125 57.7731 17.6371 57.7043 17.7147L57.055 18.2824C56.9715 18.3608 56.8127 18.407 56.5784 18.421C56.3579 18.4195 56.2111 18.4209 56.1379 18.4253Z" fill="#428DFC"></path> <path d="M66.1692 17.187C65.9092 17.2613 65.6189 17.1978 65.2983 16.9966C64.9778 16.7954 64.7803 16.5647 64.706 16.3047C64.6879 16.247 64.6749 16.1523 64.667 16.0205C64.6347 15.4788 64.7981 14.7711 65.1573 13.8975C65.5303 13.0083 65.9955 12.1871 66.5529 11.4339C67.1094 10.666 67.6309 10.1721 68.1173 9.95199C68.4152 9.77258 68.608 9.68026 68.6959 9.67501C68.7837 9.66976 68.9861 9.73848 69.3032 9.88116C69.5117 9.92748 69.6694 9.98418 69.7762 10.0513C69.8831 10.1183 70.0236 10.2569 70.1977 10.4669C70.4108 10.8362 70.5779 11.2963 70.6989 11.8474C70.8051 12.1496 70.8622 12.3666 70.8701 12.4984C70.8771 12.6155 70.8392 12.7206 70.7567 12.8137C70.7429 12.8292 70.7154 12.8603 70.6741 12.9068C70.6474 12.9525 70.6349 12.99 70.6367 13.0192C70.6376 13.0339 70.6526 13.0403 70.6819 13.0386C70.6828 13.0532 70.6777 13.0903 70.6665 13.1497C70.6545 13.1945 70.6292 13.2621 70.5905 13.3526C70.448 13.9194 70.3886 14.4005 70.4122 14.7958C70.4201 14.9275 70.443 15.0658 70.4811 15.2104C70.6502 15.5823 70.9105 15.7578 71.2618 15.7368C71.5546 15.7193 71.8249 15.5709 72.0727 15.2917C72.2974 15.1166 72.4592 14.9968 72.5582 14.9321C72.6709 14.8519 72.7303 14.863 72.7365 14.9655C72.752 14.9793 72.7826 14.9995 72.8283 15.0261C72.8739 15.0528 72.9187 15.0648 72.9626 15.0622C73.0651 15.0561 73.1203 15.1189 73.1282 15.2507C73.136 15.3824 73.0935 15.5319 73.0007 15.6991C72.9043 15.8077 72.829 15.9003 72.7748 15.977C72.7207 16.0537 72.6949 16.114 72.6975 16.158L72.3864 16.4851C72.1179 16.6627 71.7933 16.7629 71.4126 16.7857C71.0173 16.8093 70.6978 16.7476 70.4539 16.6005C70.2402 16.4663 70.0298 16.2659 69.8229 15.9991C69.616 15.7323 69.4767 15.4908 69.405 15.2747L69.2821 15.0616L68.6701 15.5169C68.5325 15.6721 68.3733 15.8359 68.1926 16.0083C68.011 16.1661 67.8926 16.276 67.8376 16.338C67.7292 16.4914 67.6311 16.5708 67.5433 16.576L67.3236 16.5891C67.3298 16.6916 67.1904 16.8175 66.9054 16.9667C66.6342 17.1005 66.3888 17.1739 66.1692 17.187ZM65.8788 16.0142C66.0398 16.0046 66.4362 15.7532 67.0679 15.26C67.6988 14.7522 68.0955 14.3832 68.2581 14.1531L68.8556 13.4562C69.0741 13.1787 69.2392 12.8676 69.3508 12.523C69.4771 12.1775 69.5319 11.8657 69.5153 11.5876C69.5005 11.3387 69.4534 11.1652 69.374 11.067C69.305 10.8949 69.2119 10.8123 69.0948 10.8193C69.0362 10.8228 68.8709 10.8841 68.5989 11.0032C68.3312 11.1955 67.9599 11.6217 67.4851 12.2818C67.0249 12.9411 66.6173 13.6193 66.2623 14.3164C65.9063 14.9988 65.7375 15.4937 65.7559 15.8012C65.7585 15.8451 65.7758 15.8882 65.8077 15.9303C65.8396 15.9725 65.8633 16.0005 65.8788 16.0142Z" fill="#428DFC"></path> <path d="M75.7571 17.1433C75.6184 17.034 75.5261 16.9661 75.4805 16.9394C75.4348 16.9128 75.3004 16.8767 75.0773 16.8313C75.0419 16.7305 74.9427 16.5454 74.7797 16.276C74.5736 16.0239 74.4576 15.803 74.4316 15.6136L74.425 15.5038L74.4184 15.394C74.4088 15.2329 74.3652 15.118 74.2877 15.0492C74.3574 14.9862 74.3668 14.8975 74.3158 14.783C74.264 14.6539 74.2657 14.5583 74.3207 14.4962L74.3335 14.3412C74.2852 14.2706 74.2571 14.1694 74.2493 14.0377C74.2353 13.8034 74.2805 13.3305 74.3849 12.619C74.4911 11.9368 74.5256 11.5307 74.4885 11.4007L74.0489 11.0523C74.0651 10.8309 74.0921 10.6677 74.1299 10.5626C74.1668 10.4428 74.2636 10.3416 74.4203 10.2587L74.5779 10.3154C74.6356 10.2973 74.6787 10.28 74.7071 10.2637C74.7492 10.2317 74.7845 10.2076 74.8129 10.1912C75.0339 9.70785 75.2331 9.10823 75.4108 8.39237C75.482 8.10895 75.5743 7.80958 75.6877 7.49426C75.8149 7.16342 75.946 6.89847 76.081 6.69939C76.1627 6.59166 76.2358 6.46241 76.3003 6.31163C76.3647 6.16085 76.4099 6.05531 76.4356 5.995C76.6024 5.58833 76.8831 5.12343 77.278 4.60029C77.6875 4.07628 78.0687 3.69354 78.4216 3.45207C78.6324 3.29254 78.8175 3.19333 78.9768 3.15443C79.1361 3.11553 79.3837 3.07871 79.7195 3.04395C79.9169 3.14971 80.1168 3.29939 80.3194 3.49299C80.5211 3.67195 80.6267 3.84195 80.6363 4.003L80.656 4.33241C80.6709 4.5813 80.6461 4.78113 80.5816 4.93191C80.6041 5.0628 80.5802 5.27728 80.5099 5.57533C80.4592 5.7106 80.424 5.85963 80.4043 6.02242C80.0838 6.80559 79.7902 7.42553 79.5237 7.88224C79.2562 8.3243 78.9568 8.7242 78.6256 9.08192C78.3081 9.42412 77.7802 9.93317 77.0418 10.6091C77.6827 10.7618 78.0258 11.0939 78.0711 11.6055C78.0737 11.6494 78.0712 11.7304 78.0635 11.8484C78.0697 11.9508 78.0822 12.0382 78.1012 12.1106L78.1766 12.635C78.1836 12.7521 78.2088 12.9269 78.252 13.1594C78.3152 13.4789 78.3113 13.9052 78.2403 14.4384C78.2283 14.4832 78.2085 14.5211 78.181 14.5522C78.1681 14.5823 78.1629 14.6194 78.1655 14.6633C78.1752 14.8243 78.1546 14.9725 78.1039 15.1077C78.067 15.2275 78.009 15.3632 77.9299 15.5148C77.8646 15.651 77.8061 15.7794 77.7545 15.9C77.7288 15.9603 77.6741 16.0297 77.5907 16.1081C77.5063 16.1719 77.4439 16.2344 77.4035 16.2956C77.2401 16.5111 77.0727 16.6607 76.9014 16.7444C76.7301 16.828 76.5071 16.9075 76.2324 16.9827C76.0292 17.0242 75.8845 17.0622 75.7984 17.0967L75.7571 17.1433ZM76.5704 9.35894L77.6147 8.39296C77.6715 8.36018 77.8074 8.17575 78.0224 7.83967C78.2375 7.50358 78.3643 7.29031 78.403 7.19984C78.5562 7.05846 78.7152 6.76979 78.8802 6.33385C79.0443 5.88326 79.1713 5.42754 79.2614 4.96669C79.3505 4.4912 79.3739 4.14452 79.3315 3.92666L79.1817 4.00172C78.9787 4.29301 78.6862 4.68515 78.3043 5.17813C77.8535 5.74869 77.451 6.38983 77.0968 7.10155C76.7572 7.81239 76.4986 8.52574 76.321 9.24161L76.5704 9.35894ZM76.2015 15.7283C76.5457 15.3404 76.7645 14.9453 76.8581 14.543C76.9507 14.1261 76.9795 13.6248 76.9445 13.0392L76.8986 12.2706C76.896 12.2266 76.8774 12.1616 76.8429 12.0755C76.823 11.9886 76.826 11.9149 76.8518 11.8546C76.8172 11.7685 76.749 11.611 76.6472 11.382C76.56 11.1521 76.4388 10.9683 76.2837 10.8307C76.1701 10.8962 76.0788 10.9678 76.01 11.0454C75.9412 11.1229 75.8534 11.2531 75.7468 11.4357C75.6695 11.6167 75.6039 11.9953 75.5502 12.5715C75.5102 13.1322 75.506 13.6761 75.5374 14.2032C75.5855 15.0084 75.7117 15.5224 75.9161 15.7453L76.2015 15.7283Z" fill="#428DFC"></path> <path d="M80.2915 16.2774C80.2423 16.1922 80.1638 16.1087 80.0561 16.027C79.9621 15.9297 79.9143 15.8665 79.9125 15.8372C79.9029 15.6762 79.8589 15.5539 79.7804 15.4704C79.7494 15.4429 79.7308 15.3779 79.7247 15.2754C79.7107 15.0412 79.7969 14.6393 79.9833 14.0698C80.1834 13.4849 80.4468 12.852 80.7735 12.1714C80.8561 12.0783 80.9567 11.918 81.0754 11.6905C81.2087 11.4621 81.2964 11.332 81.3386 11.3001C81.3351 11.2415 81.354 11.189 81.3953 11.1424C81.4357 11.0813 81.4852 11.0489 81.5437 11.0454L81.5359 10.9137C81.528 10.7819 81.7508 10.4527 82.2042 9.92606C82.6567 9.38478 83.031 9.00979 83.3271 8.8011C83.6783 8.53035 84.0442 8.38361 84.4248 8.36087C84.6883 8.34513 84.9196 8.40478 85.1187 8.53982C85.1972 8.62329 85.5527 8.91795 86.1853 9.4238L87.0411 10.1L86.7114 11.2216C86.6033 11.6248 86.5588 11.9874 86.5781 12.3095C86.6113 12.8659 86.8043 13.3906 87.157 13.8838C87.2398 14.0405 87.3954 14.1855 87.6237 14.3187C87.8521 14.452 88.0769 14.5268 88.2983 14.5429C88.6239 14.5822 88.7945 14.7337 88.8103 14.9972C88.8278 15.29 88.7065 15.4736 88.4465 15.5479C88.3888 15.566 88.3014 15.5786 88.1842 15.5856C87.3205 15.6372 86.5375 15.0742 85.8354 13.8966C85.7716 13.8123 85.6814 13.656 85.5649 13.4279C85.4631 13.1989 85.4022 13.0409 85.3824 12.954C85.3015 13.0763 85.2 13.222 85.0779 13.3909C84.9557 13.5598 84.8396 13.7063 84.7295 13.8304C83.229 15.5216 82.0175 16.3947 81.0952 16.4498C80.8024 16.4673 80.5345 16.4098 80.2915 16.2774ZM81.0086 15.0004C81.013 15.0736 81.0875 15.0912 81.2321 15.0531C81.3914 15.0142 81.5774 14.9297 81.79 14.7994C82.0173 14.6683 82.2423 14.5006 82.4652 14.2963C83.6596 13.1377 84.5109 12.1391 85.0191 11.3007L85.4551 10.4812C85.2903 10.1825 85.1234 9.97208 84.9545 9.84994C84.7847 9.71315 84.634 9.64869 84.5022 9.65656C84.1947 9.67493 83.7348 10.0918 83.1223 10.9071C82.5089 11.7077 81.9625 12.644 81.4828 13.7158C81.3659 13.9726 81.2641 14.2358 81.1774 14.5054C81.0898 14.7604 81.0335 14.9254 81.0086 15.0004Z" fill="#428DFC"></path> <path d="M95.7131 16.6566C95.2886 16.682 95.0142 16.6396 94.8901 16.5294C94.766 16.4193 94.6978 16.2618 94.6855 16.0568C94.7216 15.9224 94.7714 15.7725 94.835 15.6071C94.9578 15.203 95.0359 14.9119 95.0693 14.7336C95.1113 14.4519 95.1855 14.0948 95.2919 13.6624C95.8359 11.4554 96.208 10.0593 96.4082 9.47438L97.1036 7.09668L97.7385 4.81076C98.0573 3.99831 98.2741 3.32418 98.389 2.78838C98.4019 2.75822 98.4066 2.71386 98.4031 2.6553C98.4005 2.61138 98.3746 2.54681 98.3254 2.46159C98.2754 2.36173 98.2469 2.25323 98.2399 2.13611C98.2148 1.9613 98.2512 1.83423 98.3494 1.7549C98.4612 1.66006 98.6063 1.62936 98.7846 1.66279C99.1568 1.74341 99.7747 1.75792 100.639 1.70633C100.961 1.68709 101.15 1.66108 101.207 1.6283C101.321 1.56275 102.009 1.40409 103.272 1.15232C104.535 0.900555 105.727 0.675123 106.846 0.476024L107.043 0.442258C107.16 0.435263 107.292 0.442033 107.44 0.46257C107.603 0.482232 107.714 0.497634 107.774 0.508777C107.996 0.539582 108.193 0.645338 108.366 0.826047C108.552 0.991239 108.63 1.18495 108.599 1.40719C108.551 1.58637 108.395 1.68383 108.131 1.69957C108.044 1.70482 107.822 1.68865 107.467 1.65108C107.438 1.65283 107.395 1.79497 107.339 2.07752C107.297 2.35919 107.244 2.59005 107.182 2.77011C107.033 2.9847 106.851 3.5098 106.637 4.34541C106.422 5.18102 106.322 5.72327 106.337 5.97216C106.15 6.29186 106.01 6.76309 105.915 7.38587C105.86 7.69769 105.801 7.95095 105.74 8.14565C105.6 8.75641 105.381 9.76858 105.083 11.1822C104.8 12.5949 104.666 13.3008 104.681 13.2999L104.64 14.0958C104.611 14.5824 104.594 14.9213 104.591 15.1125C104.609 15.1702 104.612 15.2215 104.6 15.2663C104.603 15.3102 104.582 15.3408 104.539 15.358C104.443 15.4666 104.256 15.5293 103.978 15.5459C103.86 15.5529 103.742 15.5452 103.624 15.5229C103.519 15.4998 103.451 15.4671 103.419 15.4249C103.402 15.3819 103.353 15.304 103.273 15.1912C103.192 15.0638 103.162 14.9334 103.184 14.7999C103.2 14.3288 103.269 13.5165 103.391 12.3632C103.442 11.9928 103.51 11.6508 103.594 11.3373C103.677 11.009 103.74 10.829 103.782 10.7971L104.106 9.21293C104.24 8.74945 104.336 8.2662 104.394 7.76318C104.405 7.70374 104.433 7.54783 104.477 7.29544C104.519 7.02841 104.59 6.73035 104.688 6.40126C104.824 5.98171 104.937 5.53418 105.026 5.05869C105.129 4.56768 105.192 4.26274 105.214 4.14387C105.248 3.9802 105.35 3.59943 105.52 3.00156C105.545 2.92661 105.587 2.76982 105.647 2.5312C105.72 2.27707 105.744 2.07723 105.721 1.9317L104.283 2.21592L102.976 2.47031L101.474 2.78043C100.69 2.94477 100.277 3.02826 100.233 3.03088C99.9865 3.08967 99.8673 3.18494 99.8752 3.31671C99.564 4.01116 99.2895 4.70343 99.0515 5.39351C98.8127 6.06895 98.6552 6.62934 98.5789 7.07468C98.5282 7.20994 98.3252 7.86856 97.9697 9.05052C97.7464 9.73973 97.6411 10.0693 97.654 10.0391C97.4198 11.0375 97.1601 11.9787 96.875 12.8626C96.8114 13.028 96.7547 13.1856 96.7049 13.3356C96.6697 13.4846 96.6385 13.6995 96.6112 13.9803C96.5124 14.2947 96.4099 14.7931 96.3038 15.4753C96.2566 15.6691 96.2287 15.8177 96.2202 15.9211C96.2254 16.0089 96.2178 16.1269 96.1973 16.275C96.0941 16.5163 95.9327 16.6435 95.7131 16.6566Z" fill="#428DFC"></path> <path d="M110.456 15.3352C109.826 15.3728 109.293 15.1696 108.855 14.7256C108.417 14.2816 108.177 13.7082 108.135 13.0055C108.093 12.3027 108.201 11.5249 108.458 10.672C108.73 9.80365 109.094 9.01786 109.552 8.31466C110.009 7.61146 110.487 7.12743 110.986 6.86258C111.269 6.68404 111.594 6.58384 111.96 6.56198C112.238 6.54537 112.557 6.60709 112.918 6.74715C113.173 6.83477 113.371 6.94785 113.512 7.08638C113.652 7.22492 113.783 7.44485 113.904 7.74618C113.963 8.00709 113.996 8.18878 114.002 8.29127C114.008 8.37911 113.982 8.57162 113.927 8.86881C113.783 9.421 113.577 9.89617 113.306 10.2943C113.05 10.6769 112.703 11.0136 112.265 11.3042C112.039 11.4646 111.751 11.5553 111.399 11.5763C111.092 11.5947 110.796 11.5609 110.512 11.475C110.241 11.3737 110.026 11.2175 109.867 11.0067L109.703 10.8402L109.647 11.0198C109.387 11.8287 109.273 12.5114 109.307 13.0677C109.329 13.4484 109.421 13.7515 109.581 13.977C109.693 14.1319 109.947 14.1975 110.342 14.1739C110.635 14.1564 110.846 14.1145 110.974 14.0481C111.189 13.9617 111.374 13.8625 111.529 13.7504C111.698 13.6228 111.859 13.4956 112.013 13.3689L112.099 13.3197L112.077 13.321C112.247 13.2227 112.389 13.1334 112.502 13.0532C112.614 12.973 112.692 12.917 112.734 12.8851C112.763 12.8833 112.792 12.8742 112.82 12.8579C112.849 12.8415 112.876 12.8104 112.903 12.7648C113.031 12.6983 113.186 12.7111 113.368 12.8031C113.55 12.8951 113.646 13.0216 113.655 13.1827C113.633 13.3015 113.513 13.4997 113.294 13.7773C113.076 14.0548 112.908 14.2044 112.792 14.226C112.777 14.2269 112.727 14.2519 112.642 14.3011C112.557 14.3502 112.501 14.3903 112.473 14.4213L112.495 14.42C112.374 14.6036 112.247 14.6993 112.115 14.7072L111.94 14.7177C111.888 14.8383 111.698 14.9672 111.368 15.1045C111.053 15.2408 110.749 15.3178 110.456 15.3352ZM111.156 10.4448C111.595 10.4186 111.983 10.1457 112.319 9.62601C112.642 9.13653 112.79 8.65753 112.762 8.18904C112.747 7.94015 112.685 7.76752 112.577 7.67116C112.486 7.63248 112.404 7.61533 112.331 7.6197C112.258 7.62408 112.135 7.65347 111.962 7.70788C111.774 7.76317 111.494 7.98563 111.12 8.37526C110.746 8.75024 110.472 9.0825 110.298 9.37204L110.04 9.85027C110.155 9.79935 110.263 9.77083 110.366 9.76471C110.482 9.74308 110.548 9.74646 110.565 9.77487C110.577 9.97984 110.638 10.1451 110.748 10.2708C110.859 10.3964 110.995 10.4544 111.156 10.4448Z" fill="#428DFC"></path> <path d="M120.129 8.96114C119.748 9.219 119.44 9.47249 119.205 9.72161C119.122 9.80006 118.997 9.92505 118.831 10.0966C118.664 10.2535 118.517 10.3725 118.389 10.4535C118.519 10.6515 118.622 10.7849 118.7 10.8538L119.107 11.4024C119.651 12.1487 120.048 12.6392 120.297 12.8741C120.546 13.109 120.921 13.3584 121.422 13.6224C121.559 13.717 121.626 13.8453 121.621 14.0072C121.572 14.1717 121.512 14.2782 121.442 14.3265C121.385 14.3592 121.198 14.4218 120.88 14.5143C120.659 14.5128 120.489 14.4862 120.368 14.4346C120.262 14.3822 120.026 14.2347 119.659 13.9922C119.411 13.7866 119.044 13.4191 118.557 12.8899C118.084 12.3451 117.649 11.8275 117.252 11.3369C117.177 11.312 117.114 11.2423 117.063 11.1278C116.837 11.7731 116.728 12.1616 116.736 12.2934C116.663 12.5475 116.612 12.8077 116.584 13.0738C116.509 13.5338 116.419 13.8771 116.315 14.1037C116.305 14.4275 116.205 14.5951 116.015 14.6065C115.912 14.6126 115.777 14.5693 115.61 14.4764C115.459 14.3973 115.343 14.316 115.265 14.2325C115.201 14.1482 115.165 14.0401 115.158 13.9084C115.145 13.7034 115.168 13.467 115.225 13.1991C115.283 12.9312 115.348 12.6702 115.421 12.416C115.459 12.0611 115.5 11.7722 115.546 11.549C115.605 11.3104 115.701 11.0769 115.834 10.8486L116.16 9.66105C116.445 8.52738 116.768 7.4208 117.13 6.34132C117.195 6.20518 117.261 6.08369 117.328 5.97683C117.395 5.85534 117.448 5.76399 117.488 5.70281C117.485 5.64425 117.542 5.61147 117.659 5.60447C117.747 5.59922 117.836 5.61594 117.926 5.65461C118.016 5.67865 118.092 5.7182 118.154 5.77326C118.212 5.75512 118.298 5.84548 118.412 6.04432C118.527 6.24317 118.581 6.40159 118.573 6.51959C118.583 6.68064 118.535 6.85982 118.429 7.05715C118.388 7.10369 118.334 7.19503 118.269 7.33117C118.204 7.46731 118.124 7.61164 118.03 7.76417C117.922 8.16733 117.744 8.75832 117.497 9.53712L117.518 9.51384C117.557 9.43802 117.612 9.36864 117.682 9.3057C117.75 9.22813 117.791 9.17426 117.804 9.14411C117.815 9.08467 117.891 8.99202 118.03 8.86615C118.184 8.7394 118.289 8.645 118.344 8.58294C118.739 8.30957 119.243 7.90475 119.858 7.3685C120.486 6.81672 120.855 6.47878 120.965 6.35466C121.048 6.26157 121.133 6.2124 121.221 6.20715C121.294 6.20278 121.376 6.21993 121.467 6.25861C121.645 6.29203 121.766 6.35824 121.831 6.45723C121.895 6.54157 121.935 6.71551 121.95 6.97904C122.004 7.13747 121.955 7.30933 121.805 7.49463C121.654 7.67994 121.41 7.90021 121.073 8.15545C120.707 8.42707 120.393 8.69564 120.129 8.96114Z" fill="#428DFC"></path> <path d="M124.824 13.6836C124.564 13.7579 124.274 13.6944 123.954 13.4932C123.633 13.292 123.436 13.0613 123.361 12.8013C123.343 12.7436 123.33 12.6489 123.322 12.5171C123.29 11.9754 123.453 11.2677 123.813 10.3941C124.186 9.50494 124.651 8.68374 125.208 7.9305C125.765 7.16262 126.286 6.66865 126.773 6.44859C127.07 6.26918 127.263 6.17685 127.351 6.17161C127.439 6.16636 127.641 6.23508 127.958 6.37776C128.167 6.42408 128.325 6.48078 128.431 6.54786C128.538 6.61495 128.679 6.75348 128.853 6.96347C129.066 7.33276 129.233 7.79295 129.354 8.34404C129.46 8.64625 129.517 8.86323 129.525 8.995C129.532 9.11212 129.494 9.21723 129.412 9.31032C129.398 9.32583 129.371 9.35687 129.329 9.40341C129.303 9.44908 129.29 9.48656 129.292 9.51584C129.293 9.53048 129.308 9.53693 129.337 9.53518C129.338 9.54982 129.333 9.58685 129.322 9.64629C129.31 9.69109 129.284 9.75872 129.246 9.84919C129.103 10.416 129.044 10.8971 129.067 11.2924C129.075 11.4241 129.098 11.5624 129.136 11.707C129.305 12.0789 129.566 12.2544 129.917 12.2334C130.21 12.2159 130.48 12.0675 130.728 11.7883C130.953 11.6132 131.114 11.4934 131.213 11.4287C131.326 11.3485 131.386 11.3596 131.392 11.4621C131.407 11.4759 131.438 11.4961 131.483 11.5227C131.529 11.5494 131.574 11.5614 131.618 11.5588C131.72 11.5527 131.776 11.6155 131.783 11.7473C131.791 11.879 131.749 12.0285 131.656 12.1957C131.56 12.3043 131.484 12.3969 131.43 12.4736C131.376 12.5503 131.35 12.6106 131.353 12.6546L131.042 12.9817C130.773 13.1593 130.449 13.2595 130.068 13.2823C129.673 13.3059 129.353 13.2442 129.109 13.0971C128.895 12.9629 128.685 12.7625 128.478 12.4957C128.271 12.2289 128.132 11.9874 128.06 11.7713L127.937 11.5582L127.325 12.0135C127.188 12.1687 127.029 12.3325 126.848 12.5049C126.666 12.6627 126.548 12.7726 126.493 12.8346C126.384 12.988 126.286 13.0674 126.198 13.0726L125.979 13.0857C125.985 13.1882 125.846 13.3141 125.561 13.4633C125.289 13.5971 125.044 13.6705 124.824 13.6836ZM124.534 12.5108C124.695 12.5012 125.091 12.2498 125.723 11.7566C126.354 11.2488 126.751 10.8798 126.913 10.6497L127.511 9.95281C127.729 9.67529 127.894 9.36423 128.006 9.01962C128.132 8.67414 128.187 8.36232 128.171 8.08415C128.156 7.83526 128.109 7.66176 128.029 7.56365C127.96 7.39146 127.867 7.30886 127.75 7.31586C127.691 7.31936 127.526 7.38065 127.254 7.49975C126.986 7.69205 126.615 8.11828 126.14 8.77843C125.68 9.43771 125.273 10.1159 124.917 10.813C124.562 11.4954 124.393 11.9903 124.411 12.2978C124.414 12.3417 124.431 12.3848 124.463 12.4269C124.495 12.4691 124.519 12.4971 124.534 12.5108Z" fill="#428DFC"></path> <path d="M131.777 18.9545C131.659 18.9615 131.56 18.9013 131.479 18.7739C131.4 18.6758 131.356 18.5535 131.347 18.4071C131.341 18.3046 131.363 18.0536 131.412 17.6539C131.537 17.0294 131.592 16.6 131.578 16.3657C131.573 16.2925 131.582 16.1819 131.602 16.0337C131.623 15.9002 131.638 15.7744 131.646 15.6564C131.698 15.5504 131.74 15.3863 131.771 15.1641C131.817 14.9556 131.835 14.7709 131.826 14.6098C131.821 14.5366 131.838 14.4475 131.876 14.3424C131.929 14.251 131.991 14.1739 132.06 14.111C132.055 14.0231 132.069 13.89 132.103 13.7117C132.135 13.5188 132.156 13.3853 132.167 13.3112C132.216 12.9115 132.446 11.9575 132.855 10.449C133.265 8.94061 133.618 7.72204 133.915 6.79334C134.054 6.41771 134.151 6.07398 134.206 5.76215C134.261 5.45033 134.283 5.20657 134.273 5.03089C134.269 4.97232 134.281 4.92021 134.308 4.87454C134.348 4.81335 134.409 4.73621 134.492 4.64312C134.588 4.53452 134.681 4.47759 134.768 4.47234C134.842 4.46797 134.924 4.49244 135.015 4.54576C135.107 4.59908 135.198 4.65971 135.291 4.72767C135.386 4.85419 135.46 4.9747 135.51 5.0892C135.576 5.20282 135.613 5.32552 135.621 5.45729C135.623 5.50121 135.617 5.64117 135.602 5.87716C135.62 6.18462 135.569 6.44476 135.45 6.6576C135.329 6.8558 135.284 6.9467 135.312 6.93031C135.952 6.58351 136.529 6.3948 137.041 6.3642C137.656 6.32747 138.144 6.4967 138.504 6.87188C138.879 7.24619 139.085 7.74812 139.123 8.37766C139.139 8.64119 139.077 8.96809 138.939 9.35837C138.815 9.73313 138.683 9.99076 138.545 10.1313C138.457 10.1365 138.349 10.2972 138.221 10.6134C138.044 10.8591 137.744 11.1267 137.321 11.4165C136.897 11.6916 136.595 11.8052 136.416 11.7571C136.401 11.758 136.38 11.7666 136.351 11.783C136.323 11.7994 136.31 11.8369 136.314 11.8954C136.317 11.954 136.075 12.0786 135.587 12.2694C135.099 12.4602 134.693 12.5652 134.371 12.5844C134.196 12.5949 134.063 12.5955 133.975 12.5861C133.885 12.5621 133.794 12.5161 133.702 12.4481C133.606 12.5567 133.56 12.6549 133.565 12.7428C133.575 12.9038 133.519 13.201 133.398 13.6343C133.277 14.0677 133.173 14.2869 133.085 14.2922C133.071 14.3077 133.051 14.3383 133.024 14.384C133.012 14.4288 133.037 14.4787 133.099 14.5338C133.102 14.5777 133.101 14.6806 133.096 14.8425C133.091 15.0044 133.062 15.1311 133.008 15.2224C133.016 15.3542 133.005 15.5312 132.974 15.7534C132.944 15.9903 132.903 16.169 132.852 16.2897C132.862 16.4653 132.843 16.6355 132.794 16.8C132.76 16.9783 132.714 17.0692 132.656 17.0727C132.57 17.1072 132.539 17.3222 132.562 17.7175C132.569 18.0843 132.513 18.3742 132.394 18.587C132.274 18.7999 132.127 18.9115 131.951 18.922L131.777 18.9545ZM134.17 11.4284C134.39 11.4153 134.822 11.2792 135.468 11.0203C136.128 10.7458 136.582 10.4909 136.833 10.2555C137.125 9.97365 137.357 9.68061 137.53 9.37643C137.702 9.05761 137.778 8.74448 137.76 8.43703C137.746 8.20278 137.668 7.99442 137.524 7.81197C137.412 7.65704 137.232 7.58701 136.983 7.60188C136.69 7.61937 136.345 7.74284 135.947 7.97229C135.564 8.20087 135.214 8.49358 134.898 8.85043C134.65 9.1297 134.438 9.52434 134.263 10.0344C134.087 10.5297 134.007 10.9165 134.024 11.1947C134.033 11.3557 134.082 11.4336 134.17 11.4284Z" fill="#428DFC"></path> <path d="M140.818 13.3675C140.493 13.093 140.288 12.8482 140.201 12.6329C140.255 12.5416 140.277 12.4154 140.267 12.2544L140.234 11.7053C140.227 11.5882 140.218 11.4418 140.208 11.2661C140.212 11.0896 140.2 10.8846 140.171 10.6512C140.101 10.2146 140.249 9.86783 140.616 9.61084C140.786 9.49786 140.91 9.37287 140.99 9.23586C141.085 9.09797 141.155 8.91748 141.2 8.69437L141.464 7.202L141.433 7.42424C141.437 7.49744 141.513 7.04478 141.66 6.06626L141.657 6.00038C141.653 5.94181 141.662 5.84578 141.683 5.71226C141.705 5.57875 141.713 5.47539 141.709 5.40219C141.691 5.09474 141.84 4.89479 142.158 4.80235C142.472 4.88647 142.659 4.94874 142.72 4.98916C142.795 5.01407 142.95 5.14441 143.184 5.38019C143.19 5.46803 143.183 5.60067 143.164 5.7781C143.144 5.9409 143.116 6.08217 143.079 6.20192C143.032 6.39575 142.939 6.80536 142.8 7.43075C142.783 7.63747 142.738 7.87522 142.666 8.14399C142.668 8.17328 142.65 8.24047 142.612 8.34558C142.588 8.43517 142.594 8.53033 142.629 8.63107L144.304 8.26654L144.348 8.26392C144.407 8.26042 144.481 8.27801 144.572 8.31668C144.676 8.33984 144.765 8.35656 144.839 8.36682L145.11 7.73356C145.552 6.76683 145.86 6.14601 146.035 5.87111C146.249 5.52039 146.511 5.23292 146.821 5.00872C147.068 4.72945 147.419 4.57626 147.873 4.54915L148.708 5.2486C148.999 5.20183 149.189 5.17582 149.277 5.17057C149.482 5.15833 149.659 5.18444 149.81 5.2489C149.96 5.29871 150.098 5.39333 150.224 5.53274C150.256 5.57491 150.274 5.6326 150.278 5.7058C150.296 5.76349 150.292 5.80785 150.264 5.83888L149.723 6.37808C149.789 6.49171 149.847 6.60577 149.898 6.72027C149.963 6.81926 150.02 6.91868 150.07 7.01854C150.073 7.06247 150.055 7.13698 150.017 7.24209C149.994 7.34632 150 7.43416 150.033 7.50562C150.114 7.63301 150.16 7.78455 150.171 7.96024C150.175 8.03344 150.174 8.14368 150.168 8.29096C150.161 8.4236 150.168 8.53341 150.188 8.62038C150.223 8.72111 150.192 8.9287 150.093 9.24315C149.994 9.5576 149.933 9.76694 149.91 9.87117C149.889 10.0047 149.845 10.1322 149.779 10.2537C149.727 10.3743 149.688 10.4575 149.661 10.5031C149.529 10.7461 149.445 10.9348 149.409 11.0692C149.396 11.0994 149.361 11.1308 149.304 11.1636C149.262 11.1955 149.227 11.2197 149.198 11.236C148.884 11.6368 148.558 11.9575 148.22 12.1981C147.883 12.468 147.599 12.6319 147.368 12.6898C147.151 12.7468 146.764 12.7919 146.208 12.8252C145.921 12.6954 145.724 12.6043 145.618 12.5518C145.526 12.4839 145.455 12.4073 145.406 12.3221C145.264 12.1542 145.154 12.0359 145.076 11.9671C145.065 11.7768 144.98 11.5835 144.821 11.3873C144.833 11.3425 144.838 11.2908 144.834 11.2322C144.828 11.1297 144.808 11.0428 144.774 10.9713C144.755 10.8844 144.742 10.7969 144.737 10.7091L144.662 9.45733C144.543 9.43505 144.469 9.42478 144.44 9.42653C144.381 9.43003 144.317 9.45592 144.246 9.50422C144.175 9.55251 144.11 9.57109 144.051 9.55994C143.852 9.67467 143.623 9.76918 143.363 9.84349C143.117 9.91692 142.966 9.9627 142.908 9.98084C142.764 10.0335 142.621 10.1008 142.479 10.1828C142.337 10.2647 142.246 10.3363 142.206 10.3975C142.068 10.5526 141.992 10.7555 141.978 11.0061C141.983 11.094 141.93 11.3248 141.821 11.6987C141.707 12.2638 141.65 12.539 141.649 12.5244C141.655 12.6122 141.626 12.7462 141.563 12.9263C141.514 13.0908 141.461 13.1895 141.405 13.2222C141.264 13.3335 141.136 13.3926 141.019 13.3996C140.975 13.4022 140.908 13.3915 140.818 13.3675ZM146.937 11.3931C147.194 11.2602 147.447 11.0615 147.695 10.7969C147.944 10.5322 148.229 10.1332 148.549 9.59981C148.757 9.13196 148.869 8.80932 148.888 8.63188C148.922 8.45357 148.923 8.10089 148.891 7.57383C148.858 7.26725 148.777 7.00765 148.646 6.79504C148.531 6.58155 148.394 6.38402 148.236 6.20244C148.078 6.00621 147.959 5.85904 147.879 5.76093C147.798 5.8833 147.662 6.05309 147.469 6.2703C147.277 6.50216 147.114 6.71762 146.979 6.91669C146.844 7.11576 146.712 7.3734 146.584 7.68959C146.559 7.76455 146.527 7.84726 146.489 7.93772C146.45 8.02819 146.411 8.11865 146.373 8.20912C146.204 8.5865 146.085 8.92422 146.014 9.22228C145.943 9.5057 145.934 9.83686 145.986 10.2158C146.002 10.4939 146.038 10.7269 146.093 10.9146C146.148 11.0876 146.185 11.2177 146.205 11.3046C146.227 11.4355 146.356 11.494 146.59 11.48C146.722 11.4721 146.838 11.4432 146.937 11.3931Z" fill="#428DFC"></path> <path d="M152.222 12.6643C152.043 12.6162 151.85 12.4588 151.643 12.192C151.435 11.9105 151.324 11.6527 151.31 11.4184L151.563 10.4777L151.901 9.13514C152.022 8.93694 152.111 8.70389 152.168 8.43599C152.239 8.15257 152.281 7.98846 152.293 7.94367C152.423 7.65675 152.675 6.9658 153.051 5.8708L153.408 4.83568L153.558 4.40793C153.633 4.18307 153.681 4.00389 153.703 3.87038C153.696 3.75325 153.719 3.65634 153.773 3.57964C153.827 3.4883 153.883 3.44088 153.941 3.43738C154.01 3.3598 154.147 3.31489 154.352 3.30265C154.513 3.29303 154.658 3.38721 154.787 3.58518C154.917 3.78315 154.987 3.9773 154.999 4.16763C155.008 4.32868 154.95 4.58926 154.825 4.94938C154.714 5.30862 154.589 5.66874 154.449 6.02973C154.333 6.31578 154.232 6.5863 154.144 6.84131C154.071 7.08081 154.057 7.22121 154.103 7.2625C154.16 7.22972 154.281 7.16373 154.466 7.06452C154.651 6.95067 154.841 6.81442 155.037 6.65577C155.164 6.57469 155.284 6.49406 155.397 6.41386C155.509 6.31902 155.607 6.2397 155.692 6.17589C156.127 5.84133 156.395 5.65635 156.496 5.62094C156.58 5.55714 156.742 5.44459 156.983 5.28332C157.236 5.0919 157.369 4.98842 157.383 4.97291C157.553 4.87457 157.697 4.82191 157.814 4.81491C157.902 4.80966 157.984 4.83414 158.061 4.88833C158.138 4.94252 158.231 5.02511 158.34 5.13612C158.434 5.23335 158.484 5.33321 158.49 5.4357C158.496 5.53818 158.444 5.65148 158.334 5.7756C158.223 5.88508 158.034 6.03597 157.766 6.22828C157.584 6.37141 157.394 6.50766 157.196 6.63703C156.998 6.76639 156.807 6.89532 156.624 7.02382C155.608 7.73096 155.087 8.10737 155.06 8.15304C155.093 8.20986 155.167 8.33768 155.282 8.53653C155.411 8.7345 155.531 8.90363 155.642 9.04392L156.006 9.59522C156.196 9.83362 156.294 9.98942 156.298 10.0626C156.452 10.4208 156.645 10.6958 156.877 10.8876C157.123 11.0786 157.378 11.1662 157.642 11.1505C157.773 11.1426 157.925 11.0968 158.096 11.0131C158.311 10.9122 158.484 10.8577 158.615 10.8499C158.82 10.8376 158.966 10.9465 159.054 11.1763C159.103 11.2615 159.129 11.3261 159.131 11.37C159.135 11.4286 159.04 11.5665 158.847 11.7837C158.49 12.1871 158.113 12.4006 157.718 12.4242C157.586 12.4321 157.43 12.4047 157.25 12.3419C157.031 12.3697 156.744 12.2399 156.389 11.9526C156.049 11.6644 155.563 11.1571 154.932 10.4308C154.928 10.3722 154.836 10.1867 154.656 9.8742C154.59 9.74593 154.517 9.63274 154.438 9.53463C154.357 9.42188 154.301 9.34441 154.269 9.30224C154.266 9.24368 154.225 9.17266 154.146 9.08919C154.082 8.9902 154.033 8.9123 154 8.85549C153.837 8.82119 153.706 8.8437 153.608 8.92302C153.524 9.00147 153.442 9.1092 153.362 9.24622C153.297 9.38235 153.244 9.48102 153.204 9.5422C153.08 9.9316 152.962 10.4088 152.849 10.9739C152.734 11.5244 152.704 11.8788 152.758 12.0372C152.772 12.2715 152.745 12.4347 152.677 12.5269C152.608 12.6045 152.456 12.6503 152.222 12.6643Z" fill="#428DFC"></path> </svg> 