<?xml version="1.0" encoding="UTF-8"?> <svg xmlns="http://www.w3.org/2000/svg" width="120" height="22" viewBox="0 0 120 22" fill="none"> <path d="M13.8312 20.8327C13.8347 20.8913 13.7852 20.9236 13.6827 20.9298C13.6095 20.9341 13.5199 20.9101 13.4139 20.8577C13.3079 20.8052 13.2226 20.7295 13.1579 20.6305C13.0259 20.3886 12.949 20.0847 12.9271 19.7187L12.8953 18.8169C13.19 16.1253 13.5644 13.4141 14.0184 10.6835C14.1805 9.95389 14.3082 9.26305 14.4015 8.61099C14.5094 7.95806 14.5728 7.54288 14.5916 7.36544C14.5889 7.32152 14.5463 7.34611 14.4637 7.4392C14.3949 7.51677 14.3274 7.61631 14.2612 7.7378C14.1941 7.84466 14.1692 7.91961 14.1865 7.96266L13.686 8.808C13.6034 8.90109 13.4185 9.25007 13.1314 9.85493C12.9398 10.3365 12.764 10.7144 12.604 10.9884L12.0587 12.189C11.6546 13.0507 11.4066 13.5724 11.3147 13.7542C11.1814 13.9825 10.9918 14.3759 10.746 14.9342C10.6206 15.2943 10.382 15.7273 10.0302 16.2332C9.92267 16.4012 9.81603 16.5839 9.71028 16.7812C9.61916 16.9777 9.56071 17.1061 9.53493 17.1664C9.5393 17.2396 9.40044 17.4976 9.11835 17.9406C8.8509 18.3826 8.60103 18.7502 8.36876 19.0432C8.05301 19.4147 7.79014 19.6875 7.58015 19.8617C7.36929 20.0212 7.16869 20.1067 6.97837 20.118C6.72948 20.1329 6.45032 20.01 6.14089 19.7493C5.93832 19.5557 5.78481 19.3225 5.68035 19.0495C5.59053 18.7757 5.53338 18.4339 5.5089 18.0239C5.48704 17.6579 5.50155 17.04 5.55244 16.17C5.56271 16.096 5.65501 15.3044 5.82935 13.7953C6.01745 12.2707 6.13641 11.4335 6.18622 11.2836C6.19562 11.1948 6.19682 11.0919 6.18982 10.9748C6.18195 10.843 6.15606 10.7785 6.11213 10.7811C6.06821 10.7837 5.99337 10.8837 5.88762 11.081C5.84719 11.1422 5.60815 11.5679 5.17048 12.358C4.74745 13.1473 4.30051 14.1511 3.82964 15.3693C3.07405 16.9866 2.5149 18.2028 2.15218 19.0178C1.78859 19.8183 1.52169 20.3925 1.35148 20.7406C1.13145 21.2386 1.00078 21.5109 0.959482 21.5575C0.739873 21.5706 0.450771 21.4042 0.0921763 21.0583C0.0430079 20.9731 0.0162374 20.8939 0.0118651 20.8207C0.00574386 20.7182 0.0396094 20.5472 0.113461 20.3077C0.201954 20.0673 0.322676 19.7516 0.475627 19.3604C0.876142 18.4402 1.1461 17.9172 1.28551 17.7913C1.44721 17.5466 1.53439 17.2843 1.54706 17.0043C1.72164 16.7294 1.96408 16.2374 2.27435 15.5283C2.47297 15.1639 2.70295 14.7093 2.96428 14.1648C3.24025 13.6194 3.48093 13.0981 3.68632 12.601L4.23695 11.4881C4.74847 10.4585 5.15642 9.66274 5.4608 9.10093C5.77982 8.53824 6.02192 8.16381 6.18712 7.97763C6.40475 7.68546 6.50876 7.45886 6.49914 7.29781C6.48078 6.99036 6.52272 6.70869 6.62498 6.45281C6.74101 6.18141 6.86578 6.05641 6.99929 6.07782C7.17498 6.06733 7.31538 6.08098 7.42048 6.11878C7.53936 6.14107 7.66173 6.22192 7.7876 6.36133C7.8195 6.4035 7.8678 6.47408 7.93248 6.57307C8.01093 6.65654 8.06829 6.75596 8.10457 6.87134C8.15461 6.9712 8.18444 7.10165 8.19406 7.2627C8.20456 7.43838 8.19571 7.6593 8.16753 7.92546C8.16426 8.11666 8.13149 8.55205 8.06923 9.23164C8.02991 9.55723 8.01243 9.75663 8.01681 9.82983C7.70523 11.0092 7.44775 12.4791 7.24436 14.2397C7.05474 15.9848 6.98091 17.2087 7.02288 17.9115C7.0325 18.0725 7.0537 18.1814 7.08648 18.2383C7.19334 18.3053 7.28162 18.3074 7.35132 18.2445C7.43567 18.1807 7.54875 17.9829 7.69056 17.6512C7.8599 17.2885 8.15488 16.8154 8.57551 16.2319C8.60217 16.1862 8.8588 15.686 9.34541 14.7313C10.5603 12.4402 11.7381 10.1438 12.879 7.8424L13.3962 6.9079C13.5948 6.54341 13.7878 6.20864 13.9753 5.90359C14.1619 5.58389 14.3112 5.37662 14.423 5.28179C14.5624 5.15592 14.698 5.08905 14.8298 5.08118C15.108 5.06456 15.3669 5.21806 15.6066 5.54168C15.8464 5.86529 15.9815 6.28331 16.0121 6.79573C16.0357 7.19103 15.9915 7.80342 15.8794 8.63291C15.7665 9.44776 15.6027 10.273 15.3882 11.1086C15.3248 11.5238 15.231 12.0436 15.1066 12.6682C14.9823 13.2927 14.8472 13.8591 14.7012 14.3674C14.6868 14.618 14.6471 14.9363 14.582 15.3222C14.5717 15.3962 14.5413 15.6258 14.4908 16.0108C14.4541 16.3803 14.4544 16.6301 14.4915 16.7601C14.2955 17.1685 14.2329 17.9657 14.3038 19.1516L14.2681 19.6606C14.2633 20.0723 14.2506 20.3522 14.2301 20.5004C14.2095 20.6485 14.1695 20.717 14.1101 20.7059C14.0799 20.693 14.0356 20.6883 13.977 20.6918C13.8745 20.6979 13.8259 20.7449 13.8312 20.8327Z" fill="#428DFC"></path> <path d="M22.2855 19.2258C21.9141 18.9101 21.6208 18.428 21.4058 17.7797C21.3712 17.6936 21.3474 17.5407 21.3343 17.3211C21.3212 17.1015 21.312 16.9478 21.3067 16.86C21.232 17.0848 21.0828 17.2921 20.859 17.4818C20.5424 17.8386 20.2205 18.1076 19.8934 18.2888C19.4011 18.6561 18.9939 18.8494 18.6718 18.8686C18.379 18.8861 18.0912 18.7417 17.8084 18.4353C17.6085 18.2857 17.4525 18.1334 17.3404 17.9784C17.2429 17.8226 17.1872 17.6276 17.1732 17.3934C17.1636 17.2323 17.175 17.0553 17.2076 16.8624C17.2045 16.3189 17.2467 15.7948 17.3341 15.29C17.4361 14.7844 17.6396 14.1331 17.9447 13.3361C18.3581 12.3858 18.6581 11.7508 18.8447 11.4311C18.9161 11.3974 19.0104 11.3771 19.1275 11.3701C19.274 11.3614 19.3937 11.3983 19.4868 11.4809C19.5945 11.5626 19.6601 11.6762 19.6835 11.8218C19.7309 11.8777 19.7577 11.9569 19.7638 12.0594C19.7856 12.4254 19.6019 13.0388 19.2125 13.8996C18.7237 15.3099 18.4951 16.2786 18.5266 16.8056C18.5449 17.1131 18.6437 17.2908 18.8229 17.3389C18.8987 17.3785 18.9805 17.3956 19.0684 17.3904C19.4344 17.3685 19.8588 17.0934 20.3414 16.565C20.8241 16.0366 21.2669 15.2094 21.6698 14.0834C21.8451 13.5733 21.9389 13.0535 21.9514 12.5238C21.9341 12.4808 21.9228 12.4153 21.9176 12.3275C21.9019 12.0639 22.0209 11.8438 22.2748 11.667C22.3282 11.5757 22.4048 11.505 22.5046 11.4549C22.6036 11.3902 22.6695 11.3863 22.7023 11.4431L23.0523 11.4002C23.0954 11.3829 23.1419 11.4242 23.192 11.5241C23.2411 11.6093 23.2885 11.6652 23.3342 11.6919C23.4419 11.7736 23.5028 11.9316 23.5168 12.1658C23.5457 12.649 23.3775 13.401 23.0124 14.4219C22.7692 15.0242 22.606 15.4894 22.5228 15.8176C22.4533 16.1303 22.42 16.4335 22.4228 16.7272C22.456 17.2835 22.6959 17.732 23.1423 18.0727C23.2948 18.1664 23.3892 18.271 23.4255 18.3863C23.4618 18.5017 23.4787 18.6623 23.4763 18.8682C23.4549 19.0017 23.3736 19.1167 23.2325 19.2133C23.1051 19.2944 22.9609 19.3397 22.7998 19.3494C22.6095 19.3607 22.4381 19.3195 22.2855 19.2258Z" fill="#428DFC"></path> <path d="M31.7688 18.6374C31.5345 18.6513 31.3782 18.6166 31.2997 18.5331C31.2119 18.5384 31.1007 18.523 30.9664 18.4869C30.8466 18.45 30.7191 18.4062 30.5838 18.3555C30.2685 18.2421 29.8027 17.9467 29.1865 17.4692C28.5703 16.9918 28.2569 16.6652 28.2464 16.4895C28.2438 16.4456 28.2347 16.4168 28.2192 16.403C28.2037 16.3892 28.174 16.3837 28.1301 16.3863C28.1145 16.3725 28.0835 16.345 28.037 16.3037C28.0051 16.2615 27.9874 16.2112 27.9839 16.1526C27.9804 16.094 27.9553 16.0441 27.9088 16.0028C27.8623 15.9615 27.8097 15.9426 27.7511 15.9461C27.6814 16.009 27.5356 16.15 27.3136 16.3689C27.0907 16.5733 26.8622 16.8073 26.6282 17.0711C26.1877 17.5675 25.8844 17.9015 25.7183 18.0731C25.5514 18.23 25.4167 18.3115 25.3142 18.3176C25.1385 18.3281 24.9283 18.2525 24.6836 18.0908C24.4526 17.9136 24.3318 17.7372 24.3214 17.5615C24.3884 17.4546 24.5592 17.2387 24.8336 16.9138C25.1219 16.5733 25.4256 16.2466 25.7448 15.9337L27.0677 14.4662L26.7763 13.6461C26.4786 13.0909 26.2608 12.6411 26.1227 12.2967C26.0278 12.1848 25.9489 12.094 25.886 12.0243C25.8368 11.9391 25.8105 11.8672 25.807 11.8087C25.8035 11.7501 25.8555 11.6368 25.963 11.4688C26.1144 11.2981 26.2341 11.2101 26.3219 11.2049C26.3951 11.2005 26.5002 11.2383 26.6372 11.3183C26.7544 11.3113 26.9522 11.5492 27.2309 12.0322C27.5232 12.4996 27.6751 12.8284 27.6865 13.0187C27.6979 13.2091 27.7694 13.3003 27.9012 13.2924C28.0476 13.2837 28.3248 13.1276 28.7327 12.824C28.885 12.668 29.0021 12.5361 29.0838 12.4284C29.1801 12.3198 29.2421 12.25 29.2696 12.2189C29.4374 12.0767 29.6965 11.8629 30.0468 11.5775C30.4117 11.2912 30.6441 11.123 30.7439 11.073C30.8145 11.0247 30.8718 10.9992 30.9157 10.9966C31.0914 10.9861 31.2654 11.0712 31.4378 11.2519C31.6102 11.4327 31.7026 11.6255 31.7148 11.8305C31.7253 12.0061 31.6897 12.1479 31.608 12.2556C31.5262 12.3633 31.3438 12.5064 31.0606 12.685C30.9909 12.7479 30.774 12.9298 30.41 13.2307C30.0459 13.5317 29.5929 13.9407 29.0507 14.458L28.5073 14.9533L28.8941 15.5252C29.1563 15.9797 29.3628 16.2392 29.5136 16.3037C29.6403 16.4577 29.9411 16.6969 30.416 17.0211C30.9055 17.3445 31.1795 17.5045 31.2381 17.501C31.282 17.4983 31.3496 17.5237 31.4409 17.577C31.5469 17.6295 31.6374 17.6681 31.7123 17.693C31.8985 17.8582 31.9982 18.0506 32.0113 18.2702C32.0253 18.5045 31.9444 18.6269 31.7688 18.6374Z" fill="#428DFC"></path> <path d="M34.7383 17.887C34.5936 17.925 34.4628 17.9475 34.3456 17.9545C34.1553 17.9659 33.9787 17.9617 33.8159 17.9421C33.6523 17.9078 33.5687 17.8613 33.5652 17.8028C33.5626 17.7588 33.5535 17.73 33.538 17.7162C33.5225 17.7025 33.4928 17.6969 33.4488 17.6995C33.4333 17.6857 33.3872 17.6518 33.3105 17.5976C33.2338 17.5434 33.1429 17.4974 33.0378 17.4596C32.8938 17.2625 32.8148 17.0468 32.8008 16.8126C32.7859 16.5637 32.8286 16.1718 32.9289 15.6368C32.9449 15.1657 33.1295 14.567 33.4828 13.8406C33.8361 13.1143 34.2575 12.4206 34.747 11.7595C35.2511 11.0976 35.708 10.6296 36.1177 10.3553C36.3242 10.1226 36.5958 9.99618 36.9325 9.97606C37.1961 9.96032 37.4489 10.0113 37.691 10.1291C37.903 10.234 38.1271 10.419 38.3633 10.684C38.6142 10.9482 38.8142 11.2228 38.9635 11.5077C39.0352 11.7238 39.0771 11.9343 39.0894 12.1393C39.1025 12.3589 39.0937 12.7047 39.0632 13.1767C39.0057 13.4446 38.9591 13.7707 38.9232 14.1548C38.902 14.5381 38.8998 14.8688 38.9164 15.147C38.8993 15.3537 38.924 15.5212 38.9905 15.6495C39.056 15.7631 39.14 15.8168 39.2425 15.8107C39.3157 15.8063 39.3949 15.7796 39.4802 15.7304C39.6222 15.6485 39.7811 15.6022 39.9567 15.5917C40.1178 15.5821 40.2522 15.6182 40.3599 15.6999C40.4676 15.7816 40.5268 15.9103 40.5372 16.086C40.553 16.3495 40.3857 16.624 40.0354 16.9094C39.6998 17.1939 39.3709 17.3458 39.0489 17.365C38.8292 17.3781 38.6142 17.222 38.4038 16.8967C38.2071 16.5558 38.0048 16.1197 37.7967 15.5885L37.6348 15.0913L36.7442 16.0481L36.2693 16.5834C36.049 16.8316 35.9256 16.9786 35.8989 17.0242C35.7545 17.312 35.3676 17.5996 34.7383 17.887ZM34.7268 16.5873C35.0659 16.3614 35.4764 15.9769 35.9582 15.4339C36.44 14.8908 36.8353 14.375 37.1441 13.8864C37.5621 13.259 37.8121 12.649 37.8943 12.0564C37.8252 11.8842 37.7196 11.7142 37.5773 11.5464C37.4351 11.3786 37.3123 11.2904 37.2089 11.2819C36.9161 11.2994 36.6187 11.4861 36.3167 11.8421C36.0147 12.1981 35.6621 12.6893 35.2587 13.3158L34.5983 14.4352C34.5174 14.5575 34.3825 14.8815 34.1935 15.407C34.0036 15.9179 33.9117 16.2246 33.9178 16.3271C33.9371 16.6492 34.0419 16.8046 34.2322 16.7932C34.3786 16.7844 34.5435 16.7158 34.7268 16.5873Z" fill="#428DFC"></path> <path d="M46.9701 17.7514C46.8711 17.8161 46.7307 17.8025 46.5489 17.7105C46.3817 17.6176 46.2115 17.4735 46.0382 17.2782C45.9097 17.0948 45.8247 16.9015 45.7832 16.6983C45.7563 16.4942 45.7236 16.0701 45.6851 15.4259C45.6764 15.2795 45.6427 15.208 45.5842 15.2115C45.5402 15.2142 45.4421 15.2935 45.2898 15.4495C45.1367 15.5909 44.9499 15.7857 44.7297 16.034C44.3709 16.4227 44.0366 16.7292 43.7267 16.9534C43.4169 17.1776 43.159 17.2885 42.9532 17.2861C42.7921 17.2957 42.6099 17.1964 42.4064 16.9882C42.2176 16.7791 42.0632 16.5312 41.9433 16.2445C41.8889 16.0714 41.8547 15.8677 41.8407 15.6335C41.8039 15.0186 41.8838 14.2645 42.0802 13.3712C42.2913 12.477 42.5464 11.7051 42.8455 11.0554C43.1584 10.3903 43.4466 10.0498 43.7101 10.0341C43.9297 10.021 44.1491 10.2503 44.3683 10.7221C44.4175 10.8073 44.4438 10.8792 44.4473 10.9377C44.4534 11.0402 44.401 11.1462 44.29 11.2557C44.087 11.547 43.8605 12.06 43.6106 12.7949C43.3606 13.5298 43.1661 14.2099 43.0272 14.8353C42.9029 15.4599 42.8919 15.7691 42.9944 15.7629C43.1994 15.7507 43.4362 15.6557 43.7047 15.4781C43.9733 15.3004 44.2388 15.0715 44.5012 14.7914C44.7627 14.4966 44.9941 14.1889 45.1954 13.8683C45.3958 13.5331 45.6408 13.0851 45.9306 12.5241C46.4869 11.5065 46.7895 10.9154 46.8384 10.7508C47.0336 10.3278 47.1715 10.0551 47.2524 9.93269C47.347 9.79481 47.4662 9.69953 47.61 9.64686L47.9174 9.6285C48.0062 9.63789 48.1126 9.69765 48.2367 9.80778C48.3418 9.84558 48.4034 9.89333 48.4216 9.95102C48.4535 9.99319 48.472 10.0582 48.4773 10.146L48.1745 10.9796L48.0044 11.4526C47.9932 11.512 47.9227 11.6852 47.7929 11.9721C47.5008 12.7389 47.2805 13.3544 47.1319 13.8188C46.9833 14.2831 46.8795 14.7595 46.8205 15.2479C46.8103 15.322 46.8104 15.4469 46.8209 15.6225C46.8471 16.0618 46.9094 16.3666 47.0077 16.537C47.1552 16.7927 47.2984 16.9751 47.4371 17.0844C47.5138 17.1386 47.5539 17.195 47.5574 17.2535C47.5635 17.356 47.4818 17.4637 47.3123 17.5767C47.1573 17.6888 47.0433 17.7471 46.9701 17.7514ZM46.1402 8.65473C45.2533 8.81055 44.6021 8.2397 44.1866 6.94216C44.1504 6.82678 44.1309 6.74714 44.1283 6.70321C44.1222 6.60073 44.1449 6.48918 44.1965 6.36855C44.2222 6.30824 44.2782 6.26082 44.3643 6.2263C44.4504 6.19177 44.5231 6.18007 44.5826 6.19122C44.7773 6.25305 44.9294 6.33947 45.0388 6.45047C45.1474 6.54684 45.2212 6.67467 45.2601 6.83396C45.3101 6.93383 45.3382 7.035 45.3443 7.13748C45.4833 7.4965 45.6553 7.66989 45.8603 7.65765C45.9042 7.65502 46.0123 7.61918 46.1844 7.55013C46.7845 7.26451 47.229 6.95879 47.5181 6.63298C47.5181 6.63298 47.8085 6.32912 48.3893 5.72141L48.41 5.69814C48.4668 5.66536 48.5172 5.64766 48.5611 5.64504C48.6636 5.63891 48.7381 5.6565 48.7846 5.6978C48.8631 5.78127 48.9118 5.85917 48.9308 5.9315C48.9498 6.00383 48.9615 6.0766 48.9659 6.1498C48.9703 6.223 48.9738 6.28156 48.9764 6.32549L48.9571 6.37072C48.9916 6.45681 48.9289 6.63687 48.7689 6.9109C48.6081 7.17028 48.4227 7.38705 48.2127 7.56122C47.9477 7.79744 47.5027 8.09584 46.8777 8.4564C46.7787 8.52109 46.6491 8.56556 46.489 8.58982C46.3288 8.61408 46.2125 8.63572 46.1402 8.65473Z" fill="#428DFC"></path> <path d="M50.5968 17.4907C50.5072 17.4667 50.3771 17.379 50.2064 17.2275C50.0495 17.0606 49.94 16.9496 49.878 16.8945C49.8719 16.792 49.8963 16.7098 49.9514 16.6477C50.0211 16.5848 50.0697 16.5378 50.0973 16.5068C50.1377 16.4456 50.2302 16.396 50.3749 16.358C50.5342 16.3191 50.6345 16.2763 50.6758 16.2298C50.7317 16.1824 50.872 16.0711 51.0966 15.8961C51.3213 15.7211 51.5166 15.5478 51.6827 15.3762C51.8625 15.1892 52.0057 15.0043 52.1124 14.8216C52.4607 14.2572 52.8248 13.589 53.2048 12.8169C53.3217 12.5602 53.4699 12.2134 53.6496 11.7766C53.8429 11.3242 53.9503 11.0313 53.9717 10.8978L53.2778 10.7188C53.2468 10.6913 53.1994 10.6354 53.1356 10.551C53.0718 10.4667 53.0308 10.3957 53.0126 10.338C53.0091 10.2794 53.0052 10.2135 53.0008 10.1403C52.9903 9.96464 52.9976 9.83932 53.0225 9.76437C53.062 9.68854 53.1399 9.63981 53.2562 9.61817C53.7048 9.50322 54.0742 9.41504 54.3644 9.35363C54.8001 9.26883 55.126 9.19059 55.3421 9.11892C55.5152 9.0645 55.7115 9.03073 55.9311 9.01762C56.3118 8.99488 56.6598 9.04021 56.9751 9.15361C57.1999 9.22834 57.4008 9.39266 57.5775 9.64657C57.7991 9.9125 57.9182 10.1845 57.9348 10.4627C57.941 10.5652 57.9398 10.6681 57.9312 10.7715C57.9219 10.8602 57.9202 10.9558 57.9263 11.0583C57.9342 11.1901 57.964 11.3205 58.0158 11.4496C57.8675 12.1638 57.701 12.8202 57.5164 13.4189C57.4794 13.5387 57.4254 13.7403 57.3541 14.0237C57.2829 14.3071 57.2314 14.5526 57.1998 14.7602C57.169 14.9824 57.1153 15.1913 57.0388 15.3869C56.9418 15.7306 56.8848 16.0059 56.8678 16.2126C56.8481 16.3754 56.7897 16.5037 56.6924 16.5977C56.6089 16.6762 56.5104 16.7482 56.3968 16.8137C56.2969 16.8638 56.2328 16.897 56.2044 16.9134C56.1476 16.9462 56.0442 16.9376 55.8943 16.8878C55.7444 16.838 55.6151 16.7649 55.5065 16.6685C55.472 16.5824 55.4504 16.4662 55.4416 16.3198C55.4346 16.2027 55.4543 16.0399 55.5006 15.8314C55.7134 14.9665 55.9987 13.7153 56.3563 12.0777L56.548 11.2288C56.5841 11.0944 56.5969 10.9393 56.5864 10.7637C56.5785 10.6319 56.5487 10.5014 56.4969 10.3723C56.2574 10.2984 56.0718 10.2655 55.94 10.2733C55.8668 10.2777 55.7872 10.2971 55.7011 10.3317C55.615 10.3662 55.5357 10.393 55.4634 10.412C55.3231 10.5232 55.2436 10.6675 55.2248 10.845C54.9904 11.5936 54.7433 12.2549 54.4838 12.8287C54.2242 13.4025 54.0244 13.8699 53.8843 14.2309C53.8345 14.3808 53.6827 14.6691 53.429 15.0956C53.2691 15.3696 53.1565 15.5747 53.0911 15.7109L52.8679 16.0327C52.7991 16.1103 52.6816 16.2349 52.5156 16.4064C52.3495 16.5779 52.2321 16.7025 52.1632 16.7801L51.5139 17.3478C51.4305 17.4262 51.2716 17.4725 51.0373 17.4865C50.8169 17.4849 50.67 17.4864 50.5968 17.4907Z" fill="#428DFC"></path> <path d="M60.591 16.6514C60.4154 16.6619 60.2745 16.6409 60.1685 16.5884C60.0626 16.536 59.9096 16.4349 59.7097 16.2853C59.1959 15.8017 58.9264 15.3476 58.901 14.9231C58.8949 14.8206 58.8978 14.7469 58.9098 14.7021C58.9476 14.597 58.9562 14.4937 58.9354 14.3921C58.9293 14.2896 58.9253 14.2237 58.9236 14.1944C58.8615 14.1393 58.8301 14.1045 58.8292 14.0898C58.8274 14.0606 58.8408 14.0377 58.8692 14.0213C58.8967 13.9903 58.9169 13.9597 58.9298 13.9296C59.0177 13.9243 59.0421 13.842 59.0032 13.6827C58.967 13.5674 59.0102 13.3077 59.133 12.9036C59.2549 12.4849 59.4156 12.1007 59.6151 11.7508C59.7604 11.4777 59.975 11.1343 60.2589 10.7206C60.5573 10.3061 60.8249 9.9889 61.0615 9.76907C61.3946 9.44063 61.6958 9.1949 61.9652 9.03188C62.2346 8.86886 62.5355 8.74069 62.8679 8.64737C63.1563 8.55668 63.3518 8.50827 63.4543 8.50215C63.5567 8.49603 63.6463 8.52007 63.723 8.57425C63.8135 8.61293 63.9286 8.69421 64.0682 8.81811C64.474 8.97019 64.7584 9.18094 64.9214 9.45036C65.0982 9.70427 65.2036 10.1167 65.2377 10.6877C65.2946 11.6393 64.9683 12.6947 64.2588 13.8537C63.9509 14.357 63.6584 14.7491 63.3813 15.0301C63.1034 15.2965 62.7316 15.5905 62.266 15.9122C61.9716 16.1502 61.6958 16.3283 61.4383 16.4465C61.1947 16.5492 60.9123 16.6175 60.591 16.6514ZM62.5603 14.1976C62.888 13.7813 63.1439 13.3914 63.3279 13.0277C63.5265 12.6632 63.7048 12.2045 63.8628 11.6514C63.9211 11.3981 63.9398 11.0958 63.9188 10.7444C63.8925 10.3052 63.8191 10.0598 63.6985 10.0083C63.5477 9.94381 63.3991 9.91595 63.2527 9.9247C62.9306 9.94394 62.6026 10.1105 62.2688 10.4243C61.866 10.8156 61.5125 11.2922 61.2081 11.854C60.9029 12.4012 60.5982 13.0806 60.294 13.8922C60.166 14.2084 60.1107 14.5129 60.1282 14.8057C60.1413 15.0253 60.203 15.1979 60.3134 15.3236C60.4384 15.4483 60.596 15.505 60.7864 15.4937C61.2695 15.4648 61.8608 15.0328 62.5603 14.1976Z" fill="#428DFC"></path> <path d="M74.7331 17.3715C74.2696 17.2375 73.8854 17.0768 73.5803 16.8893C73.2899 16.701 73.0356 16.3782 72.8172 15.9211C72.5436 15.2763 72.3802 14.5073 72.3268 13.6142C72.2752 12.7504 72.2828 12.0154 72.3494 11.409C72.4151 10.7879 72.5537 10.1552 72.765 9.51082L72.9351 9.03784C73.1335 8.42358 73.2782 8.01823 73.3693 7.82178C73.5841 7.23593 73.9792 6.47035 74.5545 5.52503C75.0601 4.64265 75.4626 4.00151 75.762 3.60162C76.0604 3.18708 76.3491 2.85395 76.6279 2.60221C76.9214 2.3496 77.4541 1.92107 78.2261 1.31663C78.548 1.04763 78.9285 0.900015 79.3677 0.873781C79.7338 0.851919 80.0762 0.92697 80.395 1.09893C80.7276 1.25538 80.9844 1.49716 81.1656 1.82428C81.3433 2.09283 81.4461 2.46135 81.4741 2.92985C81.5134 3.58868 81.4081 4.28553 81.1582 5.02041C80.9082 5.75528 80.5685 6.34125 80.1392 6.77829C80.0006 6.9188 79.8655 6.99299 79.7337 7.00086C79.5727 7.01048 79.3534 6.90603 79.0759 6.68753C78.9292 6.44651 78.8473 6.30447 78.83 6.26143C78.8127 6.21838 78.8403 6.18735 78.9126 6.16834C79.0348 5.99942 79.2067 5.6806 79.4285 5.21188C79.664 4.72764 79.8179 4.35113 79.89 4.08235C79.914 3.99276 79.9345 3.8446 79.9516 3.63789C80.0381 3.11847 80.0761 2.77092 80.0656 2.59523C80.0551 2.41955 79.9956 2.28352 79.887 2.18716C79.8404 2.14586 79.7806 2.1274 79.7073 2.13177C79.5902 2.13877 79.3896 2.22421 79.1056 2.38811C78.7629 2.5555 78.3361 2.91158 77.825 3.45636C77.3139 4.00113 76.8567 4.58677 76.4533 5.21327C75.8323 6.13193 75.3558 6.88768 75.0239 7.48052C74.7066 8.07249 74.4703 8.66697 74.315 9.26396L74.1075 9.84937C74.1257 9.90706 74.1125 10.0548 74.0679 10.2925C74.0233 10.5303 73.9688 10.7245 73.9043 10.8753C73.7501 11.7367 73.6979 12.5847 73.7477 13.4192C73.7853 14.0487 73.8698 14.602 74.0011 15.079C74.1471 15.5552 74.3278 15.875 74.5433 16.0384C74.6666 16.1339 74.8453 16.1746 75.0796 16.1606C75.3724 16.1432 75.7267 16.0485 76.1425 15.8768C76.573 15.7041 77.0947 15.4599 77.7076 15.1441C78.0365 14.9923 78.3421 14.8197 78.6244 14.6266C78.9214 14.4325 79.1387 14.2579 79.2763 14.1028C79.6404 13.8019 79.9395 13.6444 80.1738 13.6304C80.3313 13.5622 80.4394 13.5264 80.4979 13.5229C80.5272 13.5211 80.5432 13.5422 80.5458 13.5862C80.5622 13.6146 80.5721 13.658 80.5756 13.7166C80.5879 13.9216 80.4916 14.1551 80.2869 14.4171C80.0812 14.6644 79.802 14.9089 79.4491 15.1503C79.1738 15.4606 78.8359 15.7085 78.4356 15.8941C77.9872 16.2588 77.4561 16.5917 76.8423 16.8928C76.2432 17.1931 75.6874 17.3585 75.175 17.3891C75.0578 17.3961 74.9106 17.3902 74.7331 17.3715Z" fill="#428DFC"></path> <path d="M84.5792 14.91C84.4345 14.9481 84.3036 14.9706 84.1865 14.9776C83.9962 14.9889 83.8196 14.9848 83.6568 14.9651C83.4931 14.9308 83.4096 14.8844 83.4061 14.8258C83.4034 14.7819 83.3944 14.7531 83.3789 14.7393C83.3633 14.7255 83.3336 14.72 83.2897 14.7226C83.2742 14.7088 83.2281 14.6748 83.1514 14.6206C83.0747 14.5665 82.9838 14.5205 82.8787 14.4827C82.7347 14.2856 82.6557 14.0699 82.6417 13.8356C82.6268 13.5868 82.6695 13.1948 82.7698 12.6599C82.7857 12.1888 82.9704 11.59 83.3237 10.8637C83.677 10.1373 84.0984 9.44364 84.5879 8.78261C85.092 8.12071 85.5489 7.65264 85.9586 7.37839C86.1651 7.14566 86.4367 7.01925 86.7734 6.99913C87.0369 6.98339 87.2898 7.03441 87.5319 7.15218C87.7438 7.25707 87.9679 7.44203 88.2042 7.70709C88.455 7.97127 88.6551 8.24583 88.8043 8.53077C88.876 8.74688 88.918 8.95742 88.9302 9.16239C88.9433 9.382 88.9346 9.7278 88.904 10.1998C88.8466 10.4677 88.7999 10.7937 88.7641 11.1779C88.7429 11.5612 88.7406 11.8919 88.7572 12.1701C88.7402 12.3768 88.7649 12.5443 88.8313 12.6725C88.8969 12.7862 88.9809 12.8399 89.0834 12.8338C89.1566 12.8294 89.2358 12.8026 89.321 12.7535C89.4631 12.6715 89.6219 12.6253 89.7976 12.6148C89.9587 12.6052 90.093 12.6412 90.2008 12.723C90.3085 12.8047 90.3676 12.9334 90.3781 13.1091C90.3939 13.3726 90.2266 13.6471 89.8763 13.9325C89.5407 14.217 89.2118 14.3689 88.8897 14.3881C88.6701 14.4012 88.4551 14.2451 88.2446 13.9197C88.048 13.5788 87.8456 13.1428 87.6376 12.6116L87.4756 12.1144L86.5851 13.0712L86.1102 13.6064C85.8899 13.8547 85.7665 14.0016 85.7398 14.0473C85.5954 14.3351 85.2085 14.6227 84.5792 14.91ZM84.5677 13.6104C84.9068 13.3845 85.3173 13 85.7991 12.4569C86.2809 11.9139 86.6762 11.3981 86.9849 10.9095C87.4029 10.2821 87.653 9.67211 87.7352 9.07949C87.6661 8.9073 87.5604 8.7373 87.4182 8.56948C87.2759 8.40167 87.1531 8.3135 87.0498 8.30498C86.7569 8.32247 86.4595 8.5092 86.1576 8.86517C85.8556 9.22114 85.5029 9.71238 85.0995 10.3389L84.4391 11.4582C84.3583 11.5806 84.2233 11.9046 84.0343 12.4301C83.8445 12.941 83.7526 13.2477 83.7587 13.3502C83.7779 13.6723 83.8827 13.8276 84.0731 13.8163C84.2195 13.8075 84.3843 13.7389 84.5677 13.6104Z" fill="#428DFC"></path> <path d="M93.4637 14.8202C93.3249 14.7109 93.2327 14.6429 93.187 14.6163C93.1414 14.5896 93.007 14.5536 92.7839 14.5081C92.7485 14.4074 92.6493 14.2223 92.4862 13.9529C92.2802 13.7007 92.1641 13.4799 92.1381 13.2905L92.1316 13.1807L92.125 13.0709C92.1154 12.9098 92.0718 12.7949 91.9942 12.726C92.0639 12.6631 92.0733 12.5744 92.0224 12.4599C91.9706 12.3307 91.9722 12.2351 92.0273 12.1731L92.0401 12.018C91.9918 11.9475 91.9637 11.8463 91.9558 11.7145C91.9419 11.4803 91.9871 11.0074 92.0915 10.2959C92.1977 9.61371 92.2322 9.2076 92.1951 9.07758L91.7555 8.72917C91.7717 8.50781 91.7986 8.34458 91.8364 8.23947C91.8734 8.11972 91.9702 8.01844 92.1268 7.93561L92.2845 7.99231C92.3422 7.97418 92.3852 7.95691 92.4136 7.94052C92.4558 7.90862 92.4911 7.88447 92.5195 7.86808C92.7404 7.38472 92.9397 6.7851 93.1173 6.06924C93.1886 5.78582 93.2809 5.48645 93.3943 5.17113C93.5214 4.84029 93.6525 4.57534 93.7876 4.37627C93.8693 4.26853 93.9424 4.13928 94.0069 3.9885C94.0713 3.83772 94.1164 3.73218 94.1422 3.67187C94.3089 3.2652 94.5897 2.8003 94.9846 2.27716C95.394 1.75315 95.7752 1.37041 96.1281 1.12894C96.339 0.969416 96.5241 0.870204 96.6834 0.831303C96.8427 0.792403 97.0902 0.755577 97.4261 0.720824C97.6234 0.82658 97.8234 0.976258 98.0259 1.16986C98.2276 1.34882 98.3333 1.51882 98.3429 1.67987L98.3626 2.00928C98.3775 2.25817 98.3527 2.458 98.2882 2.60878C98.3107 2.73967 98.2868 2.95415 98.2164 3.25221C98.1657 3.38747 98.1306 3.5365 98.1109 3.69929C97.7904 4.48246 97.4968 5.1024 97.2302 5.55911C96.9628 6.00118 96.6634 6.40107 96.3322 6.75879C96.0147 7.10099 95.4867 7.61004 94.7484 8.28593C95.3893 8.43866 95.7324 8.7708 95.7776 9.28234C95.7803 9.32626 95.7777 9.40722 95.7701 9.52522C95.7762 9.62771 95.7888 9.71511 95.8078 9.78744L95.8832 10.3119C95.8902 10.429 95.9153 10.6038 95.9586 10.8363C96.0218 11.1558 96.0178 11.5821 95.9468 12.1153C95.9348 12.1601 95.9151 12.198 95.8875 12.229C95.8746 12.2592 95.8695 12.2962 95.8721 12.3401C95.8817 12.5012 95.8612 12.6493 95.8105 12.7846C95.7736 12.9044 95.7156 13.0401 95.6365 13.1917C95.5711 13.3279 95.5127 13.4562 95.4611 13.5769C95.4353 13.6372 95.3807 13.7065 95.2972 13.785C95.2129 13.8488 95.1505 13.9113 95.1101 13.9725C94.9466 14.1879 94.7793 14.3375 94.6079 14.4212C94.4366 14.5049 94.2136 14.5844 93.939 14.6595C93.7357 14.7011 93.5911 14.7391 93.505 14.7736L93.4637 14.8202ZM94.277 7.03582L95.3213 6.06983C95.3781 6.03706 95.514 5.85262 95.729 5.51654C95.944 5.18046 96.0709 4.96718 96.1095 4.87671C96.2627 4.73533 96.4218 4.44666 96.5868 4.01072C96.7509 3.56013 96.8779 3.10442 96.9679 2.64356C97.0571 2.16807 97.0804 1.82139 97.038 1.60353L96.8883 1.6786C96.6853 1.96988 96.3928 2.36202 96.0108 2.855C95.5601 3.42556 95.1576 4.0667 94.8034 4.77842C94.4638 5.48926 94.2052 6.20261 94.0276 6.91848L94.277 7.03582ZM93.9081 13.4051C94.2523 13.0173 94.4711 12.6222 94.5646 12.2199C94.6573 11.803 94.6861 11.3017 94.6511 10.7161L94.6052 9.94743C94.6026 9.90351 94.584 9.8385 94.5495 9.7524C94.5296 9.66543 94.5325 9.59179 94.5583 9.53148C94.5238 9.44539 94.4556 9.28784 94.3538 9.05884C94.2666 8.82896 94.1454 8.64519 93.9903 8.50753C93.8766 8.57309 93.7854 8.64465 93.7166 8.72223C93.6477 8.79981 93.56 8.92993 93.4534 9.11262C93.376 9.29355 93.3105 9.67213 93.2567 10.2484C93.2168 10.8091 93.2125 11.353 93.244 11.88C93.2921 12.6853 93.4183 13.1993 93.6226 13.4222L93.9081 13.4051Z" fill="#428DFC"></path> <path d="M101.725 13.9961C101.666 13.985 101.599 13.9743 101.525 13.964C101.465 13.9529 101.406 13.9417 101.347 13.9306C100.854 13.7984 100.59 13.4322 100.554 12.8319C100.506 12.0413 100.805 11.017 101.45 9.75899L101.34 9.76554C101 10.212 100.661 10.5701 100.324 10.84C99.988 11.1099 99.6118 11.3307 99.196 11.5025C98.3059 11.1149 97.8408 10.5843 97.8006 9.91085C97.7857 9.66196 97.8397 9.33549 97.9625 8.93145C98.3001 7.94156 98.6675 7.08213 99.0647 6.35315L99.6757 6.25054C99.8127 6.33051 99.9217 6.43419 100.003 6.56158C100.099 6.6881 100.197 6.85854 100.298 7.07291C100.225 7.32704 100.103 7.62084 99.9317 7.9543C99.7993 8.19729 99.6833 8.4687 99.5837 8.7685C99.5476 8.90289 99.484 9.06831 99.3929 9.26476C99.3396 9.3561 99.2873 9.58696 99.2359 9.95735C99.4892 10.0157 99.7776 9.925 100.101 9.68527C100.424 9.43091 100.71 9.17874 100.96 8.92875C101.223 8.66324 101.389 8.4917 101.458 8.41413C101.541 8.33568 101.782 8.05684 102.179 7.57763C102.698 6.91485 103.084 6.48775 103.337 6.29632C103.427 6.32036 103.531 6.34352 103.65 6.3658C103.769 6.38809 103.86 6.44141 103.924 6.52575C104.001 6.59458 104.103 6.6987 104.229 6.83811C104.251 7.20413 104.197 7.53059 104.067 7.81751C103.951 8.08891 103.805 8.35474 103.63 8.61499C103.454 8.87525 103.333 9.05881 103.266 9.16567C103.091 9.44056 102.901 9.81926 102.695 10.3017C102.488 10.7842 102.337 11.1973 102.24 11.5411C102.182 11.809 102.123 12.0476 102.062 12.2569C102.036 12.3173 102.026 12.3913 102.031 12.4792C102.034 12.5231 102.045 12.5812 102.064 12.6535C102.082 12.7112 102.086 12.7771 102.076 12.8512C102.051 12.9408 102.061 13.0945 102.103 13.3124C102.159 13.5147 102.189 13.6452 102.193 13.7037C102.136 13.7365 102.065 13.7775 101.979 13.8267C101.909 13.8749 101.824 13.9314 101.725 13.9961Z" fill="#428DFC"></path> <path d="M106.829 19.2892C106.816 19.3194 106.749 19.294 106.626 19.2132C106.504 19.1323 106.388 19.0291 106.277 18.9035C106.181 18.7769 106.139 18.6766 106.149 18.6026C106.113 18.4872 106.092 18.3856 106.087 18.2977C106.066 17.9464 106.235 17.3412 106.595 16.4822C106.674 16.3159 106.802 15.9997 106.979 15.5336C107.091 15.189 107.205 14.8883 107.322 14.6315C107.348 14.5712 107.577 14.1021 108.01 13.2241C108.442 12.346 108.801 11.4651 109.086 10.5812C108.853 10.8596 108.566 11.222 108.225 11.6684C107.832 12.2208 107.504 12.6298 107.241 12.8953C106.991 13.1453 106.756 13.2695 106.536 13.268C106.269 13.2252 106.044 13.1578 105.862 13.0658C105.681 12.9738 105.546 12.8202 105.46 12.605C105.401 12.3587 105.363 12.0892 105.346 11.7963C105.306 11.1375 105.348 10.2388 105.471 9.10006C105.58 8.46177 105.626 7.99622 105.608 7.70341C105.598 7.52772 105.567 7.38995 105.517 7.29009C105.467 7.19023 105.388 7.09212 105.279 6.99575C105.064 6.83231 104.952 6.67738 104.943 6.53098C104.936 6.41385 105.032 6.29061 105.23 6.16124C105.416 6.09131 105.59 6.05153 105.751 6.04192C105.869 6.03492 105.973 6.05808 106.064 6.1114C106.155 6.15007 106.263 6.23911 106.389 6.37852C106.437 6.4491 106.509 6.55497 106.606 6.69613C106.702 6.82265 106.777 6.97244 106.831 7.1455C106.885 7.30393 106.919 7.50758 106.934 7.75647C106.926 7.87447 106.895 8.33915 106.841 9.1505C106.788 9.49161 106.765 9.72072 106.772 9.83785C106.623 10.552 106.563 11.1359 106.59 11.5898C106.6 11.7655 106.627 11.852 106.671 11.8494C107.047 11.5037 107.412 11.0852 107.764 10.594C108.132 10.1019 108.605 9.41245 109.184 8.5257C109.236 8.41972 109.334 8.21551 109.478 7.91308C109.635 7.59513 109.75 7.30177 109.822 7.033C109.987 6.59705 110.135 6.36782 110.266 6.34531C110.352 6.31079 110.492 6.33176 110.688 6.40823C110.884 6.48471 110.99 6.54447 111.007 6.58752C111.008 6.60216 111.075 6.62018 111.209 6.6416C111.341 6.64837 111.409 6.67371 111.412 6.71763C111.413 6.74691 111.346 6.97133 111.21 7.39089C110.996 8.00602 110.899 8.33511 110.916 8.37815C110.963 8.43409 110.898 8.68779 110.719 9.13925C110.555 9.58984 110.46 9.85261 110.435 9.92756C110.139 11.1207 109.801 12.0959 109.42 12.8533C109.289 13.1256 108.984 13.9152 108.504 15.2222L108.353 15.6499C108.226 15.9807 108.087 16.3564 107.935 16.7768C107.785 17.2119 107.654 17.5944 107.541 17.9244C107.464 18.1053 107.406 18.2483 107.368 18.3534C107.346 18.4723 107.322 18.5619 107.296 18.6222C107.284 18.9021 107.23 19.111 107.135 19.2489L106.829 19.2892Z" fill="#428DFC"></path> <path d="M117.656 13.1768C117.447 13.1159 117.25 13.0247 117.067 12.9035C116.882 12.7676 116.688 12.5955 116.485 12.3872C116.297 12.1928 115.922 11.6936 115.36 10.8897C114.797 10.0858 114.484 9.63432 114.419 9.53534C114.382 9.65509 114.332 9.79035 114.267 9.94113C114.216 10.0764 114.18 10.2035 114.158 10.3223C114.134 10.4266 114.128 10.5665 114.139 10.7422C114.004 10.9559 113.903 11.2265 113.834 11.5538C113.78 11.8656 113.734 12.0887 113.698 12.2231C113.63 12.5504 113.455 12.8253 113.174 13.0478C112.91 13.0489 112.644 12.9032 112.377 12.6106C112.296 12.4832 112.25 12.339 112.241 12.1779C112.231 12.0169 112.257 11.839 112.319 11.6443C112.341 11.5108 112.425 11.1972 112.572 10.7036C112.718 10.2099 112.834 9.81366 112.919 9.51473C112.981 9.32003 113.079 8.99094 113.213 8.52746C113.361 8.04847 113.439 7.76462 113.449 7.6759C113.481 7.48295 113.597 7.20423 113.795 6.83974C114.058 6.30983 114.215 5.87432 114.268 5.53321C114.291 5.42898 114.359 5.32945 114.471 5.23461C114.596 5.12425 114.725 5.06514 114.857 5.05727C115.018 5.04765 115.155 5.1203 115.267 5.27523C115.297 5.28812 115.342 5.30746 115.402 5.33324C115.462 5.34438 115.507 5.37104 115.539 5.41321C115.695 5.55088 115.778 5.71487 115.789 5.9052C115.795 6.00768 115.766 6.13431 115.702 6.28509C115.611 6.48154 115.512 6.67111 115.405 6.85379C115.234 7.18725 115.09 7.48968 114.974 7.76108C114.873 8.03161 114.756 8.41325 114.624 8.90601C114.999 8.79543 115.244 8.70736 115.358 8.6418C115.47 8.5616 115.657 8.35947 115.916 8.0354C116.164 7.75613 116.399 7.50702 116.621 7.28806C117.463 6.37092 117.91 5.874 117.965 5.7973C118.071 5.61462 118.166 5.47673 118.248 5.38364C118.33 5.27591 118.443 5.19571 118.587 5.14305C118.793 5.16008 118.935 5.18838 119.01 5.22793C119.101 5.2666 119.292 5.38744 119.583 5.59043C119.645 5.6455 119.681 5.74623 119.689 5.89264C119.706 6.17081 119.637 6.37326 119.483 6.50001C119.441 6.53191 119.169 6.77589 118.667 7.23195C117.652 8.18886 116.786 8.94583 116.07 9.50284C116.423 9.99602 116.772 10.5482 117.117 11.1594C117.167 11.509 117.306 11.7432 117.533 11.8618C117.761 11.9804 118.072 12.028 118.468 12.0044C118.588 12.0559 118.666 12.1248 118.7 12.2108C118.749 12.2961 118.777 12.3899 118.783 12.4924C118.804 12.594 118.823 12.6737 118.842 12.7313C118.715 12.8271 118.59 12.9447 118.466 13.0844C118.341 13.2094 118.235 13.2745 118.147 13.2797C118.045 13.2859 117.881 13.2516 117.656 13.1768Z" fill="#428DFC"></path> </svg> 