<svg width="333" height="102" viewBox="0 0 333 102" fill="none" xmlns="http://www.w3.org/2000/svg">
<path d="M309.5 80.5V6V3.5L328.5 20.5V98.5L309.5 80.5Z" fill="#EAEAEA" stroke="black"/>
<path d="M21.5 99L4 82L307.5 81L324.5 99H21.5Z" fill="#EAEAEA" stroke="black"/>
<path d="M2.43359 80.4254V2.86658H308.769V80.4254H2.43359Z" fill="#DEF063" stroke="black" stroke-width="4.33289"/>
<path d="M329.999 101.223L329.566 21.0647L309.201 2" stroke="black" stroke-width="4.33289"/>
<path d="M80.1895 49.7332L84.9295 43.1812L80.2855 36.7732H83.6935L86.6095 40.9132L89.4775 36.7732H92.8855L88.2415 43.1812L93.0055 49.7332H89.5975L86.6095 45.4492L83.5975 49.7332H80.1895Z" fill="black"/>
<path d="M100.174 50.0932C98.8778 50.0932 97.7458 49.8012 96.7778 49.2172C95.8098 48.6332 95.0578 47.8292 94.5218 46.8052C93.9938 45.7732 93.7298 44.5892 93.7298 43.2532C93.7298 41.8932 94.0018 40.7012 94.5458 39.6772C95.0898 38.6532 95.8458 37.8532 96.8138 37.2772C97.7818 36.7012 98.9018 36.4132 100.174 36.4132C101.478 36.4132 102.614 36.7052 103.582 37.2892C104.55 37.8732 105.302 38.6812 105.838 39.7132C106.374 40.7372 106.642 41.9172 106.642 43.2532C106.642 44.5972 106.37 45.7852 105.826 46.8172C105.29 47.8412 104.538 48.6452 103.57 49.2292C102.602 49.8052 101.47 50.0932 100.174 50.0932ZM100.174 47.3812C101.326 47.3812 102.182 46.9972 102.742 46.2292C103.302 45.4612 103.582 44.4692 103.582 43.2532C103.582 41.9972 103.298 40.9972 102.73 40.2532C102.162 39.5012 101.31 39.1252 100.174 39.1252C99.3978 39.1252 98.7578 39.3012 98.2538 39.6532C97.7578 39.9972 97.3898 40.4812 97.1498 41.1052C96.9098 41.7212 96.7898 42.4372 96.7898 43.2532C96.7898 44.5092 97.0738 45.5132 97.6418 46.2652C98.2178 47.0092 99.0618 47.3812 100.174 47.3812Z" fill="black"/>
<path d="M116.834 49.7332V45.3772C116.386 45.6012 115.874 45.7772 115.298 45.9052C114.73 46.0332 114.134 46.0972 113.51 46.0972C112.174 46.0972 111.106 45.7972 110.306 45.1972C109.514 44.5972 109.002 43.7252 108.77 42.5812C108.698 42.2532 108.646 41.9132 108.614 41.5612C108.59 41.2012 108.574 40.8772 108.566 40.5892C108.566 40.2932 108.566 40.0692 108.566 39.9172V36.7732H111.494V39.9172C111.494 40.0932 111.502 40.3532 111.518 40.6972C111.534 41.0332 111.578 41.3692 111.65 41.7052C111.802 42.3452 112.078 42.8132 112.478 43.1092C112.878 43.4052 113.45 43.5532 114.194 43.5532C114.77 43.5532 115.278 43.4772 115.718 43.3252C116.158 43.1732 116.53 42.9812 116.834 42.7492V36.7732H119.738V49.7332H116.834Z" fill="black"/>
<path d="M124.794 55.4932L127.29 48.6412L127.338 50.6572L121.686 36.7732H124.698L128.706 47.0452H127.938L131.838 36.7732H134.73L127.506 55.4932H124.794Z" fill="black"/>
<path d="M141.301 49.7332V36.7732H144.193V41.8852H150.013V36.7732H152.905V49.7332H150.013V44.5972H144.193V49.7332H141.301Z" fill="black"/>
<path d="M159.878 50.0932C158.942 50.0932 158.15 49.9172 157.502 49.5652C156.854 49.2052 156.362 48.7292 156.026 48.1372C155.698 47.5452 155.534 46.8932 155.534 46.1812C155.534 45.5572 155.638 44.9972 155.846 44.5012C156.054 43.9972 156.374 43.5652 156.806 43.2052C157.238 42.8372 157.798 42.5372 158.486 42.3052C159.006 42.1372 159.614 41.9852 160.31 41.8492C161.014 41.7132 161.774 41.5892 162.59 41.4772C163.414 41.3572 164.274 41.2292 165.17 41.0932L164.138 41.6812C164.146 40.7852 163.946 40.1252 163.538 39.7012C163.13 39.2772 162.442 39.0652 161.474 39.0652C160.89 39.0652 160.326 39.2012 159.782 39.4732C159.238 39.7452 158.858 40.2132 158.642 40.8772L156.002 40.0492C156.322 38.9532 156.93 38.0732 157.826 37.4092C158.73 36.7452 159.946 36.4132 161.474 36.4132C162.626 36.4132 163.638 36.6012 164.51 36.9772C165.39 37.3532 166.042 37.9692 166.466 38.8252C166.698 39.2812 166.838 39.7492 166.886 40.2292C166.934 40.7012 166.958 41.2172 166.958 41.7772V49.7332H164.426V46.9252L164.846 47.3812C164.262 48.3172 163.578 49.0052 162.794 49.4452C162.018 49.8772 161.046 50.0932 159.878 50.0932ZM160.454 47.7892C161.11 47.7892 161.67 47.6732 162.134 47.4412C162.598 47.2092 162.966 46.9252 163.238 46.5892C163.518 46.2532 163.706 45.9372 163.802 45.6412C163.954 45.2732 164.038 44.8532 164.054 44.3812C164.078 43.9012 164.09 43.5132 164.09 43.2172L164.978 43.4812C164.106 43.6172 163.358 43.7372 162.734 43.8412C162.11 43.9452 161.574 44.0452 161.126 44.1412C160.678 44.2292 160.282 44.3292 159.938 44.4412C159.602 44.5612 159.318 44.7012 159.086 44.8612C158.854 45.0212 158.674 45.2052 158.546 45.4132C158.426 45.6212 158.366 45.8652 158.366 46.1452C158.366 46.4652 158.446 46.7492 158.606 46.9972C158.766 47.2372 158.998 47.4292 159.302 47.5732C159.614 47.7172 159.998 47.7892 160.454 47.7892Z" fill="black"/>
<path d="M174.863 49.7332L174.887 36.7732H177.815V43.0132L182.555 36.7732H186.167L181.139 43.2532L186.599 49.7332H182.771L177.815 43.4932V49.7332H174.863Z" fill="black"/>
<path d="M192.415 50.0932C190.975 50.0932 189.755 49.7412 188.755 49.0372C187.755 48.3252 187.051 47.3092 186.643 45.9892L189.595 45.3292C189.819 45.9932 190.151 46.5012 190.591 46.8532C191.039 47.2052 191.647 47.3812 192.415 47.3812C193.327 47.3812 194.051 47.1092 194.587 46.5652C195.123 46.0212 195.459 45.2932 195.595 44.3812H191.287V42.1132H195.595C195.467 41.2492 195.147 40.5372 194.635 39.9772C194.123 39.4092 193.411 39.1252 192.499 39.1252C191.795 39.1252 191.179 39.3132 190.651 39.6892C190.131 40.0652 189.755 40.6132 189.523 41.3332L186.643 40.5532C186.955 39.2732 187.619 38.2652 188.635 37.5292C189.659 36.7852 190.911 36.4132 192.391 36.4132C193.695 36.4132 194.823 36.7092 195.775 37.3012C196.735 37.8852 197.471 38.6932 197.983 39.7252C198.503 40.7572 198.763 41.9412 198.763 43.2772C198.763 44.5812 198.511 45.7492 198.007 46.7812C197.503 47.8052 196.775 48.6132 195.823 49.2052C194.879 49.7972 193.743 50.0932 192.415 50.0932Z" fill="black"/>
<path d="M201.371 49.7332V36.7732H203.747L208.391 45.7252L213.047 36.7732H215.411V49.7332H212.651V42.5932L208.967 49.7332H207.827L204.143 42.5932V49.7332H201.371Z" fill="black"/>
<path d="M218.738 49.7332V36.7732H229.994V49.7332H227.102V39.4852H221.63V49.7332H218.738Z" fill="black"/>
<path d="M2 80.4254L20.6314 99.0569H326.534L307.902 80.4254" stroke="black" stroke-width="4.33289"/>
</svg>
