<svg width="236" height="62" viewBox="0 0 236 62" fill="none" xmlns="http://www.w3.org/2000/svg">
<path fill-rule="evenodd" clip-rule="evenodd" d="M75 35.6438L82.2432 39.894C83.0036 40.3402 83.9274 39.6555 83.7217 38.7982L81.81 30.8313L88.1453 25.4955C88.8278 24.9206 88.4727 23.8074 87.5833 23.734L79.215 23.0438L75.9167 15.4778C75.5677 14.6773 74.4323 14.6773 74.0833 15.4778L70.785 23.0438L62.4167 23.734C61.5273 23.8074 61.1722 24.9206 61.8547 25.4955L68.19 30.8313L66.2783 38.7982C66.0726 39.6555 66.9964 40.3402 67.7568 39.894L75 35.6438Z" fill="#00A738"/>
<mask id="mask0_1_243558" style="mask-type:alpha" maskUnits="userSpaceOnUse" x="61" y="14" width="28" height="27">
<path fill-rule="evenodd" clip-rule="evenodd" d="M75 35.6438L82.2432 39.894C83.0036 40.3402 83.9274 39.6555 83.7217 38.7982L81.81 30.8313L88.1453 25.4955C88.8278 24.9206 88.4727 23.8074 87.5833 23.734L79.215 23.0438L75.9167 15.4778C75.5677 14.6773 74.4323 14.6773 74.0833 15.4778L70.785 23.0438L62.4167 23.734C61.5273 23.8074 61.1722 24.9206 61.8547 25.4955L68.19 30.8313L66.2783 38.7982C66.0726 39.6555 66.9964 40.3402 67.7568 39.894L75 35.6438Z" fill="white"/>
</mask>
<g mask="url(#mask0_1_243558)">
<rect x="57" y="9" width="36" height="35" fill="#0DAA41"/>
</g>
<path fill-rule="evenodd" clip-rule="evenodd" d="M111 35.6438L118.243 39.894C119.004 40.3402 119.927 39.6555 119.722 38.7982L117.81 30.8313L124.145 25.4955C124.828 24.9206 124.473 23.8074 123.583 23.734L115.215 23.0438L111.917 15.4778C111.568 14.6773 110.432 14.6773 110.083 15.4778L106.785 23.0438L98.4167 23.734C97.5273 23.8074 97.1722 24.9206 97.8547 25.4955L104.19 30.8313L102.278 38.7982C102.073 39.6555 102.996 40.3402 103.757 39.894L111 35.6438Z" fill="#00A738"/>
<mask id="mask1_1_243558" style="mask-type:alpha" maskUnits="userSpaceOnUse" x="97" y="14" width="28" height="27">
<path fill-rule="evenodd" clip-rule="evenodd" d="M111 35.6438L118.243 39.894C119.004 40.3402 119.927 39.6555 119.722 38.7982L117.81 30.8313L124.145 25.4955C124.828 24.9206 124.473 23.8074 123.583 23.734L115.215 23.0438L111.917 15.4778C111.568 14.6773 110.432 14.6773 110.083 15.4778L106.785 23.0438L98.4167 23.734C97.5273 23.8074 97.1722 24.9206 97.8547 25.4955L104.19 30.8313L102.278 38.7982C102.073 39.6555 102.996 40.3402 103.757 39.894L111 35.6438Z" fill="white"/>
</mask>
<g mask="url(#mask1_1_243558)">
<rect x="93" y="9" width="36" height="35" fill="#0DAA41"/>
</g>
<path fill-rule="evenodd" clip-rule="evenodd" d="M146.5 35.6438L153.484 39.8587C154.241 40.3158 155.175 39.6368 154.974 38.7754L153.121 30.8313L159.292 25.4852C159.961 24.906 159.603 23.8078 158.722 23.733L150.598 23.0438L147.421 15.5474C147.076 14.7343 145.924 14.7343 145.579 15.5474L142.402 23.0438L134.278 23.733C133.397 23.8078 133.04 24.906 133.708 25.4852L139.879 30.8313L138.026 38.7754C137.825 39.6368 138.759 40.3158 139.517 39.8587L146.5 35.6438Z" fill="#00A738"/>
<mask id="mask2_1_243558" style="mask-type:alpha" maskUnits="userSpaceOnUse" x="133" y="14" width="27" height="27">
<path fill-rule="evenodd" clip-rule="evenodd" d="M146.5 35.6438L153.484 39.8587C154.241 40.3158 155.175 39.6368 154.974 38.7754L153.121 30.8313L159.292 25.4852C159.961 24.906 159.603 23.8078 158.722 23.733L150.598 23.0438L147.421 15.5474C147.076 14.7343 145.924 14.7343 145.579 15.5474L142.402 23.0438L134.278 23.733C133.397 23.8078 133.04 24.906 133.708 25.4852L139.879 30.8313L138.026 38.7754C137.825 39.6368 138.759 40.3158 139.517 39.8587L146.5 35.6438Z" fill="white"/>
</mask>
<g mask="url(#mask2_1_243558)">
<rect x="129" y="9" width="35" height="35" fill="#0DAA41"/>
</g>
<path fill-rule="evenodd" clip-rule="evenodd" d="M182 35.6438L189.243 39.894C190.004 40.3402 190.927 39.6555 190.722 38.7982L188.81 30.8313L195.145 25.4955C195.828 24.9206 195.473 23.8074 194.583 23.734L186.215 23.0438L182.917 15.4778C182.568 14.6773 181.432 14.6773 181.083 15.4778L177.785 23.0438L169.417 23.734C168.527 23.8074 168.172 24.9206 168.855 25.4955L175.19 30.8313L173.278 38.7982C173.073 39.6555 173.996 40.3402 174.757 39.894L182 35.6438Z" fill="#00A738"/>
<mask id="mask3_1_243558" style="mask-type:alpha" maskUnits="userSpaceOnUse" x="168" y="14" width="28" height="27">
<path fill-rule="evenodd" clip-rule="evenodd" d="M182 35.6438L189.243 39.894C190.004 40.3402 190.927 39.6555 190.722 38.7982L188.81 30.8313L195.145 25.4955C195.828 24.9206 195.473 23.8074 194.583 23.734L186.215 23.0438L182.917 15.4778C182.568 14.6773 181.432 14.6773 181.083 15.4778L177.785 23.0438L169.417 23.734C168.527 23.8074 168.172 24.9206 168.855 25.4955L175.19 30.8313L173.278 38.7982C173.073 39.6555 173.996 40.3402 174.757 39.894L182 35.6438Z" fill="white"/>
</mask>
<g mask="url(#mask3_1_243558)">
<rect x="164" y="9" width="36" height="35" fill="#0DAA41"/>
</g>
<path fill-rule="evenodd" clip-rule="evenodd" d="M218 35.6438L225.243 39.894C226.004 40.3402 226.927 39.6555 226.722 38.7982L224.81 30.8313L231.145 25.4955C231.828 24.9206 231.473 23.8074 230.583 23.734L222.215 23.0438L218.917 15.4778C218.568 14.6773 217.432 14.6773 217.083 15.4778L213.785 23.0438L205.417 23.734C204.527 23.8074 204.172 24.9206 204.855 25.4955L211.19 30.8313L209.278 38.7982C209.073 39.6555 209.996 40.3402 210.757 39.894L218 35.6438Z" fill="#00A738"/>
<mask id="mask4_1_243558" style="mask-type:alpha" maskUnits="userSpaceOnUse" x="204" y="14" width="28" height="27">
<path fill-rule="evenodd" clip-rule="evenodd" d="M218 35.6438L225.243 39.894C226.004 40.3402 226.927 39.6555 226.722 38.7982L224.81 30.8313L231.145 25.4955C231.828 24.9206 231.473 23.8074 230.583 23.734L222.215 23.0438L218.917 15.4778C218.568 14.6773 217.432 14.6773 217.083 15.4778L213.785 23.0438L205.417 23.734C204.527 23.8074 204.172 24.9206 204.855 25.4955L211.19 30.8313L209.278 38.7982C209.073 39.6555 209.996 40.3402 210.757 39.894L218 35.6438Z" fill="white"/>
</mask>
<g mask="url(#mask4_1_243558)">
<rect x="200" y="9" width="36" height="35" fill="#0DAA41"/>
</g>
<path d="M14.248 33.496H7.912L14.248 23.74V33.496ZM13.672 17.8L0.856 37.528H14.176V43H18.496V37.528H21.268V33.496H18.496V17.8H13.672ZM24.2118 40.588C24.2118 41.38 24.4638 42.064 25.0398 42.604C25.5798 43.18 26.2638 43.432 27.0558 43.432C27.8478 43.432 28.4958 43.18 29.0718 42.604C29.6118 42.064 29.8998 41.38 29.8998 40.588C29.8998 39.796 29.6118 39.148 29.0718 38.572C28.4958 38.032 27.8478 37.744 27.0558 37.744C26.2638 37.744 25.5798 38.032 25.0398 38.572C24.4638 39.148 24.2118 39.796 24.2118 40.588ZM45.7657 24.676C45.7657 25.72 45.4057 26.548 44.6857 27.124C43.9657 27.736 43.1377 28.024 42.1297 28.024C41.1217 28.024 40.2577 27.736 39.5377 27.124C38.8177 26.548 38.4937 25.72 38.4937 24.676C38.4937 23.668 38.8177 22.84 39.5377 22.228C40.2577 21.652 41.1217 21.328 42.1297 21.328C43.1377 21.328 43.9657 21.652 44.6857 22.228C45.4057 22.84 45.7657 23.668 45.7657 24.676ZM42.1297 39.472C41.4097 39.472 40.7617 39.364 40.2577 39.148C39.7177 38.932 39.2857 38.644 38.9257 38.284C38.5657 37.924 38.2777 37.492 38.0977 36.988C37.9177 36.52 37.8457 36.016 37.8457 35.512C37.8457 35.008 37.9177 34.54 38.0977 34.072C38.2777 33.604 38.5657 33.172 38.9257 32.812C39.2857 32.452 39.7177 32.164 40.2577 31.948C40.7617 31.732 41.4097 31.624 42.1297 31.624C42.8497 31.624 43.4617 31.732 44.0017 31.948C44.5057 32.164 44.9737 32.452 45.3337 32.812C45.6937 33.172 45.9457 33.604 46.1257 34.072C46.3057 34.54 46.4137 35.008 46.4137 35.512C46.4137 36.016 46.3057 36.52 46.1257 36.988C45.9457 37.492 45.6937 37.924 45.3337 38.284C44.9737 38.644 44.5057 38.932 44.0017 39.148C43.4617 39.364 42.8497 39.472 42.1297 39.472ZM42.1297 17.368C40.7977 17.368 39.6457 17.584 38.6737 17.98C37.6657 18.412 36.8377 18.952 36.1897 19.6C35.5417 20.284 35.0377 21.04 34.7137 21.904C34.3537 22.768 34.2097 23.668 34.2097 24.532C34.2097 25.18 34.2817 25.792 34.4617 26.296C34.6057 26.836 34.8217 27.304 35.1097 27.7C35.3617 28.132 35.6497 28.492 36.0097 28.816C36.3337 29.14 36.6577 29.392 37.0177 29.608C36.5857 29.824 36.1897 30.076 35.7937 30.4C35.3617 30.724 35.0017 31.12 34.6417 31.624C34.2817 32.128 34.0297 32.704 33.8137 33.352C33.5977 34 33.4897 34.756 33.4897 35.548C33.4897 36.628 33.6697 37.636 34.0657 38.572C34.4257 39.544 35.0017 40.372 35.7577 41.092C36.4777 41.812 37.3777 42.388 38.4577 42.82C39.5377 43.252 40.7617 43.432 42.1297 43.432C43.4977 43.432 44.6857 43.252 45.7657 42.82C46.8457 42.388 47.7457 41.812 48.5017 41.092C49.2217 40.372 49.7977 39.544 50.1937 38.572C50.5537 37.636 50.7697 36.628 50.7697 35.548C50.7697 34.756 50.6617 34 50.4457 33.352C50.2297 32.704 49.9417 32.128 49.5817 31.624C49.2217 31.12 48.8617 30.724 48.4297 30.4C47.9977 30.076 47.6017 29.824 47.2417 29.608C47.5657 29.392 47.8897 29.14 48.2497 28.816C48.5737 28.492 48.8617 28.132 49.1497 27.7C49.4017 27.304 49.6177 26.836 49.7977 26.296C49.9417 25.792 50.0497 25.18 50.0497 24.532C50.0497 23.668 49.8697 22.768 49.5457 21.904C49.1857 21.04 48.6817 20.284 48.0337 19.6C47.3857 18.952 46.5577 18.412 45.5857 17.98C44.5777 17.584 43.4257 17.368 42.1297 17.368Z" fill="black"/>
</svg>
