<svg width="794" height="360" viewBox="0 0 794 360" fill="none" xmlns="http://www.w3.org/2000/svg">
<g clip-path="url(#clip0_4646_46)">
<path d="M107.6 1.90002H143.7C144.8 1.90002 145.6 2.20002 146.2 2.80002C146.8 3.40002 147.1 4.30002 147.1 5.30002V160.3C147.1 161.4 146.8 162.2 146.2 162.8C145.6 163.4 144.7 163.7 143.7 163.7H107.1C106 163.7 105.2 163.4 104.6 162.8C104 162.2 103.7 161.3 103.7 160.3V76.3C103.7 75.7 103.5 75.3 103.2 75.3C102.9 75.2 102.6 75.4 102.3 75.9L86.6 101.6C85.7 103.1 84.3 103.9 82.4 103.9H64.8C62.9 103.9 61.6 103.1 60.6 101.6L44.9 75.9C44.6 75.4 44.3 75.2 44 75.3C43.7 75.4 43.5 75.7 43.5 76.3V160.3C43.5 161.4 43.2 162.2 42.6 162.8C42 163.4 41.1 163.7 40.1 163.7H3.49998C2.39998 163.7 1.59998 163.4 0.999976 162.8C0.399976 162.2 0.0999756 161.3 0.0999756 160.3V5.30002C0.0999756 4.20002 0.399976 3.40002 0.999976 2.80002C1.59998 2.20002 2.49998 1.90002 3.49998 1.90002H39.6C41.5 1.90002 42.8 2.70002 43.8 4.20002L72.9 51.2C73.4 52.1 73.8 52.1 74.3 51.2L103.4 4.20002C104.3 2.60002 105.7 1.90002 107.6 1.90002Z" fill="white"/>
<path d="M168.4 162.9C167.8 162.3 167.5 161.4 167.5 160.4V5.30002C167.5 4.20002 167.8 3.40002 168.4 2.80002C169 2.20002 169.9 1.90002 170.9 1.90002H207.5C208.6 1.90002 209.4 2.20002 210 2.80002C210.6 3.40002 210.9 4.30002 210.9 5.30002V160.3C210.9 161.4 210.6 162.2 210 162.8C209.4 163.4 208.5 163.7 207.5 163.7H171C169.9 163.8 169 163.5 168.4 162.9Z" fill="white"/>
<path d="M312.5 161.2L287.1 102.4C286.8 101.8 286.3 101.5 285.7 101.5H276C275.2 101.5 274.8 101.9 274.8 102.7V160.3C274.8 161.4 274.5 162.2 273.9 162.8C273.3 163.4 272.4 163.7 271.4 163.7H234.8C233.7 163.7 232.9 163.4 232.3 162.8C231.7 162.2 231.4 161.3 231.4 160.3V5.30002C231.4 4.20002 231.7 3.40002 232.3 2.80002C232.9 2.20002 233.8 1.90002 234.8 1.90002H304.9C315.4 1.90002 324.6 4.10002 332.5 8.40002C340.4 12.7 346.6 18.8 351 26.6C355.4 34.4 357.6 43.4 357.6 53.6C357.6 63.8 355.1 72.7 350.1 80.3C345.1 87.9 338.2 93.5 329.4 97.1C328.6 97.4 328.4 97.9 328.7 98.7L358.1 159.8C358.4 160.7 358.6 161.3 358.6 161.4C358.6 162.2 358.3 162.8 357.7 163.3C357.1 163.8 356.3 164 355.4 164H316.5C314.5 163.8 313.1 162.9 312.5 161.2ZM274.8 40.3V67.4C274.8 68.2 275.2 68.6 276 68.6H297.7C302.6 68.6 306.6 67.3 309.7 64.6C312.8 61.9 314.3 58.4 314.3 54.1C314.3 49.6 312.8 46 309.7 43.3C306.6 40.6 302.6 39.3 297.7 39.3H276C275.2 39.1 274.8 39.5 274.8 40.3Z" fill="white"/>
<path d="M457.1 161.2L431.7 102.4C431.4 101.8 430.9 101.5 430.3 101.5H420.6C419.8 101.5 419.4 101.9 419.4 102.7V160.3C419.4 161.4 419.1 162.2 418.5 162.8C417.9 163.4 417 163.7 416 163.7H379.4C378.3 163.7 377.5 163.4 376.9 162.8C376.3 162.2 376 161.3 376 160.3V5.30002C376 4.20002 376.3 3.40002 376.9 2.80002C377.5 2.20002 378.4 1.90002 379.4 1.90002H449.5C460 1.90002 469.2 4.10002 477.1 8.40002C485 12.7 491.2 18.8 495.6 26.6C500 34.4 502.2 43.4 502.2 53.6C502.2 63.8 499.7 72.7 494.7 80.3C489.7 87.9 482.8 93.5 474 97.1C473.2 97.4 473 97.9 473.3 98.7L502.7 159.8C503 160.7 503.2 161.3 503.2 161.4C503.2 162.2 502.9 162.8 502.3 163.3C501.7 163.8 500.9 164 500 164H461C459 163.8 457.7 162.9 457.1 161.2ZM419.4 40.3V67.4C419.4 68.2 419.8 68.6 420.6 68.6H442.3C447.2 68.6 451.2 67.3 454.3 64.6C457.4 61.9 458.9 58.4 458.9 54.1C458.9 49.6 457.4 46 454.3 43.3C451.2 40.6 447.2 39.3 442.3 39.3H420.6C419.8 39.1 419.4 39.5 419.4 40.3Z" fill="white"/>
<path d="M549.3 158.8C539.5 153.6 531.9 146.4 526.5 137.1C521.1 127.8 518.4 116.9 518.4 104.6V61.1C518.4 49.1 521.1 38.4 526.5 29.2C531.9 19.9 539.5 12.8 549.3 7.69998C559.1 2.59998 570.4 0.0999756 583.2 0.0999756C596.2 0.0999756 607.5 2.59998 617.3 7.69998C627.1 12.8 634.7 20 640.1 29.2C645.5 38.5 648.2 49.1 648.2 61.1V104.6C648.2 116.9 645.5 127.8 640.1 137.1C634.7 146.4 627.1 153.7 617.3 158.8C607.5 164 596.1 166.5 583.2 166.5C570.4 166.6 559.1 164 549.3 158.8ZM598.8 123C602.7 118.8 604.7 113.1 604.7 106V60.6C604.7 53.5 602.7 47.8 598.8 43.6C594.9 39.4 589.7 37.2 583.2 37.2C576.9 37.2 571.7 39.3 567.8 43.6C563.9 47.8 561.9 53.5 561.9 60.6V106C561.9 113.1 563.9 118.8 567.8 123C571.7 127.2 576.9 129.4 583.2 129.4C589.7 129.3 594.9 127.2 598.8 123Z" fill="white"/>
<path d="M747.7 161.2L722.3 102.4C722 101.8 721.5 101.5 720.9 101.5H711.2C710.4 101.5 710 101.9 710 102.7V160.3C710 161.4 709.7 162.2 709.1 162.8C708.5 163.4 707.6 163.7 706.6 163.7H670C668.9 163.7 668.1 163.4 667.5 162.8C666.9 162.2 666.6 161.3 666.6 160.3V5.30002C666.6 4.20002 666.9 3.40002 667.5 2.80002C668.1 2.20002 669 1.90002 670 1.90002H740C750.5 1.90002 759.7 4.10002 767.6 8.40002C775.5 12.7 781.7 18.8 786.1 26.6C790.5 34.4 792.7 43.4 792.7 53.6C792.7 63.8 790.2 72.7 785.2 80.3C780.2 87.9 773.3 93.5 764.5 97.1C763.7 97.4 763.5 97.9 763.8 98.7L793.2 159.8C793.5 160.7 793.7 161.3 793.7 161.4C793.7 162.2 793.4 162.8 792.8 163.3C792.2 163.8 791.4 164 790.5 164H751.6C749.6 163.8 748.3 162.9 747.7 161.2ZM710 40.3V67.4C710 68.2 710.4 68.6 711.2 68.6H732.9C737.8 68.6 741.8 67.3 744.9 64.6C748 61.9 749.5 58.4 749.5 54.1C749.5 49.6 748 46 744.9 43.3C741.8 40.6 737.8 39.3 732.9 39.3H711.2C710.3 39.1 710 39.5 710 40.3Z" fill="white"/>
<path d="M105.5 272.4C112.4 276.3 117.5 281.2 120.8 287.2C124 293.2 125.7 300.5 125.7 308.9C125.7 324.8 120.1 336.5 109 343.9C97.9 351.4 83.5 355.1 65.7 355.1H3.49998C2.39998 355.1 1.59998 354.8 0.999976 354.2C0.399976 353.6 0.0999756 352.7 0.0999756 351.7V196.7C0.0999756 195.6 0.399976 194.8 0.999976 194.2C1.59998 193.6 2.49998 193.3 3.49998 193.3H63.6C83.3 193.3 98.2 196.8 108.1 203.8C118 210.8 123 222.6 123 239.1C123 253.8 117.1 264.4 105.4 271C104.9 271.4 104.9 271.9 105.5 272.4ZM43.5 231.7V254.8C43.5 255.6 43.9 256 44.7 256H63.7C75 256 80.6 251.8 80.6 243.3C80.6 234.8 75 230.6 63.7 230.6H44.7C43.9 230.5 43.5 230.9 43.5 231.7ZM82.1 304.3C82.1 295.7 76.7 291.3 65.9 291.3H44.6C43.8 291.3 43.4 291.7 43.4 292.5V316.8C43.4 317.6 43.8 318 44.6 318H65.7C76.6 317.9 82.1 313.4 82.1 304.3Z" fill="white"/>
<path d="M173.4 350.2C163.6 345 156 337.8 150.6 328.5C145.2 319.2 142.5 308.3 142.5 296V252.5C142.5 240.5 145.2 229.8 150.6 220.6C156 211.3 163.6 204.2 173.4 199.1C183.2 194 194.5 191.5 207.3 191.5C220.3 191.5 231.6 194 241.4 199.1C251.2 204.2 258.8 211.4 264.2 220.6C269.6 229.9 272.3 240.5 272.3 252.5V296C272.3 308.3 269.6 319.2 264.2 328.5C258.8 337.8 251.2 345.1 241.4 350.2C231.6 355.4 220.2 357.9 207.3 357.9C194.5 358 183.2 355.4 173.4 350.2ZM222.9 314.4C226.8 310.2 228.8 304.5 228.8 297.4V252C228.8 244.9 226.8 239.2 222.9 235C219 230.8 213.8 228.6 207.3 228.6C201 228.6 195.8 230.7 191.9 235C188 239.2 186 244.9 186 252V297.3C186 304.4 188 310.1 191.9 314.3C195.8 318.5 201 320.7 207.3 320.7C213.8 320.7 219 318.6 222.9 314.4Z" fill="white"/>
<path d="M319.4 350.2C309.6 345 302 337.8 296.6 328.5C291.2 319.2 288.5 308.3 288.5 296V252.5C288.5 240.5 291.2 229.8 296.6 220.6C302 211.3 309.6 204.2 319.4 199.1C329.2 194 340.5 191.5 353.3 191.5C366.3 191.5 377.6 194 387.4 199.1C397.2 204.2 404.8 211.4 410.2 220.6C415.6 229.9 418.3 240.5 418.3 252.5V296C418.3 308.3 415.6 319.2 410.2 328.5C404.8 337.8 397.2 345.1 387.4 350.2C377.6 355.4 366.2 357.9 353.3 357.9C340.4 358 329.1 355.4 319.4 350.2ZM368.9 314.4C372.8 310.2 374.8 304.5 374.8 297.4V252C374.8 244.9 372.8 239.2 368.9 235C365 230.8 359.8 228.6 353.3 228.6C347 228.6 341.8 230.7 337.9 235C334 239.2 332 244.9 332 252V297.3C332 304.4 334 310.1 337.9 314.3C341.8 318.5 347 320.7 353.3 320.7C359.7 320.7 364.9 318.6 368.9 314.4Z" fill="white"/>
<path d="M437.4 354.3C436.8 353.7 436.5 352.8 436.5 351.8V196.8C436.5 195.7 436.8 194.9 437.4 194.3C438 193.7 438.9 193.4 439.9 193.4H476.5C477.6 193.4 478.4 193.7 479 194.3C479.6 194.9 479.9 195.8 479.9 196.8V252C479.9 252.5 480.1 252.8 480.4 252.9C480.7 253.1 481 252.9 481.3 252.4L521.6 195.3C522.5 193.9 524 193.2 526 193.2H567.4C569.3 193.2 570.2 193.9 570.2 195.3C570.2 195.9 570 196.6 569.5 197.4L521.4 264.3C521.1 264.8 521.1 265.3 521.4 265.9L571.1 351C571.6 351.6 571.8 352.3 571.8 353.1C571.8 354.5 570.8 355.2 568.8 355.2H527.9C525.9 355.2 524.5 354.4 523.7 352.9L491.8 296C491.6 295.5 491.4 295.3 491.1 295.3C490.8 295.3 490.5 295.5 490.2 296L480.5 310.8C480.2 311.4 480 311.9 480 312.2V351.8C480 352.9 479.7 353.7 479.1 354.3C478.5 354.9 477.6 355.2 476.6 355.2H440C438.9 355.2 438.1 354.9 437.4 354.3Z" fill="white"/>
<path d="M606.3 350.7C596.6 346.5 589.1 340.4 583.7 332.5C578.4 324.6 575.7 315.5 575.7 305.2V302C575.7 300.9 576 300.1 576.6 299.5C577.2 298.9 578.1 298.6 579.1 298.6H615C616.1 298.6 616.9 298.9 617.5 299.5C618.1 300.1 618.4 301 618.4 302V303.4C618.4 307.7 620.7 311.5 625.2 314.9C629.7 318.2 635.8 319.9 643.4 319.9C649.1 319.9 653.2 318.7 655.7 316.3C658.2 313.9 659.4 311.3 659.4 308.3C659.4 304.9 657.9 302.4 654.8 300.7C651.7 299 646.1 296.9 637.9 294.5L631.2 292.6C615.9 288 603.1 281.8 592.8 274.1C582.5 266.4 577.3 255.2 577.3 240.6C577.3 230.9 579.9 222.3 585.2 214.8C590.4 207.3 597.7 201.6 606.8 197.6C616 193.6 626.3 191.6 637.7 191.6C649.7 191.6 660.6 193.8 670.4 198.3C680.2 202.8 687.9 209.1 693.5 217.3C699.1 225.5 701.9 234.8 701.9 245.3V247.4C701.9 248.5 701.6 249.3 701 249.9C700.4 250.5 699.5 250.8 698.5 250.8H662.6C661.5 250.8 660.7 250.5 660.1 249.9C659.5 249.3 659.2 248.4 659.2 247.4V247.2C659.2 242.6 657.1 238.4 653 234.6C648.8 230.8 643.2 228.9 636.1 228.9C631.2 228.9 627.3 229.9 624.4 231.9C621.5 233.9 620.1 236.7 620.1 240.2C620.1 243 621.1 245.3 623.2 247.3C625.3 249.2 628.5 251.1 632.8 252.9C637.1 254.7 643.7 256.9 652.7 259.7C653.9 260.2 659.4 261.8 669 264.7C678.6 267.6 686.7 272.7 693.2 280.2C699.7 287.7 702.9 296.7 702.9 307.4C702.9 317.7 700.3 326.6 695 334.1C689.8 341.6 682.4 347.3 673 351.3C663.6 355.3 652.6 357.3 640.1 357.3C627.4 357 616 354.9 606.3 350.7Z" fill="white"/>
</g>
<defs>
<clipPath id="clip0_4646_46">
<rect width="793.7" height="360" fill="white"/>
</clipPath>
</defs>
</svg>
